<?xml version="1.0" standalone="no"?>
<!DOCTYPE svg PUBLIC "-//W3C//DTD SVG 1.1//EN" "http://www.w3.org/Graphics/SVG/1.1/DTD/svg11.dtd" >
<svg xmlns="http://www.w3.org/2000/svg">
<metadata></metadata>
<defs>
<font id="berthold_akzidenz_groteskLtCn" horiz-adv-x="641" >
<font-face units-per-em="2048" ascent="1536" descent="-512" />
<missing-glyph horiz-adv-x="468" />
<glyph horiz-adv-x="0" />
<glyph horiz-adv-x="0" />
<glyph unicode="&#xd;" horiz-adv-x="512" />
<glyph unicode=" "  horiz-adv-x="468" />
<glyph unicode="&#x09;" horiz-adv-x="468" />
<glyph unicode="&#xa0;" horiz-adv-x="468" />
<glyph unicode="!" horiz-adv-x="382" d="M186 676v770h101v-787l-25 -278h-55zM188 0v184h93v-184h-93z" />
<glyph unicode="&#x22;" horiz-adv-x="811" d="M154 1448q0 49 27.5 67.5t54.5 18.5q31 0 57 -22.5t20 -65.5l-65 -520h-35l-57 493q0 8 -1 14.5t-1 14.5zM496 1448q0 49 28.5 67.5t53.5 18.5q33 0 58.5 -22.5t18.5 -65.5l-65 -520h-35l-57 493q0 8 -1 15.5t-1 13.5z" />
<glyph unicode="#" horiz-adv-x="1193" d="M12 539v84h363l31 227h-347v84h359l69 512h88l-67 -512h237l74 512h82l-67 -512h348v-84h-361l-33 -227h351v-84h-363l-78 -539h-86l78 539h-239l-78 -539h-86l75 539h-350zM463 623h237l33 227h-237z" />
<glyph unicode="$" horiz-adv-x="768" d="M96 436h92v-83t2.5 -58.5t5.5 -41.5t9 -34q23 -72 80 -100.5t104 -28.5q57 0 105 29q59 37 75.5 92t16.5 115q0 61 -12.5 105t-41 85t-75.5 86t-115 109q-70 61 -111 110t-62.5 93t-27.5 88.5t-6 99.5q0 90 22.5 142t56.5 81t74 39t72 14v74h60v-74q84 -12 129 -43.5 t66.5 -79t24.5 -105.5t3 -122h-96q0 59 -2 106.5t-17.5 82t-48.5 53t-92 18.5q-57 0 -89 -20.5t-46 -49t-16.5 -60.5t-2.5 -54q0 -57 7.5 -94t34 -77t77.5 -91t140 -135q55 -53 92 -99.5t58.5 -89.5t30.5 -87t9 -97q0 -27 -4 -77t-28.5 -102.5t-77 -96.5t-150.5 -58v-141 h-62v139q-68 10 -126 42t-93 91t-40 130t-5 175z" />
<glyph unicode="%" horiz-adv-x="1193" d="M41 752v475q0 25 3 62.5t21.5 73.5t58.5 61.5t114 25.5q68 0 104.5 -22.5t53 -57.5t19.5 -76t3 -77v-467q0 -18 -3 -55.5t-20.5 -73t-55.5 -62.5t-108 -27q-72 0 -110.5 28t-56 65t-20.5 73.5t-3 53.5zM119 760q0 -18 2 -44t12 -49.5t32.5 -41t65.5 -17.5q63 0 87 42 t24 100v475q0 25 -2 51.5t-12.5 46.5t-33 33.5t-63.5 13.5q-43 0 -65.5 -14.5t-32.5 -33.5t-12 -42t-2 -39v-481zM186 -119l750 1727q31 -10 53 -25l-751 -1726q-10 6 -25.5 13t-26.5 11zM766 211v473q0 25 3 62.5t21.5 73.5t58.5 61.5t114 25.5q68 0 104.5 -22.5t53 -57 t19.5 -75.5t3 -78v-467q0 -18 -3 -55t-20.5 -73t-55.5 -62.5t-108 -26.5q-72 0 -110.5 27.5t-56 64.5t-20.5 74t-3 55zM844 217q0 -16 2 -41.5t12 -50.5t32.5 -42t65.5 -17q63 0 87 42t24 99v477q0 25 -2 50.5t-12.5 46t-33 33.5t-63.5 13q-43 0 -65.5 -14t-32.5 -33.5 t-12 -42t-2 -39.5v-481z" />
<glyph unicode="&#x26;" horiz-adv-x="894" d="M66 270q0 63 16 118.5t44 105t62.5 94.5t71.5 90q-23 68 -46.5 150.5t-23.5 177.5q0 102 47.5 172.5t149.5 70.5q74 0 124 -45t50 -133q0 -98 -57.5 -192.5t-143.5 -206.5q43 -96 100.5 -210t153.5 -269q74 100 88.5 229t10.5 278h90q0 -113 -6 -196.5t-21.5 -150 t-41 -121t-62.5 -103.5q20 -16 52 -33.5t91 -17.5h21.5t21.5 2v-84q-53 0 -90 3t-64.5 10t-49 20.5t-46.5 31.5q-29 -23 -82 -51t-155 -28q-141 0 -223 77.5t-82 210.5zM156 283q0 -8 4 -44t25.5 -74t66.5 -68.5t127 -30.5q74 0 111.5 19t60.5 38q-78 123 -141.5 239 t-110.5 222q-25 -29 -49.5 -64t-46 -73.5t-34.5 -79.5t-13 -84zM274 1001q0 -31 8.5 -93t43.5 -142q20 27 45.5 62.5t48 75.5t38 82t15.5 81q0 43 -22.5 73.5t-69.5 30.5q-39 0 -61.5 -23.5t-31.5 -53t-11.5 -57t-2.5 -36.5z" />
<glyph unicode="'" horiz-adv-x="425" d="M133 1448q0 25 9.5 42t23.5 26.5t28.5 13.5t22.5 4q29 0 55.5 -21.5t20.5 -66.5l-66 -520h-34l-58 493q0 8 -1 14.5t-1 14.5z" />
<glyph unicode="(" horiz-adv-x="468" d="M59 596q0 94 17.5 206.5t64.5 237.5q31 80 61.5 140.5t62.5 107.5t63.5 85t62.5 75v-115q-18 -27 -40.5 -57.5t-45 -73.5t-47.5 -100.5t-47 -134.5q-59 -190 -59 -383q0 -92 17 -200t42 -196q41 -143 92 -224t90 -132v-117q-51 53 -105.5 123t-111.5 201 q-18 41 -38.5 100.5t-38 131t-29 154.5t-11.5 171z" />
<glyph unicode=")" horiz-adv-x="468" d="M76 1331v119q51 -53 105.5 -123t111.5 -203q18 -41 38.5 -100t38 -131t29 -154t11.5 -170q0 -98 -17.5 -209.5t-64.5 -236.5q-31 -80 -61.5 -140.5t-62.5 -107.5t-63.5 -85t-62.5 -73v115q18 27 40.5 57.5t45 73.5t47.5 100.5t47 135.5q59 188 59 381q0 92 -17 200.5 t-42 194.5q-41 145 -92 226t-90 130z" />
<glyph unicode="*" horiz-adv-x="555" d="M53 1251l21 68l166 -47v174h73v-174l168 55l23 -63l-170 -64l102 -141l-57 -43l-105 141l-92 -141l-61 43l98 145z" />
<glyph unicode="+" horiz-adv-x="1024" d="M63 551v90h406v399h90v-399h399v-90h-399v-404h-90v404h-406z" />
<glyph unicode="," horiz-adv-x="299" d="M102 -139q31 20 41.5 45.5t10.5 93.5h-50v186h93v-186q0 -49 -7.5 -80t-19.5 -51.5t-29.5 -31.5t-38.5 -21v45z" />
<glyph unicode="-" horiz-adv-x="512" d="M76 555v88h362v-88h-362z" />
<glyph unicode="." horiz-adv-x="299" d="M106 0v184h91v-184h-91z" />
<glyph unicode="/" d="M70 0l409 1446h92l-407 -1446h-94z" />
<glyph unicode="0" horiz-adv-x="724" d="M74 326v804q0 29 5 82.5t32.5 106.5t89 93t174.5 40q59 0 104 -15.5t80 -39.5q20 -14 37.5 -35t31 -53.5t20.5 -80.5t7 -120v-799q0 -104 -33.5 -164.5t-80.5 -93.5t-96.5 -42t-79.5 -9q-49 0 -97.5 13.5t-85.5 41.5q-66 49 -87 121t-21 150zM168 346q0 -53 7 -106.5 t50 -94.5q33 -33 70 -44t67 -11q37 0 73 12.5t63.5 39t45 67.5t17.5 98v838q0 74 -18.5 116t-47 64.5t-62.5 28.5t-62 6q-76 0 -117 -25.5t-60.5 -62.5t-22.5 -76t-3 -66v-784z" />
<glyph unicode="1" horiz-adv-x="724" d="M102 1155v80q106 16 166 73.5t82 129.5h92v-1438h-102v1260q-74 -63 -126 -80t-112 -25z" />
<glyph unicode="2" horiz-adv-x="724" d="M84 0v104q0 23 25.5 71t60.5 103.5t72 109.5t61 87q74 104 118 181t66.5 143.5t28.5 132t6 149.5q0 39 -2 88.5t-17.5 92.5t-47 71.5t-90.5 28.5q-61 0 -94 -27.5t-48.5 -70.5t-18.5 -93.5t-3 -93.5v-98h-90v137q0 41 4 97.5t27.5 108.5t74.5 89t145 37q31 0 73 -9 t83 -40q53 -41 74.5 -105.5t21.5 -179.5t-7 -194.5t-32.5 -155.5t-78 -161t-142.5 -210q-49 -68 -76.5 -107.5t-46 -70.5t-31 -58.5t-30.5 -70.5h453v-86h-539z" />
<glyph unicode="3" horiz-adv-x="724" d="M72 440h90q2 -72 4 -121t7 -82.5t13.5 -56t22.5 -43.5q23 -29 60.5 -48t90.5 -19q35 0 70 12t62.5 38.5t44 71t16.5 105.5q0 111 -2 175.5t-14 102.5q-14 51 -50 80t-79 44.5t-87.5 20.5t-78.5 7v94q131 0 200.5 59.5t69.5 151.5v121q0 35 -4 72t-19.5 66.5t-47 49 t-89.5 19.5q-57 0 -88 -21.5t-45 -50t-16 -60.5t-2 -54v-154h-90v158q0 29 4 73.5t26.5 87.5t73.5 75t143 32t142.5 -34t73 -79t26.5 -89t4 -64v-140q0 -70 -20.5 -115.5t-52 -75.5t-67.5 -45.5t-67 -27.5q37 -8 80 -22.5t80 -46t61.5 -90t24.5 -154.5v-154q0 -23 -4 -76 t-31.5 -108t-87 -98t-168.5 -43q-25 0 -54.5 5t-60 17t-60.5 34.5t-52 59.5q-16 27 -26.5 56.5t-15.5 67.5t-7 90.5t-4 125.5z" />
<glyph unicode="4" horiz-adv-x="724" d="M39 461v94l373 881h127v-889h172v-86h-172v-461h-93v461h-407zM131 547h313v756z" />
<glyph unicode="5" horiz-adv-x="724" d="M94 309v146h90v-113q0 -47 3 -94t18.5 -84t48.5 -60.5t94 -23.5q68 0 103.5 24.5t52 65.5t19.5 95t3 114v299q0 25 -3 60.5t-18.5 69.5t-46 57.5t-87.5 23.5q-63 0 -98 -23.5t-51.5 -55.5t-19.5 -65.5t-3 -54.5h-76v750h475v-88h-383v-430q29 18 66.5 36.5t97.5 18.5 q90 0 138 -41t70.5 -95.5t26.5 -108.5t4 -83v-270q0 -59 -4 -128t-28.5 -126t-77.5 -95t-152 -38q-98 0 -151 34.5t-78 84t-29 104.5t-4 94z" />
<glyph unicode="6" horiz-adv-x="724" d="M98 330v825q0 80 19.5 134t60.5 93q8 6 23.5 18.5t41 25t62.5 21.5t88 9q80 0 132.5 -25.5t76.5 -58.5q41 -49 47 -119.5t6 -189.5l-92 -2q0 61 -3 117.5t-19.5 97.5t-51 65.5t-100.5 24.5q-29 0 -63.5 -9t-63.5 -32q-53 -41 -61 -93t-8 -93v-348q29 25 80 56.5t137 31.5 q72 0 123 -30t79 -73q8 -12 15.5 -26.5t13.5 -41t9 -70.5t3 -114v-266q0 -86 -31.5 -139t-76.5 -81t-92 -37t-78 -9q-39 0 -90.5 11t-98.5 50q-53 45 -70.5 109.5t-17.5 167.5zM190 340q0 -31 3.5 -75t19.5 -84t54 -68.5t106 -28.5q29 0 61.5 8t61.5 31q66 49 65 160v299 q0 18 -2 53t-17.5 68.5t-47 59t-91.5 25.5q-55 0 -106 -26q-18 -10 -37.5 -24.5t-35 -38t-25 -59.5t-9.5 -87v-213z" />
<glyph unicode="7" horiz-adv-x="724" d="M98 1350v88h553v-88q-31 -70 -59.5 -134.5t-54 -134t-51 -148.5t-52.5 -177q-43 -168 -66.5 -309.5t-23.5 -282.5v-164h-100v96q0 104 9 198.5t21.5 173.5t26.5 140.5t23 98.5q29 115 55.5 200.5t54 159.5t57 140.5t64.5 142.5h-457z" />
<glyph unicode="8" horiz-adv-x="724" d="M84 303v248q0 72 16.5 118t41 73.5t52 42t50.5 24.5q-86 39 -113 84t-27 125v201q0 18 4.5 59t29 81t76.5 70.5t148 30.5t149.5 -27.5t79 -68.5t31 -87t5.5 -83v-168q0 -57 -12.5 -95t-32 -60.5t-47 -36t-58.5 -25.5q41 -14 73 -34.5t53.5 -52.5t31.5 -79t10 -117v-264 q0 -16 -4 -61t-30.5 -93.5t-82 -85t-159.5 -36.5q-59 0 -112.5 17t-92.5 52q-53 49 -66.5 113.5t-13.5 134.5zM178 322q0 -31 3 -73t20.5 -81t56.5 -66.5t109 -27.5t106.5 27.5t54 63.5t20.5 71.5t3 52.5v252q0 16 -3 53t-19.5 74t-54.5 65.5t-105 28.5q-72 0 -111 -26.5 t-56.5 -61.5t-20.5 -71t-3 -54v-227zM199 1018q0 -61 22.5 -94t51 -48.5t55 -18.5t34.5 -3q12 0 40 3t56.5 20.5t51 54.5t22.5 104v144q0 29 -3 63.5t-19 63t-51 48t-101 19.5q-59 0 -92 -18.5t-48 -45t-17 -54t-2 -44.5v-194z" />
<glyph unicode="9" horiz-adv-x="724" d="M68 389h94v-110q0 -16 3 -50t19.5 -68t52 -58.5t101.5 -24.5q72 0 111.5 24.5t59 59.5t24 70.5t4.5 60.5v369q-43 -41 -99.5 -65t-115.5 -24t-107.5 18.5t-77.5 47.5q-25 25 -39 53.5t-20 58t-7 56.5t-1 45v254q0 70 7 136.5t48 119.5t103.5 75.5t125.5 22.5q16 0 42 -3 t54.5 -10t58.5 -22.5t54 -40.5q53 -53 61.5 -122.5t8.5 -141.5v-819q0 -23 -4 -75t-32 -105t-87 -94t-168 -41q-74 0 -139.5 28.5t-100.5 89.5q-12 25 -19 49.5t-10 56.5t-4 75t-1 104zM166 831q0 -82 43 -124.5t108 -42.5q23 0 64 8t80 39q55 43 66.5 102t11.5 119v192 q0 37 -3.5 80t-21.5 80t-56 60.5t-108 23.5q-27 0 -58.5 -6t-59 -26.5t-47 -57.5t-19.5 -96v-351z" />
<glyph unicode=":" horiz-adv-x="382" d="M188 0v184h91v-184h-91zM188 748v184h91v-184h-91z" />
<glyph unicode=";" horiz-adv-x="382" d="M184 -139q29 20 41.5 45.5t10.5 93.5h-50v186h93v-186q0 -49 -7.5 -80t-19.5 -51.5t-28.5 -31.5t-37.5 -21zM186 745v187h95v-187h-95z" />
<glyph unicode="&#x3c;" horiz-adv-x="1024" d="M0 666v120l1024 521v-103l-934 -477l934 -487v-101z" />
<glyph unicode="=" horiz-adv-x="1024" d="M0 375v90h1024v-90h-1024zM0 735v90h1024v-90h-1024z" />
<glyph unicode="&#x3e;" horiz-adv-x="1024" d="M0 139v101l934 487l-934 477v103l1024 -521v-120z" />
<glyph unicode="?" horiz-adv-x="724" d="M143 1130q0 31 4.5 88.5t28 112.5t75.5 97t146 42q49 0 86 -13t63.5 -34.5t44 -46t27.5 -49.5q6 -16 12.5 -36.5t11.5 -51.5t7 -74t2 -106q0 -68 -6 -113t-20.5 -81t-35 -69.5t-50.5 -78.5q-31 -45 -50.5 -74t-28.5 -49.5t-12.5 -36.5t-3.5 -41v-160h-96v168q0 31 4 53.5 t13.5 45t28 50t44.5 68.5q35 51 57.5 86t36 66t18.5 64.5t5 82.5q0 66 -4 128.5t-19.5 110.5t-48 76.5t-90.5 28.5q-57 0 -89 -31.5t-46 -74.5t-16 -89t-2 -77q0 -29 1 -60.5t1 -64.5h-95q-2 55 -3 85t-1 58zM348 0v184h96v-184h-96z" />
<glyph unicode="@" horiz-adv-x="1835" d="M141 475q0 188 70 364.5t193.5 314.5t298 221t382.5 83q145 0 259 -43t192 -122t118 -186.5t40 -236.5q0 -135 -39 -265t-103.5 -231.5t-149.5 -164t-175 -62.5q-20 0 -42 5.5t-44 17.5q-57 35 -64.5 85t-5.5 95q-18 -25 -47 -58.5t-67.5 -65t-89 -53t-111.5 -21.5 q-41 0 -88 15t-86 56q-31 31 -47.5 66t-25.5 70.5t-11 66.5t-2 51q0 109 34.5 211.5t93 184t135.5 131t163 49.5q66 0 108.5 -24.5t71 -58.5t44 -69t23.5 -57l37 162h109l-66 -297q-10 -45 -20 -95.5t-19.5 -98.5t-15.5 -92t-6 -77q0 -43 18.5 -78t63.5 -35q47 0 107.5 50.5 t112.5 136.5t88 202.5t36 247.5q0 121 -38 216.5t-108.5 161t-172 100t-226.5 34.5q-172 0 -326.5 -73.5t-270.5 -197.5t-183.5 -289t-67.5 -347q0 -164 57.5 -285.5t154.5 -203.5t224 -122t267 -40q190 0 362 74q133 53 211 115.5t125 107.5l47 -53q-45 -43 -118.5 -104.5 t-196.5 -117.5q-123 -57 -228.5 -77.5t-199.5 -20.5q-152 0 -293 45t-251 135t-175.5 226.5t-65.5 320.5zM621 477q0 -106 52 -167.5t136 -61.5q63 0 123.5 39t105.5 108q20 31 38 71t30 83t19.5 85t7.5 77q0 80 -23 129t-53.5 75.5t-63 34.5t-55.5 8q-78 0 -137.5 -49 t-99 -120.5t-60 -155.5t-20.5 -156z" />
<glyph unicode="A" horiz-adv-x="768" d="M49 0l264 1454h140l262 -1454h-107l-73 440h-304l-75 -440h-107zM248 535h268l-113 669q-4 16 -9 56t-11 81q-2 -16 -3 -29.5t-3 -29.5q-4 -16 -5 -32.5t-5 -32.5z" />
<glyph unicode="B" horiz-adv-x="768" d="M123 0v1448h260q35 0 78 -4t81 -25.5t64.5 -70t26.5 -138.5v-206q0 -63 -14.5 -103.5t-38 -63t-54 -33.5t-65.5 -20q68 -10 110.5 -28.5t67.5 -50t34 -77.5t9 -112v-246q0 -49 -10 -97t-39 -87t-83 -62.5t-140 -23.5h-287zM221 823h98q78 0 121 19.5t63.5 50.5t24.5 66.5 t4 66.5v174q0 98 -40.5 129t-143.5 31h-127v-537zM223 88h170q68 0 106 17.5t56 48t22.5 71.5t4.5 88v205q0 37 -7.5 76t-33 70.5t-75.5 51t-138 19.5h-105v-647z" />
<glyph unicode="C" horiz-adv-x="768" d="M106 328v784q0 84 9.5 147.5t66.5 118.5q45 49 99.5 65.5t111.5 16.5q43 0 85 -9t77 -32q16 -10 36.5 -26.5t37 -44t28 -68.5t11.5 -98v-203h-101v135t-3 84t-7 52.5t-14 37.5q-20 41 -58.5 60.5t-81.5 19.5q-109 0 -153.5 -62.5t-44.5 -172.5v-705q0 -70 3 -134.5 t21.5 -113.5t59.5 -78.5t117 -29.5q66 0 101.5 25.5t51.5 59t19.5 67.5t3.5 50v224h102v-224q0 -27 -4 -77t-31.5 -99t-88 -85t-171.5 -36q-82 0 -134 28t-85 67q-33 41 -48.5 94t-15.5 162z" />
<glyph unicode="D" horiz-adv-x="811" d="M123 0v1448h123q145 0 234 -35t138.5 -106.5t65.5 -184t16 -268.5v-322q0 -131 -8 -194.5t-22 -104.5q-12 -37 -37 -77.5t-67 -75.5t-104.5 -57.5t-148.5 -22.5h-190zM223 90q49 0 86 1t68 5t57.5 15.5t52.5 29.5q20 16 41 39t37.5 65t26.5 108.5t10 170.5v330 q0 109 -7 189.5t-26 138.5q-23 66 -59.5 100.5t-82.5 50t-98.5 18.5t-105.5 3v-1264z" />
<glyph unicode="E" horiz-adv-x="681" d="M121 0v1446h512v-90h-412v-557h338v-88h-340v-621h412v-90h-510z" />
<glyph unicode="F" d="M119 0v1446h512v-90h-412v-557h363v-88h-363v-711h-100z" />
<glyph unicode="G" horiz-adv-x="811" d="M113 373v760q0 35 5 90t32.5 108t89 92t174.5 39q47 0 92 -11t82 -34q41 -27 62.5 -60.5t30.5 -66.5t11 -62.5t2 -45.5v-201h-98v149q0 37 -3 80t-20.5 80t-55.5 61.5t-109 24.5q-66 0 -102 -22.5t-54 -46.5q-31 -41 -36 -88.5t-5 -133.5v-684q0 -86 4 -133t16 -80 q23 -61 68 -90.5t98 -29.5q33 0 69 16t66.5 49t50 85t19.5 122v231h-213v88h311v-659h-75v115q-8 -14 -25.5 -38t-46.5 -45.5t-70 -36.5t-98 -15q-8 0 -33.5 2t-57.5 12t-65.5 32.5t-60.5 63.5q-8 12 -17.5 29.5t-17.5 50.5t-14 81t-6 122z" />
<glyph unicode="H" horiz-adv-x="811" d="M119 0v1446h100v-643h373v643h100v-1446h-100v715h-373v-715h-100z" />
<glyph unicode="I" horiz-adv-x="342" d="M119 0v1446h104v-1446h-104z" />
<glyph unicode="J" horiz-adv-x="681" d="M86 248v207h98v-187q0 -33 2 -62.5t15 -55.5q16 -37 51 -58.5t82 -21.5q6 0 27.5 4t45 20.5t42 53t18.5 100.5v1198h100v-1182q0 -20 -4 -68.5t-28.5 -95.5t-75.5 -83.5t-146 -36.5q-27 0 -65.5 9t-74.5 36.5t-61.5 81t-25.5 141.5z" />
<glyph unicode="K" horiz-adv-x="724" d="M119 0v1446h100v-709l361 709h112l-307 -576l311 -870h-106l-266 750l-107 -201v-549h-98z" />
<glyph unicode="L" d="M119 0v1446h100v-1356h377v-90h-477z" />
<glyph unicode="M" horiz-adv-x="1024" d="M111 0l12 1446h147l162 -832q18 -100 30.5 -160.5t19.5 -106.5t14.5 -89t15.5 -104q8 68 14 112.5t12.5 84.5t13.5 83t19 103l179 909h145l14 -1446h-94l-4 1085v77t1 56.5t2 58.5t3 81l-260 -1358h-94l-260 1364q4 -111 5 -230.5t1 -236.5v-897h-98z" />
<glyph unicode="N" horiz-adv-x="811" d="M113 0v1446h147l350 -1403q-4 57 -7 147.5t-3 200.5l-8 1055h98v-1446h-153l-342 1382q2 -61 4 -104t3 -80t1 -76v-94l4 -1028h-94z" />
<glyph unicode="O" horiz-adv-x="811" d="M113 309v815q0 86 13 138.5t38 87.5q41 59 106.5 85.5t141.5 26.5q70 0 132 -24.5t101 -81.5t45 -127t6 -135v-797q0 -45 -8 -98.5t-39 -100.5q-27 -41 -86 -78.5t-162 -37.5q-109 0 -167 38.5t-85.5 91t-31.5 108.5t-4 89zM209 348q0 -104 15.5 -155.5t62.5 -86.5 q50 -34 115 -34h4q57 0 96 24q66 37 82 101.5t16 136.5v704q0 84 -8 161t-51 122q-25 25 -61 38t-74 13q-86 0 -138 -51q-23 -20 -35 -47t-17 -51.5t-6 -46t-1 -31.5v-797z" />
<glyph unicode="P" horiz-adv-x="768" d="M117 -2v1450h225q94 0 168 -13.5t121 -72.5q35 -45 43 -102.5t8 -135.5v-163q0 -27 -1 -59t-9 -63.5t-26.5 -62.5t-51.5 -55q-31 -25 -64.5 -37t-65.5 -18.5t-58.5 -7.5t-38.5 -1h-148v-659h-102zM217 743h162q74 0 115 20.5t60 52.5t24.5 71t5.5 74v124q0 84 -7.5 137.5 t-30 84t-64.5 43t-111 12.5h-154v-619z" />
<glyph unicode="Q" horiz-adv-x="811" d="M111 469v653q0 31 5 88.5t32.5 114.5t89 99t174.5 42q106 0 164.5 -41t85 -95t30.5 -106.5t4 -76.5v-801q0 -74 -10 -123t-27.5 -85t-40 -59.5t-49.5 -43.5l189 -172l-62 -64l-217 195q-23 -4 -41 -7t-41 -3q-66 0 -125 23.5t-98 74.5q-45 66 -54 154t-9 233zM209 424 q0 -57 3 -118.5t20.5 -113t56.5 -85t108 -33.5q76 0 117 35.5t59.5 82t21.5 91.5t3 61v805q0 98 -44 161.5t-148 63.5q-74 0 -114 -30.5t-58.5 -72.5t-21.5 -86t-3 -73v-688z" />
<glyph unicode="R" horiz-adv-x="768" d="M121 0v1446h278q41 0 91.5 -6t93.5 -32t72.5 -76t29.5 -138v-225q0 -23 -3 -60t-22.5 -75.5t-60.5 -72.5t-117 -48l267 -713h-107l-264 705h-158v-705h-100zM221 791h182q86 0 131.5 35.5t45.5 117.5v223q0 61 -12.5 99.5t-36 59t-54.5 27.5t-67 7h-189v-569z" />
<glyph unicode="S" horiz-adv-x="768" d="M86 270v203h100v-115q0 -82 5.5 -132t37.5 -91q35 -45 85.5 -56t82.5 -11q109 0 148 61t39 174q0 61 -9.5 106.5t-34 88.5t-65.5 88t-102 106t-107.5 111.5t-79 100.5t-49 108.5t-16.5 134.5q0 45 7 100.5t33.5 104.5t82 81.5t149.5 32.5q102 0 156.5 -32.5t80 -83 t30 -108.5t4.5 -109v-105h-99v129q0 33 -3 72t-18.5 72.5t-50 56t-98.5 22.5q-98 0 -136 -55t-38 -162q0 -53 8.5 -94t34 -86t73.5 -101.5t130 -140.5q55 -57 96 -102t67.5 -91t40 -99.5t13.5 -126.5q0 -51 -7 -111.5t-37 -112t-88 -86.5t-163 -35q-63 0 -118.5 16.5 t-96.5 52.5t-64.5 91.5t-23.5 132.5z" />
<glyph unicode="T" d="M14 1356v92h611v-92h-258v-1356h-101v1356h-252z" />
<glyph unicode="U" horiz-adv-x="811" d="M117 342v1106h98v-1122q0 -37 3 -82t21.5 -84t57.5 -64.5t111 -25.5q41 0 81.5 15t67.5 54q12 16 18.5 33.5t10.5 45.5t5 68t1 99v1063h100v-1159q0 -23 -4 -74t-31.5 -104.5t-87 -94.5t-168.5 -41q-47 0 -96 13.5t-88 42.5q-37 29 -57.5 64.5t-29.5 75.5t-11 84t-2 87z " />
<glyph unicode="V" horiz-adv-x="724" d="M55 1446h105l141 -879q10 -70 17.5 -113.5t12.5 -82.5t10 -83t13 -114q10 72 16.5 117t12.5 86t14.5 89t20.5 124l147 856h103l-262 -1446h-105z" />
<glyph unicode="W" horiz-adv-x="1150" d="M43 1446h102q23 -135 36.5 -218t23.5 -151.5t22.5 -140.5t30.5 -184q23 -131 35 -214t20.5 -144.5t13.5 -114t11 -123.5q6 70 11 114.5t10.5 85.5t12.5 89.5t19 123.5l135 877h107l139 -887q8 -57 14.5 -95t11.5 -78t11 -89t14 -129q10 98 17.5 161.5t14.5 122t18.5 129 t29.5 183.5l107 682h100l-236 -1446h-108l-135 905q-14 96 -27.5 190.5t-23.5 190.5q-8 -84 -15.5 -141.5t-15.5 -117.5t-20.5 -140t-32.5 -209q-10 -63 -26.5 -170t-32 -212.5t-28 -189t-16.5 -106.5h-104z" />
<glyph unicode="X" horiz-adv-x="724" d="M49 0l262 797l-202 649h104l123 -420q8 -29 12 -46t7 -30.5t6.5 -27t7.5 -33.5q6 27 10 44t9 34.5t12.5 41t19.5 60.5l117 377h104l-219 -651l254 -795h-105l-163 532q-16 53 -24.5 86t-18.5 82q-4 -23 -7.5 -37t-7.5 -29.5t-10 -34.5t-16 -50l-172 -549h-103z" />
<glyph unicode="Y" horiz-adv-x="724" d="M29 1446h106l230 -680l231 680h111l-295 -807v-639h-99v639z" />
<glyph unicode="Z" horiz-adv-x="724" d="M55 0v66l480 1292h-394v88h510v-68q-55 -147 -99 -260.5t-80 -210t-67.5 -182.5t-67.5 -180t-76 -204t-93 -251h481v-90h-594z" />
<glyph unicode="[" horiz-adv-x="468" d="M109 -289v1737h290v-76h-202v-1583h202v-78h-290z" />
<glyph unicode="\" d="M70 1446h90l413 -1446h-94z" />
<glyph unicode="]" horiz-adv-x="468" d="M66 1372v76h294v-1737h-286v78h198v1583h-206z" />
<glyph unicode="^" horiz-adv-x="1492" d="M348 743l352 705h103l344 -705h-115l-282 590l-289 -590h-113z" />
<glyph unicode="_" horiz-adv-x="1024" d="M-20 -154h1064v-102h-1064v102z" />
<glyph unicode="`" horiz-adv-x="468" d="M45 1389h199l178 -224h-68z" />
<glyph unicode="a" d="M57 242q0 74 20.5 126t53.5 89t74 62.5t80 45.5t63.5 33.5t42 24t31.5 20.5l35 25v118q0 35 -3 66t-16.5 53.5t-40 35.5t-71.5 13q-51 0 -79 -18t-41 -51t-15.5 -77t-2.5 -95h-88q0 59 4.5 116.5t26 103.5t69.5 74.5t136 28.5q78 0 121 -26.5t62.5 -62.5t22.5 -73.5 t3 -62.5v-692q0 -27 19.5 -32t41.5 -5v-82q-68 0 -100.5 14.5t-46.5 65.5q-35 -27 -81 -53.5t-118 -26.5q-55 0 -93 19.5t-62.5 53t-36 78t-11.5 91.5zM145 240q0 -61 31 -109.5t103 -48.5q68 0 108.5 31.5t71.5 66.5v391q-12 -8 -21.5 -14t-22 -13t-30.5 -17.5t-49 -26.5 q-39 -23 -74 -44.5t-60.5 -51t-41 -68.5t-15.5 -96z" />
<glyph unicode="b" horiz-adv-x="681" d="M106 0v1446h87v-504q12 14 27.5 31.5t37 33t52 25.5t71.5 10q76 0 117 -32.5t59 -76.5t21.5 -90t3.5 -75v-528q0 -115 -62.5 -180.5t-154.5 -65.5q-39 0 -67 10t-48.5 24.5t-32.5 30t-20 25.5v-84h-91zM195 279q0 -55 15 -94.5t39.5 -64t53.5 -36.5t55 -12q51 0 86 34 q39 37 45.5 86.5t6.5 77.5v502q0 82 -31 135.5t-107 53.5q-31 0 -59.5 -10.5t-52 -33t-37.5 -57.5t-14 -86v-495z" />
<glyph unicode="c" d="M82 295v475q0 18 4 61t25.5 87.5t69.5 78t136 33.5q86 0 134.5 -31.5t71 -76.5t27.5 -91.5t5 -76.5v-90h-86v71.5t-1 49t-4 35t-7 28.5q-14 47 -48 76.5t-87 29.5q-57 0 -88 -24.5t-45.5 -56t-16.5 -63.5t-2 -46v-442q0 -41 2 -84t17.5 -79t48 -59.5t94.5 -23.5 q53 0 82.5 21.5t43 49t15.5 55t2 42.5v149h90v-133q0 -27 -4 -72t-27.5 -88t-73.5 -74.5t-145 -31.5q-47 0 -80.5 11t-56 26.5t-34 30t-15.5 18.5q-35 47 -41 105.5t-6 109.5z" />
<glyph unicode="d" horiz-adv-x="681" d="M98 252v516q0 88 23.5 140.5t56.5 79t69 34.5t58 8q82 0 121 -33.5t61 -64.5v514h86v-1446h-79v109q-8 -14 -22.5 -35t-38 -39.5t-55.5 -30.5t-75 -12q-76 0 -118 33.5t-61.5 77.5t-22.5 87t-3 62zM184 268q0 -18 2 -52t15.5 -65.5t42 -56t82.5 -24.5q45 0 75.5 19.5 t50 45t27.5 50t8 34.5v547q0 10 -6 40t-23.5 61.5t-49 56t-80.5 24.5q-10 0 -34 -4t-48.5 -21.5t-43 -53t-18.5 -101.5v-500z" />
<glyph unicode="e" d="M88 250v538q0 119 60.5 183.5t170.5 64.5q90 0 138.5 -32.5t71 -82t26.5 -105.5t4 -103v-207h-385v-254q0 -100 44 -137t108 -37q8 0 25.5 1t38 9t38.5 25.5t31 50.5q6 12 8 23.5t4 31t2 51v86.5h86v-114q0 -117 -61.5 -180.5t-175.5 -63.5q-37 0 -79 10t-83 47 q-43 37 -57.5 83t-14.5 112zM174 578h297v190q0 12 -2 44t-16.5 63.5t-44 57t-84.5 25.5t-86 -24.5t-45.5 -56t-16.5 -65.5t-2 -52v-182z" />
<glyph unicode="f" horiz-adv-x="382" d="M35 948v84h123v207q0 20 3 55t19.5 69t54 58.5t105.5 24.5q14 0 26.5 -1t26.5 -3v-80q-10 2 -18 2h-17q-43 0 -67.5 -15.5t-34.5 -37t-12 -43t-2 -33.5v-203h127v-84h-131v-948h-86v948h-117z" />
<glyph unicode="g" horiz-adv-x="681" d="M96 -104h86q0 -14 3 -38t16.5 -45.5t42 -37t80.5 -15.5q8 0 34.5 3.5t55 18.5t51 48t22.5 92v172q-29 -31 -68.5 -60.5t-111.5 -29.5q-76 0 -116.5 32t-60 77t-23 93t-3.5 81v520q0 41 8.5 82t32 74.5t64.5 55t106 21.5q76 0 114 -33.5t58 -60.5v88h88v-1081 q0 -23 -1 -49.5t-9 -56t-23.5 -58.5t-45.5 -53q-35 -33 -81 -46.5t-93 -13.5q-68 0 -105 18.5t-47 24.5q-51 35 -61.5 82t-12.5 95zM190 283q0 -25 2.5 -59t14.5 -64.5t39.5 -52t79.5 -21.5q45 0 75.5 20.5t50 46t27.5 51t8 38.5v577q0 10 -8 34t-26.5 48.5t-48 43 t-72.5 18.5q-53 0 -82 -22.5t-42 -54.5t-15.5 -67t-2.5 -59v-477z" />
<glyph unicode="h" horiz-adv-x="681" d="M111 0v1448h88v-498q23 25 65.5 58.5t120.5 33.5q37 0 70.5 -11t58.5 -30q27 -20 41 -45.5t21.5 -50t8.5 -48t1 -40.5v-817h-88v764q0 25 -2 58.5t-14.5 63t-40 50t-79.5 20.5q-66 0 -116 -47q-23 -23 -32 -45t-15 -45v-819h-88z" />
<glyph unicode="i" horiz-adv-x="299" d="M104 0v1032h86v-1032h-86zM104 1151v160h86v-160h-86z" />
<glyph unicode="j" horiz-adv-x="342" d="M14 -246q49 12 75 36t38 54.5t14 66.5t2 73v1046h86v-1093q0 -27 -3 -66t-23.5 -79t-64.5 -74.5t-124 -51.5v88zM143 1149v160h86v-160h-86z" />
<glyph unicode="k" d="M106 0v1446h87v-899l296 485h101l-240 -395l264 -637h-96l-225 545l-98 -162v-383h-89z" />
<glyph unicode="l" horiz-adv-x="299" d="M106 0v1446h89v-1446h-89z" />
<glyph unicode="m" horiz-adv-x="1067" d="M106 0v1030h91v-86q8 10 23.5 26.5t40 32t56 27.5t72.5 12q45 0 75 -13t50.5 -32.5t31.5 -40t17 -36.5q10 16 27.5 36.5t42 40t59.5 32.5t80 13q59 0 112.5 -32.5t69.5 -104.5q8 -29 9.5 -66.5t1.5 -109.5v-729h-88v737q0 61 -1.5 90t-7.5 52q-14 53 -52 68.5t-66 15.5 q-49 0 -82 -19.5t-52.5 -44.5t-27.5 -45l-8 -20v-834h-88v813q0 16 -3.5 42t-15.5 48q-16 27 -46 43.5t-67 16.5q-43 0 -74.5 -16.5t-51 -37t-29.5 -39t-10 -20.5v-850h-89z" />
<glyph unicode="n" horiz-adv-x="681" d="M113 0v1032h86v-100q10 18 25.5 37.5t45.5 40.5q51 32 115 32h4q23 0 50.5 -5t56.5 -21q33 -18 51 -45t26.5 -53.5t9.5 -50t1 -40.5v-827h-86v825q0 82 -42 112t-85 30q-39 0 -75 -16.5t-60 -45.5q-16 -18 -23.5 -34.5t-13.5 -32.5v-838h-86z" />
<glyph unicode="o" d="M80 248v540q0 78 25.5 126.5t62.5 76t80 36.5t78 9q88 0 136 -30.5t69.5 -72.5t25.5 -84t4 -67v-489q0 -61 -8 -109.5t-37 -91.5q-25 -37 -55.5 -56.5t-60 -28.5t-52 -10t-31.5 -1q-14 0 -53 4t-84 31q-66 37 -83 94t-17 123zM168 250q0 -12 2 -41t16.5 -57.5t44 -50 t84.5 -21.5q63 0 110.5 38t47.5 140v514q0 14 -2 44t-16.5 59.5t-43 52t-83.5 22.5q-59 0 -92 -22.5t-48.5 -54t-17.5 -66.5t-2 -59v-498z" />
<glyph unicode="p" horiz-adv-x="681" d="M111 -334v1364h88v-90q8 12 22.5 28.5t38 33t55 27.5t74.5 11q78 0 120 -44t58 -91q12 -39 14.5 -80t2.5 -92v-500q0 -68 -19.5 -112.5t-50.5 -72.5t-67.5 -40t-71.5 -12q-78 0 -117 31.5t-59 56.5v-418h-88zM199 193q0 -6 9 -26t27.5 -40.5t49 -35.5t73.5 -15 q51 0 79 21.5t41.5 52t15.5 65.5t2 61v525q0 53 -14.5 85t-35 48t-44 22.5t-40.5 6.5q-43 0 -73.5 -17.5t-51 -40t-29.5 -45t-9 -33.5v-634z" />
<glyph unicode="q" horiz-adv-x="681" d="M100 256v506q0 92 16.5 136t33.5 67q23 29 47 44t46.5 23t41 9t26.5 1q43 0 72 -10t49.5 -24.5t31.5 -30.5t19 -29v84h86v-1366h-86v430q-6 -10 -18 -27.5t-34.5 -34t-54.5 -28.5t-79 -12q-20 0 -55 7t-70 38q-47 43 -59.5 98.5t-12.5 118.5zM186 336q0 -72 1 -105.5 t12 -60.5q16 -53 52 -75.5t71 -22.5q61 0 110 51q31 35 39 67.5t12 65.5v492q0 98 -44 155.5t-115 57.5q-43 0 -67 -19.5t-30 -28.5q-29 -31 -35 -68.5t-6 -90.5v-418z" />
<glyph unicode="r" horiz-adv-x="425" d="M109 0v1030h84v-180q10 23 24 48.5t38 51t60.5 53t92.5 54.5v-117q-31 -8 -57.5 -19.5t-52.5 -33t-51.5 -59t-51.5 -101.5v-727h-86z" />
<glyph unicode="s" horiz-adv-x="598" d="M57 362h86v-90q0 -25 2 -57.5t17.5 -62t48.5 -51t92 -21.5q31 0 57.5 7t48 26.5t34 53.5t12.5 85q0 41 -6.5 67.5t-24.5 53t-52 56.5t-89 77q-43 37 -78 68.5t-59.5 66.5t-37 76t-12.5 96q0 33 6.5 72t29 71.5t65.5 55t116 22.5q80 0 124 -27.5t64.5 -65.5t23.5 -80 t3 -73v-71h-88q0 59 -2 103t-14 74t-38 44t-73 14q-49 0 -74.5 -14t-38 -34.5t-14.5 -44t-2 -40.5q0 -35 4.5 -60.5t23.5 -55t60 -68.5t115 -100q37 -31 65.5 -56.5t49 -56.5t31 -71t10.5 -97q0 -59 -15.5 -113.5t-58.5 -91.5q-25 -20 -64.5 -35.5t-101.5 -15.5q-49 0 -83 8 t-55.5 20.5t-33.5 23.5t-18 18q-41 45 -48.5 110.5t-7.5 183.5z" />
<glyph unicode="t" horiz-adv-x="382" d="M16 948v84h109v262h90v-262h156v-84h-156v-772q0 -41 9 -69.5t67 -28.5q16 0 39.5 1t40.5 3v-80q-45 -6 -92 -6q-92 0 -122 30.5t-30 90.5v831h-111z" />
<glyph unicode="u" horiz-adv-x="681" d="M102 238v794h86v-774q0 -25 3.5 -56.5t16.5 -61t40.5 -50t75.5 -20.5q39 0 66.5 14t46 34.5t29.5 44t17 40.5v829h88v-1030h-88v96q-10 -12 -25.5 -30.5t-38 -34t-52 -26.5t-70.5 -11q-63 0 -113 33q-31 20 -47 47.5t-24.5 57.5t-9.5 56.5t-1 47.5z" />
<glyph unicode="v" horiz-adv-x="555" d="M29 1030h90l121 -678q8 -43 12 -70.5t8 -49t7 -44t7 -57.5q4 37 7.5 58.5t6.5 40l6 37t7 46.5l125 717h94l-196 -1030h-101z" />
<glyph unicode="w" horiz-adv-x="894" d="M29 1030h88l84 -512q4 -27 11 -71t15.5 -95t17.5 -107.5t15 -107.5q4 35 7 58.5t7.5 47t10.5 55.5t14 81l115 651h71l142 -883q6 41 11 83t13 83q2 12 8.5 46t13.5 72t13 73t8 49l86 477h90l-198 -1030h-88l-107 657q-4 29 -7 49.5t-6 40t-6 46t-7 67.5 q-6 -37 -9.5 -60.5t-6.5 -41t-5 -31.5t-6 -37l-123 -690h-90z" />
<glyph unicode="x" d="M25 0l223 537l-203 493h92l117 -303q2 -6 8 -21.5t13.5 -34t13.5 -34.5t8 -23q10 29 18.5 52.5t20.5 54.5l125 309h94l-207 -483l219 -547h-96l-133 348q-16 39 -23.5 63.5t-15.5 59.5q-4 -16 -8 -27.5t-8 -24.5t-11.5 -30.5t-19.5 -48.5l-131 -340h-96z" />
<glyph unicode="y" horiz-adv-x="598" d="M18 -248q12 -2 22.5 -3t22.5 -1q51 0 82 17.5t49.5 41t25.5 47t9 35.5l25 119l-223 1024h88l180 -856l182 856h92l-264 -1147q-18 -78 -48 -122t-66.5 -65.5t-81.5 -26.5t-95 -5v86z" />
<glyph unicode="z" horiz-adv-x="598" d="M74 0v76l352 868h-324v86h428v-69l-356 -875h356v-86h-456z" />
<glyph unicode="{" horiz-adv-x="724" d="M205 547v67q78 10 105.5 75t27.5 214v164q0 66 8 130.5t37 116.5t83 88t146 44v-64q-53 -12 -89 -32.5t-58.5 -55t-31.5 -87t-9 -130.5q0 -125 -2 -210t-13.5 -141t-37 -89t-72.5 -53v-6q45 -18 69.5 -49t37 -80.5t15.5 -118t3 -162.5q0 -86 3 -151.5t20.5 -113.5 t56.5 -78t108 -46v-64q-98 8 -153.5 48t-82 96.5t-32.5 121t-6 125.5v134q0 152 -22.5 223.5t-110.5 83.5z" />
<glyph unicode="|" horiz-adv-x="468" d="M188 -512v2048h91v-2048h-91z" />
<glyph unicode="}" horiz-adv-x="724" d="M113 -221q53 12 89 32.5t58.5 55.5t31.5 88t9 129q0 125 2 210t13.5 141.5t37 89t72.5 53.5v6q-45 18 -69.5 49t-37 80t-15.5 117.5t-3 162.5q0 86 -3 151.5t-20.5 114t-55.5 78t-109 45.5v64q98 -8 153.5 -48t82 -96.5t32.5 -121t6 -125.5v-133q0 -150 22.5 -222.5 t110.5 -85.5v-67q-78 -12 -105.5 -74.5t-27.5 -214.5v-164q0 -66 -8 -130t-37 -116.5t-83 -88t-146 -44.5v64z" />
<glyph unicode="~" horiz-adv-x="1492" d="M297 569q10 16 29.5 43t47 51.5t66.5 42t88 17.5q27 0 49.5 -4t49 -13.5t60.5 -23.5t79 -35q45 -20 74.5 -34.5t49 -21.5t35 -10t29.5 -3q35 0 64 12t52.5 31.5t41.5 43t35 44.5l51 -80q-39 -53 -75 -84t-66.5 -46.5t-56 -19.5t-44.5 -4q-18 0 -34.5 2t-38 9.5t-51 20.5 t-72.5 34q-86 41 -136.5 60.5t-97.5 19.5q-63 0 -101 -37t-79 -92z" />
<glyph unicode="&#xa1;" horiz-adv-x="382" d="M96 1266v182h92v-182h-92zM98 0v788l19 279h53l29 -299v-768h-101z" />
<glyph unicode="&#xa2;" d="M82 295v475q0 76 18.5 124t47 76.5t64.5 41t71 16.5v127h59v-125q29 -4 72 -14t82 -51q23 -27 35 -54.5t17 -63.5t6 -80t1 -103h-86v71.5t-1 49t-4 35t-7 28.5q-14 47 -48 76.5t-87 29.5q-57 0 -88 -24.5t-45.5 -56t-16.5 -63.5t-2 -46v-442q0 -41 2 -84t17.5 -79 t48 -59.5t94.5 -23.5q53 0 82.5 21.5t43 49t15.5 55t2 42.5v149h90v-133q0 -31 -3 -72t-23.5 -79.5t-62.5 -70.5t-122 -42v-139h-59v139q-80 8 -123 42t-63.5 79t-23.5 93t-3 85z" />
<glyph unicode="&#xa3;" horiz-adv-x="768" d="M53 0v100q53 10 109.5 26.5t109.5 70.5q43 41 63.5 95t20.5 114q0 80 -25.5 127t-47.5 75h-224v74h174q-16 33 -28 60.5t-19.5 61.5t-11.5 81t-4 119q0 63 4 124.5t29 110.5q8 16 24.5 36.5t41 39t60.5 32t85 13.5q72 0 129 -33t84 -96q8 -18 13 -35.5t8 -48.5t4 -82 t1 -137h-92v44.5v59.5t-1 58.5t-1 39.5q0 10 -4 34t-19.5 48.5t-44 43t-81.5 18.5q-55 0 -84 -22.5t-43.5 -56.5t-16.5 -72t-2 -68q0 -70 1 -120t9.5 -91t23.5 -78t46 -84h221v-74h-174q18 -29 40 -76t22 -131q0 -74 -19.5 -125t-49.5 -86.5t-62.5 -57t-59.5 -36.5 q12 0 48 -3t76 -6t76 -5t50 -2q86 0 128 6t77 14v-88q-31 -6 -78 -13t-111 -7q-18 0 -66 3t-102.5 7t-103.5 7t-70 3q-41 0 -69.5 -4t-63.5 -8z" />
<glyph unicode="&#xa4;" horiz-adv-x="1366" d="M141 223l150 148q-20 31 -42 61.5t-39 68.5t-27.5 84t-10.5 105q0 63 11.5 113.5t28.5 89.5t38.5 69.5t40.5 57.5l-146 145l68 68l143 -146q23 16 52.5 37t68.5 38.5t90 29.5t117 12t118 -12t92 -30.5t67.5 -39t46.5 -35.5l147 146l68 -68l-146 -147q20 -29 41 -59.5 t37 -68.5t26.5 -86t10.5 -114q0 -63 -12.5 -113.5t-29.5 -89t-37.5 -66.5t-39.5 -50l150 -150l-70 -67l-147 147q-23 -16 -51.5 -36.5t-66.5 -38t-88 -29t-116 -11.5q-68 0 -119 11.5t-89 29t-66.5 38t-51.5 38.5l-149 -147zM264 698q0 -94 34 -171.5t91 -134t134 -87.5 t163 -31q88 0 164 33t131 89.5t87 134t32 165.5q0 98 -36 177t-93.5 132.5t-131 82t-151.5 28.5q-98 0 -176 -34.5t-133 -92t-85 -133.5t-30 -158z" />
<glyph unicode="&#xa5;" horiz-adv-x="724" d="M29 1448h106l234 -684l241 684h97l-224 -612h176v-88h-208l-31 -89v-34h239v-88h-247v-537h-99v537h-247v88h239v34l-31 89h-208v88h178z" />
<glyph unicode="&#xa6;" horiz-adv-x="468" d="M190 358h91v-716h-91v716zM190 666v716h91v-716h-91z" />
<glyph unicode="&#xa7;" horiz-adv-x="768" d="M92 125v108h92v-60.5t1 -65t2 -56t3 -37.5q10 -47 38 -72.5t58.5 -38t57.5 -14.5t35 -2q76 0 117 25t59 58.5t21.5 71.5t3.5 64q0 55 -5.5 87t-25 56.5t-56 48.5t-102.5 60q-72 41 -127 74t-94 69t-58.5 78t-19.5 99q0 78 35 133t94 98q-18 14 -37.5 33t-35 45.5 t-25.5 65.5t-10 96q0 96 24.5 157.5t64.5 96.5t92 47t109 12q100 0 154.5 -29.5t79.5 -69.5t29 -81t4 -61v-166h-90v149q0 23 -3.5 51.5t-19.5 56t-52 46t-104 18.5q-117 0 -156.5 -61.5t-39.5 -165.5q0 -51 13 -86t41 -62.5t68 -52t93 -53.5q72 -39 125 -71.5t88 -66.5 t52 -76t17 -101q0 -86 -33.5 -143.5t-64.5 -98.5q49 -51 58.5 -104.5t9.5 -127.5q0 -37 -6.5 -85t-30.5 -93q-41 -70 -108.5 -96.5t-143.5 -26.5q-109 0 -168 34t-87 83t-32 104.5t-4 98.5zM180 692q0 -57 30 -97t109 -89q49 -29 118 -67t118 -66q18 23 37.5 59.5 t19.5 108.5q0 86 -31.5 129t-76.5 71q-12 8 -44 26.5t-69 39t-70 40t-45 27.5q-96 -63 -96 -182z" />
<glyph unicode="&#xa8;" horiz-adv-x="468" d="M84 1198v158h98v-158h-98zM287 1198v158h98v-158h-98z" />
<glyph unicode="&#xa9;" horiz-adv-x="1705" d="M125 725q0 154 57.5 287t155.5 230t231 153.5t287 56.5q150 0 282 -55.5t230 -152.5t155.5 -231t57.5 -294q0 -147 -55.5 -278.5t-152.5 -230.5t-230 -157.5t-289 -58.5q-141 0 -273 53t-233.5 149.5t-162 230.5t-60.5 298zM190 725q0 -143 53.5 -265t143.5 -211 t211 -139.5t256 -50.5q141 0 262 52.5t210 142.5t139.5 211t50.5 256q0 139 -50.5 260t-138.5 211t-209 142t-262 52t-263 -52t-211 -143t-140.5 -211t-51.5 -255zM401 723q0 104 38 191t101.5 149.5t148.5 96.5t177 34q82 0 144.5 -21.5t108.5 -52t76 -63.5t48 -56l-67 -61 q-18 23 -44 50.5t-63 53t-86 43t-113 17.5q-74 0 -141 -27.5t-119.5 -78t-83 -120t-30.5 -153.5q0 -82 30.5 -150.5t81.5 -118.5t118 -78t140 -28q66 0 115 16.5t86 41t63.5 53t45.5 51.5l67 -55q-66 -92 -165 -144.5t-212 -52.5q-94 0 -178 35t-147.5 96.5t-101.5 146.5 t-38 185z" />
<glyph unicode="&#xaa;" horiz-adv-x="382" d="M33 1004q0 43 12 72.5t28.5 50t34 32.5t29.5 19q31 16 69 38.5t54 32.5q0 84 -8 117t-59 33q-53 0 -61.5 -38t-10.5 -97h-64q0 31 2 65.5t14.5 64t41 48t82.5 18.5q49 0 75.5 -16.5t39 -40t14.5 -50t2 -48.5v-361q0 -16 8 -19t24 -5v-58q-55 -4 -72.5 8.5t-27.5 26.5 q-16 -10 -43 -23.5t-61 -13.5q-55 0 -89 40t-34 104zM102 1006q0 -41 20.5 -61.5t47.5 -20.5q33 0 56.5 18.5t33.5 28.5v200q-43 -20 -72.5 -37.5t-48 -35t-28 -39t-9.5 -53.5z" />
<glyph unicode="&#xab;" horiz-adv-x="768" d="M55 600l256 205h125l-258 -203l250 -207h-123zM344 600l256 205h121l-250 -205l240 -205h-115z" />
<glyph unicode="&#xac;" horiz-adv-x="1366" d="M0 551v92h1366v-641h-90v549h-1276z" />
<glyph unicode="&#xad;" horiz-adv-x="512" d="M76 555v88h362v-88h-362z" />
<glyph unicode="&#xae;" horiz-adv-x="1705" d="M125 723q0 158 58.5 291t158.5 230t231.5 152.5t278.5 55.5q154 0 287 -56.5t232 -154.5t155.5 -232t56.5 -290q0 -145 -55 -276.5t-152.5 -231.5t-231.5 -158.5t-292 -58.5q-141 0 -273.5 53t-232.5 149.5t-160.5 230.5t-60.5 296zM190 723q0 -141 52.5 -262t143.5 -210 t212 -140.5t256 -51.5q143 0 264 53.5t210 143.5t139.5 210t50.5 253q0 139 -50.5 261t-139.5 212t-211 142t-265 52q-135 0 -255 -51t-211 -140t-143.5 -211t-52.5 -261zM578 274v902h262q78 0 123 -3.5t86 -19.5q59 -23 94 -76t35 -119q0 -82 -53.5 -144t-161.5 -77 q47 -14 76.5 -37.5t46 -52.5t23.5 -59.5t11 -59.5q8 -51 13.5 -85.5t12.5 -62.5t15 -52.5t23 -53.5h-119q-4 10 -9 23.5t-14 38.5q-2 10 -7 40t-10 63.5t-10 63t-7 42.5q-12 61 -39 94t-67 48t-95 17.5t-127 2.5v-433h-102zM682 791h170q23 0 59.5 2t72.5 17t62.5 47 t26.5 89q0 43 -20.5 80t-61.5 53q-29 12 -63.5 14.5t-102.5 2.5h-143v-305z" />
<glyph unicode="&#xaf;" horiz-adv-x="468" d="M41 1198v86h385v-86h-385z" />
<glyph unicode="&#xb0;" horiz-adv-x="724" d="M72 1233q0 61 22.5 113.5t62.5 92.5t93 62.5t112 22.5q61 0 113.5 -22.5t92.5 -62.5t62.5 -93.5t22.5 -112.5t-22.5 -112.5t-62.5 -93.5t-92 -62.5t-114 -22.5q-59 0 -112 22.5t-93 62.5t-62.5 93.5t-22.5 112.5zM164 1233q0 -86 58.5 -143.5t139.5 -57.5q41 0 77 15.5 t63.5 43t44 63.5t16.5 79q0 84 -58.5 141.5t-142.5 57.5q-82 0 -140 -57.5t-58 -141.5z" />
<glyph unicode="&#xb1;" horiz-adv-x="1024" d="M63 0v94h900v-94h-900zM63 696v92h406v404h94v-404h400v-92h-400v-403h-94v403h-406z" />
<glyph unicode="&#xb2;" horiz-adv-x="468" d="M51 543q0 53 1 68.5t7 29.5q8 20 14.5 33.5t15.5 30t25.5 40t45.5 62.5q49 70 80.5 117t50 90t26 87t7.5 107q0 29 -1 58.5t-9.5 54.5t-27 41t-50.5 16q-33 0 -51.5 -15t-28 -35.5t-10.5 -41t-1 -31.5v-110h-73v110q0 18 3 51t18.5 66t48 57.5t94.5 24.5q61 0 95 -24.5 t49 -58.5t17 -69.5t2 -56.5q0 -78 -4 -130t-21.5 -100t-53 -104.5t-99.5 -146.5q-27 -39 -43 -62.5t-25.5 -39t-13.5 -25.5t-8 -23h268v-71h-348z" />
<glyph unicode="&#xb3;" horiz-adv-x="468" d="M49 733q-2 53 0 98h74q0 -51 3 -94t13.5 -72.5t33 -46t60.5 -16.5q41 0 63.5 18.5t33 43t12.5 50t2 38.5v67.5t-1 39.5t-2 24.5t-5 17.5q-8 31 -29.5 48.5t-47.5 25.5t-52.5 11t-44.5 3v76q53 2 86 14.5t50 31.5t23.5 45t6.5 56q0 86 -10.5 126t-75.5 40q-31 0 -47.5 -10 t-23.5 -25.5t-9 -33t-2 -33.5l-4 -102h-74q0 53 1 84.5t2 50t3 29t6 22.5q16 45 55 68.5t95 23.5q59 0 92 -21.5t48 -52t17 -63.5t2 -55q0 -41 -2 -76t-11 -63.5t-30.5 -51t-62.5 -39.5q43 -16 67.5 -38.5t37 -49.5t15.5 -56.5t3 -60.5q0 -49 -3 -101t-20.5 -95t-54.5 -71 t-106 -28q-74 0 -113 30t-55.5 75t-18.5 98z" />
<glyph unicode="&#xb4;" horiz-adv-x="468" d="M51 1161l172 223h195l-293 -223h-74z" />
<glyph unicode="&#xb5;" horiz-adv-x="681" d="M102 -334v1366h86v-776q0 -16 2.5 -47t14.5 -61.5t39.5 -54t79.5 -23.5q39 0 66.5 14t46 34.5t29.5 44t17 40.5v829h88v-1032h-88v98q-35 -47 -74.5 -74.5t-95.5 -27.5q-55 0 -78.5 16.5t-46.5 40.5v-387h-86z" />
<glyph unicode="&#xb6;" horiz-adv-x="1366" d="M190 1057q0 61 23 139t96 147q55 49 132 76t206 27h432v-76h-67v-1712h-80v1712h-336v-1712h-80v1034q-51 6 -105.5 21.5t-115.5 72.5q-53 53 -79 124t-26 147z" />
<glyph unicode="&#xb7;" horiz-adv-x="299" d="M102 500v184h91v-184h-91z" />
<glyph unicode="&#xb8;" horiz-adv-x="468" d="M68 -264l38 45q29 -16 56.5 -27.5t56.5 -11.5q37 0 55.5 21.5t18.5 43.5q0 25 -12.5 40.5t-30 24.5t-36.5 14t-34 8l8 159h70l-8 -102q59 -18 103 -52t46 -98q0 -20 -8 -42.5t-24.5 -42t-44 -32t-68.5 -12.5q-57 0 -101 20.5t-85 43.5z" />
<glyph unicode="&#xb9;" horiz-adv-x="468" d="M88 1249v72q59 16 91 40.5t50 86.5h70v-905h-80v762q-20 -16 -48 -30.5t-83 -25.5z" />
<glyph unicode="&#xba;" horiz-adv-x="382" d="M45 1024v270q0 16 2 45t16.5 56.5t43 48t83.5 20.5q53 0 83 -20.5t43.5 -47t15.5 -52t2 -35.5v-285q0 -18 -2 -47t-16.5 -54.5t-45 -45t-86.5 -19.5q-51 0 -79.5 18.5t-42 45t-15.5 54.5t-2 48zM109 1024q0 -12 1 -28.5t8 -33t23.5 -27.5t44.5 -11q31 0 46.5 10 t23.5 25.5t9 33t1 31.5v270q0 16 -1 35t-8 34t-23.5 25.5t-45.5 10.5q-31 0 -46 -11.5t-23 -28t-9 -34.5t-1 -31v-270z" />
<glyph unicode="&#xbb;" horiz-adv-x="768" d="M41 391l254 207l-238 203h113l250 -203l-254 -207h-125zM326 391l264 205l-250 205h125l248 -203l-258 -207h-129z" />
<glyph unicode="&#xbc;" horiz-adv-x="1193" d="M88 1249v72q59 16 91 40.5t50 86.5h70v-905h-80v762q-20 -16 -48 -30.5t-83 -25.5zM188 -121l750 1729q10 -4 25.5 -11.5t27.5 -11.5l-753 -1728q-10 4 -24.5 11t-25.5 11zM762 268v88l229 547h96v-561h107v-74h-107v-268h-75v268h-250zM827 342h185v453z" />
<glyph unicode="&#xbd;" horiz-adv-x="1193" d="M88 1249v74q59 16 91 39.5t50 85.5h70v-905h-80v762q-20 -16 -48 -30.5t-83 -25.5zM170 -119l750 1729q10 -4 26.5 -12.5t26.5 -12.5l-754 -1728q-10 4 -24.5 11t-24.5 13zM776 0q0 53 1 68.5t7 29.5q8 20 14.5 33.5t15.5 30t25.5 40t45.5 62.5q49 70 80.5 117t50 90 t26 87t7.5 108q0 29 -1 58.5t-9.5 54t-27 41t-50.5 16.5q-33 0 -51.5 -15.5t-28 -36t-10.5 -41t-1 -30.5v-111h-73v111q0 18 3 51t18.5 65.5t48 57t94.5 24.5q61 0 95 -24.5t49 -58t17 -69.5t2 -57q0 -78 -4 -130t-21.5 -100t-53 -104.5t-99.5 -146.5q-27 -39 -43 -62.5 t-25.5 -39t-13.5 -25.5t-8 -22h268v-72h-348z" />
<glyph unicode="&#xbe;" horiz-adv-x="1193" d="M49 733q-2 53 0 98h74q0 -51 3 -94t13.5 -72.5t33 -46t60.5 -16.5q41 0 63.5 18.5t33 43t12.5 50t2 38.5v67.5t-1 39.5t-2 24.5t-5 17.5q-8 31 -29.5 48.5t-47.5 25.5t-52.5 11t-44.5 3v76q53 2 86 14.5t50 31.5t23.5 45t6.5 56q0 86 -10.5 126t-75.5 40q-31 0 -47.5 -10 t-23.5 -25.5t-9 -33t-2 -33.5l-4 -102h-74q0 53 1 84.5t2 50t3 29t6 22.5q16 45 55 68.5t95 23.5q59 0 92 -21.5t48 -52t17 -63.5t2 -55q0 -41 -2 -76t-11 -63.5t-30.5 -51t-62.5 -39.5q43 -16 67.5 -38.5t37 -49.5t15.5 -56.5t3 -60.5q0 -49 -3 -101t-20.5 -95t-54.5 -71 t-106 -28q-74 0 -113 30t-55.5 75t-18.5 98zM229 -121l750 1731q12 -6 27.5 -13.5t25.5 -11.5l-753 -1728q-10 4 -24.5 11t-25.5 11zM760 268v88l231 547h96v-561h107v-74h-107v-268h-75v268h-252zM827 342h185v453z" />
<glyph unicode="&#xbf;" horiz-adv-x="724" d="M74 389q0 66 6 111t20.5 80.5t35 69.5t50.5 79q31 47 50.5 74.5t28.5 48t12.5 38t3.5 42.5v160h96v-174q0 -31 -4 -52.5t-13.5 -44t-27 -49.5t-45.5 -67q-35 -51 -57.5 -86t-36 -66t-18.5 -64.5t-5 -80.5q0 -66 4 -128.5t19.5 -110.5t48 -78t90.5 -30q57 0 89 32t46 75 t16 89t2 77t-1 62.5t-1 62.5h95q2 -55 3 -85t1 -59q0 -31 -4.5 -87t-28 -112.5t-74.5 -97.5t-147 -41q-94 0 -146.5 46.5t-75.5 95.5q-6 16 -12 36.5t-11 51.5t-7 75t-2 107zM281 1262v184h96v-184h-96z" />
<glyph unicode="&#xc0;" horiz-adv-x="768" d="M49 0l264 1454h140l262 -1454h-107l-73 440h-304l-75 -440h-107zM121 1802h198l181 -221h-66zM248 535h268l-113 669q-4 16 -9 56t-11 81q-2 -16 -3 -29.5t-3 -29.5q-4 -16 -5 -32.5t-5 -32.5z" />
<glyph unicode="&#xc1;" horiz-adv-x="768" d="M49 0l264 1454h140l262 -1454h-107l-73 440h-304l-75 -440h-107zM248 535h268l-113 669q-4 16 -9 56t-11 81q-2 -16 -3 -29.5t-3 -29.5q-4 -16 -5 -32.5t-5 -32.5zM258 1575l172 223h193l-289 -223h-76z" />
<glyph unicode="&#xc2;" horiz-adv-x="768" d="M49 0l264 1454h140l262 -1454h-107l-73 440h-304l-75 -440h-107zM172 1575l160 223h102l150 -221h-82l-119 139l-125 -141h-86zM248 535h268l-113 669q-4 16 -9 56t-11 81q-2 -16 -3 -29.5t-3 -29.5q-4 -16 -5 -32.5t-5 -32.5z" />
<glyph unicode="&#xc3;" horiz-adv-x="768" d="M49 0l264 1454h140l262 -1454h-107l-73 440h-304l-75 -440h-107zM160 1622q25 35 61.5 74t89.5 39q23 0 42.5 -5.5t41.5 -13.5q47 -23 60.5 -26.5t27.5 -3.5q29 0 47.5 15t49.5 50q6 -6 15 -13t17 -14q-39 -57 -70.5 -92t-80.5 -35q-10 0 -35 8.5t-53.5 17.5t-54 17.5 t-37.5 8.5q-33 0 -52.5 -17.5t-35.5 -36.5q-8 4 -17.5 12.5t-15.5 14.5zM248 535h268l-113 669q-4 16 -9 56t-11 81q-2 -16 -3 -29.5t-3 -29.5q-4 -16 -5 -32.5t-5 -32.5z" />
<glyph unicode="&#xc4;" horiz-adv-x="768" d="M49 0l264 1454h140l262 -1454h-107l-73 440h-304l-75 -440h-107zM178 1616v156h107v-156h-107zM248 535h268l-113 669q-4 16 -9 56t-11 81q-2 -16 -3 -29.5t-3 -29.5q-4 -16 -5 -32.5t-5 -32.5zM481 1616v156h107v-156h-107z" />
<glyph unicode="&#xc5;" horiz-adv-x="768" d="M49 0l264 1454h140l262 -1454h-107l-73 440h-304l-75 -440h-107zM248 535h268l-113 669q-4 16 -9 56t-11 81q-2 -16 -3 -29.5t-3 -29.5q-4 -16 -5 -32.5t-5 -32.5zM248 1667q0 55 40 95t95 40t95 -40t40 -95t-40 -95t-95 -40q-39 0 -63.5 15.5t-32.5 23.5t-23.5 32.5 t-15.5 63.5zM293 1667q0 -37 26.5 -63.5t63.5 -26.5t63.5 26.5t26.5 63.5t-26.5 63.5t-63.5 26.5t-63.5 -26.5t-26.5 -63.5z" />
<glyph unicode="&#xc6;" horiz-adv-x="1024" d="M45 0l369 1446h534v-88h-325v-559h299v-90h-299v-619h360v-90h-459v627h-221l-153 -627h-105zM324 711h200v647h-37z" />
<glyph unicode="&#xc7;" horiz-adv-x="768" d="M106 328v784q0 82 9.5 146.5t64.5 121.5q43 43 98.5 61.5t116.5 18.5q94 0 160 -41q47 -29 80 -83t33 -154v-203h-101v135t-3 84t-7 52.5t-14 37.5q-20 41 -59.5 60.5t-88.5 19.5q-102 0 -146 -61.5t-44 -163.5v-715q0 -70 3 -134.5t21.5 -113.5t59.5 -78.5t117 -29.5 q66 0 101.5 25.5t51.5 58t19.5 65.5t3.5 45v232h102v-224q0 -47 -8 -97t-36 -92t-82 -71.5t-146 -36.5q0 -6 -1 -14t-1 -14q59 -16 103 -51t44 -99q0 -18 -8 -40.5t-24.5 -42t-44 -32t-66.5 -12.5q-57 0 -101.5 20.5t-85.5 43.5q8 10 18.5 22.5t20.5 22.5q29 -16 55.5 -27.5 t55.5 -11.5q37 0 55.5 20.5t18.5 44.5q0 25 -12.5 39.5t-30 23.5t-36 14t-32.5 7l4 89q-88 12 -137 54t-70.5 95t-26 107.5t-4.5 91.5z" />
<glyph unicode="&#xc8;" horiz-adv-x="681" d="M80 1802h199l180 -221h-66zM121 0v1446h512v-90h-412v-557h338v-88h-340v-621h412v-90h-510z" />
<glyph unicode="&#xc9;" horiz-adv-x="681" d="M121 0v1446h512v-90h-412v-557h338v-88h-340v-621h412v-90h-510zM248 1575l172 223h192l-288 -223h-76z" />
<glyph unicode="&#xca;" horiz-adv-x="681" d="M121 0v1446h512v-90h-412v-557h338v-88h-340v-621h412v-90h-510zM152 1575l159 223h103l149 -221h-82l-119 139l-124 -141h-86z" />
<glyph unicode="&#xcb;" horiz-adv-x="681" d="M121 0v1446h512v-90h-412v-557h338v-88h-340v-621h412v-90h-510zM160 1616v156h106v-156h-106zM463 1616v156h106v-156h-106z" />
<glyph unicode="&#xcc;" horiz-adv-x="342" d="M-92 1802h198l181 -221h-66zM119 0v1446h104v-1446h-104z" />
<glyph unicode="&#xcd;" horiz-adv-x="342" d="M45 1575l172 223h193l-289 -223h-76zM119 0v1446h104v-1446h-104z" />
<glyph unicode="&#xce;" horiz-adv-x="342" d="M-41 1575l160 223h102l150 -221h-82l-119 139l-125 -141h-86zM119 0v1446h104v-1446h-104z" />
<glyph unicode="&#xcf;" horiz-adv-x="342" d="M-33 1616v156h107v-156h-107zM119 0v1446h104v-1446h-104zM270 1616v156h107v-156h-107z" />
<glyph unicode="&#xd0;" horiz-adv-x="811" d="M0 758v86h123v602h168q147 0 230 -51.5t122 -136t47 -192.5t8 -220v-330q0 -76 -7 -166t-46 -168t-121 -130t-231 -52h-170v758h-123zM223 92q55 0 100.5 2t83 11.5t70.5 30t60 59.5q29 41 46 111.5t17 207.5v342q0 106 -6 174t-14.5 109t-18.5 61.5t-16 32.5 q-27 45 -64 69.5t-78 36t-87 13.5t-93 2v-510h226v-86h-226v-666z" />
<glyph unicode="&#xd1;" horiz-adv-x="811" d="M113 0v1446h147l350 -1403q-4 57 -7 147.5t-3 200.5l-8 1055h98v-1446h-153l-342 1382q2 -61 4 -104t3 -80t1 -76v-94l4 -1028h-94zM182 1622q25 35 62 74t90 39q23 0 42 -5.5t42 -13.5q47 -23 60.5 -26.5t27.5 -3.5q29 0 47 15t49 50q6 -6 15.5 -13t17.5 -14 q-39 -57 -71 -92t-81 -35q-10 0 -34.5 8.5t-53 17.5t-54.5 17.5t-38 8.5q-33 0 -52.5 -17.5t-35.5 -36.5q-8 4 -17.5 12.5t-15.5 14.5z" />
<glyph unicode="&#xd2;" horiz-adv-x="811" d="M113 309v815q0 86 13 138.5t38 87.5q41 59 106.5 85.5t141.5 26.5q70 0 132 -24.5t101 -81.5t45 -127t6 -135v-797q0 -45 -8 -98.5t-39 -100.5q-27 -41 -86 -78.5t-162 -37.5q-109 0 -167 38.5t-85.5 91t-31.5 108.5t-4 89zM143 1802h199l180 -221h-65zM209 348 q0 -104 15.5 -155.5t62.5 -86.5q51 -35 119 -34q57 0 96 24q66 37 82 101.5t16 136.5v704q0 84 -8 161t-51 122q-25 25 -61 38t-74 13q-86 0 -138 -51q-23 -20 -35 -47t-17 -51.5t-6 -46t-1 -31.5v-797z" />
<glyph unicode="&#xd3;" horiz-adv-x="811" d="M113 309v815q0 86 13 138.5t38 87.5q41 59 106.5 85.5t141.5 26.5q70 0 132 -24.5t101 -81.5t45 -127t6 -135v-797q0 -45 -8 -98.5t-39 -100.5q-27 -41 -86 -78.5t-162 -37.5q-109 0 -167 38.5t-85.5 91t-31.5 108.5t-4 89zM209 348q0 -104 15.5 -155.5t62.5 -86.5 q51 -35 119 -34q57 0 96 24q66 37 82 101.5t16 136.5v704q0 84 -8 161t-51 122q-25 25 -61 38t-74 13q-86 0 -138 -51q-23 -20 -35 -47t-17 -51.5t-6 -46t-1 -31.5v-797zM281 1575l172 223h192l-289 -223h-75z" />
<glyph unicode="&#xd4;" horiz-adv-x="811" d="M113 309v815q0 86 13 138.5t38 87.5q41 59 106.5 85.5t141.5 26.5q70 0 132 -24.5t101 -81.5t45 -127t6 -135v-797q0 -45 -8 -98.5t-39 -100.5q-27 -41 -86 -78.5t-162 -37.5q-109 0 -167 38.5t-85.5 91t-31.5 108.5t-4 89zM195 1575l159 223h103l149 -221h-82l-118 139 l-125 -141h-86zM209 348q0 -104 15.5 -155.5t62.5 -86.5q51 -35 119 -34q57 0 96 24q66 37 82 101.5t16 136.5v704q0 84 -8 161t-51 122q-25 25 -61 38t-74 13q-86 0 -138 -51q-23 -20 -35 -47t-17 -51.5t-6 -46t-1 -31.5v-797z" />
<glyph unicode="&#xd5;" horiz-adv-x="811" d="M113 309v815q0 86 13 138.5t38 87.5q41 59 106.5 85.5t141.5 26.5q70 0 132 -24.5t101 -81.5t45 -127t6 -135v-797q0 -45 -8 -98.5t-39 -100.5q-27 -41 -86 -78.5t-162 -37.5q-109 0 -167 38.5t-85.5 91t-31.5 108.5t-4 89zM182 1622q25 35 62 74t90 39q23 0 42 -5.5 t42 -13.5q47 -23 60.5 -26.5t27.5 -3.5q29 0 47 15t49 50q6 -6 15.5 -13t17.5 -14q-39 -57 -71 -92t-81 -35q-10 0 -34.5 8.5t-53 17.5t-54.5 17.5t-38 8.5q-33 0 -52.5 -17.5t-35.5 -36.5q-8 4 -17.5 12.5t-15.5 14.5zM209 348q0 -104 15.5 -155.5t62.5 -86.5 q51 -35 119 -34q57 0 96 24q66 37 82 101.5t16 136.5v704q0 84 -8 161t-51 122q-25 25 -61 38t-74 13q-86 0 -138 -51q-23 -20 -35 -47t-17 -51.5t-6 -46t-1 -31.5v-797z" />
<glyph unicode="&#xd6;" horiz-adv-x="811" d="M113 309v815q0 86 13 138.5t38 87.5q41 59 106.5 85.5t141.5 26.5q70 0 132 -24.5t101 -81.5t45 -127t6 -135v-797q0 -45 -8 -98.5t-39 -100.5q-27 -41 -86 -78.5t-162 -37.5q-109 0 -167 38.5t-85.5 91t-31.5 108.5t-4 89zM199 1616v156h106v-156h-106zM209 348 q0 -104 15.5 -155.5t62.5 -86.5q51 -35 119 -34q57 0 96 24q66 37 82 101.5t16 136.5v704q0 84 -8 161t-51 122q-25 25 -61 38t-74 13q-86 0 -138 -51q-23 -20 -35 -47t-17 -51.5t-6 -46t-1 -31.5v-797zM502 1616v156h106v-156h-106z" />
<glyph unicode="&#xd7;" horiz-adv-x="1024" d="M135 285l311 313l-311 313l64 64l313 -311l313 311l64 -64l-309 -313l309 -313l-64 -66l-313 316l-313 -316z" />
<glyph unicode="&#xd8;" horiz-adv-x="811" d="M72 -37l73 172q-12 27 -23 61.5t-11 104.5v729q0 59 1 103.5t4 78t11 62.5t23 55q23 43 55.5 70.5t67 44t70.5 23t67 6.5q25 0 50 -3.5t50 -13.5q72 -23 100.5 -58.5t44.5 -62.5l58 133l55 -26l-82 -193q4 -27 7 -47t3 -57v-830q0 -23 -5 -77t-32.5 -111t-88 -100 t-171.5 -43q-51 0 -85.5 9t-59.5 23.5t-42 29.5t-30 30l-57 -137q-10 6 -26.5 13t-26.5 11zM209 283l385 907q-4 33 -12.5 65.5t-32.5 63.5q-31 39 -73 51t-73 12q-90 0 -143 -65q-39 -45 -45 -100.5t-6 -102.5v-831zM229 188q4 -12 12.5 -30.5t28 -37t51 -31.5t82.5 -13 q59 0 97.5 19.5t60 53t29.5 80.5t8 103v708z" />
<glyph unicode="&#xd9;" horiz-adv-x="811" d="M117 342v1106h98v-1122q0 -37 3 -82t21.5 -84t57.5 -64.5t111 -25.5q41 0 81.5 15t67.5 54q12 16 18.5 33.5t10.5 45.5t5 68t1 99v1063h100v-1159q0 -23 -4 -74t-31.5 -104.5t-87 -94.5t-168.5 -41q-47 0 -96 13.5t-88 42.5q-37 29 -57.5 64.5t-29.5 75.5t-11 84t-2 87z M143 1802h199l180 -221h-65z" />
<glyph unicode="&#xda;" horiz-adv-x="811" d="M117 342v1106h98v-1122q0 -37 3 -82t21.5 -84t57.5 -64.5t111 -25.5q41 0 81.5 15t67.5 54q12 16 18.5 33.5t10.5 45.5t5 68t1 99v1063h100v-1159q0 -23 -4 -74t-31.5 -104.5t-87 -94.5t-168.5 -41q-47 0 -96 13.5t-88 42.5q-37 29 -57.5 64.5t-29.5 75.5t-11 84t-2 87z M281 1575l172 223h192l-289 -223h-75z" />
<glyph unicode="&#xdb;" horiz-adv-x="811" d="M117 342v1106h98v-1122q0 -37 3 -82t21.5 -84t57.5 -64.5t111 -25.5q41 0 81.5 15t67.5 54q12 16 18.5 33.5t10.5 45.5t5 68t1 99v1063h100v-1159q0 -23 -4 -74t-31.5 -104.5t-87 -94.5t-168.5 -41q-47 0 -96 13.5t-88 42.5q-37 29 -57.5 64.5t-29.5 75.5t-11 84t-2 87z M195 1575l159 223h103l149 -221h-82l-118 139l-125 -141h-86z" />
<glyph unicode="&#xdc;" horiz-adv-x="811" d="M117 342v1106h98v-1122q0 -37 3 -82t21.5 -84t57.5 -64.5t111 -25.5q41 0 81.5 15t67.5 54q12 16 18.5 33.5t10.5 45.5t5 68t1 99v1063h100v-1159q0 -23 -4 -74t-31.5 -104.5t-87 -94.5t-168.5 -41q-47 0 -96 13.5t-88 42.5q-37 29 -57.5 64.5t-29.5 75.5t-11 84t-2 87z M199 1616v156h106v-156h-106zM502 1616v156h106v-156h-106z" />
<glyph unicode="&#xdd;" horiz-adv-x="724" d="M29 1446h106l230 -680l231 680h111l-295 -807v-639h-99v639zM238 1575l172 223h192l-289 -223h-75z" />
<glyph unicode="&#xde;" horiz-adv-x="768" d="M117 0v1448h100v-242h125q94 0 168 -13t121 -73q39 -47 45 -108.5t6 -128.5v-162q0 -37 -5 -89t-35 -99.5t-93.5 -81t-181.5 -33.5h-148v-418h-102zM217 504h162q74 0 115 20.5t60 52t24.5 70.5t5.5 74v123q0 84 -7.5 137t-30 84t-64.5 43t-111 12h-154v-616z" />
<glyph unicode="&#xdf;" horiz-adv-x="724" d="M111 0v1182q0 51 8 101t34.5 90t78 64.5t139.5 24.5q43 0 91 -13t83 -52q10 -12 28.5 -42t18.5 -102v-163q0 -55 -14.5 -91t-36 -57.5t-47 -32t-48.5 -18.5q55 -20 90 -43t55.5 -53.5t28 -72.5t7.5 -99v-453q0 -94 -45 -140t-131 -46q-12 0 -37 2t-48.5 15t-42 42 t-18.5 82v162h62v-133q0 -55 28.5 -71.5t53.5 -16.5q33 0 51 15t26.5 35.5t10.5 41t2 28.5v377q0 59 -5.5 108.5t-26 84.5t-63.5 56.5t-118 27.5v88q61 2 96 19.5t53.5 43t23.5 59t5 68.5v78t-1 49.5t-2 29.5t-3 19q-8 31 -27.5 48.5t-40 25.5t-40 10t-28.5 2 q-61 0 -93.5 -20.5t-48 -52t-18.5 -69.5t-3 -73v-1165h-88z" />
<glyph unicode="&#xe0;" d="M57 242q0 74 20.5 126t53.5 89t74 62.5t80 45.5t63.5 33.5t42 24t31.5 20.5l35 25v118q0 35 -3 66t-16.5 53.5t-40 35.5t-71.5 13q-51 0 -79 -18t-41 -51t-15.5 -77t-2.5 -95h-88q0 59 4.5 116.5t26 103.5t69.5 74.5t136 28.5q78 0 121 -26.5t62.5 -62.5t22.5 -73.5 t3 -62.5v-692q0 -27 19.5 -32t41.5 -5v-82q-68 0 -100.5 14.5t-46.5 65.5q-35 -27 -81 -53.5t-118 -26.5q-55 0 -93 19.5t-62.5 53t-36 78t-11.5 91.5zM82 1389h199l178 -224h-68zM145 240q0 -61 31 -109.5t103 -48.5q68 0 108.5 31.5t71.5 66.5v391q-12 -8 -21.5 -14 t-22 -13t-30.5 -17.5t-49 -26.5q-39 -23 -74 -44.5t-60.5 -51t-41 -68.5t-15.5 -96z" />
<glyph unicode="&#xe1;" d="M57 242q0 74 20.5 126t53.5 89t74 62.5t80 45.5t63.5 33.5t42 24t31.5 20.5l35 25v118q0 35 -3 66t-16.5 53.5t-40 35.5t-71.5 13q-51 0 -79 -18t-41 -51t-15.5 -77t-2.5 -95h-88q0 59 4.5 116.5t26 103.5t69.5 74.5t136 28.5q78 0 121 -26.5t62.5 -62.5t22.5 -73.5 t3 -62.5v-692q0 -27 19.5 -32t41.5 -5v-82q-68 0 -100.5 14.5t-46.5 65.5q-35 -27 -81 -53.5t-118 -26.5q-55 0 -93 19.5t-62.5 53t-36 78t-11.5 91.5zM145 240q0 -61 31 -109.5t103 -48.5q68 0 108.5 31.5t71.5 66.5v391q-12 -8 -21.5 -14t-22 -13t-30.5 -17.5t-49 -26.5 q-39 -23 -74 -44.5t-60.5 -51t-41 -68.5t-15.5 -96zM215 1161l172 223h195l-293 -223h-74z" />
<glyph unicode="&#xe2;" d="M57 242q0 74 20.5 126t53.5 89t74 62.5t80 45.5t63.5 33.5t42 24t31.5 20.5l35 25v118q0 35 -3 66t-16.5 53.5t-40 35.5t-71.5 13q-51 0 -79 -18t-41 -51t-15.5 -77t-2.5 -95h-88q0 59 4.5 116.5t26 103.5t69.5 74.5t136 28.5q78 0 121 -26.5t62.5 -62.5t22.5 -73.5 t3 -62.5v-692q0 -27 19.5 -32t41.5 -5v-82q-68 0 -100.5 14.5t-46.5 65.5q-35 -27 -81 -53.5t-118 -26.5q-55 0 -93 19.5t-62.5 53t-36 78t-11.5 91.5zM133 1165l157 221h103l147 -221h-80l-118 140l-125 -140h-84zM145 240q0 -61 31 -109.5t103 -48.5q68 0 108.5 31.5 t71.5 66.5v391q-12 -8 -21.5 -14t-22 -13t-30.5 -17.5t-49 -26.5q-39 -23 -74 -44.5t-60.5 -51t-41 -68.5t-15.5 -96z" />
<glyph unicode="&#xe3;" d="M57 242q0 74 20.5 126t53.5 89t74 62.5t80 45.5t63.5 33.5t42 24t31.5 20.5l35 25v118q0 35 -3 66t-16.5 53.5t-40 35.5t-71.5 13q-51 0 -79 -18t-41 -51t-15.5 -77t-2.5 -95h-88q0 59 4.5 116.5t26 103.5t69.5 74.5t136 28.5q78 0 121 -26.5t62.5 -62.5t22.5 -73.5 t3 -62.5v-692q0 -27 19.5 -32t41.5 -5v-82q-68 0 -100.5 14.5t-46.5 65.5q-35 -27 -81 -53.5t-118 -26.5q-55 0 -93 19.5t-62.5 53t-36 78t-11.5 91.5zM119 1210q25 35 60.5 74t91.5 39q20 0 40.5 -5t41.5 -13q47 -23 61 -27t29 -4q29 0 47 15t47 50q8 -6 17.5 -13t15.5 -13 q-37 -57 -70 -92t-82 -35q-10 0 -34.5 8t-52 17.5t-53.5 17.5t-38 8q-33 0 -52.5 -17.5t-35.5 -35.5q-8 4 -17.5 12t-15.5 14zM145 240q0 -61 31 -109.5t103 -48.5q68 0 108.5 31.5t71.5 66.5v391q-12 -8 -21.5 -14t-22 -13t-30.5 -17.5t-49 -26.5q-39 -23 -74 -44.5 t-60.5 -51t-41 -68.5t-15.5 -96z" />
<glyph unicode="&#xe4;" d="M57 242q0 74 20.5 126t53.5 89t74 62.5t80 45.5t63.5 33.5t42 24t31.5 20.5l35 25v118q0 35 -3 66t-16.5 53.5t-40 35.5t-71.5 13q-51 0 -79 -18t-41 -51t-15.5 -77t-2.5 -95h-88q0 59 4.5 116.5t26 103.5t69.5 74.5t136 28.5q78 0 121 -26.5t62.5 -62.5t22.5 -73.5 t3 -62.5v-692q0 -27 19.5 -32t41.5 -5v-82q-68 0 -100.5 14.5t-46.5 65.5q-35 -27 -81 -53.5t-118 -26.5q-55 0 -93 19.5t-62.5 53t-36 78t-11.5 91.5zM145 240q0 -61 31 -109.5t103 -48.5q68 0 108.5 31.5t71.5 66.5v391q-12 -8 -21.5 -14t-22 -13t-30.5 -17.5t-49 -26.5 q-39 -23 -74 -44.5t-60.5 -51t-41 -68.5t-15.5 -96zM186 1198v158h98v-158h-98zM389 1198v158h98v-158h-98z" />
<glyph unicode="&#xe5;" d="M57 242q0 74 20.5 126t53.5 89t74 62.5t80 45.5t63.5 33.5t42 24t31.5 20.5l35 25v118q0 35 -3 66t-16.5 53.5t-40 35.5t-71.5 13q-51 0 -79 -18t-41 -51t-15.5 -77t-2.5 -95h-88q0 59 4.5 116.5t26 103.5t69.5 74.5t136 28.5q78 0 121 -26.5t62.5 -62.5t22.5 -73.5 t3 -62.5v-692q0 -27 19.5 -32t41.5 -5v-82q-68 0 -100.5 14.5t-46.5 65.5q-35 -27 -81 -53.5t-118 -26.5q-55 0 -93 19.5t-62.5 53t-36 78t-11.5 91.5zM145 240q0 -61 31 -109.5t103 -48.5q68 0 108.5 31.5t71.5 66.5v391q-12 -8 -21.5 -14t-22 -13t-30.5 -17.5t-49 -26.5 q-39 -23 -74 -44.5t-60.5 -51t-41 -68.5t-15.5 -96zM202 1260q0 57 40 97t95 40t95.5 -40t40.5 -97q0 -55 -40 -95.5t-96 -40.5q-39 0 -63.5 15.5t-32.5 23.5t-23.5 33t-15.5 64zM247 1260q0 -35 27 -63t63 -28q37 0 64 28t27 63q0 37 -27 64.5t-64 27.5t-63.5 -27.5 t-26.5 -64.5z" />
<glyph unicode="&#xe6;" horiz-adv-x="1024" d="M61 240q0 125 55.5 194.5t159.5 120.5q33 16 55.5 28.5t42 22.5t40 23.5t51.5 34.5v159q0 12 -3 42t-26 53q-23 25 -54.5 29.5t-43.5 4.5q-25 0 -53.5 -8t-48.5 -29q-29 -33 -34 -81t-5 -117h-88q0 86 7 148.5t54 109.5q10 10 48 33.5t124 23.5q45 0 76 -9t52.5 -21.5 t33.5 -26.5t20 -25q8 10 22.5 24.5t36 28t53.5 22.5t75 9q86 0 133 -30.5t68.5 -74.5t25.5 -94.5t4 -89.5v-219h-389v-213q0 -41 2 -72.5t10 -56.5q20 -63 62.5 -84.5t77.5 -21.5q29 0 61.5 11t54.5 40q12 16 19.5 31.5t10.5 38t4 59.5t1 96h88q0 -78 -2 -111.5t-6 -66.5 q-8 -47 -31.5 -82t-54.5 -56.5t-68 -31.5t-71 -10q-49 0 -83 10t-58.5 28.5t-42 41t-33.5 47.5q-33 -45 -68 -70.5t-65.5 -38t-54 -15.5t-34.5 -3q-35 0 -69.5 10t-61.5 33q-47 35 -63.5 91t-16.5 110zM147 242q0 -35 10.5 -69t28.5 -56q18 -20 46 -29.5t59 -9.5 q41 0 70.5 13t49 32.5t33 42t23.5 41.5v371q-14 -12 -26.5 -20.5t-26 -17t-34 -19.5t-54.5 -29q-25 -12 -55.5 -31t-58.5 -48.5t-46.5 -70.5t-18.5 -100zM553 600h303v180q0 29 -5 66t-34 65q-23 23 -53.5 32t-56.5 9q-29 0 -62 -11t-57 -40q-20 -27 -27.5 -61.5t-7.5 -96.5 v-143z" />
<glyph unicode="&#xe7;" d="M82 295v475q0 20 4 63.5t25.5 87.5t70.5 76.5t137 32.5q43 0 74 -8t52.5 -19.5t32.5 -22.5t18 -15q23 -27 35 -54.5t17 -63.5t6 -80t1 -103h-86v71.5t-1 49t-4 35t-7 28.5q-14 47 -48 76.5t-87 29.5q-57 0 -88 -24.5t-45.5 -56t-16.5 -63.5t-2 -46v-442q0 -41 2 -84 t17.5 -79t48 -59.5t94.5 -23.5q53 0 82.5 21.5t43 49t15.5 55t2 42.5v149h90v-133q0 -31 -3 -72t-23.5 -80.5t-64.5 -70.5t-124 -41q-2 -10 -3 -22.5t-1 -22.5q59 -18 103.5 -52t44.5 -98q0 -20 -8.5 -42.5t-25 -42t-44 -32t-66.5 -12.5q-57 0 -101 20.5t-85 43.5 q8 10 18.5 22.5t20.5 22.5q29 -16 56.5 -27.5t53.5 -11.5q37 0 55.5 21.5t18.5 43.5q0 25 -12.5 40.5t-29.5 24.5t-35.5 14t-33.5 8l7 102q-76 10 -117 45t-59.5 79t-21.5 91t-3 84z" />
<glyph unicode="&#xe8;" d="M59 1389h199l178 -224h-68zM88 250v538q0 119 60.5 183.5t170.5 64.5q90 0 138.5 -32.5t71 -82t26.5 -105.5t4 -103v-207h-385v-254q0 -100 44 -137t108 -37q8 0 25.5 1t38 9t38.5 25.5t31 50.5q6 12 8 23.5t4 31t2 51v86.5h86v-114q0 -117 -61.5 -180.5t-175.5 -63.5 q-37 0 -79 10t-83 47q-43 37 -57.5 83t-14.5 112zM174 578h297v190q0 12 -2 44t-16.5 63.5t-44 57t-84.5 25.5t-86 -24.5t-45.5 -56t-16.5 -65.5t-2 -52v-182z" />
<glyph unicode="&#xe9;" d="M88 250v538q0 119 60.5 183.5t170.5 64.5q90 0 138.5 -32.5t71 -82t26.5 -105.5t4 -103v-207h-385v-254q0 -100 44 -137t108 -37q8 0 25.5 1t38 9t38.5 25.5t31 50.5q6 12 8 23.5t4 31t2 51v86.5h86v-114q0 -117 -61.5 -180.5t-175.5 -63.5q-37 0 -79 10t-83 47 q-43 37 -57.5 83t-14.5 112zM174 578h297v190q0 12 -2 44t-16.5 63.5t-44 57t-84.5 25.5t-86 -24.5t-45.5 -56t-16.5 -65.5t-2 -52v-182zM192 1161l172 223h195l-293 -223h-74z" />
<glyph unicode="&#xea;" d="M88 250v538q0 119 60.5 183.5t170.5 64.5q90 0 138.5 -32.5t71 -82t26.5 -105.5t4 -103v-207h-385v-254q0 -100 44 -137t108 -37q8 0 25.5 1t38 9t38.5 25.5t31 50.5q6 12 8 23.5t4 31t2 51v86.5h86v-114q0 -117 -61.5 -180.5t-175.5 -63.5q-37 0 -79 10t-83 47 q-43 37 -57.5 83t-14.5 112zM111 1165l157 221h103l147 -221h-80l-118 140l-125 -140h-84zM174 578h297v190q0 12 -2 44t-16.5 63.5t-44 57t-84.5 25.5t-86 -24.5t-45.5 -56t-16.5 -65.5t-2 -52v-182z" />
<glyph unicode="&#xeb;" d="M88 250v538q0 119 60.5 183.5t170.5 64.5q90 0 138.5 -32.5t71 -82t26.5 -105.5t4 -103v-207h-385v-254q0 -100 44 -137t108 -37q8 0 25.5 1t38 9t38.5 25.5t31 50.5q6 12 8 23.5t4 31t2 51v86.5h86v-114q0 -117 -61.5 -180.5t-175.5 -63.5q-37 0 -79 10t-83 47 q-43 37 -57.5 83t-14.5 112zM164 1198v158h98v-158h-98zM174 578h297v190q0 12 -2 44t-16.5 63.5t-44 57t-84.5 25.5t-86 -24.5t-45.5 -56t-16.5 -65.5t-2 -52v-182zM367 1198v158h98v-158h-98z" />
<glyph unicode="&#xec;" horiz-adv-x="299" d="M-111 1389h199l178 -224h-68zM106 0v1032h89v-1032h-89z" />
<glyph unicode="&#xed;" horiz-adv-x="299" d="M22 1161l172 223h195l-293 -223h-74zM106 0v1032h89v-1032h-89z" />
<glyph unicode="&#xee;" horiz-adv-x="299" d="M-59 1165l157 221h103l147 -221h-80l-118 140l-125 -140h-84zM106 0v1032h89v-1032h-89z" />
<glyph unicode="&#xef;" horiz-adv-x="299" d="M-6 1198v158h98v-158h-98zM106 0v1032h89v-1032h-89zM197 1198v158h98v-158h-98z" />
<glyph unicode="&#xf0;" d="M80 248v540q0 92 36 143.5t79 74t80.5 26.5t43.5 4q66 0 100 -26.5t58 -57.5q-6 72 -18.5 132.5t-61.5 140.5l-211 -80l-28 63l196 76q-45 53 -79.5 84t-61.5 51l72 37q29 -25 47 -42t33.5 -32.5t30 -32t32.5 -36.5l133 49l27 -66l-117 -43q14 -25 30.5 -57.5t30 -83.5 t22.5 -127t9 -190l-2 -502q0 -63 -7 -110.5t-36 -90.5q-35 -47 -88 -71.5t-113 -24.5q-14 0 -53 4t-84 31q-66 37 -83 94t-17 123zM168 250q0 -12 2 -41t16.5 -57.5t44 -50t84.5 -21.5q66 0 112 38t46 140v514q0 14 -2 44t-16.5 59.5t-43 52t-83.5 22.5q-59 0 -92 -22.5 t-48.5 -54t-17.5 -66.5t-2 -59v-498z" />
<glyph unicode="&#xf1;" horiz-adv-x="681" d="M113 0v1032h86v-100q10 18 25.5 37.5t45.5 40.5q53 33 119 32q23 0 50.5 -5t56.5 -21q33 -18 51 -45t26.5 -53.5t9.5 -50t1 -40.5v-827h-86v825q0 82 -42 112t-85 30q-39 0 -75 -16.5t-60 -45.5q-16 -18 -23.5 -34.5t-13.5 -32.5v-838h-86zM119 1210q25 35 60.5 74 t91.5 39q20 0 40.5 -5t41.5 -13q47 -23 61 -27t29 -4q29 0 47 15t47 50q8 -6 17.5 -13t15.5 -13q-37 -57 -70 -92t-82 -35q-10 0 -34.5 8t-52 17.5t-53.5 17.5t-38 8q-33 0 -52.5 -17.5t-35.5 -35.5q-8 4 -17.5 12t-15.5 14z" />
<glyph unicode="&#xf2;" d="M59 1389h199l178 -224h-68zM80 248v540q0 78 25.5 126.5t62.5 76t80 36.5t78 9q88 0 136 -30.5t69.5 -72.5t25.5 -84t4 -67v-489q0 -61 -8 -109.5t-37 -91.5q-25 -37 -55.5 -56.5t-60 -28.5t-52 -10t-31.5 -1q-14 0 -53 4t-84 31q-66 37 -83 94t-17 123zM168 250 q0 -12 2 -41t16.5 -57.5t44 -50t84.5 -21.5q63 0 110.5 38t47.5 140v514q0 14 -2 44t-16.5 59.5t-43 52t-83.5 22.5q-59 0 -92 -22.5t-48.5 -54t-17.5 -66.5t-2 -59v-498z" />
<glyph unicode="&#xf3;" d="M80 248v540q0 78 25.5 126.5t62.5 76t80 36.5t78 9q88 0 136 -30.5t69.5 -72.5t25.5 -84t4 -67v-489q0 -61 -8 -109.5t-37 -91.5q-25 -37 -55.5 -56.5t-60 -28.5t-52 -10t-31.5 -1q-14 0 -53 4t-84 31q-66 37 -83 94t-17 123zM168 250q0 -12 2 -41t16.5 -57.5t44 -50 t84.5 -21.5q63 0 110.5 38t47.5 140v514q0 14 -2 44t-16.5 59.5t-43 52t-83.5 22.5q-59 0 -92 -22.5t-48.5 -54t-17.5 -66.5t-2 -59v-498zM192 1161l172 223h195l-293 -223h-74z" />
<glyph unicode="&#xf4;" d="M80 248v540q0 78 25.5 126.5t62.5 76t80 36.5t78 9q88 0 136 -30.5t69.5 -72.5t25.5 -84t4 -67v-489q0 -61 -8 -109.5t-37 -91.5q-25 -37 -55.5 -56.5t-60 -28.5t-52 -10t-31.5 -1q-14 0 -53 4t-84 31q-66 37 -83 94t-17 123zM111 1165l157 221h103l147 -221h-80 l-118 140l-125 -140h-84zM168 250q0 -12 2 -41t16.5 -57.5t44 -50t84.5 -21.5q63 0 110.5 38t47.5 140v514q0 14 -2 44t-16.5 59.5t-43 52t-83.5 22.5q-59 0 -92 -22.5t-48.5 -54t-17.5 -66.5t-2 -59v-498z" />
<glyph unicode="&#xf5;" d="M80 248v540q0 78 25.5 126.5t62.5 76t80 36.5t78 9q88 0 136 -30.5t69.5 -72.5t25.5 -84t4 -67v-489q0 -61 -8 -109.5t-37 -91.5q-25 -37 -55.5 -56.5t-60 -28.5t-52 -10t-31.5 -1q-14 0 -53 4t-84 31q-66 37 -83 94t-17 123zM96 1210q25 35 60.5 74t91.5 39 q20 0 40.5 -5t41.5 -13q47 -23 61 -27t29 -4q29 0 47 15t47 50q8 -6 17.5 -13t15.5 -13q-37 -57 -70 -92t-82 -35q-10 0 -34.5 8t-52 17.5t-53.5 17.5t-38 8q-33 0 -52.5 -17.5t-35.5 -35.5q-8 4 -17.5 12t-15.5 14zM168 250q0 -12 2 -41t16.5 -57.5t44 -50t84.5 -21.5 q63 0 110.5 38t47.5 140v514q0 14 -2 44t-16.5 59.5t-43 52t-83.5 22.5q-59 0 -92 -22.5t-48.5 -54t-17.5 -66.5t-2 -59v-498z" />
<glyph unicode="&#xf6;" d="M80 248v540q0 78 25.5 126.5t62.5 76t80 36.5t78 9q88 0 136 -30.5t69.5 -72.5t25.5 -84t4 -67v-489q0 -61 -8 -109.5t-37 -91.5q-25 -37 -55.5 -56.5t-60 -28.5t-52 -10t-31.5 -1q-14 0 -53 4t-84 31q-66 37 -83 94t-17 123zM168 250q0 -12 2 -41t16.5 -57.5t44 -50 t84.5 -21.5q63 0 110.5 38t47.5 140v514q0 14 -2 44t-16.5 59.5t-43 52t-83.5 22.5q-59 0 -92 -22.5t-48.5 -54t-17.5 -66.5t-2 -59v-498zM170 1198v158h98v-158h-98zM373 1198v158h98v-158h-98z" />
<glyph unicode="&#xf7;" horiz-adv-x="1024" d="M0 549v94h1024v-94h-1024zM436 348q0 33 21.5 56.5t56.5 23.5q37 0 59.5 -23.5t22.5 -56.5t-22.5 -56.5t-57.5 -23.5t-57.5 23.5t-22.5 56.5zM436 844q0 33 21.5 56.5t56.5 23.5q37 0 59.5 -23.5t22.5 -56.5t-22.5 -56.5t-57.5 -23.5t-57.5 23.5t-22.5 56.5z" />
<glyph unicode="&#xf8;" d="M45 10l55 109q-10 29 -16 57.5t-6 63.5v518q0 45 9 94t36 89t76 66.5t129 26.5q47 0 78.5 -8t54 -20.5t36 -27.5t23.5 -30l45 84q8 -4 18.5 -9t18.5 -9l-59 -115q8 -29 12 -48.5t4 -59.5v-545q0 -117 -63.5 -183.5t-186.5 -66.5q-68 0 -112.5 23.5t-73.5 58.5l-43 -86 q-8 4 -18.5 9t-16.5 9zM166 250l299 588q-4 16 -10 35.5t-21.5 36t-42 28.5t-69.5 12q-57 0 -89 -23.5t-47.5 -55t-17.5 -64.5t-2 -53v-504zM174 176q4 -8 11.5 -25.5t22.5 -33t41.5 -27.5t67.5 -12q59 0 90 22.5t46.5 56t17.5 75.5t2 79v445z" />
<glyph unicode="&#xf9;" horiz-adv-x="681" d="M82 1389h199l178 -224h-68zM102 238v794h86v-774q0 -25 3.5 -56.5t16.5 -61t40.5 -50t75.5 -20.5q39 0 66.5 14t46 34.5t29.5 44t17 40.5v829h88v-1030h-88v96q-10 -12 -25.5 -30.5t-38 -34t-52 -26.5t-70.5 -11q-63 0 -113 33q-31 20 -47 47.5t-24.5 57.5t-9.5 56.5 t-1 47.5z" />
<glyph unicode="&#xfa;" horiz-adv-x="681" d="M102 238v794h86v-774q0 -25 3.5 -56.5t16.5 -61t40.5 -50t75.5 -20.5q39 0 66.5 14t46 34.5t29.5 44t17 40.5v829h88v-1030h-88v96q-10 -12 -25.5 -30.5t-38 -34t-52 -26.5t-70.5 -11q-63 0 -113 33q-31 20 -47 47.5t-24.5 57.5t-9.5 56.5t-1 47.5zM215 1161l172 223h195 l-293 -223h-74z" />
<glyph unicode="&#xfb;" horiz-adv-x="681" d="M102 238v794h86v-774q0 -25 3.5 -56.5t16.5 -61t40.5 -50t75.5 -20.5q39 0 66.5 14t46 34.5t29.5 44t17 40.5v829h88v-1030h-88v96q-10 -12 -25.5 -30.5t-38 -34t-52 -26.5t-70.5 -11q-63 0 -113 33q-31 20 -47 47.5t-24.5 57.5t-9.5 56.5t-1 47.5zM133 1165l157 221h103 l147 -221h-80l-118 140l-125 -140h-84z" />
<glyph unicode="&#xfc;" horiz-adv-x="681" d="M102 238v794h86v-774q0 -25 3.5 -56.5t16.5 -61t40.5 -50t75.5 -20.5q39 0 66.5 14t46 34.5t29.5 44t17 40.5v829h88v-1030h-88v96q-10 -12 -25.5 -30.5t-38 -34t-52 -26.5t-70.5 -11q-63 0 -113 33q-31 20 -47 47.5t-24.5 57.5t-9.5 56.5t-1 47.5zM186 1198v158h98v-158 h-98zM389 1198v158h98v-158h-98z" />
<glyph unicode="&#xfd;" horiz-adv-x="598" d="M18 -248q12 -2 22.5 -3t22.5 -1q51 0 82 17.5t49.5 41t25.5 47t9 35.5l25 119l-223 1024h88l180 -856l182 856h92l-264 -1147q-18 -78 -48 -122t-66.5 -65.5t-81.5 -26.5t-95 -5v86zM174 1161l172 223h195l-293 -223h-74z" />
<glyph unicode="&#xfe;" horiz-adv-x="681" d="M111 -334v1782h84v-514q12 14 28.5 32.5t39 35t54 27.5t72.5 11q78 0 120 -44t58 -91q12 -39 14.5 -79t2.5 -93v-500q0 -68 -19.5 -112.5t-50.5 -72.5t-66.5 -40t-70.5 -12q-80 0 -119 31.5t-59 56.5v-418h-88zM199 193q0 -6 9 -26t28.5 -40.5t49 -35.5t72.5 -15 q51 0 79 21.5t41.5 52t15.5 65.5t2 61v525q0 53 -14.5 85t-35 48t-44 22.5t-40.5 6.5q-43 0 -73.5 -17.5t-51 -40t-29.5 -45t-9 -33.5v-634z" />
<glyph unicode="&#xff;" horiz-adv-x="598" d="M18 -248q12 -2 22.5 -3t22.5 -1q51 0 82 17.5t49.5 41t25.5 47t9 35.5l25 119l-223 1024h88l180 -856l182 856h92l-264 -1147q-18 -78 -48 -122t-66.5 -65.5t-81.5 -26.5t-95 -5v86zM166 1198v158h98v-158h-98zM369 1198v158h98v-158h-98z" />
<glyph unicode="&#x152;" horiz-adv-x="1110" d="M102 283v833q0 113 22.5 180.5t82.5 110.5q35 27 79 41t105 14q88 0 133 -28.5t72 -53.5v68h473v-90h-377v-565h334v-86h-332v-619h377v-88h-473v82q-12 -14 -28.5 -31.5t-42 -33t-62.5 -26.5t-90 -11q-141 0 -207 83.5t-66 219.5zM199 334q0 -47 2 -87t18 -75 q23 -47 67 -76.5t101 -29.5q27 0 63.5 9t69.5 34.5t55.5 68.5t22.5 111v772q0 45 -3 99t-23.5 102.5t-62.5 81t-122 32.5q-53 0 -90 -18.5t-58.5 -48t-30.5 -66.5t-9 -76v-833z" />
<glyph unicode="&#x153;" horiz-adv-x="1024" d="M86 264v467q0 78 5 127t38 90q16 23 62.5 53.5t132.5 30.5q47 0 78.5 -10t55 -24.5t38 -32t26.5 -33.5q8 12 22.5 30.5t37 34t56.5 26.5t83 11q109 0 170 -67q41 -49 48 -111.5t7 -142.5v-191h-385v-203q0 -33 2 -74.5t16.5 -79.5t46 -63.5t89.5 -25.5q37 0 59 10 q31 12 57.5 44t26.5 108v108h88q0 -100 -3 -149.5t-21 -87.5q-29 -59 -82.5 -88t-118.5 -29q-55 0 -91 12t-58.5 30.5t-36 39t-21.5 37.5q-39 -59 -89 -89t-118 -30q-82 0 -127 31.5t-66.5 74.5t-24.5 89t-3 77zM172 319q0 -43 2 -86t16.5 -77.5t43 -57t83.5 -22.5 q59 0 90 24.5t46.5 58.5t17.5 67.5t2 49.5v494q0 96 -40 139t-109 43q-18 0 -39 -4t-43 -16q-53 -31 -61.5 -77t-8.5 -85v-451zM559 596h299v168q0 27 -4 59.5t-17.5 62t-42 49t-77.5 19.5q-57 0 -107.5 -42t-50.5 -146v-170z" />
<glyph unicode="&#x178;" horiz-adv-x="724" d="M29 1446h106l230 -680l231 680h111l-295 -807v-639h-99v639zM160 1616v156h106v-156h-106zM463 1616v156h106v-156h-106z" />
<glyph unicode="&#x2c6;" horiz-adv-x="468" d="M31 1165l157 221h103l147 -221h-80l-118 140l-125 -140h-84z" />
<glyph unicode="&#x2dc;" horiz-adv-x="468" d="M8 1210q25 35 60.5 74t91.5 39q20 0 40.5 -5t41.5 -13q47 -23 61 -27t29 -4q29 0 47 15t47 50q8 -6 17.5 -13t15.5 -13q-37 -57 -70 -92t-82 -35q-10 0 -34.5 8t-52 17.5t-53.5 17.5t-38 8q-33 0 -52.5 -17.5t-35.5 -35.5q-8 4 -17.5 12t-15.5 14z" />
<glyph unicode="&#x2000;" horiz-adv-x="901" />
<glyph unicode="&#x2001;" horiz-adv-x="1802" />
<glyph unicode="&#x2002;" horiz-adv-x="901" />
<glyph unicode="&#x2003;" horiz-adv-x="1802" />
<glyph unicode="&#x2004;" horiz-adv-x="600" />
<glyph unicode="&#x2005;" horiz-adv-x="450" />
<glyph unicode="&#x2006;" horiz-adv-x="300" />
<glyph unicode="&#x2007;" horiz-adv-x="300" />
<glyph unicode="&#x2008;" horiz-adv-x="225" />
<glyph unicode="&#x2009;" horiz-adv-x="360" />
<glyph unicode="&#x200a;" horiz-adv-x="100" />
<glyph unicode="&#x2010;" horiz-adv-x="512" d="M76 555v88h362v-88h-362z" />
<glyph unicode="&#x2011;" horiz-adv-x="512" d="M76 555v88h362v-88h-362z" />
<glyph unicode="&#x2012;" horiz-adv-x="512" d="M76 555v88h362v-88h-362z" />
<glyph unicode="&#x2013;" horiz-adv-x="724" d="M72 555v88h581v-88h-581z" />
<glyph unicode="&#x2014;" horiz-adv-x="980" d="M70 555v86h841v-86h-841z" />
<glyph unicode="&#x2018;" horiz-adv-x="299" d="M111 1075v187q0 49 7 79.5t19.5 51t28.5 32t37 21.5v-45q-29 -20 -40 -47t-9 -92h49v-187h-92z" />
<glyph unicode="&#x2019;" horiz-adv-x="299" d="M102 1075v45q31 20 41.5 46t10.5 94h-50v186h93v-186q0 -49 -7.5 -80t-19.5 -50.5t-29.5 -32t-38.5 -22.5z" />
<glyph unicode="&#x201a;" horiz-adv-x="299" d="M102 -139q31 20 41.5 45.5t10.5 93.5h-50v186h93v-186q0 -49 -7.5 -80t-19.5 -51.5t-29.5 -31.5t-38.5 -21v45z" />
<glyph unicode="&#x201c;" horiz-adv-x="512" d="M88 1075v187q0 49 7 79.5t19.5 51t29 32t36.5 21.5v-45q-29 -20 -39 -46t-10 -93h49v-187h-92zM311 1075v187q0 49 7.5 79.5t19.5 51t28.5 32t36.5 21.5v-45q-29 -20 -40 -46t-9 -93h49v-187h-92z" />
<glyph unicode="&#x201d;" horiz-adv-x="512" d="M96 1075v45q31 20 41 46t10 94h-49v186h92v-186q0 -49 -7 -80t-19 -50.5t-29.5 -32t-38.5 -22.5zM319 1075v45q31 20 41.5 46t10.5 94h-49v186h92v-186q0 -49 -7.5 -80t-19.5 -50.5t-29.5 -32t-38.5 -22.5z" />
<glyph unicode="&#x201e;" horiz-adv-x="512" d="M98 0v186h92v-186q0 -49 -7 -80t-19 -51.5t-28.5 -31.5t-37.5 -21v45q29 18 40.5 44.5t8.5 94.5h-49zM319 -139q33 23 42.5 48t9.5 91h-49v186h92v-186q0 -49 -7.5 -80t-19.5 -51.5t-29.5 -31.5t-38.5 -21v45z" />
<glyph unicode="&#x2022;" horiz-adv-x="681" d="M111 723q0 47 18 89t49 72.5t73 49t91 18.5q53 0 95 -18.5t72 -50t46 -72.5t16 -86q0 -100 -63.5 -165.5t-163.5 -65.5q-49 0 -91 17t-74 48t-50 73t-18 91z" />
<glyph unicode="&#x2026;" horiz-adv-x="2048" d="M299 0v184h90v-184h-90zM981 0v184h90v-184h-90zM1663 0v184h90v-184h-90z" />
<glyph unicode="&#x202f;" horiz-adv-x="360" />
<glyph unicode="&#x2039;" horiz-adv-x="512" d="M72 600l254 205h123l-250 -205l239 -205h-114z" />
<glyph unicode="&#x203a;" horiz-adv-x="512" d="M55 391l264 205l-249 205h125l245 -203l-256 -207h-129z" />
<glyph unicode="&#x205f;" horiz-adv-x="450" />
<glyph unicode="&#x2122;" horiz-adv-x="1406" d="M57 1372v74h527v-74h-219v-604h-82v604h-226zM643 768v678h121l182 -569l180 569h121v-678h-80v461l2 137l-190 -598h-72l-190 598l4 -137v-461h-78z" />
<glyph unicode="&#x25fc;" horiz-adv-x="1034" d="M0 0v1034h1034v-1034h-1034z" />
<glyph unicode="&#xfb01;" horiz-adv-x="681" d="M35 948v84h123v207q0 20 3 55t19.5 69t54 58.5t105.5 24.5q14 0 26.5 -1t26.5 -3v-80q-10 2 -17 2h-18q-43 0 -67.5 -15.5t-34.5 -37t-12 -43t-2 -33.5v-203h127v-84h-131v-948h-86v948h-117zM489 0v1032h86v-1032h-86zM489 1151v160h86v-160h-86z" />
<glyph unicode="&#xfb02;" horiz-adv-x="681" d="M35 948v84h123v207q0 20 3 55t19.5 69t54 58.5t105.5 24.5q14 0 26.5 -1t24.5 -3v-80q-10 2 -17 2h-18q-43 0 -66.5 -15.5t-33.5 -37t-12 -43t-2 -33.5v-203h127v-84h-131v-948h-86v948h-117zM489 0v1446h89v-1446h-89z" />
</font>
</defs>
</svg>
