<?xml version="1.0" standalone="no"?>
<!DOCTYPE svg PUBLIC "-//W3C//DTD SVG 1.1//EN" "http://www.w3.org/Graphics/SVG/1.1/DTD/svg11.dtd" >
<svg xmlns="http://www.w3.org/2000/svg">
<metadata></metadata>
<defs>
<font id="berthold_akzidenz_grotesk_bRg" horiz-adv-x="1067" >
<font-face units-per-em="2048" ascent="1536" descent="-512" />
<missing-glyph horiz-adv-x="555" />
<glyph horiz-adv-x="0" />
<glyph horiz-adv-x="0" />
<glyph unicode="&#xd;" horiz-adv-x="512" />
<glyph unicode=" "  horiz-adv-x="555" />
<glyph unicode="&#x09;" horiz-adv-x="555" />
<glyph unicode="&#xa0;" horiz-adv-x="555" />
<glyph unicode="!" horiz-adv-x="555" d="M236 0v184h161v-184h-161zM236 879v567h161v-590l-49 -555h-63z" />
<glyph unicode="&#x22;" horiz-adv-x="811" d="M106 1427q0 59 38 83t75 24t58.5 -16.5t29.5 -30.5q10 -16 11 -34.5t1 -39.5l-83 -524h-48l-79 500q0 10 -1.5 19t-1.5 19zM492 1408v19q0 59 36.5 83t73.5 24q39 0 60.5 -16.5t29.5 -30.5q10 -16 11.5 -34.5t-1.5 -39.5l-81 -524h-48l-79 500q-2 10 -2 19z" />
<glyph unicode="#" horiz-adv-x="1366" d="M86 469v158h305l33 221h-291v158h311l64 438h164l-64 -438h226l65 438h160l-62 -438h283v-158h-303l-33 -221h285v-158h-307l-68 -469h-162l68 469h-228l-67 -469h-166l72 469h-285zM553 627h229l31 221h-227z" />
<glyph unicode="$" horiz-adv-x="1280" d="M43 418l207 24q4 -23 16.5 -63.5t52.5 -93.5q35 -47 74 -77t76 -47.5t68.5 -24.5t52.5 -11v518q-78 25 -157 53.5t-144 79.5q-72 53 -115 127t-43 164q0 76 35 149.5t102 131.5q41 35 86 56t88 33.5t82 18.5t66 8v228h137v-228q92 -20 159.5 -43.5t133.5 -74.5 q49 -39 81 -78t51 -75t28.5 -65.5t13.5 -48.5l-190 -18q-16 47 -34 75.5t-26 39.5q-31 41 -61.5 66.5t-60 38.5t-54.5 19.5t-41 8.5v-484q78 -20 165 -53t162.5 -85t125 -127t49.5 -179q0 -102 -47 -181t-120 -132.5t-162 -80t-173 -22.5v-244h-137v244q-90 10 -182.5 42 t-157.5 81q-82 59 -133 145t-74 185zM338 1092q0 -53 22.5 -90t57.5 -63t81 -43t91 -32v451q-29 -4 -59.5 -9.5t-65.5 -23.5q-66 -33 -96.5 -85t-30.5 -105zM727 119q33 4 57.5 7t46.5 9q98 25 142.5 88.5t44.5 130.5q0 92 -72 147.5t-219 102.5v-485z" />
<glyph unicode="%" horiz-adv-x="1835" d="M53 924q0 86 19.5 171t60.5 152.5t103.5 109.5t148.5 42q66 0 126 -28t108.5 -86t76 -148t27.5 -215q-2 -166 -48 -260.5t-95 -135.5q-80 -68 -191 -67q-90 0 -153.5 42t-104.5 108.5t-59.5 149.5t-18.5 165zM186 934q0 -23 3.5 -81t22.5 -119.5t60 -108.5t117 -47 q70 0 121 51q51 47 65.5 131t14.5 162q0 39 -3 80.5t-12.5 83.5t-24.5 79t-42 64q-25 23 -56.5 38t-64.5 15q-45 0 -76.5 -18.5t-54.5 -46t-36 -62.5t-19 -68q-14 -72 -15 -153zM508 -6l651 1403l111 -54l-649 -1402zM1071 449q0 51 5 102t22 102q16 59 48 113.5t79 91.5 q35 29 81 46.5t97 17.5q37 0 80 -11.5t86 -41t80 -79t61 -126.5q16 -53 22.5 -110t6.5 -116q-2 -96 -22.5 -180t-61.5 -145.5t-102.5 -96t-145.5 -34.5q-106 0 -188 63q-55 43 -85 102.5t-44.5 119t-16.5 108.5t-2 74zM1204 451q0 -100 21 -181q8 -27 21.5 -57.5t35 -56 t53 -42t74.5 -16.5q72 0 112 45t58 103.5t22.5 114t4.5 75.5q0 47 -3.5 91t-13.5 87q-2 12 -12 43t-30.5 63t-55.5 56.5t-88 24.5q-55 0 -90 -25.5t-54.5 -59.5t-28.5 -67t-11 -47q-14 -72 -15 -151z" />
<glyph unicode="&#x26;" horiz-adv-x="1236" d="M80 377q0 37 5 72.5t17 70.5q25 72 77 134.5t114 101.5q6 4 23.5 14t37 22.5t37 22.5t23.5 16q-20 55 -33.5 92.5t-21 66t-10.5 53t-3 55.5q0 72 24.5 133t67.5 106t102.5 71t129.5 26q61 0 116.5 -20.5t95.5 -58.5t63.5 -91.5t23.5 -116.5q0 -78 -33 -139.5t-81 -107.5 t-103.5 -79t-98.5 -57q47 -94 98.5 -185.5t108.5 -181.5q47 88 68.5 163t27.5 106h156q-8 -59 -40 -167t-116 -237q10 -12 27.5 -30.5t42.5 -35t56.5 -28.5t72.5 -12q18 0 32.5 2t26.5 4v-170q-16 -4 -32.5 -6t-42.5 -2q-106 0 -177 42t-124 105q-82 -68 -170 -108.5 t-193 -40.5q-74 0 -144.5 26.5t-127 76.5t-90 124t-33.5 168zM252 397q0 -39 15.5 -85t47 -84t78.5 -63.5t111 -25.5q86 0 144.5 38t92.5 69q-16 25 -51 81t-75 122.5t-77 132t-55 108.5q-96 -45 -163.5 -116.5t-67.5 -176.5zM512 1133q0 -53 22.5 -118t45.5 -108 q43 18 84 45t72.5 58.5t50 71.5t18.5 85q0 68 -41 106t-94 38q-57 0 -107.5 -44t-50.5 -134z" />
<glyph unicode="'" horiz-adv-x="425" d="M106 1427q0 59 38 83t75 24t58.5 -16.5t29.5 -30.5q10 -16 11 -34.5t1 -39.5l-83 -524h-48l-79 500q0 10 -1.5 19t-1.5 19z" />
<glyph unicode="(" horiz-adv-x="641" d="M178 651q0 90 15.5 187.5t42 193.5t62.5 187.5t79 169.5q4 10 19.5 34.5t31.5 53t31.5 54t21.5 36.5h133q-121 -211 -195.5 -439.5t-74.5 -470.5q0 -111 19.5 -232.5t55.5 -242.5t85 -233.5t110 -206.5h-133q-33 45 -84 135t-100 211t-84 265.5t-35 297.5z" />
<glyph unicode=")" horiz-adv-x="641" d="M25 -258q86 147 139 281.5t82.5 251t39 212t9.5 164.5q0 141 -25.5 268.5t-48.5 204.5q-51 174 -105.5 278.5t-90.5 164.5h133q92 -141 151.5 -273.5t93 -249t46 -216t12.5 -173.5q0 -135 -31 -273t-74 -257q-37 -98 -83 -186.5t-115 -196.5h-133z" />
<glyph unicode="*" horiz-adv-x="768" d="M53 1157l37 121l234 -74v242h122v-242l234 74l35 -121l-234 -74l154 -190l-100 -80l-146 195l-137 -195l-105 66l146 204z" />
<glyph unicode="+" horiz-adv-x="1366" d="M88 514v164h510v510h164v-510h514v-164h-514v-514h-164v514h-510z" />
<glyph unicode="," horiz-adv-x="468" d="M129 0v223h203v-104q-2 -72 -6 -126t-14.5 -103.5t-26 -98.5t-39.5 -110h-94q12 33 35.5 114.5t29.5 204.5h-88z" />
<glyph unicode="-" horiz-adv-x="598" d="M92 526v156h414v-156h-414z" />
<glyph unicode="." horiz-adv-x="468" d="M131 0v231h203v-231h-203z" />
<glyph unicode="/" horiz-adv-x="681" d="M27 0l477 1438h153l-473 -1438h-157z" />
<glyph unicode="0" horiz-adv-x="1193" d="M100 678q0 154 33 284t96.5 226t154.5 150.5t210 54.5q98 0 189 -44t161 -132.5t111 -219.5t41 -307q0 -156 -34 -285t-98.5 -222t-156.5 -144t-209 -51t-210 51t-156.5 143t-97.5 219t-34 277zM283 688q0 -98 15 -199.5t60 -187.5q10 -18 29 -45t47.5 -51.5t69.5 -42 t96 -17.5q74 0 125 32t85 82t54.5 111.5t30.5 122t13 112.5t3 83q0 90 -14 186.5t-49 176t-95.5 131t-152.5 51.5q-18 0 -48 -4t-62.5 -18.5t-66.5 -44t-63 -81.5q-25 -45 -40 -99t-23 -108.5t-11 -103.5t-3 -86z" />
<glyph unicode="1" horiz-adv-x="1193" d="M242 1010v127q74 0 132 10t103 36.5t74 74t43 122.5h137v-1380h-192v1010h-297z" />
<glyph unicode="2" horiz-adv-x="1193" d="M158 961q0 25 3 62.5t15 80.5t36 88t64 84q53 51 137.5 84t188.5 33q109 0 192 -36t140 -96.5t86 -139.5t29 -163q0 -106 -39 -198t-95.5 -167t-119 -131t-107.5 -95q-39 -33 -64.5 -53.5t-54 -42t-67.5 -47t-101 -66.5h664v-158h-903v176q123 63 230.5 148.5 t207.5 181.5q51 49 98 100t82 108.5t56.5 120t21.5 132.5q0 125 -68.5 195.5t-191.5 70.5q-121 0 -190.5 -65.5t-69.5 -206.5q0 -49 8 -92.5t16 -71.5h-180q-10 31 -17 67.5t-7 96.5z" />
<glyph unicode="3" horiz-adv-x="1193" d="M82 457h186q2 -49 11.5 -102.5t42 -99.5t95 -75.5t173.5 -29.5q16 0 42.5 2t57.5 8t62.5 18t60.5 35q47 41 62.5 90t15.5 94q0 88 -37 135.5t-88 69t-106.5 25.5t-90.5 4q-39 0 -62.5 -1t-53.5 -5v168q29 -2 48 -3.5t54 -1.5q23 0 73 3.5t101 24t90 65.5t39 127 q0 55 -21.5 98t-59.5 72.5t-88 46t-107 16.5q-14 0 -38 -2t-51.5 -9t-56 -23.5t-53.5 -45.5q-47 -53 -57.5 -115.5t-14.5 -127.5l-182 10q4 63 11 114.5t30 106.5q29 70 74 117t100 74.5t116.5 40t123.5 12.5q121 0 208 -34t142 -89.5t81.5 -124t26.5 -137.5q0 -37 -8 -80 t-24 -80q-25 -49 -56.5 -76t-79.5 -55q20 -10 55.5 -30.5t69 -58.5t59 -96.5t25.5 -144.5q0 -70 -25.5 -141.5t-81.5 -129t-148.5 -93t-225.5 -35.5q-125 0 -241.5 40t-190.5 138q-59 78 -72.5 156.5t-15.5 134.5z" />
<glyph unicode="4" horiz-adv-x="1193" d="M86 332v164l662 884h143v-893h201v-155h-201v-332h-180v332h-625zM272 487h439l8 617z" />
<glyph unicode="5" horiz-adv-x="1193" d="M96 430l183 12q6 -49 24.5 -102t53 -96t89 -71t134.5 -28q143 0 225 94.5t82 249.5q0 143 -80 230.5t-221 87.5q-68 0 -116 -20.5t-80 -49t-50 -59.5t-27 -49h-166l46 751h786v-161h-649l-17 -365q14 12 40 31.5t63 38t88 31t117 12.5q115 0 200.5 -43t142 -112t84 -156 t27.5 -175q0 -80 -25.5 -167t-84 -159.5t-151.5 -119.5t-226 -47q-92 0 -176 26.5t-150.5 81t-109.5 137t-56 197.5z" />
<glyph unicode="6" horiz-adv-x="1193" d="M127 674q0 59 6 129.5t23 154.5q6 29 27.5 100.5t72.5 145.5t139 131.5t228 57.5q76 0 149.5 -23.5t124.5 -64.5q37 -29 61.5 -65t42 -73t27.5 -70.5t16 -60.5l-180 -24q-2 18 -12 56t-35.5 75t-72 65.5t-119.5 28.5q-66 0 -126.5 -28.5t-97.5 -84.5q-61 -90 -76.5 -186 t-21.5 -195q131 168 342 168q84 0 163 -30.5t139.5 -87t97 -139.5t36.5 -187q0 -94 -31.5 -181t-90 -153.5t-143.5 -105.5t-193 -39q-35 0 -81 6t-95.5 26.5t-99.5 56.5t-95 97q-25 33 -47.5 75t-40 101.5t-27.5 138t-10 185.5zM332 451q0 -61 21.5 -116.5t59.5 -95.5 t92 -63.5t120 -23.5q72 0 123 26.5t84.5 69.5t50 97.5t16.5 109.5t-17.5 107t-52 93t-87 65.5t-121.5 24.5q-72 0 -126.5 -24.5t-90 -65.5t-54 -94t-18.5 -110z" />
<glyph unicode="7" horiz-adv-x="1193" d="M197 954v426h845v-198q-2 -25 -4 -43.5t-9 -38t-22.5 -47t-43.5 -74.5l-72 -125q-121 -225 -213 -435t-117 -419h-217q16 104 51 211.5t88.5 222.5t123 241t155.5 269l61 94q25 37 39.5 60.5t20.5 42t7 36t1 40.5h-547v-263h-147z" />
<glyph unicode="8" horiz-adv-x="1193" d="M106 410q0 100 44 182q31 61 67.5 92t77.5 57q-27 18 -54.5 42t-49 57.5t-36 79t-14.5 106.5q0 80 31 152.5t92 121.5q41 33 90 51.5t96.5 28t87.5 11.5t64 2q55 0 103.5 -5.5t91.5 -17.5q76 -23 125 -61.5t78.5 -84.5t41 -97.5t11.5 -98.5q0 -72 -19.5 -123t-45 -85 t-52.5 -52.5t-41 -26.5q23 -14 56.5 -36.5t64.5 -60.5t53.5 -93t22.5 -135q0 -84 -30 -162t-91.5 -137.5t-153.5 -94t-219 -34.5t-219 35.5t-152.5 95t-90.5 135.5t-30 156zM293 412q0 -123 87 -189.5t222 -66.5q137 0 219 70.5t80 189.5t-84 181t-225 62 q-82 0 -138.5 -20.5t-92 -55t-52 -79.5t-16.5 -92zM324 1032q0 -55 21.5 -97t49.5 -67q47 -41 106.5 -48t96.5 -7q78 0 125 15.5t74 37.5q29 23 50 64t21 98q0 68 -29.5 109t-72.5 62.5t-90 28.5t-84 7q-137 0 -202.5 -57.5t-65.5 -145.5z" />
<glyph unicode="9" horiz-adv-x="1193" d="M106 907q0 92 29 178t86.5 154t145.5 107.5t204 39.5q145 0 241.5 -56t155 -149.5t83 -217t24.5 -258.5q0 -49 -4 -116t-18.5 -140.5t-42 -148.5t-76.5 -140q-68 -90 -155 -131t-216 -41q-55 0 -118.5 14t-129.5 64q-43 31 -71.5 67.5t-47 73.5t-29.5 69.5t-17 57.5 l178 33q8 -29 21 -67t40 -72.5t71 -59.5t113 -25q76 0 129.5 31t90 77t58 103.5t33 110.5t14.5 96t3 62q-47 -61 -96 -96t-94 -52.5t-85 -23t-69 -5.5q-92 0 -174 32t-143.5 91.5t-97.5 144.5t-36 193zM289 901q0 -74 23.5 -128t63.5 -91t92 -54.5t107 -17.5 q59 0 113.5 17.5t96.5 52.5t69 86t29 119q2 59 -15.5 121.5t-56.5 112.5t-97.5 82t-140.5 32q-74 0 -128 -27.5t-88.5 -74t-51 -106.5t-16.5 -124z" />
<glyph unicode=":" horiz-adv-x="555" d="M217 0v231h201v-231h-201zM217 772v229h201v-229h-201z" />
<glyph unicode=";" horiz-adv-x="555" d="M219 0v227h203v-125q0 -76 -5 -133t-14.5 -106t-25 -91t-33.5 -87h-94q25 78 38 156.5t13 158.5h-82zM219 778v226h203v-226h-203z" />
<glyph unicode="&#x3c;" horiz-adv-x="1366" d="M0 635v176l1366 641v-178l-1161 -551l1161 -553v-176z" />
<glyph unicode="=" horiz-adv-x="1366" d="M0 332v160h1366v-160h-1366zM0 700v162h1366v-162h-1366z" />
<glyph unicode="&#x3e;" horiz-adv-x="1366" d="M0 -6v176l1161 553l-1161 551v178l1366 -641v-176z" />
<glyph unicode="?" horiz-adv-x="1150" d="M145 965q-4 147 44.5 242.5t119 151.5t151.5 77.5t144 21.5q84 0 168 -28.5t151.5 -84t109.5 -138.5t42 -191q0 -70 -18.5 -127.5t-47 -100.5t-63.5 -72.5t-69 -47.5q-72 -37 -189 -50v-311h-162v484q70 0 133 6q35 4 68 11t61 23q41 23 80 75t39 132q0 68 -26.5 117 t-70.5 83t-98.5 50.5t-109.5 16.5q-39 0 -78 -8.5t-73.5 -28t-62.5 -53t-46 -87.5q-14 -41 -17 -84t-1 -79h-179zM516 0v199h180v-199h-180z" />
<glyph unicode="@" horiz-adv-x="1835" d="M141 483q0 184 69 359.5t192.5 311.5t299 220t385.5 84q139 0 251 -43t191 -120.5t122 -187.5t43 -243q0 -41 -6.5 -96t-20.5 -116.5t-38.5 -128t-61.5 -128.5q-78 -131 -172.5 -191.5t-171.5 -60.5q-43 0 -82 17q-31 14 -48.5 33.5t-26.5 42t-11 44t-4 37.5 q-20 -29 -50 -59.5t-67 -55t-81 -41t-97 -16.5q-47 0 -95.5 18.5t-86 57.5t-61.5 101.5t-24 150.5q0 117 35 222.5t95.5 186.5t138.5 129t164 48q61 0 102 -19.5t67.5 -47t42 -57.5t23.5 -48l31 127h139l-67 -307q-16 -84 -27.5 -140.5t-18 -95.5t-9.5 -66.5t-3 -52.5 q0 -53 22.5 -70.5t39.5 -17.5q43 0 97 48t101 130t80 190.5t33 229.5q0 109 -33 197t-97.5 152.5t-158.5 99.5t-217 35q-162 0 -309.5 -70t-260 -187.5t-178 -274.5t-65.5 -333q0 -174 63.5 -292.5t161 -192.5t215 -105.5t228.5 -31.5q176 0 350 70.5t338 226.5l65 -82 q-168 -166 -356 -247t-391 -81q-125 0 -264.5 38t-256 124t-192.5 227t-76 348zM651 485q0 -70 19.5 -111.5t45 -63t53.5 -28t42 -6.5q59 0 111.5 35t93.5 95.5t65.5 139.5t26.5 165q0 59 -15.5 100t-40 66.5t-55 38t-59.5 12.5q-66 0 -119 -42t-90 -106.5t-57.5 -143.5 t-20.5 -151z" />
<glyph unicode="A" horiz-adv-x="1323" d="M20 0l551 1446h201l526 -1446h-202l-158 442h-551l-162 -442h-205zM449 604h432l-211 602z" />
<glyph unicode="B" horiz-adv-x="1409" d="M158 0v1446h596q63 0 106 -1t88 -9q55 -10 111.5 -37t102.5 -70t76 -106.5t30 -147.5q0 -66 -19.5 -119t-50.5 -92t-71 -64.5t-80 -37.5q20 -6 64 -23.5t89 -57.5t79 -107.5t34 -174.5q0 -27 -4 -66.5t-20.5 -83.5t-49.5 -90t-90 -83q-43 -27 -85 -42.5t-91 -22.5 t-109.5 -9t-140.5 -2h-565zM340 170h428q78 2 112.5 3t65.5 9q92 23 130 84.5t38 147.5q0 63 -19.5 106t-44 69.5t-47 40t-28.5 15.5q-20 10 -42 15.5t-52.5 8.5t-74.5 4t-112 1h-354v-504zM340 838h301q82 0 143.5 2t107.5 11t79 28.5t57 56.5q20 29 28.5 62.5t8.5 66.5 q0 78 -32 121t-77 62.5t-92 23.5t-76 4h-448v-438z" />
<glyph unicode="C" horiz-adv-x="1536" d="M100 723q0 154 45 292t135.5 241.5t228.5 165t325 61.5q188 0 309 -55.5t193.5 -129t107.5 -147.5t47 -111l-195 -41q-14 41 -29.5 78t-56.5 84q-53 66 -147 117t-232 51q-117 0 -221 -45t-176 -137q-70 -86 -95.5 -194.5t-25.5 -219.5q0 -135 34 -246.5t99.5 -192.5 t162 -126t220.5 -45q80 0 159 23.5t144.5 74.5t112.5 132t64 196l211 -25q-23 -102 -78.5 -202.5t-144.5 -180.5t-210.5 -129t-279.5 -49q-178 0 -311.5 62.5t-221.5 167t-131 242.5t-43 288z" />
<glyph unicode="D" horiz-adv-x="1449" d="M160 0v1446h452q78 0 151 -3t141.5 -19.5t134 -52.5t128.5 -103q66 -70 102 -150t53 -154.5t21.5 -138t4.5 -102.5q0 -37 -4.5 -104.5t-24 -147.5t-60 -164t-114.5 -153q-63 -57 -130 -89t-131.5 -46.5t-121.5 -16.5t-105 -2h-497zM356 166h256q96 2 172 10t148 49 q37 20 74.5 56t70.5 94.5t53.5 143.5t20.5 202q0 90 -14.5 173t-49 153.5t-93 124t-144.5 79.5q-59 18 -123.5 21.5t-142.5 3.5h-228v-1110z" />
<glyph unicode="E" horiz-adv-x="1236" d="M160 0v1446h997v-170h-811v-447h705v-170h-705v-491h836v-168h-1022z" />
<glyph unicode="F" horiz-adv-x="1110" d="M160 0v1448h927v-172h-735v-428h684v-168h-684v-680h-192z" />
<glyph unicode="G" horiz-adv-x="1662" d="M102 705q0 139 43 277t133.5 249.5t232.5 181.5t339 70q139 0 269 -45t235 -140q72 -70 109.5 -134t54.5 -99l-199 -53q-12 33 -33.5 78t-66.5 92q-20 23 -53 48t-78.5 45.5t-102.5 34t-129 13.5q-152 0 -256 -56.5t-167.5 -144.5t-91.5 -193.5t-28 -203.5 q0 -102 29 -207.5t91.5 -191.5t164.5 -140.5t250 -54.5q68 0 156 19.5t165.5 71.5t130.5 144q52 90 52 226v10h-506v162h672v-764h-166v203q-45 -66 -105.5 -112t-130 -74.5t-144.5 -41t-149 -12.5q-168 0 -301 55.5t-226 154.5t-143.5 235.5t-50.5 296.5z" />
<glyph unicode="H" horiz-adv-x="1492" d="M162 0v1448h192v-617h787v617h194v-1448h-194v662h-787v-662h-192z" />
<glyph unicode="I" horiz-adv-x="468" d="M137 0v1446h195v-1446h-195z" />
<glyph unicode="J" horiz-adv-x="768" d="M18 -14v209q31 -16 74 -28.5t96 -12.5q31 0 69 6t67 22q33 16 51 41t26.5 59.5t9.5 81t1 103.5v981h196v-1063q0 -82 -10 -156.5t-74 -144.5q-37 -41 -79 -64.5t-84 -36t-79.5 -15.5t-68.5 -3q-76 0 -123 8.5t-72 12.5z" />
<glyph unicode="K" horiz-adv-x="1280" d="M137 0v1446h193v-707l686 707h237l-585 -598l610 -848h-234l-509 711l-205 -207v-504h-193z" />
<glyph unicode="L" d="M139 0v1448h193v-1276h700v-172h-893z" />
<glyph unicode="M" horiz-adv-x="1662" d="M139 0v1446h248l444 -1186l447 1186h248v-1446h-191l27 1212l-457 -1212h-149l-449 1194l21 -1194h-189z" />
<glyph unicode="N" horiz-adv-x="1449" d="M160 0v1446h180l784 -1159l-8 1159h174v-1446h-174l-792 1176l16 -1176h-180z" />
<glyph unicode="O" horiz-adv-x="1662" d="M104 723q0 201 63.5 345t167 236.5t233.5 135.5t266 43q152 0 284.5 -50.5t231 -145.5t155 -234.5t56.5 -315.5q0 -162 -47.5 -303t-139.5 -245.5t-229 -165t-318 -60.5q-166 0 -299 55.5t-227 155.5t-145.5 240.5t-51.5 308.5zM313 721q0 -113 30 -222.5t92.5 -194.5 t161.5 -137t239 -52q145 0 244.5 55t159.5 143t86 199.5t26 222.5q0 131 -35 239.5t-100.5 187.5t-162 122t-220.5 43q-137 0 -235.5 -49t-162 -132t-93.5 -192.5t-30 -232.5z" />
<glyph unicode="P" horiz-adv-x="1280" d="M156 0v1446h624q53 0 112.5 -3t117.5 -22q127 -45 187 -151.5t60 -233.5q0 -59 -14 -120.5t-46 -117t-83 -98.5t-123 -65q-53 -16 -109.5 -19.5t-121.5 -3.5h-418v-612h-186zM342 782h403q84 0 143.5 8.5t108.5 57.5q37 37 53.5 88t16.5 104q0 37 -12.5 89.5t-63.5 95.5 q-47 41 -99 48t-104 7h-446v-498z" />
<glyph unicode="Q" horiz-adv-x="1662" d="M96 723q0 164 50.5 303t145.5 240.5t231 159t311 57.5q180 0 316 -59.5t227 -162t137.5 -241.5t46.5 -297q0 -154 -35 -259.5t-99 -201.5l224 -192l-121 -144l-232 195q-78 -61 -191.5 -109.5t-283.5 -48.5q-174 0 -309 59.5t-228 163t-141.5 241.5t-48.5 296zM305 727 q0 -135 37 -247.5t105.5 -192.5t166 -124t220.5 -44q109 0 204 38t165.5 113.5t110.5 188t40 262.5t-41 263.5t-110.5 191t-166 117.5t-207.5 40q-113 0 -209 -42t-165.5 -119.5t-109.5 -190.5t-40 -254z" />
<glyph unicode="R" horiz-adv-x="1366" d="M160 0v1446h536q76 0 136.5 -2t112.5 -10.5t96 -25.5t87 -50q80 -59 116 -146.5t36 -187.5q0 -127 -44 -203t-101.5 -117.5t-113.5 -57t-83 -19.5l405 -627h-229l-393 614h-373v-614h-188zM348 774h383q47 0 90 2t86 12q100 25 140 90.5t40 143.5q0 14 -2 37.5t-10 52.5 t-25.5 58.5t-48.5 54.5q-57 47 -126.5 54t-153.5 7h-373v-512z" />
<glyph unicode="S" horiz-adv-x="1366" d="M76 461l207 26q0 -20 3 -53t15 -70.5t34.5 -77.5t63.5 -77q61 -53 139 -74.5t158 -21.5q78 0 143.5 18.5t113.5 55t76 91t28 123.5q0 63 -22.5 104.5t-61.5 69t-88 43t-103 25.5l-120 25q-78 16 -169.5 40.5t-168 69.5t-128 117t-51.5 184q0 53 13.5 97.5t33 79t43 60 t44.5 44.5q49 41 101 65.5t103.5 37t98.5 16.5t84 4q39 0 86 -3t98 -14.5t103.5 -32t101.5 -57.5q53 -39 87 -85t54.5 -91t29.5 -88t15 -76l-194 -12q0 16 -3.5 45t-15.5 61.5t-34.5 67.5t-63.5 66q-55 41 -122 55t-136 14q-66 0 -125.5 -13t-104.5 -42t-71.5 -71 t-26.5 -101t26.5 -98t68.5 -63.5t92.5 -39t97.5 -24.5l159 -41q84 -20 134.5 -32.5t93.5 -31.5q82 -33 131 -80t75.5 -97t35 -98t8.5 -85q0 -102 -43 -193.5t-142 -156.5q-51 -35 -107 -55.5t-108.5 -31t-98.5 -13.5t-79 -3t-89 4t-120.5 19.5t-133.5 46t-125 86t-96 139.5 t-48 203z" />
<glyph unicode="T" horiz-adv-x="1110" d="M20 1278v170h1061v-170h-432v-1278h-194v1278h-435z" />
<glyph unicode="U" horiz-adv-x="1409" d="M154 551v897h194v-870v-34q0 -80 8 -150q10 -84 66 -154q33 -39 70.5 -62.5t74.5 -34t71 -13.5t54 -3q129 0 221.5 60.5t124.5 179.5q12 47 14.5 96t4.5 119v866h194v-924q-2 -45 -4 -92t-14 -96q-14 -66 -53 -131.5t-105.5 -118.5t-161 -87t-221.5 -34q-39 0 -94 5 t-115.5 24.5t-122 58.5t-112.5 105q-37 47 -55.5 91t-27.5 91t-10 98t-1 113z" />
<glyph unicode="V" horiz-adv-x="1236" d="M23 1446h204l383 -1208l398 1208h204l-510 -1446h-192z" />
<glyph unicode="W" horiz-adv-x="2091" d="M37 1446h203l342 -1198l366 1198h189l381 -1198l337 1198h199l-442 -1446h-189l-381 1198l-368 -1198h-193z" />
<glyph unicode="X" horiz-adv-x="1280" d="M43 0l481 758l-454 688h229l338 -520l321 520h228l-441 -688l494 -758h-227l-375 588l-371 -588h-223z" />
<glyph unicode="Y" horiz-adv-x="1280" d="M27 1446h229l379 -612l387 612h229l-520 -784v-662h-194v662z" />
<glyph unicode="Z" horiz-adv-x="1236" d="M37 0v188l893 1080h-821v178h1040v-180l-889 -1092h909v-174h-1132z" />
<glyph unicode="[" horiz-adv-x="641" d="M233 -227v1753h385v-127h-212v-1503h212v-123h-385z" />
<glyph unicode="\" horiz-adv-x="681" d="M27 1438h157l473 -1438h-153z" />
<glyph unicode="]" horiz-adv-x="641" d="M23 -100h213v1503h-213v123h385v-1753h-385v127z" />
<glyph unicode="^" horiz-adv-x="1366" d="M227 690l385 756h158l369 -756h-199l-254 531l-262 -531h-197z" />
<glyph unicode="_" horiz-adv-x="1024" d="M-20 -154h1064v-102h-1064v102z" />
<glyph unicode="`" horiz-adv-x="555" d="M145 1362h181l84 -295h-97z" />
<glyph unicode="a" horiz-adv-x="1024" d="M66 250q0 82 43 145q20 31 52 58.5t83 49t126.5 38t184.5 24.5l154 13v24q0 37 -3.5 84t-23.5 88t-64.5 68.5t-125.5 27.5q-78 0 -120 -24.5t-61.5 -57t-22.5 -67.5t-3 -53l-172 10q4 27 10 64.5t29 80.5q43 80 126.5 126t206.5 46q68 0 147 -18.5t136 -63.5 q41 -33 62.5 -69.5t30.5 -77.5t10 -85t1 -93v-314q2 -70 10.5 -104.5t59.5 -34.5q29 0 53 10v-141q-20 -4 -43.5 -10t-58.5 -6q-57 0 -106.5 27.5t-61.5 115.5q-18 -18 -47 -46t-69 -52.5t-93 -42t-123 -17.5t-130 20.5t-104 56.5t-68.5 87t-24.5 113zM246 254 q0 -59 45 -101t137 -42q86 0 153.5 34.5t102.5 110.5q10 20 15.5 36.5t7.5 39t3 55.5t1 86q-47 -8 -111.5 -18.5t-142.5 -26.5q-68 -14 -109 -33.5t-64.5 -42t-30.5 -48t-7 -50.5z" />
<glyph unicode="b" horiz-adv-x="1150" d="M133 0v1448h164v-614q12 14 35.5 41.5t62.5 54t96.5 46t137.5 19.5q78 0 157.5 -27.5t143 -89t103.5 -159.5t40 -238q0 -92 -23.5 -183t-75.5 -164t-138 -118t-209 -45q-74 0 -128.5 16.5t-94 40t-65.5 50t-42 47.5v-125h-164zM293 481q0 -100 25.5 -170.5t68.5 -115.5 t98.5 -65.5t112.5 -20.5q84 0 141.5 33.5t92 88t51 123t16.5 135.5q0 90 -23.5 157t-64.5 111t-95 66.5t-116 22.5q-49 0 -103.5 -17.5t-99.5 -58.5t-74.5 -112t-29.5 -177z" />
<glyph unicode="c" d="M80 473q0 102 27.5 197.5t85 167t145.5 114.5t209 43q59 0 126.5 -13t131 -48t114 -98.5t74.5 -163.5l-180 -17q-2 14 -12 51t-38 75t-78 67t-132 29q-104 0 -163.5 -49.5t-88.5 -115t-35 -130t-6 -97.5q0 -78 15.5 -144.5t48.5 -115.5q41 -66 102 -97.5t137 -31.5 q88 0 140.5 32t80 75t37.5 88t15 74l176 -17q-4 -29 -15 -69.5t-41 -94.5q-59 -111 -159.5 -162t-235.5 -51q-133 0 -225 45t-148.5 117t-82 162t-25.5 178z" />
<glyph unicode="d" horiz-adv-x="1150" d="M80 487q0 141 41 238.5t105.5 157t142 86t151.5 26.5q25 0 64 -4t85 -20.5t95 -48t90 -84.5v610h164v-1448h-164v125q-14 -18 -40 -44t-64.5 -50.5t-95 -42t-132.5 -17.5q-104 0 -186 38t-139.5 105.5t-87 163t-29.5 209.5zM254 481q0 -74 17.5 -140.5t54 -116.5 t94 -78.5t135.5 -28.5q141 0 222 98t81 272q0 102 -27.5 171t-71.5 111t-96.5 60.5t-101.5 18.5q-47 0 -100 -15.5t-99.5 -57.5t-77 -112.5t-30.5 -181.5z" />
<glyph unicode="e" d="M80 492q0 137 44 232t112.5 155.5t151.5 88t159 27.5q68 0 134.5 -19.5t123.5 -60.5t101 -105.5t65 -156.5q14 -61 16 -113.5t2 -82.5h-733v-13q0 -55 14 -112q16 -64 53 -117t97.5 -87t146.5 -34q111 0 172.5 63.5t83.5 161.5l166 -22q-8 -25 -31.5 -79t-72.5 -108.5 t-129 -96.5t-203 -42q-106 0 -194.5 36t-150 102.5t-95 163t-33.5 219.5zM260 573h551q-6 96 -38 153.5t-75 90.5t-88 43t-75 10q-104 0 -182.5 -74.5t-92.5 -222.5z" />
<glyph unicode="f" horiz-adv-x="555" d="M23 829v136h161l2 196q0 31 5.5 78t29 90t73.5 75t142 32q35 0 65.5 -4.5t53.5 -8.5v-127q-23 4 -48.5 6.5t-41.5 2.5q-45 0 -69.5 -16.5t-37 -41t-14.5 -55.5t-2 -59v-168h182v-136h-182v-829h-158v829h-161z" />
<glyph unicode="g" horiz-adv-x="1150" d="M84 477q0 145 42 244.5t108.5 160t145.5 87t152 26.5q68 0 150 -30.5t166 -128.5v129h170v-912q0 -86 -6 -172t-54 -164q-57 -100 -164.5 -143t-222.5 -43q-78 0 -156.5 19.5t-138.5 62.5q-45 33 -72.5 73t-43 77.5t-21.5 71.5t-10 56h184q0 -41 13.5 -81.5t44 -73.5 t83 -52.5t128.5 -19.5q84 0 132 22.5t72 47.5q23 25 35.5 51.5t17.5 60t7 78.5t2 105v112q-12 -18 -38 -46.5t-64.5 -56.5t-92 -47.5t-123.5 -19.5q-88 0 -168.5 32t-142 95.5t-98.5 158.5t-37 220zM252 483q0 -20 2 -50t8 -63.5t19.5 -69.5t37.5 -69q51 -68 115 -91 t123 -23q154 0 236 123q23 33 35 68.5t18 70.5t8 66.5t2 52.5q0 123 -39 192.5t-91 105t-103 44t-76 8.5q-133 -2 -214 -99.5t-81 -265.5z" />
<glyph unicode="h" d="M135 0v1448h166v-580q78 82 150.5 104.5t142.5 22.5q80 0 137 -20.5t95 -51t60.5 -68.5t33.5 -73q14 -47 16 -98t2 -123v-561h-166v510q0 96 -5 155.5t-34 104.5q-31 45 -77 63.5t-93 18.5q-39 0 -79 -11.5t-73.5 -36t-59 -64.5t-38.5 -95q-10 -41 -11 -82t-1 -94v-469 h-166z" />
<glyph unicode="i" horiz-adv-x="425" d="M141 0v965h158v-965h-158zM141 1257v189h158v-189h-158z" />
<glyph unicode="j" horiz-adv-x="425" d="M-47 -315q23 -4 39 -5.5t35 -1.5q41 0 62.5 11.5t30.5 32t11 48t2 60.5v1133h160v-1176q-2 -59 -8 -107.5t-45 -89.5q-41 -41 -87.5 -50t-91.5 -9q-39 0 -65.5 2t-42.5 4v148zM133 1255v191h160v-191h-160z" />
<glyph unicode="k" horiz-adv-x="937" d="M133 0v1446h166v-891l385 410h201l-359 -381l441 -584h-205l-346 463l-117 -123v-340h-166z" />
<glyph unicode="l" horiz-adv-x="425" d="M135 0v1446h158v-1446h-158z" />
<glyph unicode="m" horiz-adv-x="1579" d="M125 0v965h160v-129q43 51 84 82.5t77.5 48t68.5 22.5t58 6q59 0 101.5 -17t72 -43t51 -57.5t38.5 -60.5q31 31 65.5 62.5t73.5 57.5t84 42t98 16q90 0 163 -48t101 -120q18 -45 22.5 -97t4.5 -124v-604h-160v565q0 66 -1 97.5t-7 56.5q-12 41 -34.5 65.5t-48.5 37 t-49.5 15.5t-35.5 3q-51 0 -102.5 -22.5t-85.5 -59.5q-20 -20 -31.5 -41t-18 -45.5t-7.5 -56t-1 -74.5v-541h-159v621q0 29 -4.5 72.5t-32.5 80.5q-16 23 -52 44.5t-90 21.5q-47 0 -94 -18.5t-86 -53.5q-47 -43 -55 -87t-8 -110v-573h-160z" />
<glyph unicode="n" d="M133 0v965h164v-142q35 59 78 93t85 51.5t80 22.5t58 5q47 0 95 -12t92 -38.5t78 -68.5t52 -102q12 -43 14.5 -90t2.5 -109v-575h-162v549q0 74 -1 104.5t-9 55.5q-23 70 -82.5 101.5t-124.5 31.5q-111 0 -184 -74q-53 -53 -62.5 -108.5t-9.5 -108.5v-551h-164z" />
<glyph unicode="o" horiz-adv-x="1110" d="M82 475q0 80 22.5 172t78 169t147.5 128t233 51q121 0 208 -43t144.5 -113.5t85 -164t27.5 -191.5q0 -111 -32.5 -204t-93 -161.5t-147.5 -107.5t-198 -39q-125 0 -215 43t-147.5 114t-85 162t-27.5 185zM260 473q0 -76 16.5 -143.5t52.5 -117.5t91 -80t135 -30 q102 0 160.5 46.5t88.5 107.5t38 125.5t8 101.5q1 16 1 30q0 28 -3 50q-4 33 -8 55q-14 72 -43 119t-66 76t-80 40t-84 11q-82 0 -140 -29.5t-95 -83t-54.5 -124t-17.5 -154.5z" />
<glyph unicode="p" horiz-adv-x="1150" d="M131 -457v1422h162v-138q25 29 43 48.5t47 39.5q47 33 114.5 56.5t139.5 23.5q78 0 155.5 -31.5t139 -95t100.5 -160t39 -227.5q0 -102 -27.5 -195t-84 -163t-141.5 -111t-200 -41q-98 0 -181 34t-144 110v-572h-162zM293 467q0 -158 76.5 -255t224.5 -97q43 0 87 9 t83 34q20 12 43.5 37.5t45 65.5t36 94.5t14.5 127.5q0 174 -86 269q-81 90 -211 90h-16q-141 -4 -219 -106.5t-78 -268.5z" />
<glyph unicode="q" horiz-adv-x="1150" d="M80 469q0 135 35 230.5t88 154.5q55 63 138 102t181 39q29 0 66 -5t80 -21q86 -33 127 -79t57 -69v144h166v-1424h-166v576q-16 -23 -36.5 -42.5t-55.5 -41.5q-35 -23 -93.5 -42.5t-148.5 -19.5q-109 0 -190.5 38t-137 104.5t-83 157.5t-27.5 198zM260 479 q0 -51 10.5 -125.5t57.5 -140.5q6 -8 23.5 -26.5t45 -37t67.5 -33t95 -14.5q78 0 138.5 30t95.5 73q41 51 56 115.5t15 130.5q0 180 -81 284.5t-222 108.5q-76 0 -137 -29q-55 -27 -88 -67.5t-49.5 -87t-21.5 -94.5t-5 -87z" />
<glyph unicode="r" horiz-adv-x="641" d="M133 0v965h164v-177q35 68 82 106t94 56.5t89 22.5t67 4v-176q-16 2 -31.5 3t-36.5 1q-72 0 -130 -27.5t-93 -87.5q-33 -53 -37 -115.5t-4 -128.5v-446h-164z" />
<glyph unicode="s" horiz-adv-x="980" d="M66 309l184 29v-13q0 -30 7 -74q9 -54 65 -101q43 -37 94 -46.5t100 -9.5q109 0 168 41t59 119q0 41 -15 67.5t-42 43t-63.5 25.5t-79.5 18l-92 18q-57 14 -119 31.5t-113 47.5t-83 78t-32 124q0 133 102.5 209.5t270.5 76.5q70 0 138.5 -17.5t126 -55t97.5 -97 t52 -145.5l-176 -23q-2 45 -12.5 82t-57.5 74t-98 47t-88 10q-96 0 -143.5 -46t-47.5 -95q0 -35 18.5 -58.5t50.5 -40t74 -28.5t89 -25l92 -22q43 -10 98 -26.5t105.5 -47t84 -80t33.5 -125.5q0 -59 -25.5 -114.5t-76.5 -97.5t-127 -67.5t-176 -25.5q-82 0 -161 18.5 t-138 59.5q-12 8 -32.5 27.5t-43 51.5t-42 77t-25.5 106z" />
<glyph unicode="t" horiz-adv-x="598" d="M35 829v136h153v305h168v-305h176v-136h-176v-553q0 -86 8.5 -124.5t61.5 -38.5q23 0 52.5 7t53.5 15v-135q-23 -4 -66.5 -10t-90.5 -6q-70 0 -109 16t-56 46t-19.5 70t-2.5 87v626h-153z" />
<glyph unicode="u" d="M133 399v566h162v-551v-59.5v-36t1 -20.5t3 -17q6 -47 26.5 -77t48 -46.5t58.5 -22.5t60 -6q76 0 131 26.5t86 65.5q45 53 52 113.5t7 146.5v484h162v-965h-162v147q-12 -14 -36.5 -43.5t-64.5 -57.5t-96.5 -49.5t-132.5 -21.5q-100 0 -156.5 36t-78.5 63 q-27 31 -41.5 62.5t-20.5 69.5t-7 85t-1 108z" />
<glyph unicode="v" horiz-adv-x="894" d="M25 965h170l256 -740l254 740h167l-348 -965h-147z" />
<glyph unicode="w" horiz-adv-x="1492" d="M23 965h176l241 -717l238 717h141l230 -717l251 717h173l-355 -965h-143l-232 719l-235 -719h-150z" />
<glyph unicode="x" horiz-adv-x="811" d="M16 0l301 489l-284 476h188l193 -332l194 332h185l-291 -476l291 -489h-185l-205 344l-200 -344h-187z" />
<glyph unicode="y" horiz-adv-x="894" d="M18 -309q16 -4 43 -10.5t62 -6.5q45 0 73.5 13.5t49 39t36 63.5t33.5 87l41 117l-327 971h174l241 -766l256 766h170l-405 -1141q-27 -74 -50.5 -129t-56 -94t-77.5 -58.5t-113 -19.5q-49 0 -86 7t-64 15v146z" />
<glyph unicode="z" horiz-adv-x="854" d="M27 0v135l555 688h-504v142h706v-131l-559 -699h572v-135h-770z" />
<glyph unicode="{" horiz-adv-x="724" d="M139 614v82q37 10 67 26.5t54 72.5q16 39 20.5 89t4.5 142v113q2 129 13 204.5t62 131.5q29 31 56.5 47t62.5 25t80 13.5t107 6.5v-82q-41 -10 -89.5 -29.5t-80.5 -77.5q-23 -37 -28 -88t-7 -149v-21v-93t-2 -93q-2 -76 -15.5 -125t-37 -80t-55.5 -47t-68 -29 q41 -14 73.5 -33.5t55 -49t35 -75.5t14.5 -114q2 -43 2 -86v-86v-45q0 -74 5 -129t25.5 -95t60.5 -68t112 -48v-82q-106 4 -178 17.5t-123 66.5q-31 31 -47.5 71t-23.5 81.5t-7 83.5v79v119q0 102 -3 151.5t-20 88.5q-25 59 -57.5 79.5t-67.5 34.5z" />
<glyph unicode="|" horiz-adv-x="468" d="M152 -512v2048h163v-2048h-163z" />
<glyph unicode="}" horiz-adv-x="724" d="M59 -176q41 10 89.5 29.5t80.5 76.5q23 37 28 88.5t7 149.5v20v93.5t2 93.5q2 78 16.5 126t37 78.5t54.5 47t68 28.5q-41 16 -73.5 35t-55 48.5t-35 75.5t-14.5 114q-2 43 -2 86v86v45q0 74 -5 129t-25.5 95t-60.5 67.5t-112 48.5v82q106 -4 178 -17.5t123 -66.5 q31 -31 47.5 -71t23.5 -82t7 -84v-79v-118q0 -100 4 -150.5t19 -89.5q25 -59 57.5 -79.5t67.5 -35.5v-82q-37 -10 -67 -26.5t-54 -71.5q-16 -39 -20.5 -89t-4.5 -142v-113q-2 -129 -13 -205t-62 -131q-27 -31 -55.5 -47t-63.5 -25.5t-80 -13.5t-107 -6v82z" />
<glyph unicode="~" horiz-adv-x="1366" d="M190 592q12 18 35 48t56.5 57.5t79 47t102.5 19.5q61 0 116.5 -20.5t110.5 -47.5l68 -30q47 -20 78.5 -31.5t64.5 -11.5q31 0 60.5 12t55 31.5t46 42t35.5 41.5l78 -146q-18 -25 -46 -53.5t-64 -53t-79 -41t-92 -16.5q-51 0 -95 17.5t-112 48.5q-72 35 -123 56.5 t-98 21.5q-31 0 -52.5 -7.5t-43 -23.5t-44 -42t-55.5 -65z" />
<glyph unicode="&#xa1;" horiz-adv-x="555" d="M158 0v590l49 555h63l49 -578v-567h-161zM158 1262v184h161v-184h-161z" />
<glyph unicode="&#xa2;" horiz-adv-x="1024" d="M57 487q0 76 15.5 139.5t42 114t59.5 88t66 64.5q68 51 131 68.5t102 23.5v199h123v-199q29 -4 79 -13t105 -44q49 -31 82 -68t54.5 -73.5t34 -69.5t18.5 -53l-183 -19q-6 61 -29.5 99t-52 60.5t-58.5 33t-50 16.5v-745q27 4 59.5 15t67.5 40q29 25 45 53.5t25.5 56 t12.5 52t5 43.5l178 -17q-8 -33 -21.5 -81t-45.5 -101q-37 -63 -82 -100t-90 -57.5t-86 -28t-70 -9.5v-211h-121v211q-47 8 -113.5 28t-136.5 81q-74 66 -120 170t-46 233zM231 487q0 -117 29 -188.5t68 -111.5t80 -55t65 -21v745q-129 -35 -185.5 -134t-56.5 -235z" />
<glyph unicode="&#xa3;" horiz-adv-x="1366" d="M74 578v133h268q-53 88 -89 165.5t-36 176.5q0 104 47 184t123 134t172 83t195 29q98 0 188 -29t158.5 -86t111.5 -143t48 -201l-213 -23l2 37q0 129 -81 213t-227 84q-53 0 -107 -14t-97 -46t-71 -82t-28 -120q0 -86 29 -146.5t57 -105.5l72 -110h430v-133h-356 q12 -41 21 -68t13.5 -47.5t6.5 -36.5t2 -39q0 -61 -9.5 -101t-13.5 -57q18 -10 46 -24.5t61.5 -27.5t71.5 -22.5t75 -9.5q78 0 137.5 51.5t63.5 170.5l192 -15q-4 -37 -19 -100.5t-53 -124.5t-103.5 -106.5t-168.5 -45.5q-84 0 -152.5 20.5t-119.5 43.5l-107 49 q-57 -45 -79 -57q-41 -27 -97.5 -44.5t-111.5 -17.5q-102 0 -167 53.5t-65 135.5q0 33 13.5 65.5t41 58t68.5 41t98 15.5q33 0 87.5 -7t121.5 -30q2 10 2 16.5v16.5q0 59 -27.5 124.5t-62.5 119.5h-362zM256 143q0 -12 14.5 -30.5t51.5 -18.5q18 0 57 10.5t86 55.5 q-6 2 -24.5 8t-40 12t-43 10.5t-33.5 4.5q-39 0 -53.5 -19.5t-14.5 -32.5z" />
<glyph unicode="&#xa4;" horiz-adv-x="1366" d="M86 221l156 154q-20 33 -40 64.5t-34 68.5t-22.5 83t-8.5 107q0 63 11.5 113.5t28 88.5t34.5 66.5t31 47.5l-154 153l123 123l154 -153q23 16 51 33.5t67 34t89.5 26.5t113.5 10q57 0 101 -8t81 -22.5t69 -33t64 -40.5l154 153l123 -123l-154 -153q20 -33 39 -64.5 t33 -68.5t22.5 -80t8.5 -101q0 -61 -8.5 -108t-22.5 -84t-32.5 -68.5t-41.5 -64.5l156 -158l-125 -121l-154 156q-33 -20 -65.5 -38.5t-69.5 -33t-80 -22.5t-100 -8q-59 0 -105.5 8t-83 22.5t-68.5 33.5t-62 40l-156 -156zM301 698q0 -88 32 -160.5t85 -122.5t121.5 -78 t142.5 -28q76 0 144.5 28t120.5 78t84 121.5t32 159.5q0 90 -32 162t-85 121t-120.5 75.5t-139.5 26.5q-80 0 -149.5 -28.5t-122 -79.5t-83 -121t-30.5 -154z" />
<glyph unicode="&#xa5;" horiz-adv-x="1280" d="M29 1386h229l379 -587l387 587h227l-350 -505h229v-148h-325l-78 -106h403v-148h-399v-479h-192v479h-398v146h400l-68 106h-332v146h234z" />
<glyph unicode="&#xa6;" horiz-adv-x="468" d="M152 358h163v-716h-163v716zM152 666v716h163v-716h-163z" />
<glyph unicode="&#xa7;" horiz-adv-x="1280" d="M76 758q0 68 21.5 119t52 90t63.5 64.5t55 41.5q-33 35 -58.5 75t-25.5 105q0 53 24.5 110.5t76 106t131.5 79t192 30.5q25 0 63 -2t97 -16.5t143 -45t197 -88.5l-84 -143q-25 16 -68 41t-98 47.5t-120.5 40t-133.5 17.5q-47 0 -89 -10.5t-74.5 -29t-51 -45t-18.5 -61.5 t16 -59.5t41 -42t55.5 -29.5t59.5 -23l151 -57q47 -14 97.5 -35.5t96.5 -43t85 -43t61 -38.5q16 -12 45 -35.5t57.5 -61.5t49 -90t20.5 -120q0 -57 -16 -106t-44 -90t-62.5 -72t-69.5 -51q66 -53 84 -112.5t18 -94.5q0 -57 -27.5 -115.5t-82 -106.5t-132 -78t-178.5 -30 q-94 0 -202 31q-68 18 -157 53t-175 80l80 154q104 -70 220 -113t240 -43q111 0 161 45t50 100q0 37 -16 63.5t-43 46t-60.5 34t-68.5 28.5l-131 58q-127 47 -219 98t-139 86q-25 18 -52.5 43t-51 60.5t-40 80.5t-16.5 103zM262 778q0 -51 24.5 -90t76 -74.5t129 -73.5 t182.5 -85l176 -80q33 12 64.5 32.5t57 48t41 61.5t15.5 71q0 49 -23.5 89t-62.5 71.5t-90 58.5t-104 49l-185 78l-131 51q-16 -6 -45 -22.5t-56.5 -42t-48 -61.5t-20.5 -81z" />
<glyph unicode="&#xa8;" horiz-adv-x="555" d="M-14 1108v211h178v-211h-178zM389 1108v211h180v-211h-180z" />
<glyph unicode="&#xa9;" horiz-adv-x="1705" d="M125 723q0 154 57.5 287t156.5 231t232.5 154.5t284.5 56.5q154 0 287 -56.5t230 -154.5t153.5 -231t56.5 -289q0 -111 -31.5 -213t-85.5 -189q-43 -68 -106.5 -127t-142 -103t-171 -69.5t-194.5 -25.5q-141 0 -272 53t-232.5 149.5t-162 230.5t-60.5 296zM190 721 q0 -135 51.5 -255t140.5 -210t211 -143.5t265 -53.5q131 0 250 48.5t209 135.5t144.5 209t56.5 269q2 133 -47.5 254t-136.5 212t-208.5 145t-267.5 54q-137 0 -259 -51t-213 -141t-143.5 -211t-52.5 -262zM385 725q0 102 36 190.5t99.5 155t151.5 104t194 37.5 q86 0 150.5 -21.5t113 -50t79 -60t48.5 -52.5l-114 -106q-18 18 -42 41.5t-57.5 45t-75.5 36t-98 14.5q-68 0 -126 -23.5t-103 -67.5t-70.5 -105.5t-25.5 -137.5t27.5 -137.5t72.5 -104.5t103.5 -65.5t119.5 -22.5q57 0 101.5 14.5t77 34t56 43t40.5 41.5l114 -100 q-18 -20 -49.5 -53t-79 -61.5t-112 -50t-150.5 -21.5q-104 0 -192 35.5t-152.5 100t-100.5 154t-36 193.5z" />
<glyph unicode="&#xaa;" horiz-adv-x="641" d="M61 1020q0 66 34 104.5t88.5 58t121 27t129.5 11.5q0 29 -1 57.5t-11 53t-35 39.5t-68 15q-45 0 -69.5 -13t-35.5 -31.5t-12 -39t-1 -36.5l-113 6q2 20 9 54t31 65.5t69 54t120 22.5q23 0 67 -6t85 -39q47 -35 55 -74.5t13 -80.5v-234q2 -29 8 -50t37 -21q14 0 20 3t10 7 v-94q-10 -4 -24.5 -8.5t-36.5 -4.5q-57 0 -78.5 27t-32.5 49q-29 -29 -68.5 -56.5t-123.5 -27.5q-88 0 -137.5 46t-49.5 116zM180 1026q0 -27 11.5 -42t26.5 -24.5t31.5 -12.5t29.5 -3q37 0 71.5 16.5t57.5 45.5q23 31 25.5 68.5t0.5 72.5q-90 -12 -141 -25.5t-75.5 -29 t-31 -32t-6.5 -34.5z" />
<glyph unicode="&#xab;" horiz-adv-x="811" d="M86 512v174l276 240v-185l-159 -137l159 -139v-184zM408 512v174l276 240v-185l-160 -137l160 -139v-184z" />
<glyph unicode="&#xac;" horiz-adv-x="1366" d="M0 516v164h1366v-680h-164v516h-1202z" />
<glyph unicode="&#xad;" horiz-adv-x="598" d="M92 526v156h414v-156h-414z" />
<glyph unicode="&#xae;" horiz-adv-x="1705" d="M125 721q0 158 58.5 292t157.5 231t231.5 152.5t279.5 55.5q160 0 294 -58.5t231.5 -158.5t151.5 -233t54 -283q0 -152 -56.5 -284t-154.5 -230.5t-232 -154.5t-288 -56q-141 0 -273.5 53t-232.5 149.5t-160.5 229.5t-60.5 295zM190 721q0 -139 52.5 -260t142.5 -210 t211 -140.5t258 -51.5q139 0 260 51.5t210 140.5t141.5 210t52.5 258t-49.5 258t-138.5 212t-211 144t-263 53t-262 -52t-211 -143t-141.5 -212t-51.5 -258zM545 268v920h299q72 0 122 -3t93 -20q74 -27 110.5 -87t36.5 -126q0 -88 -50 -142t-138 -77q55 -25 86 -61.5 t45 -130.5q8 -51 14 -89t13.5 -69t17.5 -57.5t25 -57.5h-187q-6 10 -16 39t-21 88q-2 8 -5 27.5t-6 42t-6 43t-5 29.5q-8 49 -25.5 77.5t-43 43t-59.5 18.5t-79 4h-57v-412h-164zM711 811h135q25 0 58.5 2t64 13.5t52 37t21.5 74.5q0 27 -13 59.5t-52 49.5q-12 6 -23.5 8 t-29 4t-43 2h-66.5h-104v-250z" />
<glyph unicode="&#xaf;" horiz-adv-x="555" d="M-12 1108v139h581v-139h-581z" />
<glyph unicode="&#xb0;" horiz-adv-x="724" d="M33 1219q0 68 25.5 128t70.5 105t105.5 70.5t127.5 25.5q68 0 128.5 -25.5t105.5 -70.5t70.5 -105.5t25.5 -127.5q0 -68 -25.5 -128.5t-70.5 -105.5t-105.5 -70.5t-128.5 -25.5t-128 25.5t-105 70.5t-70.5 105.5t-25.5 128.5zM201 1219q0 -68 47 -115t114 -47 q68 0 115 47t47 115t-47 114.5t-115 46.5t-114.5 -46.5t-46.5 -114.5z" />
<glyph unicode="&#xb1;" horiz-adv-x="1366" d="M84 0v162h1196v-162h-1196zM84 772v162h520v496h162v-496h514v-162h-514v-498h-162v498h-520z" />
<glyph unicode="&#xb2;" horiz-adv-x="768" d="M88 477v125q76 43 158 102.5t150.5 128t112.5 142.5t44 143q0 68 -44 116t-128 48q-78 0 -120 -47t-42 -131q0 -35 5 -59.5t12 -47.5h-136q-4 23 -8 48.5t-4 60.5q0 135 83 214t218 79q72 0 126 -22.5t93 -60.5t58.5 -90t19.5 -112q0 -84 -34 -148.5t-77 -117.5 q-37 -45 -81.5 -86t-88 -74t-79 -57.5t-56.5 -38.5h426v-115h-608z" />
<glyph unicode="&#xb3;" horiz-adv-x="768" d="M43 770h137q0 -18 4 -51t24.5 -64.5t61.5 -54t115 -22.5q12 0 44 2t64.5 17t57 47t24.5 89q0 55 -20 86t-51 44.5t-68 14.5t-69 1h-52v118h66q29 2 61.5 7.5t61.5 27.5q12 10 30.5 34t18.5 69q0 63 -48 105t-126 42q-59 0 -93 -21.5t-51.5 -53t-22.5 -69.5t-7 -71l-133 4 q2 35 6 76t22 84q27 63 68 97t83 49.5t78 18.5t50 3q63 0 119.5 -17.5t99.5 -51.5t67.5 -84t24.5 -113q0 -51 -16.5 -85t-40 -54.5t-49 -31t-41.5 -16.5q18 -4 48 -14t57.5 -32.5t48 -62.5t20.5 -106q0 -45 -15.5 -93t-52.5 -88t-98.5 -65.5t-155.5 -25.5q-125 0 -194.5 38 t-104.5 90t-43 104t-10 79z" />
<glyph unicode="&#xb4;" horiz-adv-x="555" d="M147 1069l84 295h177l-177 -295h-84z" />
<glyph unicode="&#xb5;" d="M133 -459v1422h162v-543q2 -35 7 -84t27.5 -95t69.5 -79t129 -33q12 0 34 2t46.5 10.5t52 26.5t52.5 51q41 55 48 110.5t7 108.5v525h162v-963h-162v147q-55 -102 -118.5 -137t-137.5 -35q-41 0 -73.5 11.5t-59.5 29t-47.5 37t-36.5 37.5v-549h-162z" />
<glyph unicode="&#xb6;" horiz-adv-x="1366" d="M178 1036q0 43 12.5 104.5t49.5 121.5q41 66 93 102.5t106.5 55t104.5 22.5t89 4h471v-111h-70v-1675h-119v1675h-297v-1675h-116v993q-39 6 -99.5 25.5t-119.5 81.5q-53 53 -79 125.5t-26 150.5z" />
<glyph unicode="&#xb7;" horiz-adv-x="468" d="M131 492v229h203v-229h-203z" />
<glyph unicode="&#xb8;" horiz-adv-x="555" d="M139 -199l148 232l61 -17l-61 -106l53 -27q29 -16 51.5 -49t22.5 -74q0 -35 -16.5 -67.5t-45.5 -54.5q-41 -33 -92 -41.5t-104 -12.5v45q41 -2 62.5 8.5t30.5 23.5t11 26.5t2 15.5q0 20 -12 40.5t-51 37.5z" />
<glyph unicode="&#xb9;" horiz-adv-x="768" d="M164 1147v92q41 4 75.5 10t62.5 23.5t47.5 47.5t27.5 81h100v-924h-137v670h-176z" />
<glyph unicode="&#xba;" horiz-adv-x="681" d="M55 1149q-2 154 81 235.5t208 81.5q68 0 121 -25.5t90 -67.5t55.5 -98t18.5 -118q0 -55 -16.5 -109.5t-52.5 -97.5t-90 -69.5t-128 -26.5q-123 0 -204 79t-83 216zM170 1157q0 -37 8 -75t28.5 -68.5t53.5 -50t84 -19.5q88 0 128 62.5t40 154.5t-44 152.5t-130 60.5 q-53 0 -86 -22.5t-51.5 -56t-24.5 -71.5t-6 -67z" />
<glyph unicode="&#xbb;" horiz-adv-x="811" d="M127 281v184l160 137l-160 139v185l276 -232v-174zM449 281v184l159 137l-159 139v185l276 -232v-174z" />
<glyph unicode="&#xbc;" horiz-adv-x="1792" d="M164 1147v92q41 4 75.5 10t62.5 23.5t47.5 47.5t27.5 81h100v-926h-137v672h-176zM506 -6l653 1403l111 -54l-649 -1400zM1069 223v117l438 584h109v-588h131v-113h-133v-223h-129v223h-416zM1206 338h281l4 391z" />
<glyph unicode="&#xbd;" horiz-adv-x="1792" d="M164 1147v92q41 4 75.5 10t62.5 23.5t47.5 47.5t27.5 81h100v-926h-137v672h-176zM459 -6l653 1403l111 -54l-652 -1400zM1114 0v125q76 43 158 102.5t150.5 128t112.5 142t44 143.5q0 59 -40 111.5t-130 52.5q-86 0 -125 -50t-39 -128q0 -35 5 -59.5t12 -47.5h-136 q-4 23 -8 48.5t-4 58.5q0 141 86 218t217 77q70 0 124 -21.5t92 -60.5t58.5 -91.5t20.5 -111.5q0 -84 -33.5 -148.5t-76.5 -117.5q-37 -45 -82 -86t-88 -74t-79 -57.5t-57 -38.5h426v-115h-608z" />
<glyph unicode="&#xbe;" horiz-adv-x="1792" d="M43 770h137q0 -18 4 -51t24.5 -64.5t61.5 -54t115 -22.5q12 0 44 2t64.5 17t57 47t24.5 89q0 51 -17 81t-44 44t-58.5 17.5t-60.5 3.5h-80v118h66q29 0 61.5 6.5t61.5 28.5q12 10 30.5 34t18.5 69q0 63 -48 105t-126 42q-59 0 -93 -21.5t-51.5 -53t-22.5 -69.5t-7 -71 l-133 4q2 35 6 76t22 84q27 63 68 97t83 49.5t78 18.5t50 3q63 0 119.5 -17.5t99.5 -51.5t67.5 -84t24.5 -113q0 -51 -16.5 -85t-40 -54.5t-49 -31t-41.5 -16.5q18 -4 48 -14t57.5 -32.5t48 -62.5t20.5 -106q0 -45 -15.5 -93t-52.5 -88t-98.5 -65.5t-155.5 -25.5 q-125 0 -194.5 38t-104.5 90t-43 104t-10 79zM596 -6l651 1403l111 -54l-649 -1400zM1069 223v117l438 582h109v-586h131v-113h-133v-223h-129v223h-416zM1204 338h283l4 391z" />
<glyph unicode="&#xbf;" horiz-adv-x="1150" d="M76 430q0 37 12 99.5t53 125t117 111.5t205 61v312h162v-486q-33 2 -67 1t-66 -5q-35 -4 -68 -11t-62 -24q-43 -25 -80.5 -76t-37.5 -128q0 -57 21.5 -106.5t61.5 -85.5t97 -56.5t127 -20.5q23 0 58.5 4.5t73.5 20.5t73 51t55 96q10 37 14 76t2 86h179q4 -133 -38 -225 t-107.5 -150.5t-148.5 -85t-163 -26.5q-98 0 -185.5 33.5t-150.5 92t-100 140.5t-37 176zM455 1247v199h182v-199h-182z" />
<glyph unicode="&#xc0;" horiz-adv-x="1323" d="M20 0l551 1446h201l526 -1446h-202l-158 442h-551l-162 -442h-205zM449 604h432l-211 602zM449 1833h202l97 -254h-123z" />
<glyph unicode="&#xc1;" horiz-adv-x="1323" d="M20 0l551 1446h201l526 -1446h-202l-158 442h-551l-162 -442h-205zM449 604h432l-211 602zM575 1579l99 254h203l-179 -254h-123z" />
<glyph unicode="&#xc2;" horiz-adv-x="1323" d="M20 0l551 1446h201l526 -1446h-202l-158 442h-551l-162 -442h-205zM387 1579l205 254h133l219 -254h-158l-127 152l-120 -152h-152zM449 604h432l-211 602z" />
<glyph unicode="&#xc3;" horiz-adv-x="1323" d="M20 0l551 1446h201l526 -1446h-202l-158 442h-551l-162 -442h-205zM365 1610q2 20 10 54t27.5 66.5t53 57t87.5 24.5q33 0 62.5 -10t62.5 -20q29 -12 65.5 -25.5t63.5 -13.5q39 0 51 23.5t16 41.5h97q-6 -31 -15.5 -66.5t-29 -66t-49 -52t-76.5 -21.5q-33 0 -69 11 t-67 23q-33 12 -53 19.5t-32.5 11.5t-20.5 5t-19 1q-35 0 -49 -20.5t-18 -42.5h-98zM449 604h432l-211 602z" />
<glyph unicode="&#xc4;" horiz-adv-x="1323" d="M20 0l551 1446h201l526 -1446h-202l-158 442h-551l-162 -442h-205zM379 1599v209h178v-209h-178zM449 604h432l-211 602zM780 1599v209h178v-209h-178z" />
<glyph unicode="&#xc5;" horiz-adv-x="1323" d="M20 0l551 1446h201l526 -1446h-202l-158 442h-551l-162 -442h-205zM449 604h432l-211 602zM475 1739q0 41 15.5 75.5t42 61.5t62.5 42t75 15q82 0 139 -56t57 -138q0 -84 -57 -140.5t-139 -56.5q-80 0 -137.5 57.5t-57.5 139.5zM567 1739q0 -43 30 -74t75 -31 q41 0 71.5 31t30.5 74t-30.5 73.5t-71.5 30.5q-45 0 -75 -30.5t-30 -73.5z" />
<glyph unicode="&#xc6;" horiz-adv-x="2134" d="M-6 0l989 1446h1067v-172h-807v-471h651v-164h-651v-471h834v-168h-1026v477h-516l-314 -477h-227zM647 641h404v616z" />
<glyph unicode="&#xc7;" horiz-adv-x="1536" d="M100 723q0 154 45 292t135.5 241.5t229.5 165t326 61.5q186 0 307 -55.5t193.5 -129t107.5 -147.5t47 -111l-195 -41q-14 41 -29.5 78t-56.5 84q-53 66 -147 117t-229 51q-117 0 -222.5 -45t-177.5 -137q-70 -86 -95.5 -194.5t-25.5 -219.5q0 -135 34 -246.5t99.5 -192.5 t162 -126t220.5 -45q82 0 161 23.5t144.5 74.5t111.5 132t65 196l209 -25q-29 -125 -95.5 -231.5t-167.5 -183.5q-55 -43 -105 -69t-98 -40t-95.5 -20.5t-96.5 -10.5l-33 -57l54 -27q29 -16 51 -49t22 -74q0 -35 -16 -67.5t-45 -54.5q-41 -33 -92 -41.5t-105 -12.5v43 q41 -2 62.5 8.5t31 23.5t11.5 26.5t2 15.5q0 20 -12.5 40.5t-53.5 37.5l-57 22l104 162q-66 6 -129 15.5t-126.5 32t-125 62.5t-120.5 107q-98 111 -141.5 252t-43.5 289z" />
<glyph unicode="&#xc8;" horiz-adv-x="1236" d="M160 0v1446h997v-170h-811v-447h705v-170h-705v-491h836v-168h-1022zM426 1833h203l96 -254h-123z" />
<glyph unicode="&#xc9;" horiz-adv-x="1236" d="M160 0v1446h997v-170h-811v-447h705v-170h-705v-491h836v-168h-1022zM553 1579l98 254h203l-178 -254h-123z" />
<glyph unicode="&#xca;" horiz-adv-x="1236" d="M160 0v1446h997v-170h-811v-447h705v-170h-705v-491h836v-168h-1022zM377 1579l205 254h133l219 -254h-158l-127 152l-121 -152h-151z" />
<glyph unicode="&#xcb;" horiz-adv-x="1236" d="M160 0v1446h997v-170h-811v-447h705v-170h-705v-491h836v-168h-1022zM362 1599v209h179v-209h-179zM764 1599v209h178v-209h-178z" />
<glyph unicode="&#xcc;" horiz-adv-x="468" d="M23 1833h202l97 -254h-123zM137 0v1446h195v-1446h-195z" />
<glyph unicode="&#xcd;" horiz-adv-x="468" d="M137 0v1446h195v-1446h-195zM150 1579l98 254h203l-179 -254h-122z" />
<glyph unicode="&#xce;" horiz-adv-x="468" d="M-39 1579l205 254h133l219 -254h-158l-127 152l-120 -152h-152zM137 0v1446h195v-1446h-195z" />
<glyph unicode="&#xcf;" horiz-adv-x="468" d="M-53 1599v209h178v-209h-178zM137 0v1446h195v-1446h-195zM348 1599v209h178v-209h-178z" />
<glyph unicode="&#xd0;" horiz-adv-x="1449" d="M25 698v121h135v627h452q78 0 151 -3t141.5 -19.5t134 -52.5t128.5 -103q66 -70 102 -150t53 -154.5t21.5 -138t4.5 -102.5q0 -37 -4.5 -104.5t-24 -147.5t-60 -164t-114.5 -153q-63 -57 -130 -89t-131.5 -46.5t-121.5 -16.5t-105 -2h-497v698h-135zM356 166h256 q72 2 145.5 7t137.5 32q74 31 123 86t78.5 123.5t42 147.5t12.5 159q0 90 -14.5 173t-49 153.5t-93 124t-144.5 79.5q-59 18 -123.5 21.5t-142.5 3.5h-228v-457h346v-121h-346v-532z" />
<glyph unicode="&#xd1;" horiz-adv-x="1449" d="M160 0v1446h180l784 -1159l-8 1159h174v-1446h-174l-792 1176l16 -1176h-180zM428 1610q2 20 10 54t27.5 66.5t53.5 57t87 24.5q33 0 62.5 -10t62.5 -20q29 -12 66 -25.5t63 -13.5q39 0 51.5 23.5t16.5 41.5h96q-6 -31 -15.5 -66.5t-28.5 -66t-49 -52t-77 -21.5 q-33 0 -68.5 11t-66.5 23q-33 12 -53.5 19.5t-32.5 11.5t-20.5 5t-18.5 1q-35 0 -49.5 -20.5t-18.5 -42.5h-98z" />
<glyph unicode="&#xd2;" horiz-adv-x="1662" d="M104 723q0 201 63.5 345t167 236.5t233.5 135.5t266 43q152 0 284.5 -50.5t231 -145.5t155 -234.5t56.5 -315.5q0 -162 -47.5 -303t-139.5 -245.5t-229 -165t-318 -60.5q-166 0 -299 55.5t-227 155.5t-145.5 240.5t-51.5 308.5zM313 721q0 -113 30 -222.5t92.5 -194.5 t161.5 -137t239 -52q145 0 244.5 55t159.5 143t86 199.5t26 222.5q0 131 -35 239.5t-100.5 187.5t-162 122t-220.5 43q-137 0 -235.5 -49t-162 -132t-93.5 -192.5t-30 -232.5zM618 1833h203l97 -254h-123z" />
<glyph unicode="&#xd3;" horiz-adv-x="1662" d="M104 723q0 201 63.5 345t167 236.5t233.5 135.5t266 43q152 0 284.5 -50.5t231 -145.5t155 -234.5t56.5 -315.5q0 -162 -47.5 -303t-139.5 -245.5t-229 -165t-318 -60.5q-166 0 -299 55.5t-227 155.5t-145.5 240.5t-51.5 308.5zM313 721q0 -113 30 -222.5t92.5 -194.5 t161.5 -137t239 -52q145 0 244.5 55t159.5 143t86 199.5t26 222.5q0 131 -35 239.5t-100.5 187.5t-162 122t-220.5 43q-137 0 -235.5 -49t-162 -132t-93.5 -192.5t-30 -232.5zM745 1579l99 254h203l-179 -254h-123z" />
<glyph unicode="&#xd4;" horiz-adv-x="1662" d="M104 723q0 201 63.5 345t167 236.5t233.5 135.5t266 43q152 0 284.5 -50.5t231 -145.5t155 -234.5t56.5 -315.5q0 -162 -47.5 -303t-139.5 -245.5t-229 -165t-318 -60.5q-166 0 -299 55.5t-227 155.5t-145.5 240.5t-51.5 308.5zM313 721q0 -113 30 -222.5t92.5 -194.5 t161.5 -137t239 -52q145 0 244.5 55t159.5 143t86 199.5t26 222.5q0 131 -35 239.5t-100.5 187.5t-162 122t-220.5 43q-137 0 -235.5 -49t-162 -132t-93.5 -192.5t-30 -232.5zM557 1579l205 254h133l219 -254h-158l-127 152l-120 -152h-152z" />
<glyph unicode="&#xd5;" horiz-adv-x="1662" d="M104 723q0 201 63.5 345t167 236.5t233.5 135.5t266 43q152 0 284.5 -50.5t231 -145.5t155 -234.5t56.5 -315.5q0 -162 -47.5 -303t-139.5 -245.5t-229 -165t-318 -60.5q-166 0 -299 55.5t-227 155.5t-145.5 240.5t-51.5 308.5zM313 721q0 -113 30 -222.5t92.5 -194.5 t161.5 -137t239 -52q145 0 244.5 55t159.5 143t86 199.5t26 222.5q0 131 -35 239.5t-100.5 187.5t-162 122t-220.5 43q-137 0 -235.5 -49t-162 -132t-93.5 -192.5t-30 -232.5zM535 1610q2 20 10 54t27.5 66.5t53 57t87.5 24.5q33 0 62.5 -10t62.5 -20q29 -12 65.5 -25.5 t63.5 -13.5q39 0 51 23.5t16 41.5h96q-6 -31 -15 -66.5t-28.5 -66t-49 -52t-76.5 -21.5q-33 0 -69 11t-67 23q-33 12 -53 19.5t-32.5 11.5t-20.5 5t-19 1q-35 0 -49 -20.5t-18 -42.5h-98z" />
<glyph unicode="&#xd6;" horiz-adv-x="1662" d="M104 723q0 201 63.5 345t167 236.5t233.5 135.5t266 43q152 0 284.5 -50.5t231 -145.5t155 -234.5t56.5 -315.5q0 -162 -47.5 -303t-139.5 -245.5t-229 -165t-318 -60.5q-166 0 -299 55.5t-227 155.5t-145.5 240.5t-51.5 308.5zM313 721q0 -113 30 -222.5t92.5 -194.5 t161.5 -137t239 -52q145 0 244.5 55t159.5 143t86 199.5t26 222.5q0 131 -35 239.5t-100.5 187.5t-162 122t-220.5 43q-137 0 -235.5 -49t-162 -132t-93.5 -192.5t-30 -232.5zM551 1599v209h178v-209h-178zM952 1599v209h178v-209h-178z" />
<glyph unicode="&#xd7;" horiz-adv-x="1366" d="M158 188l411 410l-411 412l112 114l414 -411l410 411l114 -114l-409 -412l409 -410l-114 -114l-410 409l-414 -409z" />
<glyph unicode="&#xd8;" horiz-adv-x="1662" d="M96 121l142 135q-18 31 -42 75t-44.5 102.5t-35 131t-14.5 158.5q0 133 42 268t130 243.5t225.5 178.5t327.5 70q90 0 162 -15.5t131.5 -40t109.5 -58.5t95 -71l139 134l99 -105l-146 -137q14 -20 39 -61.5t48.5 -99.5t41 -134t17.5 -168q0 -129 -44 -265t-134.5 -247 t-230.5 -181.5t-335 -70.5q-90 0 -161.5 15.5t-130 40t-106.5 57.5t-91 67l-133 -127zM315 715q0 -125 25 -203t41 -119l809 776q-25 27 -58.5 55.5t-77.5 51t-101.5 38t-129.5 15.5q-125 0 -220 -47t-158.5 -130t-96.5 -194.5t-33 -242.5zM459 268q27 -27 60.5 -53.5 t77.5 -49t101.5 -36.5t132.5 -14q131 0 228.5 49t162 131t96.5 186.5t32 214.5q0 23 -2 61t-10.5 84t-24 99t-41.5 109z" />
<glyph unicode="&#xd9;" horiz-adv-x="1409" d="M154 551v897h194v-870q-2 -100 7.5 -184.5t66.5 -153.5q33 -39 70.5 -62.5t74.5 -34t71 -13.5t54 -3q129 0 221.5 60.5t124.5 179.5q12 47 14.5 96t4.5 119v866h194v-924q-2 -45 -4 -92t-14 -96q-14 -66 -53 -131.5t-105.5 -118.5t-161 -87t-221.5 -34q-39 0 -94 5 t-115.5 24.5t-122 58.5t-112.5 105q-37 47 -55.5 91t-27.5 91t-10 98t-1 113zM492 1833h202l97 -254h-123z" />
<glyph unicode="&#xda;" horiz-adv-x="1409" d="M154 551v897h194v-870q-2 -100 7.5 -184.5t66.5 -153.5q33 -39 70.5 -62.5t74.5 -34t71 -13.5t54 -3q129 0 221.5 60.5t124.5 179.5q12 47 14.5 96t4.5 119v866h194v-924q-2 -45 -4 -92t-14 -96q-14 -66 -53 -131.5t-105.5 -118.5t-161 -87t-221.5 -34q-39 0 -94 5 t-115.5 24.5t-122 58.5t-112.5 105q-37 47 -55.5 91t-27.5 91t-10 98t-1 113zM618 1579l99 254h203l-179 -254h-123z" />
<glyph unicode="&#xdb;" horiz-adv-x="1409" d="M154 551v897h194v-870q-2 -100 7.5 -184.5t66.5 -153.5q33 -39 70.5 -62.5t74.5 -34t71 -13.5t54 -3q129 0 221.5 60.5t124.5 179.5q12 47 14.5 96t4.5 119v866h194v-924q-2 -45 -4 -92t-14 -96q-14 -66 -53 -131.5t-105.5 -118.5t-161 -87t-221.5 -34q-39 0 -94 5 t-115.5 24.5t-122 58.5t-112.5 105q-37 47 -55.5 91t-27.5 91t-10 98t-1 113zM430 1579l205 254h133l219 -254h-158l-127 152l-120 -152h-152z" />
<glyph unicode="&#xdc;" horiz-adv-x="1409" d="M154 551v897h194v-870q-2 -100 7.5 -184.5t66.5 -153.5q33 -39 70.5 -62.5t74.5 -34t71 -13.5t54 -3q129 0 221.5 60.5t124.5 179.5q12 47 14.5 96t4.5 119v866h194v-924q-2 -45 -4 -92t-14 -96q-14 -66 -53 -131.5t-105.5 -118.5t-161 -87t-221.5 -34q-39 0 -94 5 t-115.5 24.5t-122 58.5t-112.5 105q-37 47 -55.5 91t-27.5 91t-10 98t-1 113zM414 1599v209h178v-209h-178zM815 1599v209h178v-209h-178z" />
<glyph unicode="&#xdd;" horiz-adv-x="1280" d="M27 1446h229l379 -612l387 612h229l-520 -784v-662h-194v662zM553 1579l98 254h203l-178 -254h-123z" />
<glyph unicode="&#xde;" horiz-adv-x="1280" d="M156 0v1446h186v-264h438q53 0 112.5 -3t117.5 -22q127 -45 187 -151.5t60 -233.5q0 -59 -14 -120.5t-46 -117t-83 -98.5t-123 -65q-53 -16 -109.5 -19.5t-121.5 -3.5h-418v-348h-186zM342 518h403q84 0 143.5 8.5t108.5 57.5q37 37 53.5 88t16.5 104q0 37 -12.5 89.5 t-63.5 95.5q-47 41 -99 48t-104 7h-446v-498z" />
<glyph unicode="&#xdf;" horiz-adv-x="1110" d="M131 0v1016q0 66 3 114t13 95q16 72 53.5 121t88.5 79.5t113.5 44t129.5 13.5q188 0 289 -91.5t101 -238.5q0 -63 -16.5 -110.5t-43 -81t-59.5 -56t-66 -35.5q45 -6 96.5 -27.5t95.5 -66.5t72.5 -117.5t28.5 -183.5q0 -27 -2 -70t-11 -91t-29.5 -98t-55.5 -93 q-47 -55 -132 -100.5t-212 -45.5q-72 0 -122 12.5t-73 20.5v170q37 -14 87 -28.5t114 -14.5q76 0 128 26.5t84 71t45 101.5t13 121q0 14 -2 47t-14 71.5t-40 79.5t-77 72q-66 41 -155 49t-166 8v162q33 -4 47 -4h35q86 0 139 22.5t80.5 55.5t37 67.5t9.5 59.5 q0 92 -64.5 139t-156.5 47q-80 0 -126 -25.5t-67 -50.5q-18 -20 -27.5 -41.5t-14.5 -50t-7 -66.5t-2 -91v-1008h-162z" />
<glyph unicode="&#xe0;" horiz-adv-x="1024" d="M66 250q0 82 43 145q20 31 52 58.5t83 49t126.5 38t184.5 24.5l154 13v24q0 37 -3.5 84t-23.5 88t-64.5 68.5t-125.5 27.5q-78 0 -120 -24.5t-61.5 -57t-22.5 -67.5t-3 -53l-172 10q4 27 10 64.5t29 80.5q43 80 126.5 126t206.5 46q68 0 147 -18.5t136 -63.5 q41 -33 62.5 -69.5t30.5 -77.5t10 -85t1 -93v-314q2 -70 10.5 -104.5t59.5 -34.5q29 0 53 10v-141q-20 -4 -43.5 -10t-58.5 -6q-57 0 -106.5 27.5t-61.5 115.5q-18 -18 -47 -46t-69 -52.5t-93 -42t-123 -17.5t-130 20.5t-104 56.5t-68.5 87t-24.5 113zM246 254 q0 -59 45 -101t137 -42q86 0 153.5 34.5t102.5 110.5q10 20 15.5 36.5t7.5 39t3 55.5t1 86q-47 -8 -111.5 -18.5t-142.5 -26.5q-68 -14 -109 -33.5t-64.5 -42t-30.5 -48t-7 -50.5zM309 1362h181l84 -295h-97z" />
<glyph unicode="&#xe1;" horiz-adv-x="1024" d="M66 250q0 82 43 145q20 31 52 58.5t83 49t126.5 38t184.5 24.5l154 13v24q0 37 -3.5 84t-23.5 88t-64.5 68.5t-125.5 27.5q-78 0 -120 -24.5t-61.5 -57t-22.5 -67.5t-3 -53l-172 10q4 27 10 64.5t29 80.5q43 80 126.5 126t206.5 46q68 0 147 -18.5t136 -63.5 q41 -33 62.5 -69.5t30.5 -77.5t10 -85t1 -93v-314q2 -70 10.5 -104.5t59.5 -34.5q29 0 53 10v-141q-20 -4 -43.5 -10t-58.5 -6q-57 0 -106.5 27.5t-61.5 115.5q-18 -18 -47 -46t-69 -52.5t-93 -42t-123 -17.5t-130 20.5t-104 56.5t-68.5 87t-24.5 113zM246 254 q0 -59 45 -101t137 -42q86 0 153.5 34.5t102.5 110.5q10 20 15.5 36.5t7.5 39t3 55.5t1 86q-47 -8 -111.5 -18.5t-142.5 -26.5q-68 -14 -109 -33.5t-64.5 -42t-30.5 -48t-7 -50.5zM466 1069l84 295h177l-177 -295h-84z" />
<glyph unicode="&#xe2;" horiz-adv-x="1024" d="M66 250q0 82 43 145q20 31 52 58.5t83 49t126.5 38t184.5 24.5l154 13v24q0 37 -3.5 84t-23.5 88t-64.5 68.5t-125.5 27.5q-78 0 -120 -24.5t-61.5 -57t-22.5 -67.5t-3 -53l-172 10q4 27 10 64.5t29 80.5q43 80 126.5 126t206.5 46q68 0 147 -18.5t136 -63.5 q41 -33 62.5 -69.5t30.5 -77.5t10 -85t1 -93v-314q2 -70 10.5 -104.5t59.5 -34.5q29 0 53 10v-141q-20 -4 -43.5 -10t-58.5 -6q-57 0 -106.5 27.5t-61.5 115.5q-18 -18 -47 -46t-69 -52.5t-93 -42t-123 -17.5t-130 20.5t-104 56.5t-68.5 87t-24.5 113zM246 254 q0 -59 45 -101t137 -42q86 0 153.5 34.5t102.5 110.5q10 20 15.5 36.5t7.5 39t3 55.5t1 86q-47 -8 -111.5 -18.5t-142.5 -26.5q-68 -14 -109 -33.5t-64.5 -42t-30.5 -48t-7 -50.5zM250 1071l193 309h137l213 -309h-154l-125 195l-120 -195h-144z" />
<glyph unicode="&#xe3;" horiz-adv-x="1024" d="M66 250q0 82 43 145q20 31 52 58.5t83 49t126.5 38t184.5 24.5l154 13v24q0 37 -3.5 84t-23.5 88t-64.5 68.5t-125.5 27.5q-78 0 -120 -24.5t-61.5 -57t-22.5 -67.5t-3 -53l-172 10q4 27 10 64.5t29 80.5q43 80 126.5 126t206.5 46q68 0 147 -18.5t136 -63.5 q41 -33 62.5 -69.5t30.5 -77.5t10 -85t1 -93v-314q2 -70 10.5 -104.5t59.5 -34.5q29 0 53 10v-141q-20 -4 -43.5 -10t-58.5 -6q-57 0 -106.5 27.5t-61.5 115.5q-18 -18 -47 -46t-69 -52.5t-93 -42t-123 -17.5t-130 20.5t-104 56.5t-68.5 87t-24.5 113zM216 1104 q2 23 11 56.5t29.5 66.5t53 56.5t84.5 23.5q33 0 72.5 -13.5t76.5 -27.5q57 -23 78 -26t31 -3q37 0 48 23.5t15 39.5h99q-2 -20 -11.5 -55t-29 -68.5t-50 -57t-77.5 -23.5q-18 0 -47 5t-89 27q-35 12 -55 20.5t-33.5 12.5t-20.5 5t-18 1q-39 0 -51 -23.5t-16 -39.5h-100z M246 254q0 -59 45 -101t137 -42q86 0 153.5 34.5t102.5 110.5q10 20 15.5 36.5t7.5 39t3 55.5t1 86q-47 -8 -111.5 -18.5t-142.5 -26.5q-68 -14 -109 -33.5t-64.5 -42t-30.5 -48t-7 -50.5z" />
<glyph unicode="&#xe4;" horiz-adv-x="1024" d="M66 250q0 82 43 145q20 31 52 58.5t83 49t126.5 38t184.5 24.5l154 13v24q0 37 -3.5 84t-23.5 88t-64.5 68.5t-125.5 27.5q-78 0 -120 -24.5t-61.5 -57t-22.5 -67.5t-3 -53l-172 10q4 27 10 64.5t29 80.5q43 80 126.5 126t206.5 46q68 0 147 -18.5t136 -63.5 q41 -33 62.5 -69.5t30.5 -77.5t10 -85t1 -93v-314q2 -70 10.5 -104.5t59.5 -34.5q29 0 53 10v-141q-20 -4 -43.5 -10t-58.5 -6q-57 0 -106.5 27.5t-61.5 115.5q-18 -18 -47 -46t-69 -52.5t-93 -42t-123 -17.5t-130 20.5t-104 56.5t-68.5 87t-24.5 113zM215 1108v211h178 v-211h-178zM246 254q0 -59 45 -101t137 -42q86 0 153.5 34.5t102.5 110.5q10 20 15.5 36.5t7.5 39t3 55.5t1 86q-47 -8 -111.5 -18.5t-142.5 -26.5q-68 -14 -109 -33.5t-64.5 -42t-30.5 -48t-7 -50.5zM618 1108v211h180v-211h-180z" />
<glyph unicode="&#xe5;" horiz-adv-x="1024" d="M66 250q0 82 43 145q20 31 52 58.5t83 49t126.5 38t184.5 24.5l154 13v24q0 37 -3.5 84t-23.5 88t-64.5 68.5t-125.5 27.5q-78 0 -120 -24.5t-61.5 -57t-22.5 -67.5t-3 -53l-172 10q4 27 10 64.5t29 80.5q43 80 126.5 126t206.5 46q68 0 147 -18.5t136 -63.5 q41 -33 62.5 -69.5t30.5 -77.5t10 -85t1 -93v-314q2 -70 10.5 -104.5t59.5 -34.5q29 0 53 10v-141q-20 -4 -43.5 -10t-58.5 -6q-57 0 -106.5 27.5t-61.5 115.5q-18 -18 -47 -46t-69 -52.5t-93 -42t-123 -17.5t-130 20.5t-104 56.5t-68.5 87t-24.5 113zM246 254 q0 -59 45 -101t137 -42q86 0 153.5 34.5t102.5 110.5q10 20 15.5 36.5t7.5 39t3 55.5t1 86q-47 -8 -111.5 -18.5t-142.5 -26.5q-68 -14 -109 -33.5t-64.5 -42t-30.5 -48t-7 -50.5zM311 1245q0 80 56.5 136.5t135.5 56.5q80 0 136.5 -56.5t56.5 -136.5t-56.5 -136t-136.5 -56 t-136 56t-56 136zM399 1247q0 -43 30.5 -73.5t73.5 -30.5t74 30.5t31 73.5t-31 74t-74 31t-73.5 -31t-30.5 -74z" />
<glyph unicode="&#xe6;" horiz-adv-x="1662" d="M66 242q0 72 39.5 139.5t117.5 112.5q41 25 85 37t101.5 18t135.5 7t188 1q0 23 -1 53.5t-11 65.5q-6 29 -21.5 62.5t-42 63t-67.5 49t-96 19.5q-94 0 -147.5 -55t-57.5 -139l-174 12q10 88 48 147.5t90 94.5t114.5 50t124.5 15q37 0 106.5 -11t134.5 -62 q35 -29 54.5 -55.5t29.5 -41.5q18 23 44 52.5t66 55t94 44t128 18.5q68 0 122 -16t95 -42t70.5 -55.5t50.5 -58.5q39 -51 61.5 -106t32.5 -106.5t13 -96.5t3 -76h-702q0 -37 5 -78t22 -81q35 -94 104.5 -135.5t147.5 -41.5q86 0 148 51.5t87 153.5l170 -26 q-12 -45 -42 -99.5t-81 -100.5t-127 -78t-178 -32q-57 0 -96 8.5t-64 16.5q-45 16 -78.5 40.5t-57.5 49.5t-39 48.5t-25 39.5q-74 -96 -171.5 -149.5t-222.5 -53.5q-160 0 -245.5 78t-85.5 193zM238 250q0 -23 10 -49.5t32.5 -49t59.5 -37t90 -14.5q59 0 112.5 21.5 t95.5 63.5t66.5 105.5t26.5 147.5h-94q-39 0 -84 -1t-98 -11q-39 -8 -78 -21.5t-70 -35t-50 -51t-19 -68.5zM893 557h530q-6 80 -33.5 137.5t-66.5 94t-85 54t-87 17.5q-49 0 -94 -20.5t-81 -59.5t-58.5 -95t-24.5 -128z" />
<glyph unicode="&#xe7;" d="M80 479q0 98 27.5 191.5t84 166t145.5 115.5t212 43q78 0 127 -12t76 -22q33 -14 70.5 -39t72.5 -61t61.5 -83t36.5 -106l-182 -17q-2 14 -12.5 51t-38 75t-76.5 67t-131 29q-104 0 -163.5 -49.5t-88.5 -115t-35 -130t-6 -97.5q0 -178 78 -283.5t225 -105.5 q88 0 139.5 32t79 76t37.5 89t15 72l176 -17q-4 -27 -14.5 -68.5t-39.5 -95.5q-39 -70 -88 -110.5t-99 -61t-95 -28t-76 -9.5l-35 -63l53 -27q29 -16 51.5 -49t22.5 -74q0 -35 -16.5 -67.5t-44.5 -54.5q-41 -33 -92.5 -41.5t-104.5 -12.5v43q41 -2 62.5 8.5t31 24.5 t11.5 26.5t2 14.5q0 20 -12.5 40.5t-51.5 37.5l-59 22l108 170q-39 4 -77.5 9.5t-78.5 19.5t-80 41t-81 72q-45 49 -70.5 102t-38 102.5t-15.5 91.5t-3 68z" />
<glyph unicode="&#xe8;" d="M80 492q0 137 44 232t112.5 155.5t151.5 88t159 27.5q68 0 134.5 -19.5t123.5 -60.5t101 -105.5t65 -156.5q14 -61 16 -113.5t2 -82.5h-733q-2 -61 14.5 -125t53 -117t97 -87t146.5 -34q111 0 172.5 63.5t83.5 161.5l166 -22q-8 -25 -31.5 -79t-72.5 -108.5t-129 -96.5 t-203 -42q-106 0 -194.5 36t-150 102.5t-95 163t-33.5 219.5zM260 573h551q-6 96 -38 153.5t-75 90.5t-88 43t-75 10q-104 0 -182.5 -74.5t-92.5 -222.5zM338 1362h181l84 -295h-97z" />
<glyph unicode="&#xe9;" d="M80 492q0 137 44 232t112.5 155.5t151.5 88t159 27.5q68 0 134.5 -19.5t123.5 -60.5t101 -105.5t65 -156.5q14 -61 16 -113.5t2 -82.5h-733q-2 -61 14.5 -125t53 -117t97 -87t146.5 -34q111 0 172.5 63.5t83.5 161.5l166 -22q-8 -25 -31.5 -79t-72.5 -108.5t-129 -96.5 t-203 -42q-106 0 -194.5 36t-150 102.5t-95 163t-33.5 219.5zM260 573h551q-6 96 -38 153.5t-75 90.5t-88 43t-75 10q-104 0 -182.5 -74.5t-92.5 -222.5zM487 1069l84 295h177l-177 -295h-84z" />
<glyph unicode="&#xea;" d="M80 492q0 137 44 232t112.5 155.5t151.5 88t159 27.5q68 0 134.5 -19.5t123.5 -60.5t101 -105.5t65 -156.5q14 -61 16 -113.5t2 -82.5h-733q-2 -61 14.5 -125t53 -117t97 -87t146.5 -34q111 0 172.5 63.5t83.5 161.5l166 -22q-8 -25 -31.5 -79t-72.5 -108.5t-129 -96.5 t-203 -42q-106 0 -194.5 36t-150 102.5t-95 163t-33.5 219.5zM260 573h551q-6 96 -38 153.5t-75 90.5t-88 43t-75 10q-104 0 -182.5 -74.5t-92.5 -222.5zM268 1071l193 309h137l213 -309h-154l-125 195l-120 -195h-144z" />
<glyph unicode="&#xeb;" d="M80 492q0 137 44 232t112.5 155.5t151.5 88t159 27.5q68 0 134.5 -19.5t123.5 -60.5t101 -105.5t65 -156.5q14 -61 16 -113.5t2 -82.5h-733q-2 -61 14.5 -125t53 -117t97 -87t146.5 -34q111 0 172.5 63.5t83.5 161.5l166 -22q-8 -25 -31.5 -79t-72.5 -108.5t-129 -96.5 t-203 -42q-106 0 -194.5 36t-150 102.5t-95 163t-33.5 219.5zM260 573h551q-6 96 -38 153.5t-75 90.5t-88 43t-75 10q-104 0 -182.5 -74.5t-92.5 -222.5zM267 1108v211h178v-211h-178zM670 1108v211h180v-211h-180z" />
<glyph unicode="&#xec;" horiz-adv-x="425" d="M18 1362h181l84 -295h-97zM137 0v965h158v-965h-158z" />
<glyph unicode="&#xed;" horiz-adv-x="425" d="M137 0v965h158v-965h-158zM155 1069l84 295h177l-177 -295h-84z" />
<glyph unicode="&#xee;" horiz-adv-x="425" d="M-51 1071l193 309h137l213 -309h-154l-125 195l-120 -195h-144zM137 0v965h158v-965h-158z" />
<glyph unicode="&#xef;" horiz-adv-x="425" d="M-75 1108v211h178v-211h-178zM137 0v965h158v-965h-158zM328 1108v211h180v-211h-180z" />
<glyph unicode="&#xf0;" horiz-adv-x="1110" d="M82 481q0 127 38 223.5t102.5 161t149.5 97t179 32.5q53 0 95 -11t73 -26.5t48 -29t24 -19.5q23 -23 28.5 -26.5t5.5 0.5q0 2 -6 19.5t-13 39t-13.5 39.5t-6.5 23q-18 53 -44.5 98t-43.5 69l-362 -116l-39 90l340 112q-47 53 -83 90t-65 64l127 59q18 -16 32 -28 t29 -28.5t36.5 -42t56.5 -68.5l176 57l37 -96l-152 -50q92 -147 145.5 -312t53.5 -374q0 -129 -31.5 -231t-92 -175t-148.5 -112t-203 -39q-158 0 -251 58.5t-142 139.5t-64.5 168t-15.5 144zM262 473q0 -76 16.5 -143.5t52.5 -117.5t91 -80t135 -30q102 0 160.5 46.5 t88.5 107.5t38 125.5t8 101.5q2 47 -2 80t-8 55q-14 74 -44 122t-68 76t-80 38t-81 10q-84 0 -142 -30.5t-95 -84t-53.5 -124t-16.5 -152.5z" />
<glyph unicode="&#xf1;" d="M133 0v965h164v-142q35 59 78 93t85 51.5t80 22.5t58 5q47 0 95 -12t92 -38.5t78 -68.5t52 -102q12 -43 14.5 -90t2.5 -109v-575h-162v549q0 74 -1 104.5t-9 55.5q-23 70 -82.5 101.5t-124.5 31.5q-111 0 -184 -74q-53 -53 -62.5 -108.5t-9.5 -108.5v-551h-164zM234 1104 q2 23 11 56.5t29.5 66.5t53 56.5t84.5 23.5q33 0 72.5 -13.5t76.5 -27.5q57 -23 78 -26t31 -3q37 0 48 23.5t15 39.5h99q-2 -20 -11.5 -55t-29 -68.5t-50 -57t-77.5 -23.5q-18 0 -47 5t-89 27q-35 12 -55 20.5t-33.5 12.5t-20.5 5t-18 1q-39 0 -51 -23.5t-16 -39.5h-100z " />
<glyph unicode="&#xf2;" horiz-adv-x="1110" d="M82 475q0 80 22.5 172t78 169t147.5 128t233 51q121 0 208 -43t144.5 -113.5t85 -164t27.5 -191.5q0 -111 -32.5 -204t-93 -161.5t-147.5 -107.5t-198 -39q-125 0 -215 43t-147.5 114t-85 162t-27.5 185zM260 473q0 -76 16.5 -143.5t52.5 -117.5t91 -80t135 -30 q102 0 160.5 46.5t88.5 107.5t38 125.5t8 101.5q2 47 -2 80t-8 55q-14 72 -43 119t-66 76t-80 40t-84 11q-82 0 -140 -29.5t-95 -83t-54.5 -124t-17.5 -154.5zM362 1362h181l84 -295h-97z" />
<glyph unicode="&#xf3;" horiz-adv-x="1110" d="M82 475q0 80 22.5 172t78 169t147.5 128t233 51q121 0 208 -43t144.5 -113.5t85 -164t27.5 -191.5q0 -111 -32.5 -204t-93 -161.5t-147.5 -107.5t-198 -39q-125 0 -215 43t-147.5 114t-85 162t-27.5 185zM260 473q0 -76 16.5 -143.5t52.5 -117.5t91 -80t135 -30 q102 0 160.5 46.5t88.5 107.5t38 125.5t8 101.5q2 47 -2 80t-8 55q-14 72 -43 119t-66 76t-80 40t-84 11q-82 0 -140 -29.5t-95 -83t-54.5 -124t-17.5 -154.5zM499 1069l84 295h177l-177 -295h-84z" />
<glyph unicode="&#xf4;" horiz-adv-x="1110" d="M82 475q0 80 22.5 172t78 169t147.5 128t233 51q121 0 208 -43t144.5 -113.5t85 -164t27.5 -191.5q0 -111 -32.5 -204t-93 -161.5t-147.5 -107.5t-198 -39q-125 0 -215 43t-147.5 114t-85 162t-27.5 185zM260 473q0 -76 16.5 -143.5t52.5 -117.5t91 -80t135 -30 q102 0 160.5 46.5t88.5 107.5t38 125.5t8 101.5q2 47 -2 80t-8 55q-14 72 -43 119t-66 76t-80 40t-84 11q-82 0 -140 -29.5t-95 -83t-54.5 -124t-17.5 -154.5zM293 1071l193 309h137l213 -309h-154l-125 195l-120 -195h-144z" />
<glyph unicode="&#xf5;" horiz-adv-x="1110" d="M82 475q0 80 22.5 172t78 169t147.5 128t233 51q121 0 208 -43t144.5 -113.5t85 -164t27.5 -191.5q0 -111 -32.5 -204t-93 -161.5t-147.5 -107.5t-198 -39q-125 0 -215 43t-147.5 114t-85 162t-27.5 185zM259 1104q2 23 11 56.5t29.5 66.5t53 56.5t84.5 23.5 q33 0 72.5 -13.5t76.5 -27.5q57 -23 78 -26t31 -3q37 0 48 23.5t15 39.5h99q-2 -20 -11.5 -55t-29 -68.5t-50 -57t-77.5 -23.5q-18 0 -47 5t-89 27q-35 12 -55 20.5t-33.5 12.5t-20.5 5t-18 1q-39 0 -51 -23.5t-16 -39.5h-100zM260 473q0 -76 16.5 -143.5t52.5 -117.5 t91 -80t135 -30q102 0 160.5 46.5t88.5 107.5t38 125.5t8 101.5q2 47 -2 80t-8 55q-14 72 -43 119t-66 76t-80 40t-84 11q-82 0 -140 -29.5t-95 -83t-54.5 -124t-17.5 -154.5z" />
<glyph unicode="&#xf6;" horiz-adv-x="1110" d="M82 475q0 80 22.5 172t78 169t147.5 128t233 51q121 0 208 -43t144.5 -113.5t85 -164t27.5 -191.5q0 -111 -32.5 -204t-93 -161.5t-147.5 -107.5t-198 -39q-125 0 -215 43t-147.5 114t-85 162t-27.5 185zM260 473q0 -76 16.5 -143.5t52.5 -117.5t91 -80t135 -30 q102 0 160.5 46.5t88.5 107.5t38 125.5t8 101.5q2 47 -2 80t-8 55q-14 72 -43 119t-66 76t-80 40t-84 11q-82 0 -140 -29.5t-95 -83t-54.5 -124t-17.5 -154.5zM295 1108v211h178v-211h-178zM698 1108v211h180v-211h-180z" />
<glyph unicode="&#xf7;" horiz-adv-x="1366" d="M0 514v162h1366v-162h-1366zM569 297q0 53 35 85t82 32q53 0 85 -37t30 -80q-2 -49 -35 -81t-82 -32q-47 0 -81 33t-34 80zM569 891q0 41 31 78t86 37t85 -36t30 -79q0 -41 -31 -78t-88 -37q-41 0 -77 30t-36 85z" />
<glyph unicode="&#xf8;" horiz-adv-x="1110" d="M78 94l88 84q-29 51 -55.5 120t-26.5 175q0 123 39 220.5t104.5 164t151.5 102t178 35.5q68 0 121 -15t93 -36.5t65.5 -42t37.5 -31.5l91 91l71 -76l-94 -92q47 -68 67.5 -148t20.5 -162q0 -102 -30.5 -194t-91 -163t-149.5 -113t-206 -42q-96 0 -176 31t-146 100 l-81 -82zM256 498q0 -80 13.5 -127t21.5 -68l473 459q-10 10 -28.5 27.5t-44 34t-60.5 28.5t-80 12q-57 0 -111.5 -24.5t-94.5 -71.5t-64.5 -114.5t-24.5 -155.5zM344 213q8 -8 24.5 -26.5t43 -37t64.5 -33t89 -14.5q63 0 117.5 27t94.5 75t62.5 115.5t22.5 151.5 q0 88 -15.5 135t-25.5 68z" />
<glyph unicode="&#xf9;" d="M133 399v566h162v-551v-59.5v-36t1 -20.5t3 -17q6 -47 26.5 -77t48 -46.5t58.5 -22.5t60 -6q76 0 131 26.5t86 65.5q45 53 52 113.5t7 146.5v484h162v-965h-162v147q-12 -14 -36.5 -43.5t-64.5 -57.5t-96.5 -49.5t-132.5 -21.5q-100 0 -156.5 36t-78.5 63 q-27 31 -41.5 62.5t-20.5 69.5t-7 85t-1 108zM338 1362h181l84 -295h-97z" />
<glyph unicode="&#xfa;" d="M133 399v566h162v-551v-59.5v-36t1 -20.5t3 -17q6 -47 26.5 -77t48 -46.5t58.5 -22.5t60 -6q76 0 131 26.5t86 65.5q45 53 52 113.5t7 146.5v484h162v-965h-162v147q-12 -14 -36.5 -43.5t-64.5 -57.5t-96.5 -49.5t-132.5 -21.5q-100 0 -156.5 36t-78.5 63 q-27 31 -41.5 62.5t-20.5 69.5t-7 85t-1 108zM475 1069l84 295h177l-177 -295h-84z" />
<glyph unicode="&#xfb;" d="M133 399v566h162v-551v-59.5v-36t1 -20.5t3 -17q6 -47 26.5 -77t48 -46.5t58.5 -22.5t60 -6q76 0 131 26.5t86 65.5q45 53 52 113.5t7 146.5v484h162v-965h-162v147q-12 -14 -36.5 -43.5t-64.5 -57.5t-96.5 -49.5t-132.5 -21.5q-100 0 -156.5 36t-78.5 63 q-27 31 -41.5 62.5t-20.5 69.5t-7 85t-1 108zM268 1071l193 309h137l213 -309h-154l-125 195l-120 -195h-144z" />
<glyph unicode="&#xfc;" d="M133 399v566h162v-551v-59.5v-36t1 -20.5t3 -17q6 -47 26.5 -77t48 -46.5t58.5 -22.5t60 -6q76 0 131 26.5t86 65.5q45 53 52 113.5t7 146.5v484h162v-965h-162v147q-12 -14 -36.5 -43.5t-64.5 -57.5t-96.5 -49.5t-132.5 -21.5q-100 0 -156.5 36t-78.5 63 q-27 31 -41.5 62.5t-20.5 69.5t-7 85t-1 108zM238 1108v211h178v-211h-178zM641 1108v211h180v-211h-180z" />
<glyph unicode="&#xfd;" horiz-adv-x="894" d="M18 -309q16 -4 43 -10.5t62 -6.5q45 0 73.5 13.5t49 39t36 63.5t33.5 87l41 117l-327 971h174l241 -766l256 766h170l-405 -1141q-27 -74 -50.5 -129t-56 -94t-77.5 -58.5t-113 -19.5q-49 0 -86 7t-64 15v146zM401 1069l84 295h177l-177 -295h-84z" />
<glyph unicode="&#xfe;" horiz-adv-x="1150" d="M131 -457v1905h162v-621q25 29 49.5 52.5t40.5 35.5q39 29 107.5 54.5t146.5 25.5t155.5 -31.5t139 -95t100.5 -160t39 -227.5q0 -102 -27.5 -195t-84 -163t-141.5 -111t-200 -41q-98 0 -181 34t-144 110v-572h-162zM293 467q0 -158 76.5 -255t224.5 -97q43 0 87 9t83 34 q20 12 43.5 37.5t45 65.5t36 94.5t14.5 127.5q0 174 -86 269.5t-227 89.5q-141 -4 -219 -106.5t-78 -268.5z" />
<glyph unicode="&#xff;" horiz-adv-x="894" d="M18 -309q16 -4 43 -10.5t62 -6.5q45 0 73.5 13.5t49 39t36 63.5t33.5 87l41 117l-327 971h174l241 -766l256 766h170l-405 -1141q-27 -74 -50.5 -129t-56 -94t-77.5 -58.5t-113 -19.5q-49 0 -86 7t-64 15v146zM160 1108v211h178v-211h-178zM563 1108v211h180v-211h-180z " />
<glyph unicode="&#x152;" horiz-adv-x="2347" d="M102 727q0 160 48.5 298t138.5 239.5t222 160t300 58.5q53 0 111.5 -7.5t117 -29t115.5 -57t111 -95.5v152h1003v-174h-819v-449h659v-168h-659v-487h842v-168h-1026v166q-25 -25 -65 -59.5t-98.5 -66.5t-136 -54.5t-175.5 -22.5q-162 0 -289 60.5t-216 164t-136.5 242.5 t-47.5 297zM305 723q0 -141 38 -253t104.5 -188.5t155.5 -117.5t190 -41q76 0 149.5 23.5t132.5 70.5q70 55 108 127t56 143.5t21.5 135t3.5 104.5q0 68 -5.5 136.5t-23.5 133.5q-51 174 -171 255t-263 81q-106 0 -196.5 -42t-157 -119.5t-104.5 -191.5t-38 -257z" />
<glyph unicode="&#x153;" horiz-adv-x="1792" d="M86 481q0 133 40 230.5t105.5 160t150.5 93t175 30.5q78 0 136.5 -19.5t99.5 -48t68.5 -58t43.5 -52.5q72 102 164 140t188 38q31 0 73 -5t90 -22.5t97.5 -52t92.5 -94.5q59 -84 81.5 -182t26.5 -201h-729q0 -72 21.5 -133t61.5 -106t94.5 -71t121.5 -26q66 0 111 25 t73.5 58.5t44 69.5t21.5 56l166 -22q-14 -43 -45 -98.5t-82 -103.5t-126 -82t-177 -34q-129 0 -223.5 55.5t-145.5 137.5q-12 -18 -36.5 -50t-67.5 -64t-105.5 -55.5t-146.5 -23.5q-92 0 -176 32t-147.5 95.5t-101.5 159.5t-38 223zM260 477q0 -180 81 -274t202 -94 q57 0 108 21.5t90 67.5t61.5 115.5t22.5 163.5q2 186 -77.5 284.5t-202.5 98.5q-66 0 -118 -27.5t-89 -79t-57.5 -121t-20.5 -155.5zM991 561h547q-16 147 -94 225t-180 78q-49 0 -95.5 -19.5t-84 -57t-62.5 -94t-31 -132.5z" />
<glyph unicode="&#x178;" horiz-adv-x="1280" d="M27 1446h229l379 -612l387 612h229l-520 -784v-662h-194v662zM350 1599v209h178v-209h-178zM752 1599v209h178v-209h-178z" />
<glyph unicode="&#x2c6;" horiz-adv-x="555" d="M6 1071l193 309h137l213 -309h-154l-125 195l-120 -195h-144z" />
<glyph unicode="&#x2dc;" horiz-adv-x="555" d="M-20 1104q2 23 11 56.5t29.5 66.5t53 56.5t84.5 23.5q33 0 72.5 -13.5t76.5 -27.5q57 -23 78 -26t31 -3q37 0 48 23.5t15 39.5h99q-2 -20 -11.5 -55t-29 -68.5t-50 -57t-77.5 -23.5q-18 0 -47 5t-89 27q-35 12 -55 20.5t-33.5 12.5t-20.5 5t-18 1q-39 0 -51 -23.5 t-16 -39.5h-100z" />
<glyph unicode="&#x2000;" horiz-adv-x="966" />
<glyph unicode="&#x2001;" horiz-adv-x="1933" />
<glyph unicode="&#x2002;" horiz-adv-x="966" />
<glyph unicode="&#x2003;" horiz-adv-x="1933" />
<glyph unicode="&#x2004;" horiz-adv-x="644" />
<glyph unicode="&#x2005;" horiz-adv-x="483" />
<glyph unicode="&#x2006;" horiz-adv-x="322" />
<glyph unicode="&#x2007;" horiz-adv-x="322" />
<glyph unicode="&#x2008;" horiz-adv-x="241" />
<glyph unicode="&#x2009;" horiz-adv-x="386" />
<glyph unicode="&#x200a;" horiz-adv-x="107" />
<glyph unicode="&#x2010;" horiz-adv-x="598" d="M92 526v156h414v-156h-414z" />
<glyph unicode="&#x2011;" horiz-adv-x="598" d="M92 526v156h414v-156h-414z" />
<glyph unicode="&#x2012;" horiz-adv-x="598" d="M92 526v156h414v-156h-414z" />
<glyph unicode="&#x2013;" horiz-adv-x="1193" d="M92 522v162h1016v-162h-1016z" />
<glyph unicode="&#x2014;" horiz-adv-x="1280" d="M92 522v162h1100v-162h-1100z" />
<glyph unicode="&#x2018;" horiz-adv-x="468" d="M129 901v105q2 68 6 120t13.5 100t24.5 100t42 120h96q-57 -154 -67 -322h88v-223h-203z" />
<glyph unicode="&#x2019;" horiz-adv-x="468" d="M129 1221v225h203v-107q0 -76 -6.5 -133t-16.5 -106t-25.5 -96.5t-35.5 -102.5h-96q10 27 34.5 110t32.5 210h-90z" />
<glyph unicode="&#x201a;" horiz-adv-x="468" d="M129 0v223h203v-104q-2 -72 -6 -126t-13.5 -103.5t-25 -98.5t-39.5 -110h-96q12 33 35.5 114.5t31.5 204.5h-90z" />
<glyph unicode="&#x201c;" horiz-adv-x="768" d="M129 901v105q2 68 6 119t13.5 100t24.5 101t42 120h96q-31 -78 -47 -158t-20 -164h88v-223h-203zM434 901v105q2 68 5 119t12.5 100t26 101t42.5 120h94q-59 -156 -65 -322h88v-223h-203z" />
<glyph unicode="&#x201d;" horiz-adv-x="768" d="M129 1221v225h203v-107q-2 -72 -6 -126t-13.5 -103t-25 -98t-39.5 -111h-96q10 27 34.5 110t32.5 210h-90zM434 1221v225h203v-107q-2 -72 -6 -126t-14.5 -103t-26 -98t-39.5 -111h-94q10 27 34.5 110t30.5 210h-88z" />
<glyph unicode="&#x201e;" horiz-adv-x="768" d="M129 0v223h203v-104q-2 -72 -6 -126t-13.5 -103.5t-25 -98.5t-39.5 -110h-96q12 33 35.5 114.5t31.5 204.5h-90zM434 0v223h203v-104q-2 -72 -6 -126t-14.5 -103.5t-26 -98.5t-39.5 -110h-94q12 33 35.5 114.5t29.5 204.5h-88z" />
<glyph unicode="&#x2022;" horiz-adv-x="681" d="M76 723q0 55 20.5 103t57 85t85 57.5t103.5 20.5t103.5 -20.5t85 -57.5t57 -85t20.5 -103t-20.5 -103.5t-57 -85t-85 -57t-103.5 -20.5t-103.5 20.5t-85 57t-57 85t-20.5 103.5z" />
<glyph unicode="&#x2026;" horiz-adv-x="2048" d="M242 0v231h202v-231h-202zM924 0v231h202v-231h-202zM1606 0v231h202v-231h-202z" />
<glyph unicode="&#x202f;" horiz-adv-x="386" />
<glyph unicode="&#x2039;" horiz-adv-x="512" d="M96 512v174l277 240v-185l-160 -137l160 -139v-184z" />
<glyph unicode="&#x203a;" horiz-adv-x="512" d="M139 281v184l160 137l-160 139v185l277 -232v-174z" />
<glyph unicode="&#x205f;" horiz-adv-x="483" />
<glyph unicode="&#x2122;" horiz-adv-x="1406" d="M33 1346v100h553v-100h-215v-580h-119v580h-219zM643 766v680h162l170 -537l166 537h162v-680h-117l4 420l6 139l-33 -115l-139 -444h-106l-138 444l-35 113l9 -137l4 -420h-115z" />
<glyph unicode="&#x25fc;" horiz-adv-x="962" d="M0 0v963h963v-963h-963z" />
<glyph unicode="&#xfb01;" horiz-adv-x="980" d="M23 829v136h161l2 198q0 31 5.5 77t29 90t73.5 76t142 32q35 0 65.5 -4t53.5 -9v-127q-23 4 -47.5 6.5t-40.5 2.5q-45 0 -70.5 -16.5t-38 -42t-14.5 -56.5t-2 -59v-168h184v-136h-184v-829h-158v829h-161zM696 0v965h158v-965h-158zM696 1260v188h158v-188h-158z" />
<glyph unicode="&#xfb02;" horiz-adv-x="980" d="M20 829v136h162l2 198q0 31 5.5 77t29 90t73.5 76t142 32q35 0 65.5 -4t53.5 -9v-127q-23 4 -47.5 6.5t-40.5 2.5q-45 0 -70.5 -16.5t-38 -42t-14.5 -56.5t-2 -59v-168h184v-136h-184v-829h-158v829h-162zM690 0v1446h158v-1446h-158z" />
</font>
</defs>
</svg>
