<?xml version="1.0" standalone="no"?>
<!DOCTYPE svg PUBLIC "-//W3C//DTD SVG 1.1//EN" "http://www.w3.org/Graphics/SVG/1.1/DTD/svg11.dtd" >
<svg xmlns="http://www.w3.org/2000/svg" xmlns:xlink="http://www.w3.org/1999/xlink" version="1.1">
<metadata></metadata>
<defs>
<font id="knulregular" horiz-adv-x="1345" >
<font-face units-per-em="2048" ascent="1536" descent="-512" />
<missing-glyph horiz-adv-x="614" />
<glyph unicode=" "  horiz-adv-x="614" />
<glyph unicode="&#x09;" horiz-adv-x="614" />
<glyph unicode="&#xa0;" horiz-adv-x="614" />
<glyph unicode="!" horiz-adv-x="294" d="M86 0v158h124v-158h-124zM86 384v1050h124v-1050h-124z" />
<glyph unicode="&#x22;" horiz-adv-x="573" d="M86 992v473h124v-473h-124zM365 992v473h124v-473h-124z" />
<glyph unicode="#" horiz-adv-x="1230" d="M86 380v118h203l81 378h-284v118h309l94 438h126l-94 -438h306l94 438h126l-94 -438h191v-118h-216l-81 -378h297v-118h-321l-81 -380h-126l81 380h-307l-80 -380h-126l80 380h-178zM415 498h306l81 378h-306z" />
<glyph unicode="$" horiz-adv-x="1069" d="M86 -2v117h393v579q-50 10 -87 20t-80 26t-74 35t-61.5 47t-49 62.5t-30 81.5t-11.5 104q0 177 102 263t291 98v116h104v-113h367v-118h-367v-524q82 -17 137.5 -34t109.5 -45t85.5 -64.5t50.5 -91.5t19 -128q0 -212 -101.5 -316t-300.5 -113v-113h-104v111h-393z M210 1070q0 -64 19 -109t59.5 -73t82 -43t108.5 -30v498q-134 -8 -201.5 -65t-67.5 -178zM583 120q142 6 210 79t68 230q0 59 -16.5 99t-54.5 67.5t-84.5 44t-122.5 32.5v-552z" />
<glyph unicode="%" d="M86 -14l1057 1461h117l-1057 -1461h-117zM151 1150q0 147 57 215.5t174 68.5q116 0 174 -69.5t58 -216.5q0 -293 -232 -293q-231 0 -231 295zM249 1150q0 -112 29 -162t104 -50t104 49.5t29 160.5t-28.5 157t-104.5 46q-74 0 -103.5 -46t-29.5 -155zM756 295 q0 146 57.5 214.5t174.5 68.5q115 0 173 -69t58 -216q0 -293 -231 -293q-232 0 -232 295zM853 295q0 -111 30 -161.5t105 -50.5q74 0 103.5 49.5t29.5 160.5t-28.5 156.5t-104.5 45.5t-105.5 -45.5t-29.5 -154.5z" />
<glyph unicode="&#x26;" horiz-adv-x="1157" d="M86 386q0 228 175 342l72 47l-79 96q-92 111 -92 223q0 141 86 240t234 99q152 0 234.5 -97t82.5 -242q0 -90 -36.5 -147t-99.5 -97l-156 -100l386 -471q46 69 48 172l111 -20q0 -150 -68 -261l89 -108l-91 -74l-81 98q-87 -71 -206 -71h-255q-149 0 -251.5 104.5 t-102.5 266.5zM206 386q0 -115 67.5 -186t166.5 -71h240q93 0 135 61l-408 495l-72 -46q-129 -84 -129 -253zM283 1092q0 -40 14.5 -74.5t49.5 -75.5l86 -104l164 106q44 28 63 59t19 89q0 100 -52 162.5t-145 62.5t-146 -63t-53 -162z" />
<glyph unicode="'" horiz-adv-x="294" d="M86 992v473h124v-473h-124z" />
<glyph unicode="(" horiz-adv-x="485" d="M86 626q0 101 25 236t62 258t65 204.5t47 129.5l110 -39q-14 -41 -35.5 -109t-57.5 -195t-60 -259.5t-24 -225.5q0 -123 39.5 -307t74 -295.5t68.5 -209.5l-115 -39q-20 52 -61 180.5t-89.5 337.5t-48.5 333z" />
<glyph unicode=")" horiz-adv-x="485" d="M86 -186q34 98 68.5 209.5t74 295.5t39.5 307q0 120 -44.5 318.5t-76.5 302t-55 168.5l110 39q29 -73 68.5 -190.5t84.5 -311.5t45 -326q0 -124 -48.5 -333t-89.5 -337.5t-61 -180.5z" />
<glyph unicode="*" horiz-adv-x="864" d="M86 1179l40 111l247 -90v258h124v-257l243 89l40 -111l-250 -91l159 -214l-105 -65l-150 204l-148 -204l-105 65l157 214z" />
<glyph unicode="+" horiz-adv-x="1200" d="M86 463v118h452v451h124v-451h453v-118h-453v-453h-124v453h-452z" />
<glyph unicode="," horiz-adv-x="356" d="M86 -66q62 41 62 101v203h124v-203q0 -64 -48 -108.5t-113 -49.5z" />
<glyph unicode="-" horiz-adv-x="880" d="M86 485v117h709v-117h-709z" />
<glyph unicode="." horiz-adv-x="294" d="M86 0v242h124v-242h-124z" />
<glyph unicode="/" horiz-adv-x="946" d="M86 0l639 1434h136l-637 -1434h-138z" />
<glyph unicode="0" horiz-adv-x="1138" d="M74 480v379q0 263 132 395.5t363 132.5q237 0 367 -134.5t130 -393.5v-379q0 -243 -133 -370.5t-362 -127.5q-230 0 -363.5 128.5t-133.5 369.5zM198 480q0 -189 98.5 -285.5t274.5 -96.5q177 0 274 95.5t97 286.5v379q0 411 -373 411q-178 0 -274.5 -100t-96.5 -311 v-379z" />
<glyph unicode="1" horiz-adv-x="704" d="M39 1109l436 291h99v-1400h-124v1240l-348 -234z" />
<glyph unicode="2" horiz-adv-x="1026" d="M53 -2v92l547 519q61 59 98 104.5t64 111.5t27 138v60q0 117 -82 182t-214 65h-417v118h417q117 0 210.5 -40.5t151.5 -125t58 -199.5v-60q0 -70 -18 -133.5t-53 -118.5t-70.5 -96.5t-86.5 -90.5l-430 -408h710v-118h-912z" />
<glyph unicode="3" horiz-adv-x="989" d="M53 -2v118h494q101 0 166.5 70t65.5 187q0 119 -65.5 201t-155.5 82h-340v117h340q96 0 158.5 66t62.5 172q0 113 -66 186t-166 73h-494v118h494q155 0 256 -107.5t101 -269.5q0 -104 -48 -183.5t-130 -118.5q82 -45 130 -134t48 -202q0 -166 -101 -270.5t-256 -104.5 h-494z" />
<glyph unicode="4" horiz-adv-x="1128" d="M47 281v81l427 1049l113 -49l-392 -964h542v365h124v-365h221v-117h-221v-281h-124v281h-690z" />
<glyph unicode="5" horiz-adv-x="1034" d="M90 -2v117h407q96 0 168 23.5t118.5 81.5t46.5 147v146q0 113 -83.5 171t-218.5 58h-438v628h822v-117h-698v-394h314q85 0 160.5 -21t135.5 -62t95 -108.5t35 -154.5v-146q0 -99 -38.5 -172.5t-105 -115t-145 -61.5t-168.5 -20h-407z" />
<glyph unicode="6" horiz-adv-x="1073" d="M86 483v403q0 250 133.5 376t377.5 126h368v-117h-368q-191 0 -289 -94t-98 -291v-21h343q217 0 329 -95t112 -276v-84q0 -190 -112 -301t-337 -111q-235 0 -347 112t-112 373zM210 483q0 -141 36 -221.5t107 -113t192 -32.5q325 0 325 294v84q0 129 -76.5 191.5 t-240.5 62.5h-343v-265z" />
<glyph unicode="7" horiz-adv-x="978" d="M47 1270v118h894v-82l-568 -1308h-136l553 1272h-743z" />
<glyph unicode="8" horiz-adv-x="1159" d="M86 375q0 112 48.5 201.5t131.5 133.5q-83 40 -131.5 120t-48.5 183q0 161 102 268t257 107h271q155 0 257 -107.5t102 -269.5q0 -105 -48 -184t-131 -118q82 -45 130.5 -134t48.5 -202q0 -166 -102.5 -270.5t-256.5 -104.5h-271q-154 0 -256.5 104.5t-102.5 272.5z M210 375q0 -118 66.5 -188.5t168.5 -70.5h271q102 0 168.5 70.5t66.5 186.5q0 119 -66 201t-157 82h-292q-96 0 -161 -80.5t-65 -200.5zM210 1013q0 -104 64.5 -172t157.5 -68h296q96 0 159.5 66t63.5 172q0 113 -67 186.5t-168 73.5h-271q-100 0 -167.5 -73t-67.5 -185z " />
<glyph unicode="9" horiz-adv-x="1073" d="M82 892v85q0 190 112 300.5t337 110.5q235 0 347 -111.5t112 -372.5v-404q0 -250 -133.5 -376t-377.5 -126h-369v118h369q191 0 288.5 93.5t97.5 290.5v21h-342q-217 0 -329 95t-112 276zM206 892q0 -129 76.5 -191t240.5 -62h342v265q0 141 -35.5 221t-106 112.5 t-192.5 32.5q-325 0 -325 -293v-85z" />
<glyph unicode=":" horiz-adv-x="294" d="M86 0v242h124v-242h-124zM86 684v242h124v-242h-124z" />
<glyph unicode=";" horiz-adv-x="356" d="M86 -66q62 41 62 101v203h124v-203q0 -64 -48 -108.5t-113 -49.5zM148 684v242h124v-242h-124z" />
<glyph unicode="&#x3c;" horiz-adv-x="925" d="M86 591v106l755 489v-141l-599 -389v-21l599 -390v-143z" />
<glyph unicode="=" horiz-adv-x="1200" d="M86 336v118h1029v-118h-1029zM86 677v117h1029v-117h-1029z" />
<glyph unicode="&#x3e;" horiz-adv-x="925" d="M86 102v143l599 390v21l-599 389v141l755 -489v-106z" />
<glyph unicode="?" horiz-adv-x="913" d="M86 1316v118h331q192 0 301.5 -93t109.5 -265t-162 -314l-120 -105q-54 -48 -75 -83t-21 -80v-95h-125v95q0 72 30.5 127t97.5 114l131 115q63 55 91.5 108.5t28.5 117.5q0 119 -73 179.5t-214 60.5h-331zM325 0v212h125v-212h-125z" />
<glyph unicode="@" horiz-adv-x="1216" d="M86 467v403q0 270 136 409.5t385 139.5q253 0 389 -141.5t136 -407.5q0 -158 -61 -284.5t-185 -205.5h-109l-4 64q-64 -64 -147 -65h-89q-86 0 -147 58t-61 143q0 83 61 144.5t147 61.5h214v82q0 52 -26 85t-67 33h-266v91h266q86 0 141 -58.5t55 -148.5v-363h26 q71 64 109.5 157.5t38.5 205.5q0 224 -108.5 338.5t-312.5 114.5q-200 0 -308.5 -112.5t-108.5 -340.5v-403q0 -207 113.5 -315.5t305.5 -108.5q97 0 180 32l29 -89q-104 -39 -209 -39q-237 0 -380 135t-143 385zM432 580q0 -45 30.5 -75t74.5 -30h109q43 0 73.5 30t31.5 73 v113h-214q-43 0 -74 -32.5t-31 -78.5z" />
<glyph unicode="A" horiz-adv-x="1253" d="M58 0l507 1434h121l512 -1434h-131l-144 404h-593l-141 -404h-131zM373 521h506l-250 702h-9z" />
<glyph unicode="B" horiz-adv-x="1277" d="M193 0v1434h555q157 0 269.5 -111t112.5 -266q0 -98 -51 -179.5t-134 -126.5q106 -42 172.5 -137.5t66.5 -213.5q0 -165 -117.5 -282.5t-285.5 -117.5h-588zM315 117h466q115 0 196.5 82.5t81.5 200.5q0 119 -81 200.5t-197 81.5h-466v-565zM315 800h444q101 0 174 76 t73 181q0 107 -76.5 183t-181.5 76h-433v-516z" />
<glyph unicode="C" horiz-adv-x="1310" d="M140 469v482q0 498 487 498h93q460 0 484 -478h-124q-8 192 -96.5 276t-263.5 84h-93q-181 0 -272 -88.5t-91 -291.5v-482q0 -171 95 -270t268 -99h92q171 0 262 103.5t96 284.5h125q-8 -230 -131.5 -368t-351.5 -138h-92q-229 0 -358 134t-129 353z" />
<glyph unicode="D" horiz-adv-x="1312" d="M193 0v1434h493q488 0 488 -498v-450q0 -219 -129 -352.5t-359 -133.5h-493zM317 117h369q173 0 268.5 99.5t95.5 269.5v450q0 203 -91.5 291.5t-272.5 88.5h-369v-1199z" />
<glyph unicode="E" horiz-adv-x="1153" d="M193 0v1434h864v-118h-740v-513h623v-117h-623v-569h740v-117h-864z" />
<glyph unicode="F" horiz-adv-x="1153" d="M193 0v1434h864v-118h-740v-513h623v-117h-623v-686h-124z" />
<glyph unicode="G" horiz-adv-x="1357" d="M140 469v480q0 498 487 498h92q461 0 485 -477h-124q-8 191 -97 275t-264 84h-92q-181 0 -272 -88.5t-91 -291.5v-480q0 -171 95 -270t268 -99h92q179 0 271.5 86.5t92.5 284.5v148h-302v117h426v-265q0 -252 -129 -370.5t-359 -118.5h-92q-229 0 -358 134t-129 353z" />
<glyph unicode="H" horiz-adv-x="1411" d="M193 0v1434h124v-658h777v658h124v-1434h-124v659h-777v-659h-124z" />
<glyph unicode="I" horiz-adv-x="507" d="M193 0v1434h124v-1434h-124z" />
<glyph unicode="J" horiz-adv-x="628" d="M39 -6v117h65q35 0 55.5 1t44.5 4.5t37 11t27.5 20.5t21 31.5t13 45.5t8 62.5t1.5 82.5v1064h124v-1064q0 -59 -4.5 -106.5t-12.5 -84t-23 -64.5t-30 -47.5t-39 -33.5t-45.5 -21.5t-53 -12t-58.5 -5.5t-66 -1h-65z" />
<glyph unicode="K" horiz-adv-x="1204" d="M193 0v1434h124v-665h151l501 665h153l-544 -722l570 -712h-155l-523 651h-153v-651h-124z" />
<glyph unicode="L" horiz-adv-x="1048" d="M193 0v1434h124v-1317h675v-117h-799z" />
<glyph unicode="M" horiz-adv-x="1613" d="M177 0v1434h114l508 -863l507 863h117v-1434h-124v1177l-500 -848l-498 846v-1175h-124z" />
<glyph unicode="N" horiz-adv-x="1394" d="M177 0v1434h118l800 -1191v1191h124v-1434h-107l-811 1206v-1206h-124z" />
<glyph unicode="O" d="M140 471v478q0 498 487 498h92q488 0 488 -498v-478q0 -219 -129 -353t-359 -134h-92q-229 0 -358 134t-129 353zM264 471q0 -171 95 -270t268 -99h92q173 0 268.5 99.5t95.5 269.5v478q0 203 -91 292t-272 89h-93q-181 0 -272 -89t-91 -292v-478z" />
<glyph unicode="P" horiz-adv-x="1230" d="M193 0v1434h555q158 0 270 -110.5t112 -266.5q0 -154 -112.5 -265.5t-269.5 -111.5h-431v-680h-124zM317 798h431q105 0 181.5 76.5t76.5 182.5q0 108 -76 183.5t-182 75.5h-431v-518z" />
<glyph unicode="Q" horiz-adv-x="1355" d="M140 473v479q0 497 487 497h92q488 0 488 -497v-479q0 -143 -57.5 -251.5t-166.5 -165.5l220 -218l-86 -88l-256 254q-69 -16 -142 -16h-92q-230 0 -358.5 133t-128.5 352zM264 473q0 -171 95 -270t268 -99h92q173 0 268.5 99.5t95.5 269.5v479q0 203 -91 291.5 t-272 88.5h-93q-181 0 -272 -88.5t-91 -291.5v-479z" />
<glyph unicode="R" horiz-adv-x="1253" d="M193 0v1434h555q158 0 270 -110.5t112 -266.5q0 -140 -95 -245.5t-233 -122.5h-37l373 -689h-139l-369 680h-313v-680h-124zM317 798h431q105 0 181.5 76.5t76.5 182.5q0 108 -76 183.5t-182 75.5h-431v-518z" />
<glyph unicode="S" horiz-adv-x="1089" d="M96 -2v118h457q165 0 241.5 72t76.5 241q0 50 -13 87t-35.5 62.5t-65.5 45t-89 32t-120 27.5q-62 12 -96 19t-89 23.5t-86.5 33.5t-71 46.5t-60 64.5t-35 86.5t-14.5 113.5q0 364 455 364h409v-118h-409q-169 0 -249.5 -55.5t-80.5 -190.5q0 -33 6 -61.5t13.5 -50 t25.5 -40.5t31.5 -31.5t42.5 -25t47.5 -20t57 -17t60 -14t67.5 -13.5q70 -14 120 -27t101.5 -33t85.5 -46.5t62 -62.5t41 -86t13 -113q0 -223 -112 -327t-330 -104h-457z" />
<glyph unicode="T" horiz-adv-x="1120" d="M39 1320v114h1044v-114h-457v-1320h-124v1320h-463z" />
<glyph unicode="U" horiz-adv-x="1357" d="M193 407v1027h124v-1027q0 -146 73.5 -226.5t184.5 -80.5h242q114 0 178 81.5t64 225.5v1027h125v-1027q0 -191 -98 -308t-269 -117h-242q-162 0 -272 113.5t-110 311.5z" />
<glyph unicode="V" horiz-adv-x="1216" d="M58 1434h130l419 -1217h7l415 1217h131l-491 -1434h-118z" />
<glyph unicode="W" horiz-adv-x="1542" d="M58 1434h127l232 -1207l305 634h100l305 -637l232 1210h127l-275 -1434h-115l-324 679l-327 -679h-113z" />
<glyph unicode="X" horiz-adv-x="1175" d="M58 0l456 717l-456 717h145l384 -603l386 603h146l-459 -717l459 -717h-146l-386 603l-384 -603h-145z" />
<glyph unicode="Y" horiz-adv-x="1177" d="M58 1434h144l389 -646l387 646h143l-469 -781v-653h-124v653z" />
<glyph unicode="Z" horiz-adv-x="1124" d="M96 0v85l757 1231h-734v118h902v-85l-758 -1232h767v-117h-934z" />
<glyph unicode="[" horiz-adv-x="589" d="M86 -272v1795h418v-118h-294v-1561h294v-116h-418z" />
<glyph unicode="\" horiz-adv-x="946" d="M86 1434h136l639 -1434h-138z" />
<glyph unicode="]" horiz-adv-x="589" d="M86 -156h294v1561h-294v118h418v-1795h-418v116z" />
<glyph unicode="^" horiz-adv-x="1265" d="M86 697l490 750h114l490 -750h-146l-383 586h-35l-384 -586h-146z" />
<glyph unicode="_" horiz-adv-x="1087" d="M86 -88h918v-117h-918v117z" />
<glyph unicode="`" horiz-adv-x="579" d="M86 1422l33 91l375 -171l-34 -89z" />
<glyph unicode="a" horiz-adv-x="944" d="M68 294q0 122 86.5 208.5t210.5 86.5h348v137q0 82 -46.5 134t-119.5 52h-423v112h423q125 0 204.5 -85t79.5 -213v-726h-92l-4 111q-28 -48 -83.5 -79.5t-119.5 -31.5h-167q-124 0 -210.5 86t-86.5 208zM186 294q0 -76 52.5 -129t126.5 -53h167q71 0 126 51.5t55 118.5 v196h-348q-74 0 -126.5 -54t-52.5 -130z" />
<glyph unicode="b" horiz-adv-x="991" d="M132 0v1434h118v-531q29 60 89 97t134 37h110q134 0 229.5 -97.5t95.5 -248.5v-301q0 -172 -92.5 -281t-236.5 -109h-147q-64 0 -120 32.5t-84 80.5l-4 -113h-92zM250 284q4 -72 57.5 -122t124.5 -50h147q91 0 151 76t60 202v301q0 103 -61 169t-146 66h-126 q-81 0 -144 -65.5t-63 -158.5v-418z" />
<glyph unicode="c" horiz-adv-x="849" d="M84 418v205q0 204 102.5 311t302.5 107h287v-112h-287q-146 0 -216.5 -75t-70.5 -231v-205q0 -166 70 -242.5t217 -76.5h287v-111h-287q-200 0 -302.5 108t-102.5 322z" />
<glyph unicode="d" horiz-adv-x="995" d="M84 390v301q0 151 96 248.5t230 97.5h109q75 0 135 -37t89 -97v531h118v-1434h-93l-4 113q-28 -48 -84 -80.5t-120 -32.5h-147q-144 0 -236.5 109t-92.5 281zM202 390q0 -126 60 -202t151 -76h147q71 0 125 50.5t58 121.5v418q0 93 -63 158.5t-144 65.5h-126 q-85 0 -146.5 -66t-61.5 -169v-301z" />
<glyph unicode="e" horiz-adv-x="940" d="M84 486v160q0 185 110 290.5t278 105.5q192 0 294 -102.5t102 -293.5v-181h-666v-14q0 -175 58 -257t204 -82h376v-111h-376q-88 0 -153.5 21t-109 59.5t-69.5 99.5t-37 134.5t-11 170.5zM202 573h548v78q-1 279 -278 279q-118 0 -193.5 -73t-76.5 -206v-78z" />
<glyph unicode="f" horiz-adv-x="669" d="M58 916v108h141v22q2 103 37 180.5t95 124t135 70t165 25.5v-107q-143 -7 -227 -78t-85 -215v-22h312v-108h-318v-916h-118v916h-137z" />
<glyph unicode="g" horiz-adv-x="991" d="M92 346v296q0 172 92.5 282t236.5 110h146q65 0 121 -33.5t84 -84.5l4 118h93v-1029q0 -113 -18.5 -194.5t-61.5 -142.5t-117.5 -91t-182.5 -30h-361v113h361q150 0 206 74.5t56 257.5v140q-29 -58 -89.5 -94.5t-134.5 -37.5h-109h-5q-130 0 -225 97q-96 99 -96 249z M210 346q0 -103 61 -168.5t146 -65.5h126q82 0 145 64t63 159v413q-4 74 -58 124t-125 50h-147q-91 0 -151 -76.5t-60 -202.5v-297z" />
<glyph unicode="h" horiz-adv-x="1032" d="M142 0v1434h118v-532q30 60 89 96.5t135 36.5h109q134 0 229.5 -97.5t95.5 -248.5v-689h-118v689q0 103 -61 169t-146 66h-126q-81 0 -144 -65.5t-63 -158.5v-700h-118z" />
<glyph unicode="i" horiz-adv-x="391" d="M142 0v1024h118v-1024h-118zM142 1249v151h118v-151h-118z" />
<glyph unicode="j" horiz-adv-x="393" d="M-78 -344l149 213q42 62 57.5 118.5t15.5 135.5v901h118v-901q0 -92 -20 -165.5t-74 -154.5l-149 -211zM144 1249v152h118v-152h-118z" />
<glyph unicode="k" horiz-adv-x="970" d="M136 0v1434h118v-820h157l337 410h152l-385 -465l419 -559h-145l-380 506h-155v-506h-118z" />
<glyph unicode="l" horiz-adv-x="391" d="M142 0v1434h118v-1434h-118z" />
<glyph unicode="m" horiz-adv-x="1589" d="M132 0v1033h94l3 -128q29 58 92.5 95.5t139.5 37.5h77q84 0 155.5 -45t109.5 -122q36 77 108.5 122t158.5 45h81q134 0 229.5 -98t95.5 -249v-691h-118v691q0 103 -61 169t-146 66h-81q-84 0 -145.5 -63t-61.5 -159v-704h-118v703q0 93 -63 158t-144 65h-81 q-83 0 -145 -60t-62 -152v-714h-118z" />
<glyph unicode="n" horiz-adv-x="1026" d="M132 1v1032h93l3 -127q29 58 91 95t138 37h130q134 0 229.5 -98t95.5 -249v-690h-118v690q0 103 -61 169t-146 66h-130q-82 0 -144.5 -61.5t-62.5 -150.5v-713h-118z" />
<glyph unicode="o" horiz-adv-x="978" d="M84 350v303q0 99 43 187t123 143.5t178 55.5h125q98 0 178 -55.5t123 -143.5t43 -187v-303q0 -154 -97.5 -260t-246.5 -106h-125q-149 0 -246.5 106t-97.5 260zM202 350q0 -109 64.5 -182t161.5 -73h125q97 0 161.5 73t64.5 182v303q0 110 -66 192t-160 82h-125 q-94 0 -160 -82t-66 -192v-303z" />
<glyph unicode="p" horiz-adv-x="995" d="M136 -381v1421h92l4 -113q28 48 84 80.5t120 32.5h147q144 0 236.5 -109t92.5 -281v-314q0 -151 -95.5 -248.5t-229.5 -97.5h-110q-75 0 -134.5 37t-88.5 96v-504h-118zM254 324q0 -93 63 -158t144 -65h126q85 0 146 66t61 169v314q0 126 -60 202t-151 76h-147 q-71 0 -124.5 -50t-57.5 -122v-432z" />
<glyph unicode="q" horiz-adv-x="995" d="M84 347v301q0 172 92.5 281t236.5 109h147q64 0 120 -32.5t84 -80.5l4 113h93v-1419h-118v516q-29 -60 -89.5 -97.5t-134.5 -37.5h-109q-134 0 -230 98t-96 249zM202 347q0 -103 61.5 -169t146.5 -66h126q81 0 144 65.5t63 158.5v418q-4 71 -58 121.5t-125 50.5h-147 q-91 0 -151 -76t-60 -202v-301z" />
<glyph unicode="r" horiz-adv-x="698" d="M132 1v1034h93l4 -158q31 74 106.5 119.5t198.5 45.5h126v-112h-126q-140 0 -212 -75t-72 -205v-649h-118z" />
<glyph unicode="s" horiz-adv-x="911" d="M78 755q0 60 19.5 108t52.5 80t78.5 53.5t95.5 31t106 9.5h372v-111h-372q-107 0 -170 -41.5t-64 -129.5q0 -142 232 -166q14 -1 43.5 -4.5t41.5 -4.5q157 -17 240 -90t83 -196q0 -304 -384 -304h-344v112h344q135 0 200.5 44t65.5 148q0 77 -52 119.5t-164 55.5l-87 9 q-73 8 -132 26.5t-106 50.5t-73 83t-26 117z" />
<glyph unicode="t" horiz-adv-x="720" d="M39 914v110h162v233h118v-233h331v-110h-331v-587q0 -120 44 -174.5t150 -54.5h137v-112h-137q-164 0 -238 88t-74 253v587h-162z" />
<glyph unicode="u" horiz-adv-x="1009" d="M115 331v693h118v-693q0 -103 61 -168.5t146 -65.5h130q82 0 144.5 61.5t62.5 150.5v715h118v-1034h-93l-3 127q-29 -58 -91 -94.5t-138 -36.5h-130q-134 0 -229.5 97t-95.5 248z" />
<glyph unicode="v" horiz-adv-x="966" d="M39 1024h125l317 -877l323 877h124l-382 -1024h-132z" />
<glyph unicode="w" horiz-adv-x="1478" d="M39 1024h124l267 -809l257 809h107l259 -809l265 809h124l-336 -1024h-110l-256 805l-255 -805h-112z" />
<glyph unicode="x" horiz-adv-x="909" d="M39 0l346 522l-330 502h137l263 -397l265 397h137l-333 -503l348 -521h-139l-278 417l-276 -417h-140z" />
<glyph unicode="y" horiz-adv-x="937" d="M39 1024h123l308 -838l306 838h124l-534 -1466h-125l166 459z" />
<glyph unicode="z" horiz-adv-x="878" d="M78 0v82l557 830h-547v112h708v-82l-558 -830h564v-112h-724z" />
<glyph unicode="{" horiz-adv-x="841" d="M86 568v117h50q90 5 145 70t55 170v598h420v-118h-296v-480q0 -210 -165 -298q165 -99 165 -299v-484h296v-116h-420v600q0 101 -56 166.5t-145 73.5h-49z" />
<glyph unicode="|" horiz-adv-x="294" d="M86 -152v1626h124v-1626h-124z" />
<glyph unicode="}" horiz-adv-x="841" d="M86 -156h296v484q0 199 166 299q-166 88 -166 298v480h-296v118h420v-598q0 -105 55 -170t145 -70h50v-118h-49q-89 -8 -145 -73t-56 -166v-600h-420v116z" />
<glyph unicode="~" horiz-adv-x="1204" d="M90 319q0 123 89.5 210.5t214.5 87.5q156 0 262 -149q29 -42 71.5 -68.5t88.5 -26.5q76 0 124.5 54.5t60.5 163.5l116 -16q6 -129 -83.5 -224t-217.5 -95q-80 0 -152.5 43.5t-114.5 108.5q-26 41 -68.5 66.5t-86.5 25.5q-77 0 -127 -55t-66 -160l-110 8q-1 9 -1 26z" />
<glyph unicode="&#xa1;" horiz-adv-x="294" d="M86 -342v1049h124v-1049h-124zM86 934v158h124v-158h-124z" />
<glyph unicode="&#xa2;" horiz-adv-x="862" d="M86 427v196q0 185 86 291.5t252 122.5v112h103v-108h251v-112h-200l-51 -2v-820h251v-109h-251v-111h-103v113q-167 17 -252.5 124.5t-85.5 302.5zM204 427q0 -146 54 -222t166 -93v813q-112 -16 -166 -90.5t-54 -211.5v-196z" />
<glyph unicode="&#xa3;" horiz-adv-x="962" d="M86 0v117h139v629h-139v117h139v188q0 113 20 189t61 118t94 59t128 17h267v-118h-267q-67 0 -103 -19t-56 -77.5t-20 -168.5v-188h365v-117h-365v-629h528v-117h-791z" />
<glyph unicode="&#xa4;" horiz-adv-x="974" d="M95 502l83 85q-75 73 -75 166v124q0 98 78 171l-81 79l80 80l92 -91q74 38 156 38h126q84 0 156 -43l96 99l81 -82l-88 -86q60 -72 60 -165v-124q0 -92 -61 -161l93 -91l-84 -84l-100 99q-66 -40 -153 -40h-126q-80 0 -154 37l-89 -93zM221 753q0 -68 62 -116.5 t145 -48.5h126q80 0 133.5 47t53.5 118v124q0 71 -53.5 118t-133.5 47h-126q-83 0 -145 -48.5t-62 -116.5v-124z" />
<glyph unicode="&#xa5;" horiz-adv-x="1255" d="M105 1434h144l388 -646l388 646h144l-419 -694h389v-117h-440v-216h440v-117h-440v-290h-125v290h-464v117h464v214h-464v119h412z" />
<glyph unicode="&#xa6;" horiz-adv-x="294" d="M86 -154v774h124v-774h-124zM86 763v773h124v-773h-124z" />
<glyph unicode="&#xa7;" horiz-adv-x="927" d="M86 625q0 114 73 182q-73 65 -73 170q0 60 19.5 108t52.5 80t78.5 53.5t95.5 31t106 9.5h372v-111h-372q-107 0 -170 -41.5t-64 -129.5q0 -141 232 -165q14 -1 43.5 -5t41.5 -5q157 -17 240 -90t83 -196q0 -115 -60 -184q60 -66 60 -168q0 -301 -384 -301h-344v112h344 q136 0 201 42.5t65 146.5q0 77 -52 119.5t-164 55.5l-86 9q-73 8 -132 26.5t-106.5 50.5t-73.5 83t-26 117zM205 619q4 -136 231 -159q11 -1 42.5 -5t42.5 -5q108 -13 162 -46q43 38 43 112q0 79 -52.5 121t-163.5 54l-86 9q-111 13 -163 40q-57 -44 -56 -121z" />
<glyph unicode="&#xa8;" horiz-adv-x="550" d="M86 1308v192h104v-192h-104zM363 1308v192h103v-192h-103z" />
<glyph unicode="&#xa9;" horiz-adv-x="1292" d="M86 905q0 157 71.5 289t200.5 210t287 78t288 -78t202.5 -210t72.5 -289t-72.5 -289t-202.5 -210t-288 -78t-287 78t-200.5 210t-71.5 289zM190 905q0 -133 59 -243.5t163.5 -174.5t232.5 -64t233.5 64.5t165.5 175t60 242.5t-60 242.5t-165.5 175t-233.5 64.5 t-232.5 -64t-163.5 -174.5t-59 -243.5zM408 903q0 71 9.5 124t33.5 98.5t70.5 69t115.5 23.5h157v-83h-157q-80 0 -109.5 -57t-29.5 -175t30 -173t109 -55h157v-83h-157q-67 0 -113.5 23t-71 67t-34.5 97t-10 124z" />
<glyph unicode="&#xaa;" horiz-adv-x="679" d="M86 922q0 84 58 141t142 57h212v86q0 46 -25 75.5t-66 29.5h-277v89h277q83 0 135.5 -56.5t52.5 -137.5v-482h-78l-3 60q-19 -26 -57 -43t-82 -17h-89q-84 0 -142 57t-58 141zM183 922q0 -48 29.5 -78.5t73.5 -30.5h105q44 0 75 30.5t32 76.5v111h-212q-44 0 -73.5 -30.5 t-29.5 -78.5z" />
<glyph unicode="&#xab;" horiz-adv-x="868" d="M86 533v72l338 265v-144l-197 -157l197 -156v-145zM445 533v72l338 265v-144l-197 -157l197 -156v-145z" />
<glyph unicode="&#xac;" horiz-adv-x="1753" />
<glyph unicode="&#xad;" horiz-adv-x="880" d="M86 485v117h709v-117h-709z" />
<glyph unicode="&#xae;" horiz-adv-x="1292" d="M86 905q0 157 71.5 289t200.5 210t287 78t288 -78t202.5 -210t72.5 -289t-72.5 -289t-202.5 -210t-288 -78t-287 78t-200.5 210t-71.5 289zM190 905q0 -133 59 -243.5t163.5 -174.5t232.5 -64t233.5 64.5t165.5 175t60 242.5t-60 242.5t-165.5 175t-233.5 64.5 t-232.5 -64t-163.5 -174.5t-59 -243.5zM429 596v628h196q118 0 174.5 -40.5t56.5 -144.5q0 -84 -28 -126t-90 -55l134 -262h-93l-127 250h-138v-250h-85zM514 924h147q65 0 88 23t23 92q0 64 -31 85.5t-116 21.5h-111v-222z" />
<glyph unicode="&#xaf;" horiz-adv-x="739" d="M86 1373v95h569v-95h-569z" />
<glyph unicode="&#xb0;" horiz-adv-x="755" d="M86 1182q0 128 81.5 208.5t211.5 80.5t211.5 -80.5t81.5 -208.5t-81.5 -207.5t-211.5 -79.5t-211.5 79.5t-81.5 207.5zM183 1182q0 -90 53.5 -144t142.5 -54t143 54t54 144t-54.5 145t-142.5 55t-142 -55t-54 -145z" />
<glyph unicode="&#xb1;" horiz-adv-x="1200" d="M86 0v117h1029v-117h-1029zM86 677v117h452v402h124v-402h453v-117h-453v-403h-124v403h-452z" />
<glyph unicode="&#xb2;" horiz-adv-x="649" d="M86 628v83l262 248q46 44 69.5 80.5t23.5 84.5v29q0 50 -38 79.5t-93 29.5h-224v87h224q97 0 161 -52t64 -144v-29q0 -73 -30.5 -125t-86.5 -107l-186 -177h333v-87h-479z" />
<glyph unicode="&#xb3;" horiz-adv-x="632" d="M86 627v89h263q44 0 72 30.5t28 82.5q0 53 -26.5 88t-65.5 37h-188v89h180q47 0 74.5 28t27.5 77q0 52 -29 83.5t-73 31.5h-263v89h263q86 0 142 -57.5t56 -146.5q0 -105 -78 -154q76 -55 76 -165q0 -90 -55.5 -146t-140.5 -56h-263z" />
<glyph unicode="&#xb4;" horiz-adv-x="579" d="M86 1343l376 172l32 -91l-374 -169z" />
<glyph unicode="&#xb6;" horiz-adv-x="1169" d="M86 880q0 50 10.5 102t36 106.5t62.5 97t96.5 69.5t132.5 27h661v-118h-170v-1508h-110v1508h-175v-1508h-110v871h-100q-141 0 -237.5 96t-96.5 257z" />
<glyph unicode="&#xb7;" horiz-adv-x="294" d="M86 520v242h124v-242h-124z" />
<glyph unicode="&#xb8;" horiz-adv-x="423" d="M86 -301h108q35 0 48.5 14.5t13.5 48.5q0 28 -14.5 42t-49.5 14h-53v224h88v-146q61 -7 86.5 -38t25.5 -96q0 -79 -33 -113t-112 -34h-108v84z" />
<glyph unicode="&#xb9;" horiz-adv-x="471" d="M86 1208l213 144h88v-723h-99v600l-144 -96z" />
<glyph unicode="&#xba;" horiz-adv-x="735" d="M86 1071q0 176 70.5 251.5t214.5 75.5q142 0 210.5 -75t68.5 -252q0 -180 -68.5 -257.5t-210.5 -77.5q-144 0 -214.5 77.5t-70.5 257.5zM183 1071q0 -139 44 -192.5t144 -53.5q97 0 140 53.5t43 192.5q0 136 -42 187t-141 51q-101 0 -144.5 -51t-43.5 -187z" />
<glyph unicode="&#xbb;" horiz-adv-x="868" d="M86 268v145l197 156l-197 157v144l338 -265v-72zM445 268v145l197 156l-197 157v144l338 -265v-71z" />
<glyph unicode="&#xbc;" horiz-adv-x="1361" d="M86 1208l209 144h89v-723h-97v604l-148 -101zM280 -14l618 1379h109l-618 -1379h-109zM729 141v62l204 499l92 -31l-183 -443h228l15 182h84v-182h109v-87h-109v-141h-99v141h-341z" />
<glyph unicode="&#xbd;" horiz-adv-x="1466" d="M86 1208l211 144h88v-723h-98v604l-147 -101zM280 -14l619 1379h108l-617 -1379h-110zM902 0v83l262 247q46 44 69.5 80.5t23.5 84.5v30q0 50 -38.5 79.5t-92.5 29.5h-224v87h224q96 0 159.5 -51.5t63.5 -144.5v-30q0 -73 -30 -126t-87 -106l-185 -174h334v-89h-479z" />
<glyph unicode="&#xbe;" horiz-adv-x="1474" d="M86 627v89h263q44 0 72 30.5t28 82.5q0 53 -26.5 88t-65.5 37h-188v89h180q47 0 74.5 28t27.5 77q0 52 -29 83.5t-73 31.5h-263v89h263q86 0 142 -57.5t56 -146.5q0 -105 -78 -154q76 -55 76 -165q0 -90 -55.5 -146t-140.5 -56h-263zM392 -14l618 1379h110l-619 -1379 h-109zM842 141v62l204 499l92 -31l-183 -443h228l15 182h83v-182h109v-87h-109v-141h-98v141h-341z" />
<glyph unicode="&#xbf;" horiz-adv-x="913" d="M86 19q0 172 162 314l120 106q54 48 75.5 83t21.5 79v96h124v-96q0 -72 -30.5 -126.5t-97.5 -113.5l-130 -116q-63 -55 -92 -108.5t-29 -117.5q0 -240 287 -240h331v-117h-331q-192 0 -301.5 92.5t-109.5 264.5zM465 884v211h124v-211h-124z" />
<glyph unicode="&#xc0;" horiz-adv-x="1253" d="M58 0l507 1434h121l512 -1434h-131l-144 404h-593l-141 -404h-131zM373 521h506l-250 702h-9zM425 1831l32 92l376 -172l-34 -88z" />
<glyph unicode="&#xc1;" horiz-adv-x="1253" d="M58 0l507 1434h121l512 -1434h-131l-144 404h-593l-141 -404h-131zM373 521h506l-250 702h-9zM424 1753l376 172l32 -92l-374 -168z" />
<glyph unicode="&#xc2;" horiz-adv-x="1253" d="M58 0l507 1434h121l512 -1434h-131l-144 404h-593l-141 -404h-131zM340 1620l251 290h75l251 -290h-132l-156 203l-157 -203h-132zM373 521h506l-250 702h-9z" />
<glyph unicode="&#xc3;" horiz-adv-x="1253" d="M58 0l507 1434h121l512 -1434h-131l-144 404h-593l-141 -404h-131zM328 1823l22.5 18t30 23t32 20t40 16.5t41.5 5.5q53 0 93.5 -19.5t82.5 -53.5q56 -43 101 -43q40 0 116 67l59 -64q-53 -52 -93 -75.5t-82 -23.5q-83 0 -166 65q-37 29 -59.5 41t-51.5 11 q-36 -1 -118 -60zM373 521h506l-250 702h-9z" />
<glyph unicode="&#xc4;" horiz-adv-x="1253" d="M58 0l507 1434h121l512 -1434h-131l-144 404h-593l-141 -404h-131zM373 521h506l-250 702h-9zM439 1718v192h103v-192h-103zM715 1718v192h104v-192h-104z" />
<glyph unicode="&#xc5;" horiz-adv-x="1253" d="M58 0l507 1434h121l512 -1434h-131l-144 404h-593l-141 -404h-131zM373 521h507l-251 702h-9zM424 1778q0 81 59.5 140.5t145.5 59.5q85 0 144.5 -59.5t59.5 -140.5q0 -84 -59.5 -143.5t-144.5 -59.5q-86 0 -145.5 59.5t-59.5 143.5zM528 1778q0 -46 29 -76.5t72 -30.5 q42 0 71 31t29 76q0 43 -29.5 74t-70.5 31q-42 0 -71.5 -30.5t-29.5 -74.5z" />
<glyph unicode="&#xc6;" horiz-adv-x="1579" d="M70 0l508 1434h913v-118h-740v-513h623v-117h-623v-569h740v-117h-864v404h-285l-141 -404h-131zM385 521h242v685z" />
<glyph unicode="&#xc7;" horiz-adv-x="1310" d="M140 469v482q0 498 487 498h93q460 0 484 -478h-124q-8 192 -96.5 276t-263.5 84h-93q-181 0 -272 -88.5t-91 -291.5v-482q0 -171 95 -270t268 -99h92q171 0 262 103.5t96 284.5h125q-8 -228 -129.5 -365.5t-344.5 -140.5h-54v-82q61 -7 86.5 -37.5t25.5 -95.5 q0 -79 -33 -113.5t-112 -34.5h-108v84h108q35 0 48.5 15t13.5 49q0 57 -64 57h-53v160q-211 13 -328.5 144.5t-117.5 340.5z" />
<glyph unicode="&#xc8;" horiz-adv-x="1153" d="M193 0v1434h864v-118h-740v-513h623v-117h-623v-568h740v-118h-864zM369 1831l33 92l375 -172l-34 -88z" />
<glyph unicode="&#xc9;" horiz-adv-x="1153" d="M193 0v1434h864v-118h-740v-513h623v-117h-623v-569h740v-117h-864zM369 1753l375 172l33 -92l-374 -168z" />
<glyph unicode="&#xca;" horiz-adv-x="1153" d="M193 0v1434h864v-118h-740v-513h623v-117h-623v-569h740v-117h-864zM285 1620l250 290h76l250 -290h-132l-156 203l-156 -203h-132z" />
<glyph unicode="&#xcb;" horiz-adv-x="1153" d="M193 0v1434h864v-118h-740v-513h623v-117h-623v-569h740v-117h-864zM383 1718v192h104v-192h-104zM660 1718v192h103v-192h-103z" />
<glyph unicode="&#xcc;" horiz-adv-x="507" d="M52 1831l33 92l375 -172l-34 -88zM193 0v1434h124v-1434h-124z" />
<glyph unicode="&#xcd;" horiz-adv-x="507" d="M52 1753l375 172l33 -92l-374 -168zM193 0v1434h124v-1434h-124z" />
<glyph unicode="&#xce;" horiz-adv-x="507" d="M-33 1620l251 290h76l250 -290h-132l-156 203l-156 -203h-133zM193 0v1434h124v-1434h-124z" />
<glyph unicode="&#xcf;" horiz-adv-x="507" d="M66 1718v192h104v-192h-104zM193 0v1434h124v-1434h-124zM343 1718v192h103v-192h-103z" />
<glyph unicode="&#xd0;" horiz-adv-x="1392" d="M39 642v117h234v675h494q487 0 487 -498v-450q0 -219 -129 -352.5t-358 -133.5h-494v642h-234zM398 117h369q173 0 268 99t95 270v450q0 203 -91 291.5t-272 88.5h-369v-557h280v-117h-280v-525z" />
<glyph unicode="&#xd1;" horiz-adv-x="1394" d="M177 0v1434h118l800 -1191v1191h124v-1434h-107l-811 1206v-1206h-124zM399 1823l22.5 18t30 23t32 20t40 16.5t41.5 5.5q53 0 93 -19t82 -54q56 -43 101 -43q40 0 116 67l60 -64q-100 -99 -176 -99q-83 0 -166 65q-26 20 -39 29t-32 16t-39 7q-36 -1 -118 -60z" />
<glyph unicode="&#xd2;" d="M140 471v478q0 498 487 498h93q487 0 487 -498v-478q0 -219 -129 -353t-358 -134h-93q-229 0 -358 134t-129 353zM264 471q0 -171 95 -270t268 -99h93q173 0 268 99t95 270v478q0 203 -91 292t-272 89h-93q-181 0 -272 -89t-91 -292v-478zM470 1831l32 92l376 -172 l-34 -88z" />
<glyph unicode="&#xd3;" d="M140 471v478q0 498 487 498h92q488 0 488 -498v-478q0 -219 -129 -353t-359 -134h-92q-229 0 -358 134t-129 353zM264 471q0 -171 95 -270t268 -99h92q173 0 268.5 99.5t95.5 269.5v478q0 203 -91 291.5t-272 88.5h-93q-181 0 -272 -88.5t-91 -291.5v-478zM469 1753 l376 172l32 -92l-374 -168z" />
<glyph unicode="&#xd4;" d="M140 471v478q0 498 487 498h92q488 0 488 -498v-478q0 -219 -129 -353t-359 -134h-92q-229 0 -358 134t-129 353zM264 471q0 -171 95 -270t268 -99h92q173 0 268.5 99.5t95.5 269.5v478q0 203 -91.5 292t-272.5 89h-92q-181 0 -272 -89t-91 -292v-478zM385 1620l251 290 h75l251 -290h-132l-157 203l-156 -203h-132z" />
<glyph unicode="&#xd5;" d="M140 471v478q0 498 487 498h92q488 0 488 -498v-478q0 -219 -129 -353t-359 -134h-92q-229 0 -358 134t-129 353zM264 471q0 -171 95 -270t268 -99h92q173 0 268.5 99.5t95.5 269.5v478q0 203 -91.5 291.5t-272.5 88.5h-92q-181 0 -272 -88.5t-91 -291.5v-478zM373 1823 l22.5 18t30 23t32 20t40 16.5t41.5 5.5q53 0 93.5 -19.5t82.5 -53.5q56 -43 101 -43q40 0 116 67l59 -64q-53 -52 -93 -75.5t-82 -23.5q-83 0 -166 65q-37 29 -59.5 41t-51.5 11q-36 -1 -118 -60z" />
<glyph unicode="&#xd6;" d="M140 471v478q0 498 487 498h93q487 0 487 -498v-478q0 -219 -129 -353t-358 -134h-93q-229 0 -358 134t-129 353zM264 471q0 -171 95 -270t268 -99h93q173 0 268 99t95 270v478q0 203 -91 292t-272 89h-93q-181 0 -272 -89t-91 -292v-478zM483 1718v192h104v-192h-104z M760 1718v192h103v-192h-103z" />
<glyph unicode="&#xd7;" horiz-adv-x="980" d="M86 197l318 317l-318 318l82 89l320 -321l320 317l89 -81l-323 -322l323 -322l-89 -81l-320 317l-320 -321z" />
<glyph unicode="&#xd8;" d="M140 481v460q0 497 487 497h92q110 0 191 -26l55 124h135l-78 -177q185 -115 185 -418v-460q0 -219 -129 -353t-359 -134h-92q-107 0 -195 36l-60 -132h-138l85 189q-87 63 -133 164t-46 230zM264 481q0 -176 115 -260l480 1077q-60 23 -140 23h-92q-181 0 -272 -88.5 t-91 -291.5v-460zM481 142q60 -30 146 -30h92q173 0 268.5 99.5t95.5 269.5v460q0 208 -121 282z" />
<glyph unicode="&#xd9;" horiz-adv-x="1357" d="M193 407v1027h124v-1027q0 -146 73.5 -226.5t184.5 -80.5h242q114 0 178 81.5t64 225.5v1027h125v-1027q0 -191 -98 -308t-269 -117h-242q-162 0 -272 113.5t-110 311.5zM475 1831l33 92l375 -172l-34 -88z" />
<glyph unicode="&#xda;" horiz-adv-x="1357" d="M193 407v1027h124v-1027q0 -146 73.5 -226.5t184.5 -80.5h242q114 0 178 81.5t64 225.5v1027h125v-1027q0 -191 -98 -308t-269 -117h-242q-162 0 -272 113.5t-110 311.5zM474 1753l376 172l32 -92l-374 -168z" />
<glyph unicode="&#xdb;" horiz-adv-x="1357" d="M193 407v1027h124v-1027q0 -146 73.5 -226.5t184.5 -80.5h242q114 0 178 81.5t64 225.5v1027h125v-1027q0 -191 -98 -308t-269 -117h-242q-162 0 -272 113.5t-110 311.5zM390 1620l251 290h75l251 -290h-132l-156 203l-157 -203h-132z" />
<glyph unicode="&#xdc;" horiz-adv-x="1357" d="M193 407v1027h124v-1027q0 -146 73.5 -226.5t184.5 -80.5h242q114 0 178 81.5t64 225.5v1027h125v-1027q0 -191 -98 -308t-269 -117h-242q-162 0 -272 113.5t-110 311.5zM489 1718v192h103v-192h-103zM765 1718v192h104v-192h-104z" />
<glyph unicode="&#xdd;" horiz-adv-x="1177" d="M58 1434h144l389 -646l387 646h143l-469 -781v-653h-124v653zM386 1753l376 172l32 -92l-374 -168z" />
<glyph unicode="&#xde;" horiz-adv-x="1171" d="M119 0v1433h126v-242h427q193 0 301.5 -90t108.5 -257v-193q0 -172 -104.5 -280t-305.5 -108h-427v-263h-126zM245 379h427q143 0 212.5 72.5t69.5 199.5v191q0 234 -282 234h-427v-697z" />
<glyph unicode="&#xdf;" horiz-adv-x="1210" d="M119 1v947q0 501 491 501h71q159 0 271.5 -111.5t112.5 -268.5q0 -89 -49.5 -170.5t-133.5 -138.5q108 -55 173.5 -151t65.5 -207q0 -167 -119 -284t-288 -117h-319v117h319q117 0 200 82.5t83 201.5q0 101 -69.5 185.5t-201.5 106.5v113q102 27 158.5 101.5t56.5 160.5 q0 109 -76.5 186t-183.5 77h-71q-184 0 -275.5 -89t-91.5 -295v-947h-124z" />
<glyph unicode="&#xe0;" horiz-adv-x="944" d="M68 294q0 122 86.5 208.5t210.5 86.5h348v137q0 82 -46.5 134t-119.5 52h-423v112h423q125 0 204.5 -85t79.5 -213v-726h-92l-4 111q-28 -48 -83.5 -79.5t-119.5 -31.5h-167q-124 0 -210.5 86t-86.5 208zM186 294q0 -76 52.5 -129t126.5 -53h167q71 0 126 51.5t55 118.5 v196h-348q-74 0 -126.5 -54t-52.5 -130zM270 1422l33 91l375 -171l-34 -89z" />
<glyph unicode="&#xe1;" horiz-adv-x="944" d="M68 294q0 122 86.5 208.5t210.5 86.5h348v137q0 82 -46.5 134t-119.5 52h-423v112h423q125 0 204.5 -85t79.5 -213v-726h-92l-4 111q-28 -48 -83.5 -79.5t-119.5 -31.5h-167q-124 0 -210.5 86t-86.5 208zM186 294q0 -76 52.5 -129t126.5 -53h167q71 0 126 51.5t55 118.5 v196h-348q-74 0 -126.5 -54t-52.5 -130zM270 1343l375 172l33 -91l-374 -169z" />
<glyph unicode="&#xe2;" horiz-adv-x="944" d="M68 294q0 122 86.5 208.5t210.5 86.5h348v137q0 82 -46.5 134t-119.5 52h-423v112h423q125 0 204.5 -85t79.5 -213v-726h-92l-4 111q-28 -48 -83.5 -79.5t-119.5 -31.5h-167q-124 0 -210.5 86t-86.5 208zM186 294q0 -76 52.5 -129t126.5 -53h167q71 0 126 51.5t55 118.5 v196h-348q-74 0 -126.5 -54t-52.5 -130zM186 1210l250 290h76l250 -290h-132l-156 203l-156 -203h-132z" />
<glyph unicode="&#xe3;" horiz-adv-x="944" d="M68 294q0 122 86.5 208.5t210.5 86.5h348v137q0 82 -46.5 134t-119.5 52h-423v112h423q125 0 204.5 -85t79.5 -213v-726h-92l-4 111q-28 -48 -83.5 -79.5t-119.5 -31.5h-167q-124 0 -210.5 86t-86.5 208zM174 1414l22.5 18t30 23t32 20t40 16.5t41.5 5.5q53 0 92.5 -19.5 t82.5 -54.5q56 -43 101 -43q39 0 116 68l60 -64q-100 -99 -176 -99q-85 0 -166 64q-26 20 -39 29t-32 16t-39 7q-36 -1 -118 -60zM186 294q0 -76 52.5 -129t126.5 -53h167q71 0 126 51.5t55 118.5v196h-348q-74 0 -126.5 -54t-52.5 -130z" />
<glyph unicode="&#xe4;" horiz-adv-x="944" d="M68 294q0 122 86.5 208.5t210.5 86.5h348v137q0 82 -46.5 134t-119.5 52h-423v112h423q125 0 204.5 -85t79.5 -213v-726h-92l-4 111q-28 -48 -83.5 -79.5t-119.5 -31.5h-167q-124 0 -210.5 86t-86.5 208zM186 294q0 -76 52.5 -129t126.5 -53h167q71 0 126 51.5t55 118.5 v196h-348q-74 0 -126.5 -54t-52.5 -130zM284 1308v192h104v-192h-104zM561 1308v192h103v-192h-103z" />
<glyph unicode="&#xe5;" horiz-adv-x="944" d="M68 294q0 122 86.5 208.5t210.5 86.5h348v137q0 82 -46.5 134t-119.5 52h-423v112h423q125 0 204.5 -85t79.5 -213v-726h-92l-4 111q-28 -48 -83.5 -79.5t-119.5 -31.5h-167q-124 0 -210.5 86t-86.5 208zM186 294q0 -76 52.5 -129t126.5 -53h167q71 0 126 51.5t55 118.5 v196h-348q-74 0 -126.5 -54t-52.5 -130zM270 1368q0 81 59 140.5t145 59.5q85 0 144.5 -59.5t59.5 -140.5q0 -83 -59.5 -142.5t-144.5 -59.5q-86 0 -145 59t-59 143zM373 1368q0 -46 29 -76.5t72 -30.5q42 0 71.5 31t29.5 76q0 43 -30 74t-71 31q-42 0 -71.5 -30.5 t-29.5 -74.5z" />
<glyph unicode="&#xe6;" horiz-adv-x="1572" d="M68 294q0 122 86.5 208.5t210.5 86.5h348v149q0 82 -46.5 134t-119.5 52h-423v111h423q85 0 149 -45.5t90 -120.5q45 84 129 128.5t189 44.5q192 0 294 -102.5t102 -293.5v-181h-666v-29q2 -168 60.5 -246t201.5 -78h376v-111h-376q-104 0 -168 33.5t-97 103.5v-138h-92 l-4 111q-28 -48 -83.5 -79.5t-119.5 -31.5h-167q-124 0 -210.5 86t-86.5 208zM186 294q0 -76 52.5 -129t126.5 -53h167q71 0 126 51.5t55 118.5v196h-348q-74 0 -126.5 -54t-52.5 -130zM834 573h548v75q0 282 -278 282q-116 0 -192.5 -74.5t-77.5 -197.5v-85z" />
<glyph unicode="&#xe7;" horiz-adv-x="849" d="M84 418v205q0 204 102.5 311t302.5 107h287v-112h-287q-146 0 -216.5 -75t-70.5 -231v-205q0 -166 70 -242.5t217 -76.5h287v-111h-302v-82q61 -7 87 -38.5t26 -94.5q0 -79 -33 -113.5t-112 -34.5h-108v84h108q34 0 47.5 14.5t13.5 49.5q0 57 -64 57h-52v166 q-303 52 -303 422z" />
<glyph unicode="&#xe8;" horiz-adv-x="940" d="M84 486v160q0 185 110 290.5t278 105.5q192 0 294 -102.5t102 -293.5v-181h-666v-14q0 -175 58 -257t204 -82h376v-111h-376q-88 0 -153.5 21t-109 59.5t-69.5 99.5t-37 134.5t-11 170.5zM202 573h548v78q-1 279 -278 279q-118 0 -193.5 -73t-76.5 -206v-78zM268 1422 l32 91l376 -171l-34 -89z" />
<glyph unicode="&#xe9;" horiz-adv-x="940" d="M84 486v160q0 185 110 290.5t278 105.5q192 0 294 -102.5t102 -293.5v-181h-666v-14q0 -175 58 -257t204 -82h376v-111h-376q-88 0 -153.5 21t-109 59.5t-69.5 99.5t-37 134.5t-11 170.5zM202 573h548v78q-1 279 -278 279q-118 0 -193.5 -73t-76.5 -206v-78zM267 1343 l376 172l32 -91l-374 -169z" />
<glyph unicode="&#xea;" horiz-adv-x="940" d="M84 486v160q0 185 110 290.5t278 105.5q192 0 294 -102.5t102 -293.5v-181h-666v-14q0 -175 58 -257t204 -82h376v-111h-376q-88 0 -153.5 21t-109 59.5t-69.5 99.5t-37 134.5t-11 170.5zM183 1210l251 290h75l251 -290h-132l-156 203l-157 -203h-132zM202 573h548v78 q-1 279 -278 279q-118 0 -193.5 -73t-76.5 -206v-78z" />
<glyph unicode="&#xeb;" horiz-adv-x="940" d="M84 486v160q0 185 110 290.5t278 105.5q192 0 294 -102.5t102 -293.5v-181h-666v-14q0 -175 58 -257t204 -82h376v-111h-376q-88 0 -153.5 21t-109 59.5t-69.5 99.5t-37 134.5t-11 170.5zM202 573h548v78q-1 279 -278 279q-118 0 -193.5 -73t-76.5 -206v-78zM282 1308 v192h103v-192h-103zM558 1308v192h104v-192h-104z" />
<glyph unicode="&#xec;" horiz-adv-x="309" d="M-47 1422l33 91l375 -171l-34 -89zM98 0v1024h118v-1024h-118z" />
<glyph unicode="&#xed;" horiz-adv-x="309" d="M-47 1343l375 172l32 -91l-374 -169zM98 0v1024h118v-1024h-118z" />
<glyph unicode="&#xee;" horiz-adv-x="309" d="M-131 1210l250 290h75l251 -290h-132l-157 203l-156 -203h-131zM98 0v1024h118v-1024h-118z" />
<glyph unicode="&#xef;" horiz-adv-x="309" d="M-33 1308v192h103v-192h-103zM98 0v1024h118v-1024h-118zM243 1308v192h103v-192h-103z" />
<glyph unicode="&#xf0;" horiz-adv-x="1071" d="M82 405v85q0 181 111.5 275.5t329.5 94.5h342v50q0 149 -64 241l-177 -178l-63 64l179 179q-96 78 -261 78h-369v117h369q221 0 349 -105l88 88l63 -64l-86 -87q97 -125 97 -333v-432q0 -261 -112 -372.5t-347 -111.5q-225 0 -337 110.5t-112 300.5zM206 410 q0 -294 325 -294q121 0 192 32.5t106.5 113t35.5 221.5v265h-342q-164 0 -240.5 -62.5t-76.5 -191.5v-84z" />
<glyph unicode="&#xf1;" horiz-adv-x="1026" d="M131 1v1032h94l3 -127q29 58 91 95t138 37h129q134 0 230 -98t96 -249v-690h-118v690q0 103 -61.5 169t-146.5 66h-129q-82 0 -144.5 -61.5t-62.5 -150.5v-713h-119zM213 1421l22.5 18t30 23t32 20t40 16.5t41.5 5.5q53 0 93.5 -19.5t82.5 -54.5q30 -23 51 -33t49 -10 q40 0 117 68l59 -64q-53 -52 -94 -76t-82 -24q-83 0 -166 65q-27 21 -39.5 29.5t-31.5 16t-39 6.5q-36 -1 -118 -60z" />
<glyph unicode="&#xf2;" horiz-adv-x="978" d="M84 350v303q0 99 43 187t123 143.5t178 55.5h125q98 0 178 -55.5t123 -143.5t43 -187v-303q0 -154 -97.5 -260t-246.5 -106h-125q-149 0 -246.5 106t-97.5 260zM202 350q0 -109 64.5 -182t161.5 -73h125q97 0 161.5 73t64.5 182v303q0 110 -66 192t-160 82h-125 q-94 0 -160 -82t-66 -192v-303zM287 1422l32 91l376 -171l-34 -89z" />
<glyph unicode="&#xf3;" horiz-adv-x="978" d="M84 350v303q0 99 43 187t123 143.5t178 55.5h125q98 0 178 -55.5t123 -143.5t43 -187v-303q0 -154 -97.5 -260t-246.5 -106h-125q-149 0 -246.5 106t-97.5 260zM202 350q0 -109 64.5 -182t161.5 -73h125q97 0 161.5 73t64.5 182v303q0 110 -66 192t-160 82h-125 q-94 0 -160 -82t-66 -192v-303zM286 1343l376 172l32 -91l-374 -169z" />
<glyph unicode="&#xf4;" horiz-adv-x="978" d="M84 350v303q0 99 43 187t123 143.5t178 55.5h125q98 0 178 -55.5t123 -143.5t43 -187v-303q0 -154 -97.5 -260t-246.5 -106h-125q-149 0 -246.5 106t-97.5 260zM202 350q0 -109 64.5 -182t161.5 -73h125q97 0 161.5 73t64.5 182l-1 303q0 110 -66 192t-160 82h-124 q-94 0 -160 -82t-66 -192v-303zM202 1210l251 290h75l251 -290h-132l-157 203l-156 -203h-132z" />
<glyph unicode="&#xf5;" horiz-adv-x="978" d="M84 350v303q0 99 43 187t123 143.5t178 55.5h125q98 0 178 -55.5t123 -143.5t43 -187v-303q0 -154 -97.5 -260t-246.5 -106h-125q-149 0 -246.5 106t-97.5 260zM190 1414l22.5 18t30 23t32 20t40 16.5t41.5 5.5q53 0 93.5 -19.5t82.5 -54.5q56 -43 101 -43q39 0 116 68 l59 -64q-53 -52 -93 -75.5t-82 -23.5q-85 0 -166 64q-37 29 -59.5 41t-51.5 11q-36 -1 -118 -60zM202 350q0 -109 64.5 -182t161.5 -73h125q97 0 161.5 73t64.5 182v303q0 110 -66 192t-160 82h-125q-94 0 -160 -82t-66 -192v-303z" />
<glyph unicode="&#xf6;" horiz-adv-x="978" d="M84 350v303q0 99 43 187t123 143.5t178 55.5h125q98 0 178 -55.5t123 -143.5t43 -187v-303q0 -154 -97.5 -260t-246.5 -106h-125q-149 0 -246.5 106t-97.5 260zM202 350q0 -109 64.5 -182t161.5 -73h125q97 0 161.5 73t64.5 182v303q0 110 -66 192t-160 82h-125 q-94 0 -160 -82t-66 -192v-303zM300 1308v192h104v-192h-104zM577 1308v192h103v-192h-103z" />
<glyph unicode="&#xf7;" horiz-adv-x="899" d="M86 671v117h728v-117h-728zM388 313v209h124v-209h-124zM388 929v210h124v-210h-124z" />
<glyph unicode="&#xf8;" horiz-adv-x="978" d="M84 350v303q0 99 43 187t123 143.5t178 55.5h125q59 0 114 -22l50 111h103l-70 -159q68 -55 107.5 -139.5t39.5 -176.5v-303q0 -154 -97.5 -260t-246.5 -106h-125q-62 0 -110 17l-41 -91h-105l60 136q-70 50 -109 129.5t-39 174.5zM202 350q0 -122 79 -196l340 760 q-32 13 -68 13h-125q-94 0 -160 -82t-66 -192v-303zM364 104q30 -9 64 -9h125q97 0 161.5 73t64.5 182v303q0 123 -78 206z" />
<glyph unicode="&#xf9;" horiz-adv-x="1009" d="M115 331v693h118v-693q0 -103 61 -168.5t146 -65.5h130q82 0 144.5 61.5t62.5 150.5v715h118v-1034h-93l-3 127q-29 -58 -91 -94.5t-138 -36.5h-130q-134 0 -229.5 97t-95.5 248zM302 1422l33 91l375 -171l-34 -89z" />
<glyph unicode="&#xfa;" horiz-adv-x="1009" d="M115 331v693h118v-693q0 -103 61 -168.5t146 -65.5h130q82 0 144.5 61.5t62.5 150.5v715h118v-1034h-93l-3 127q-29 -58 -91 -94.5t-138 -36.5h-130q-134 0 -229.5 97t-95.5 248zM302 1343l375 172l33 -91l-374 -169z" />
<glyph unicode="&#xfb;" horiz-adv-x="1009" d="M115 331v693h118v-693q0 -103 61 -168.5t146 -65.5h130q82 0 144.5 61.5t62.5 150.5v715h118v-1034h-93l-3 127q-29 -58 -91 -94.5t-138 -36.5h-130q-134 0 -229.5 97t-95.5 248zM218 1210l250 290h76l251 -290h-133l-156 203l-156 -203h-132z" />
<glyph unicode="&#xfc;" horiz-adv-x="1009" d="M115 331v693h118v-693q0 -103 61 -168.5t146 -65.5h130q82 0 144.5 61.5t62.5 150.5v715h118v-1034h-93l-3 127q-29 -58 -91 -94.5t-138 -36.5h-130q-134 0 -229.5 97t-95.5 248zM316 1308v192h104v-192h-104zM593 1308v192h103v-192h-103z" />
<glyph unicode="&#xfd;" horiz-adv-x="937" d="M39 1024h123l308 -838l306 838h125l-535 -1466h-125l166 459zM266 1343l375 172l33 -91l-374 -169z" />
<glyph unicode="&#xfe;" horiz-adv-x="952" d="M88 -451v1933h118v-441h329q71 0 129 -26.5t94 -67.5t61 -94t35 -102.5t10 -95.5v-314q0 -157 -94 -249t-231 -92h-333v-451h-118zM206 106h333q84 0 145.5 66t61.5 169v308q0 126 -60 203t-151 77h-329v-823z" />
<glyph unicode="&#xff;" horiz-adv-x="937" d="M39 1024h123l308 -838l306 838h124l-534 -1466h-125l166 459zM280 1308v192h104v-192h-104zM557 1308v192h103v-192h-103z" />
<glyph unicode="&#x100;" horiz-adv-x="1253" d="M58 0l507 1434h121l512 -1434h-131l-144 404h-593l-141 -404h-131zM344 1783v95h569v-95h-569zM373 521h506l-250 702h-9z" />
<glyph unicode="&#x101;" horiz-adv-x="944" d="M68 294q0 122 86.5 208.5t210.5 86.5h348v137q0 82 -46.5 134t-119.5 52h-423v112h423q125 0 204.5 -85t79.5 -213v-726h-92l-4 111q-28 -48 -83.5 -79.5t-119.5 -31.5h-167q-124 0 -210.5 86t-86.5 208zM186 294q0 -76 52.5 -129t126.5 -53h167q71 0 126 51.5t55 118.5 v196h-348q-74 0 -126.5 -54t-52.5 -130zM190 1373v95h568v-95h-568z" />
<glyph unicode="&#x102;" horiz-adv-x="1253" d="M58 0l507 1434h121l512 -1434h-131l-144 404h-593l-141 -404h-131zM361 1889q0 7 2 21h100q3 -59 34 -88t76 -29h114q43 0 73 30t34 87h101q6 -84 -53.5 -148t-146.5 -64h-131q-84 0 -143.5 55.5t-59.5 135.5zM373 521h506l-250 702h-9z" />
<glyph unicode="&#x103;" horiz-adv-x="944" d="M68 294q0 122 86.5 208.5t210.5 86.5h348v137q0 82 -46.5 134t-119.5 52h-423v112h423q125 0 204.5 -85t79.5 -213v-726h-92l-4 111q-28 -48 -83.5 -79.5t-119.5 -31.5h-167q-124 0 -210.5 86t-86.5 208zM186 294q0 -76 52.5 -129t126.5 -53h167q71 0 126 51.5t55 118.5 v196h-348q-74 0 -126.5 -54t-52.5 -130zM207 1479q0 14 1 21h100q3 -58 34.5 -87t76.5 -29h114q43 0 72.5 29.5t33.5 86.5h101q6 -84 -53.5 -148t-146.5 -64h-131q-84 0 -143 55.5t-59 135.5z" />
<glyph unicode="&#x104;" horiz-adv-x="1253" d="M58 0l507 1434h121l512 -1434h-163q-33 0 -49 -15t-16 -55q0 -54 21 -84t60 -30h221v-97h-226q-161 0 -161 211q0 84 33.5 122.5t114.5 42.5l-110 309h-593l-141 -404h-131zM373 521h506l-250 699h-9z" />
<glyph unicode="&#x105;" horiz-adv-x="944" d="M68 294q0 122 86.5 208.5t210.5 86.5h348v137q0 82 -46.5 134t-119.5 52h-423v112h423q125 0 204.5 -85t79.5 -213v-798h-58q-33 0 -49 -14.5t-16 -54.5q0 -51 25 -84t56 -33h202v-94h-206q-162 0 -162 211q0 74 26.5 112t89.5 48l-4 92q-28 -48 -83.5 -79.5 t-119.5 -31.5h-167q-124 0 -210.5 86t-86.5 208zM186 294q0 -76 52.5 -129t126.5 -53h167q71 0 126 51.5t55 118.5v196h-348q-74 0 -126.5 -54t-52.5 -130z" />
<glyph unicode="&#x106;" horiz-adv-x="1310" d="M140 469v482q0 498 487 498h93q460 0 484 -478h-124q-8 192 -96.5 276t-263.5 84h-93q-181 0 -272 -88.5t-91 -291.5v-482q0 -171 95 -270t268 -99h93q171 0 261.5 103.5t95.5 284.5h125q-8 -230 -131.5 -368t-350.5 -138h-93q-229 0 -358 134t-129 353zM456 1753 l375 172l33 -92l-374 -168z" />
<glyph unicode="&#x107;" horiz-adv-x="849" d="M84 418v205q0 204 102.5 311t302.5 107h287v-112h-287q-146 0 -216.5 -75t-70.5 -231v-205q0 -166 70 -242.5t217 -76.5h287v-111h-287q-200 0 -302.5 108t-102.5 322zM222 1343l376 172l32 -91l-374 -169z" />
<glyph unicode="&#x10a;" horiz-adv-x="1310" d="M140 469v482q0 498 487 498h93q460 0 484 -478h-124q-8 192 -96.5 276t-263.5 84h-93q-181 0 -272 -88.5t-91 -291.5v-482q0 -171 95 -270t268 -99h92q171 0 262 103.5t96 284.5h125q-8 -230 -131.5 -368t-351.5 -138h-92q-229 0 -358 134t-129 353zM608 1718v191h104 v-191h-104z" />
<glyph unicode="&#x10b;" horiz-adv-x="849" d="M84 418v205q0 204 102.5 311t302.5 107h287v-112h-287q-146 0 -216.5 -75t-70.5 -231v-205q0 -166 70 -242.5t217 -76.5h287v-111h-287q-200 0 -302.5 108t-102.5 322zM375 1308v192h103v-192h-103z" />
<glyph unicode="&#x10c;" horiz-adv-x="1310" d="M140 469v482q0 498 487 498h93q460 0 484 -478h-124q-8 192 -96.5 276t-263.5 84h-93q-181 0 -272 -88.5t-91 -291.5v-482q0 -171 95 -270t268 -99h93q171 0 261.5 103.5t95.5 284.5h125q-8 -230 -131.5 -368t-350.5 -138h-93q-229 0 -358 134t-129 353zM372 1909h132 l156 -203l156 203h132l-250 -289h-76z" />
<glyph unicode="&#x10d;" horiz-adv-x="849" d="M84 418v205q0 204 102.5 311t302.5 107h287v-112h-287q-146 0 -216.5 -75t-70.5 -231v-205q0 -166 70 -242.5t217 -76.5h287v-111h-287q-200 0 -302.5 108t-102.5 322zM138 1500h132l156 -204l157 204h132l-251 -290h-75z" />
<glyph unicode="&#x10e;" horiz-adv-x="1312" d="M193 0v1434h493q488 0 488 -498v-450q0 -219 -129 -352.5t-359 -133.5h-493zM317 117h369q173 0 268.5 99.5t95.5 269.5v450q0 203 -91.5 291.5t-272.5 88.5h-369v-1199zM367 1909h132l157 -203l156 203h132l-251 -289h-75z" />
<glyph unicode="&#x10f;" horiz-adv-x="1198" d="M84 390v301q0 151 96 248.5t230 97.5h109q75 0 135 -37t89 -97v531h118v-1434h-93l-4 113q-28 -48 -84 -80.5t-120 -32.5h-147q-144 0 -236.5 109t-92.5 281zM202 390q0 -126 60 -202t151 -76h147q71 0 125 50.5t58 121.5v418q0 93 -63 158.5t-144 65.5h-126 q-85 0 -146.5 -66t-61.5 -169v-301zM974 1130q62 39 62 100v204h124v-204q0 -63 -48 -107.5t-113 -50.5z" />
<glyph unicode="&#x110;" horiz-adv-x="1392" d="M39 642v117h234v675h494q487 0 487 -498v-450q0 -219 -129 -352.5t-358 -133.5h-494v642h-234zM398 117h369q173 0 268 99t95 270v450q0 203 -91 291.5t-272 88.5h-369v-557h280v-117h-280v-525z" />
<glyph unicode="&#x111;" horiz-adv-x="1099" d="M84 390v307q0 151 96 248.5t230 97.5h109q75 0 135 -37t89 -97v282h-334v95h334v148h118v-148h202v-95h-202v-1191h-93l-4 113q-28 -48 -84 -80.5t-120 -32.5h-147q-144 0 -236.5 109t-92.5 281zM202 390q0 -126 60 -202t151 -76h147q71 0 125 50.5t58 121.5v424 q0 93 -63 158.5t-144 65.5h-126q-85 0 -146.5 -66t-61.5 -169v-307z" />
<glyph unicode="&#x112;" horiz-adv-x="1153" d="M193 0v1434h864v-118h-740v-513h623v-117h-623v-569h740v-117h-864zM289 1783v95h568v-95h-568z" />
<glyph unicode="&#x113;" horiz-adv-x="940" d="M84 486v160q0 185 110 290.5t278 105.5q192 0 294 -102.5t102 -293.5v-181h-666v-14q0 -175 58 -257t204 -82h376v-111h-376q-88 0 -153.5 21t-109 59.5t-69.5 99.5t-37 134.5t-11 170.5zM187 1373v95h569v-95h-569zM202 573h548v78q-1 279 -278 279q-118 0 -193.5 -73 t-76.5 -206v-78z" />
<glyph unicode="&#x116;" horiz-adv-x="1153" d="M193 0v1434h864v-118h-740v-513h623v-117h-623v-569h740v-117h-864zM521 1718v191h104v-191h-104z" />
<glyph unicode="&#x117;" horiz-adv-x="940" d="M84 486v160q0 185 110 290.5t278 105.5q192 0 294 -102.5t102 -293.5v-181h-666v-14q0 -175 58 -257t204 -82h376v-111h-376q-88 0 -153.5 21t-109 59.5t-69.5 99.5t-37 134.5t-11 170.5zM202 573h548v78q-1 279 -278 279q-118 0 -193.5 -73t-76.5 -206v-78zM420 1308 v192h103v-192h-103z" />
<glyph unicode="&#x118;" horiz-adv-x="1153" d="M193 0v1434h864v-118h-740v-513h623v-117h-623v-569h740v-117h-249q-33 0 -49 -15t-16 -55q0 -53 22.5 -83.5t58.5 -30.5h204v-97h-209q-161 0 -161 211q0 47 13 70h-478z" />
<glyph unicode="&#x119;" horiz-adv-x="940" d="M84 486v160q0 185 110 290.5t278 105.5q192 0 294 -102.5t102 -293.5v-181h-665v-19q2 -173 59 -253.5t202 -80.5h376v-111h-257q-30 -1 -42 -16.5t-12 -52.5q0 -54 21.5 -85t59.5 -31h202v-95h-207q-161 0 -161 211q0 49 13 72h-36q-78 5 -136 28.5t-96.5 62.5 t-61.5 98.5t-33 130t-10 162.5zM203 573h547v81q-3 276 -278 276q-118 0 -192.5 -72.5t-76.5 -204.5v-80z" />
<glyph unicode="&#x11a;" horiz-adv-x="1153" d="M193 0v1434h864v-118h-740v-513h623v-117h-623v-569h740v-117h-864zM285 1909h132l156 -203l156 203h132l-250 -289h-76z" />
<glyph unicode="&#x11b;" horiz-adv-x="940" d="M84 486v160q0 185 110 290.5t278 105.5q192 0 294 -102.5t102 -293.5v-181h-666v-14q0 -175 58 -257t204 -82h376v-111h-376q-88 0 -153.5 21t-109 59.5t-69.5 99.5t-37 134.5t-11 170.5zM183 1500h132l157 -204l156 204h132l-251 -290h-75zM202 573h548v78 q-1 279 -278 279q-118 0 -193.5 -73t-76.5 -206v-78z" />
<glyph unicode="&#x11e;" horiz-adv-x="1357" d="M140 469v480q0 498 487 498h92q461 0 485 -477h-124q-8 191 -97 275t-264 84h-92q-181 0 -272 -88.5t-91 -291.5v-480q0 -171 95 -270t268 -99h92q179 0 271.5 86.5t92.5 284.5v148h-302v117h426v-265q0 -252 -129 -370.5t-359 -118.5h-92q-229 0 -358 134t-129 353z M407 1889q0 14 1 21h100q3 -59 34.5 -88t76.5 -29h114q43 0 72.5 30t33.5 87h101q6 -84 -53.5 -148t-146.5 -64h-131q-84 0 -143 55.5t-59 135.5z" />
<glyph unicode="&#x11f;" horiz-adv-x="991" d="M92 346v296q0 172 92.5 282t236.5 110h146q65 0 121 -33.5t84 -84.5l4 118h93v-1029q0 -113 -18.5 -194.5t-61.5 -142.5t-117.5 -91t-182.5 -30h-361v113h361q150 0 206 74.5t56 257.5v140q-29 -58 -89.5 -94.5t-134.5 -37.5h-109q-133 -2 -229.5 97t-96.5 249zM210 346 q0 -103 61 -168.5t146 -65.5h126q82 0 145 64t63 159v413q-4 74 -58 124t-125 50h-147q-91 0 -151 -76.5t-60 -202.5v-297zM228 1479q0 14 1 21h100q3 -58 34.5 -87t76.5 -29h114q43 0 73 29.5t34 86.5h101q6 -84 -54 -148t-147 -64h-131q-84 0 -143 55.5t-59 135.5z" />
<glyph unicode="&#x120;" horiz-adv-x="1357" d="M140 469v480q0 498 487 498h93q460 0 484 -477h-124q-8 192 -96.5 275.5t-263.5 83.5h-93q-181 0 -272 -88.5t-91 -291.5v-480q0 -171 95 -270t268 -99h92q179 0 271.5 86.5t92.5 284.5v148h-302v117h426v-265q0 -252 -129 -370.5t-358 -118.5h-93q-229 0 -358 134 t-129 353zM622 1718v191h103v-191h-103z" />
<glyph unicode="&#x121;" horiz-adv-x="991" d="M92 346v296q0 172 92.5 282t236.5 110h146q65 0 121 -33.5t84 -84.5l4 118h93v-1029q0 -113 -18.5 -194.5t-61.5 -142.5t-117.5 -91t-182.5 -30h-361v113h361q150 0 206 74.5t56 257.5v140q-29 -58 -89.5 -94.5t-134.5 -37.5h-109q-133 -2 -229.5 97t-96.5 249zM210 347 q0 -103 61.5 -169t145.5 -66h126q82 0 145 64t63 159v413q-4 74 -58 124t-125 50h-147q-91 0 -151 -76.5t-60 -202.5v-296zM443 1308v192h104v-192h-104z" />
<glyph unicode="&#x122;" horiz-adv-x="1282" d="M102 480v460q0 498 488 498h92q460 0 484 -477h-123q-8 192 -97 276t-264 84h-92q-181 0 -272 -89t-91 -292v-460q0 -171 95 -270t268 -99h92q179 0 271.5 86.5t92.5 284.5v137h-302v117h426v-254q0 -252 -129 -370t-359 -118h-92q-230 0 -359 133.5t-129 352.5z M535 -348q58 33 58 90v168h101v-168q0 -55 -41 -94t-97 -45z" />
<glyph unicode="&#x123;" horiz-adv-x="991" d="M92 346v298q0 172 92.5 281.5t236.5 109.5h146q65 0 121 -33.5t84 -84.5l4 118h93v-1030q0 -113 -18.5 -194.5t-61.5 -142.5t-117.5 -91t-182.5 -30h-361v113h361q150 0 206 74.5t56 257.5v140q-29 -58 -89.5 -94.5t-134.5 -37.5h-109q-133 -2 -229.5 97t-96.5 249z M210 347q0 -103 61.5 -169t145.5 -66h126q82 0 145 64t63 159v414q-4 74 -58 124.5t-125 50.5h-147q-91 0 -151 -77t-60 -203v-297zM395 1265v169q0 54 40.5 93t96.5 46l21 -49q-57 -34 -57 -90v-169h-101z" />
<glyph unicode="&#x126;" horiz-adv-x="1429" d="M8 1038v118h193v278h124v-278h777v278h125v-278h197v-118h-197v-1038h-125v659h-777v-659h-124v1038h-193zM325 776h777v262h-777v-262z" />
<glyph unicode="&#x127;" horiz-adv-x="1032" d="M-35 1182v107h177v145h118v-145h292v-107h-292v-280q30 60 89 96.5t135 36.5h109q134 0 229.5 -97.5t95.5 -248.5v-689h-118v689q0 103 -61 169t-146 66h-126q-81 0 -144 -65.5t-63 -158.5v-700h-118v1182h-177z" />
<glyph unicode="&#x128;" horiz-adv-x="507" d="M-45 1823q4 3 22.5 18t31 23t31.5 19.5t40 17t42 5.5q53 0 93 -19t82 -54q56 -43 101 -43q40 0 116 67l60 -64q-100 -99 -176 -99q-83 0 -166 65q-26 20 -39 29t-32 16t-39 7q-38 -1 -119 -60zM193 0v1434h124v-1434h-124z" />
<glyph unicode="&#x129;" horiz-adv-x="309" d="M-145 1414q5 3 30 22.5t40.5 29.5t43 20.5t53.5 10.5q53 0 93.5 -19.5t82.5 -54.5q56 -43 101 -43q39 0 116 68l59 -64q-53 -52 -93 -75.5t-82 -23.5q-85 0 -166 64q-26 20 -39 29t-32 16t-40 7q-36 -1 -118 -60zM98 0v1024h118v-1024h-118z" />
<glyph unicode="&#x12a;" horiz-adv-x="507" d="M-29 1783v95h569v-95h-569zM193 0v1434h124v-1434h-124z" />
<glyph unicode="&#x12b;" horiz-adv-x="309" d="M-127 1373v95h568v-95h-568zM98 0v1024h118v-1024h-118z" />
<glyph unicode="&#x12e;" horiz-adv-x="507" d="M55 -70q0 81 32 121t106 44v1339l124 -1v-1433h-118q-31 0 -45 -15.5t-14 -54.5q0 -51 25 -82.5t57 -31.5h201v-97h-206q-162 0 -162 211z" />
<glyph unicode="&#x12f;" horiz-adv-x="309" d="M9 -129q0 66 20 100.5t69 47.5v1005h118v-1083h-58q-33 0 -49 -15t-16 -55q0 -51 25.5 -83t56.5 -32h201v-96h-206q-161 0 -161 211zM105 1308v192h103v-192h-103z" />
<glyph unicode="&#x130;" horiz-adv-x="507" d="M193 0v1434h124v-1434h-124zM204 1718v191h104v-191h-104z" />
<glyph unicode="&#x131;" horiz-adv-x="309" d="M98 0v1024h118v-1024h-118z" />
<glyph unicode="&#x132;" horiz-adv-x="1138" d="M193 0v1434h124v-1434h-124zM549 -6v117h65q35 0 55.5 1t44.5 4.5t37 11t27.5 20.5t21 31.5t13 45.5t8 62.5t1.5 82.5v1064h124v-1064q0 -59 -4.5 -106.5t-12.5 -84t-23 -64.5t-30 -47.5t-39 -33.5t-45.5 -21.5t-53 -12t-58.5 -5.5t-66 -1h-65z" />
<glyph unicode="&#x133;" horiz-adv-x="784" d="M142 0v1024h118v-1024h-118zM142 1249v151h118v-151h-118zM314 -344l149 213q42 62 57.5 118.5t15.5 135.5v901h118v-901q0 -91 -20.5 -165t-74.5 -155l-149 -211zM536 1249v152h118v-152h-118z" />
<glyph unicode="&#x136;" horiz-adv-x="1204" d="M193 0v1434h124v-665h151l501 665h153l-544 -722l570 -712h-155l-523 651h-153v-651h-124zM565 -348q58 33 58 90v168h101v-168q0 -55 -41 -94t-97 -45z" />
<glyph unicode="&#x137;" horiz-adv-x="970" d="M136 0v1434h118v-820h157l337 410h152l-385 -465l419 -559h-145l-380 506h-155v-506h-118zM420 -348q57 33 57 90v168h101v-168q0 -55 -40.5 -94t-96.5 -45z" />
<glyph unicode="&#x139;" horiz-adv-x="1048" d="M193 0v1434h124v-1317h675v-117h-799zM321 1753l375 172l33 -92l-374 -168z" />
<glyph unicode="&#x13a;" horiz-adv-x="391" d="M-8 1634l375 171l33 -91l-374 -168zM142 0v1434h118v-1434h-118z" />
<glyph unicode="&#x13b;" horiz-adv-x="1048" d="M193 0v1434h124v-1317h675v-117h-799zM505 -348q57 33 57 90v168h101v-168q0 -55 -40.5 -94t-96.5 -45z" />
<glyph unicode="&#x13c;" horiz-adv-x="389" d="M98 -348q57 33 57 90v168h101v-168q0 -55 -40.5 -94t-96.5 -45zM141 0v1434h118v-1434h-118z" />
<glyph unicode="&#x13d;" horiz-adv-x="1048" d="M193 0v1434h124v-1317h675v-117h-799zM584 1129q61 39 61 100v204h124v-204q0 -63 -48 -107.5t-113 -50.5z" />
<glyph unicode="&#x13e;" horiz-adv-x="559" d="M142 0v1434h118v-1434h-118zM338 1130q61 39 61 100v204h124v-204q0 -63 -48 -107.5t-113 -50.5z" />
<glyph unicode="&#x13f;" horiz-adv-x="1048" d="M193 0v1434h124v-1317h675v-117h-799zM626 553v243h124v-243h-124z" />
<glyph unicode="&#x140;" horiz-adv-x="532" d="M142 0v1434h118v-1434h-118zM370 520v242h125v-242h-125z" />
<glyph unicode="&#x141;" horiz-adv-x="1073" d="M39 418l178 180v836h124v-712l233 233l86 -86l-319 -319v-433h675v-117h-799v426l-92 -94z" />
<glyph unicode="&#x142;" horiz-adv-x="692" d="M39 425l204 204v804h124v-680l202 202l86 -86l-288 -288v-581h-124v455l-118 -116z" />
<glyph unicode="&#x143;" horiz-adv-x="1394" d="M177 0v1433h118l800 -1190v1191h124v-1434h-107l-811 1206v-1206h-124zM494 1753l376 172l32 -92l-374 -168z" />
<glyph unicode="&#x144;" horiz-adv-x="1026" d="M131 1v1032h94l3 -128q29 59 91.5 96t137.5 37h129q134 0 230 -98t96 -249v-690h-118v690q0 103 -61.5 169t-146.5 66h-129q-82 0 -144.5 -61.5t-62.5 -150.5v-713h-119zM309 1350l375 172l33 -92l-374 -168z" />
<glyph unicode="&#x145;" horiz-adv-x="1394" d="M177 0v1434h118l800 -1191v1191h124v-1434h-107l-811 1206v-1206h-124zM608 -348q57 33 57 90v168h101v-168q0 -55 -40.5 -94t-96.5 -45z" />
<glyph unicode="&#x146;" horiz-adv-x="1026" d="M132 1v1038h93l3 -127q29 58 91 95t138 37h130q134 0 229.5 -97.5t95.5 -248.5v-697h-118v697q0 103 -61 168.5t-146 65.5h-130q-82 0 -144.5 -61.5t-62.5 -150.5v-719h-118zM440 -348q57 33 57 90v168h101v-168q0 -55 -40.5 -94t-96.5 -45z" />
<glyph unicode="&#x147;" horiz-adv-x="1394" d="M177 0v1434h118l800 -1191v1191h124v-1434h-107l-811 1206v-1206h-124zM410 1909h133l156 -203l156 203h132l-250 -289h-76z" />
<glyph unicode="&#x148;" horiz-adv-x="1026" d="M132 1v1032h93l3 -128q29 59 91.5 96t137.5 37h130q134 0 229.5 -98t95.5 -249v-690h-118v690q0 103 -61 169t-146 66h-130q-82 0 -144.5 -61.5t-62.5 -150.5v-713h-118zM225 1507h132l156 -204l156 204h133l-251 -290h-76z" />
<glyph unicode="&#x14a;" horiz-adv-x="1419" d="M188 0v1434h119l800 -1191v1191h124v-1388q0 -69 -5.5 -123t-18 -94t-27.5 -69.5t-39.5 -48.5t-47.5 -30.5t-58 -17.5t-64.5 -7.5t-73.5 -1.5h-65v117h65q42 0 67 2t52 9t41 20.5t26.5 37.5t17.5 59.5t5 86.5l-2 44l-791 1176v-1206h-125z" />
<glyph unicode="&#x14b;" horiz-adv-x="1026" d="M132 1v1032h93l3 -127q29 58 91 95t138 37h130q134 0 229.5 -98t95.5 -249v-568q0 -91 -20.5 -165t-74.5 -155l-149 -211l-96 64l149 213q42 62 57.5 118.5t15.5 135.5v568q0 103 -61 169t-146 66h-130q-82 0 -144.5 -61.5t-62.5 -150.5v-713h-118z" />
<glyph unicode="&#x14c;" d="M140 471v478q0 498 487 498h93q487 0 487 -498v-478q0 -219 -129 -353t-358 -134h-93q-229 0 -358 134t-129 353zM264 471q0 -171 95 -270t268 -99h93q173 0 268 99t95 270v478q0 203 -91 292t-272 89h-93q-181 0 -272 -89t-91 -292v-478zM389 1783v95h569v-95h-569z" />
<glyph unicode="&#x14d;" horiz-adv-x="978" d="M84 350v303q0 99 43 187t123 143.5t178 55.5h125q98 0 178 -55.5t123 -143.5t43 -187v-303q0 -154 -97.5 -260t-246.5 -106h-125q-149 0 -246.5 106t-97.5 260zM202 350q0 -109 64.5 -182t161.5 -73h125q97 0 161.5 73t64.5 182v303q0 110 -66 192t-160 82h-125 q-94 0 -160 -82t-66 -192v-303zM206 1373v95h569v-95h-569z" />
<glyph unicode="&#x150;" d="M140 471v478q0 498 487 498h93q487 0 487 -498v-478q0 -219 -129 -353t-358 -134h-93q-229 0 -358 134t-129 353zM264 471q0 -171 95 -270t268 -99h93q173 0 268 99t95 270v478q0 203 -91 291.5t-272 88.5h-93q-181 0 -272 -88.5t-91 -291.5v-478zM329 1754l375 171 l33 -91l-374 -168zM721 1754l375 171l33 -91l-374 -168z" />
<glyph unicode="&#x151;" horiz-adv-x="978" d="M84 350v303q0 99 43 187t123 143.5t178 55.5h125q98 0 178 -55.5t123 -143.5t43 -187v-303q0 -154 -97.5 -260t-246.5 -106h-125q-149 0 -246.5 106t-97.5 260zM146 1344l375 172l33 -91l-374 -169zM202 350q0 -109 64.5 -182t161.5 -73h125q97 0 161.5 73t64.5 182v303 q0 110 -66 192t-160 82h-125q-94 0 -160 -82t-66 -192v-303zM538 1344l375 172l33 -92l-374 -168z" />
<glyph unicode="&#x152;" horiz-adv-x="2017" d="M140 471v478q0 498 487 498h92q227 0 339 -115v102h863v-118h-739v-513h622v-117h-622v-569h739v-117h-863v113q-123 -129 -339 -129h-92q-229 0 -358 134t-129 353zM264 471q0 -171 95 -270t268 -99h92q129 0 213.5 59t116.5 166v784q-31 117 -111.5 168t-217.5 51h-93 q-181 0 -272 -89t-91 -292v-478z" />
<glyph unicode="&#x153;" horiz-adv-x="1634" d="M84 350v307q0 99 43 187t123 143.5t178 55.5h125q94 0 169 -55.5t114 -144.5q43 96 130 147.5t200 51.5q192 0 294.5 -102.5t102.5 -293.5v-181h-666v-19q1 -174 58.5 -254t202.5 -80h376v-111h-376q-128 0 -203 45t-112 138q-34 -90 -111.5 -145t-178.5 -55h-125 q-149 0 -246.5 106t-97.5 260zM202 350q0 -109 64.5 -182t161.5 -73h125q97 0 161.5 73t64.5 182v307q0 110 -66 192t-160 82h-125q-94 0 -160 -82t-66 -192v-307zM897 573h548v81q-3 276 -279 276q-115 0 -191 -71t-78 -195v-91z" />
<glyph unicode="&#x154;" horiz-adv-x="1253" d="M193 0v1434h555q158 0 270 -110.5t112 -266.5q0 -140 -95 -245.5t-233 -122.5h-37l373 -689h-139l-369 680h-313v-680h-124zM317 798h431q105 0 181.5 76.5t76.5 182.5q0 108 -76 183.5t-182 75.5h-431v-518zM409 1753l376 172l32 -92l-374 -168z" />
<glyph unicode="&#x155;" horiz-adv-x="698" d="M132 1v1034h93l4 -158q31 74 106.5 119.5t198.5 45.5h126v-112h-126q-140 0 -212 -75t-72 -205v-649h-118zM140 1343l375 172l33 -91l-374 -169z" />
<glyph unicode="&#x156;" horiz-adv-x="1253" d="M193 0v1434h555q158 0 270 -110.5t112 -266.5q0 -140 -94.5 -245.5t-232.5 -122.5h-38l373 -689h-139l-369 680h-313v-680h-124zM317 798h431q105 0 181.5 76.5t76.5 182.5q0 108 -76 183.5t-182 75.5h-431v-518zM543 -348q57 33 57 90v168h101v-168q0 -55 -40.5 -94 t-96.5 -45z" />
<glyph unicode="&#x157;" horiz-adv-x="698" d="M132 1v1038h93l4 -158q31 74 106.5 119t198.5 45h126v-111h-126q-140 0 -212 -75t-72 -205v-653h-118zM310 -348q58 33 58 90v168h101v-168q0 -55 -41 -94t-97 -45z" />
<glyph unicode="&#x158;" horiz-adv-x="1253" d="M193 0v1434h555q158 0 270 -110.5t112 -266.5q0 -140 -95 -245.5t-233 -122.5h-37l373 -689h-139l-369 680h-313v-680h-124zM317 798h431q105 0 181.5 76.5t76.5 182.5q0 108 -76 183.5t-182 75.5h-431v-518zM325 1909h132l156 -203l157 203h132l-251 -289h-75z" />
<glyph unicode="&#x159;" horiz-adv-x="698" d="M55 1500h133l156 -204l156 204h132l-250 -290h-76zM132 1v1034h93l4 -158q31 74 106.5 119.5t198.5 45.5h126v-112h-126q-140 0 -212 -75t-72 -205v-649h-118z" />
<glyph unicode="&#x15a;" horiz-adv-x="1089" d="M96 -2v118h457q165 0 241.5 72t76.5 241q0 50 -13 87t-35.5 62.5t-65.5 45t-89 32t-120 27.5q-62 12 -96 19t-89 23.5t-86.5 33.5t-71 46.5t-60 64.5t-35 86.5t-14.5 113.5q0 364 455 364h409v-118h-409q-169 0 -249.5 -55.5t-80.5 -190.5q0 -33 6 -61.5t13.5 -50 t25.5 -40.5t31.5 -31.5t42.5 -25t47.5 -20t57 -17t60 -14t67.5 -13.5q70 -14 120 -27t101.5 -33t85.5 -46.5t62 -62.5t41 -86t13 -113q0 -223 -112 -327t-330 -104h-457zM343 1753l376 171l32 -91l-374 -168z" />
<glyph unicode="&#x15b;" horiz-adv-x="911" d="M78 755q0 60 19.5 108t52.5 80t78.5 53.5t95.5 31t106 9.5h372v-111h-372q-107 0 -170 -41.5t-64 -129.5q0 -142 232 -166q14 -1 43.5 -4.5t41.5 -4.5q157 -17 240 -90t83 -196q0 -304 -384 -304h-344v112h344q135 0 200.5 44t65.5 148q0 77 -52 119.5t-164 55.5l-87 9 q-73 8 -132 26.5t-106 50.5t-73 83t-26 117zM254 1343l375 172l33 -91l-374 -169z" />
<glyph unicode="&#x15e;" horiz-adv-x="1089" d="M96 1070q0 364 455 364h409v-118h-408q-169 0 -250 -55.5t-81 -190.5q0 -33 6 -61.5t13.5 -50t25.5 -40.5t31.5 -31.5t42.5 -25t47.5 -20t57 -17t60 -14t67.5 -13.5q70 -14 120 -27t101.5 -33t85.5 -46.5t62 -62.5t41 -86t13 -113q0 -216 -104.5 -320t-310.5 -111h-20 v-90q61 -7 86.5 -38t25.5 -95q0 -79 -33 -113.5t-112 -34.5h-108v82h108q34 0 48 15.5t14 50.5q0 55 -64 55h-53v168h-375v118h456q165 0 241.5 72t76.5 241q0 50 -13 87t-35.5 62.5t-65.5 45t-89 32t-120 27.5q-62 12 -96 19t-89 23.5t-86.5 33.5t-71 46.5t-60 64.5 t-35 86.5t-14.5 113.5z" />
<glyph unicode="&#x15f;" horiz-adv-x="911" d="M78 755q0 60 19.5 108t52.5 80t78.5 53.5t95.5 31t106 9.5h372v-111h-372q-107 0 -170 -41.5t-64 -129.5q0 -142 232 -166q14 -1 43.5 -4.5t41.5 -4.5q157 -17 240 -90t83 -196q0 -287 -351 -302h-13v-86q61 -7 86.5 -38t25.5 -95q0 -79 -33 -113.5t-112 -34.5h-108v84 h108q35 0 48.5 15t13.5 49q0 57 -64 57h-53v160h-276v112h344q135 0 200.5 44t65.5 148q0 77 -52 119.5t-164 55.5l-87 9q-73 8 -132 26.5t-106 50.5t-73 83t-26 117z" />
<glyph unicode="&#x160;" horiz-adv-x="1089" d="M97 -2v118h456q165 0 241.5 72t76.5 241q0 50 -13 87t-35.5 62.5t-65.5 45t-89 32t-120 27.5q-87 17 -134 28t-117.5 40t-107 66t-64.5 102t-28 151q0 364 455 364h408v-118h-408q-169 0 -250 -55.5t-81 -190.5q0 -33 6 -61.5t13.5 -50t25.5 -40.5t31.5 -31.5t42.5 -25 t47.5 -20t57 -17t60 -14t67.5 -13.5q70 -14 120 -27t101.5 -33t85.5 -46.5t62 -62.5t41 -86t13 -113q0 -223 -112 -327t-330 -104h-456zM259 1909h133l156 -203l156 203h132l-250 -290h-76z" />
<glyph unicode="&#x161;" horiz-adv-x="911" d="M78 755q0 60 19.5 108t52.5 80t78.5 53.5t95.5 31t106 9.5h372v-111h-372q-107 0 -170 -41.5t-64 -129.5q0 -142 232 -166q14 -1 43.5 -4.5t41.5 -4.5q157 -17 240 -90t83 -196q0 -304 -384 -304h-344v112h344q135 0 200.5 44t65.5 148q0 77 -52 119.5t-164 55.5l-87 9 q-73 8 -132 26.5t-106 50.5t-73 83t-26 117zM169 1500h133l156 -204l156 204h132l-250 -290h-76z" />
<glyph unicode="&#x162;" horiz-adv-x="1120" d="M39 1320v114h1044v-114h-457v-1420q51 -10 72.5 -39t21.5 -86q0 -79 -33 -113.5t-112 -34.5h-108v84h108q34 0 47.5 14.5t13.5 49.5q0 57 -64 57h-70v1488h-463z" />
<glyph unicode="&#x163;" horiz-adv-x="720" d="M39 914v110h162v233h118v-233h331v-110h-331v-587q0 -120 44 -174.5t150 -54.5h137v-112h-137q-60 0 -101 14v-86q61 -7 87 -37.5t26 -95.5q0 -79 -33 -113.5t-112 -34.5h-108v84h108q34 0 47.5 14.5t13.5 49.5q0 57 -64 57h-53v196q-123 76 -123 293v587h-162z" />
<glyph unicode="&#x164;" horiz-adv-x="1120" d="M39 1320v114h1045v-114h-458v-1320h-124v1320h-463zM273 1909h132l156 -203l157 203h132l-251 -289h-75z" />
<glyph unicode="&#x165;" horiz-adv-x="778" d="M39 914v110h162v233h118v-233h331v-110h-331v-587q0 -120 44 -174.5t150 -54.5h137v-112h-137q-164 0 -238 88t-74 253v587h-162zM550 1170q61 39 61 101v203h124v-203q0 -63 -47.5 -107.5t-112.5 -50.5z" />
<glyph unicode="&#x166;" horiz-adv-x="1120" d="M39 1316v118h1044v-118h-457v-404h215v-117h-215v-795h-124v795h-221v117h221v404h-463z" />
<glyph unicode="&#x167;" horiz-adv-x="720" d="M39 591v112h162v210h-162v110h162v224h118v-224h331v-110h-331v-210h331v-112h-331v-263q0 -120 44 -174.5t150 -54.5h137v-111h-137q-164 0 -238 87.5t-74 252.5v263h-162z" />
<glyph unicode="&#x168;" horiz-adv-x="1357" d="M193 407v1027h124v-1027q0 -146 73.5 -226.5t184.5 -80.5h242q114 0 178 81.5t64 225.5v1027h125v-1027q0 -191 -98 -308t-269 -117h-242q-162 0 -272 113.5t-110 311.5zM378 1823l22.5 18t30 23t32 20t40 16.5t41.5 5.5q53 0 93.5 -19.5t82.5 -53.5q56 -43 101 -43 q40 0 116 67l60 -64q-100 -99 -176 -99q-83 0 -166 65q-37 29 -59.5 41t-51.5 11q-35 -1 -117 -60z" />
<glyph unicode="&#x169;" horiz-adv-x="1009" d="M115 331v693h118v-693q0 -103 61 -168.5t146 -65.5h130q82 0 144.5 61.5t62.5 150.5v715h118v-1034h-93l-3 127q-29 -58 -91 -94.5t-138 -36.5h-130q-134 0 -229.5 97t-95.5 248zM206 1414l22.5 18t30 23t32 20t40 16.5t41.5 5.5q53 0 93.5 -19.5t82.5 -54.5 q30 -23 51 -33t49 -10q40 0 117 68l59 -64q-100 -99 -176 -99q-85 0 -166 64q-26 20 -39 29t-32 16t-39 7q-36 -1 -118 -60z" />
<glyph unicode="&#x16a;" horiz-adv-x="1357" d="M193 407v1027h124v-1027q0 -146 73.5 -226.5t184.5 -80.5h242q114 0 178 81.5t64 225.5v1027h125v-1027q0 -191 -98 -308t-269 -117h-242q-162 0 -272 113.5t-110 311.5zM395 1783v95h568v-95h-568z" />
<glyph unicode="&#x16b;" horiz-adv-x="1009" d="M115 331v693h118v-693q0 -103 61 -168.5t146 -65.5h130q82 0 144.5 61.5t62.5 150.5v715h118v-1034h-93l-3 127q-29 -58 -91 -94.5t-138 -36.5h-130q-134 0 -229.5 97t-95.5 248zM222 1373v95h568v-95h-568z" />
<glyph unicode="&#x16e;" horiz-adv-x="1357" d="M193 407v1027h124v-1027q0 -146 73.5 -226.5t184.5 -80.5h242q114 0 178 81.5t64 225.5v1027h125v-1027q0 -191 -98 -308t-269 -117h-242q-162 0 -272 113.5t-110 311.5zM474 1778q0 81 59.5 140.5t145.5 59.5q85 0 144.5 -59.5t59.5 -140.5q0 -84 -59.5 -143.5 t-144.5 -59.5q-86 0 -145.5 59.5t-59.5 143.5zM578 1778q0 -46 29 -76.5t72 -30.5q42 0 71.5 31t29.5 76q0 43 -30 74t-71 31q-42 0 -71.5 -30.5t-29.5 -74.5z" />
<glyph unicode="&#x16f;" horiz-adv-x="1009" d="M115 331v693h118v-693q0 -103 61 -168.5t146 -65.5h130q82 0 144.5 61.5t62.5 150.5v715h118v-1034h-93l-3 127q-29 -58 -91 -94.5t-138 -36.5h-130q-134 0 -229.5 97t-95.5 248zM302 1368q0 81 59 140.5t145 59.5q85 0 144.5 -59.5t59.5 -140.5q0 -83 -59.5 -142.5 t-144.5 -59.5q-86 0 -145 59t-59 143zM405 1368q0 -46 29 -76.5t72 -30.5q42 0 71.5 31t29.5 76q0 43 -30 74t-71 31q-42 0 -71.5 -30.5t-29.5 -74.5z" />
<glyph unicode="&#x170;" horiz-adv-x="1357" d="M193 407v1027h124v-1027q0 -146 73.5 -226.5t184.5 -80.5h242q114 0 178 81.5t64 225.5v1027h125v-1027q0 -191 -98 -308t-269 -117h-242q-162 0 -272 113.5t-110 311.5zM334 1754l376 171l32 -91l-374 -168zM726 1754l376 171l32 -91l-374 -168z" />
<glyph unicode="&#x171;" horiz-adv-x="1009" d="M115 331v693h118v-693q0 -103 61 -168.5t146 -65.5h130q82 0 144.5 61.5t62.5 150.5v715h118v-1034h-93l-3 127q-29 -58 -91 -94.5t-138 -36.5h-130q-134 0 -229.5 97t-95.5 248zM162 1344l375 172l33 -92l-375 -168zM554 1344l375 172l33 -92l-374 -168z" />
<glyph unicode="&#x172;" horiz-adv-x="1357" d="M193 407v1027h124v-1027q0 -146 73.5 -226.5t184.5 -80.5h242q114 0 178 81.5t64 225.5v1027h125v-1027q0 -186 -93 -302t-257 -123h-20q-28 0 -39.5 -15t-11.5 -51q0 -53 21 -84t60 -31h202v-96h-207q-47 0 -80.5 18t-50.5 49t-24.5 66.5t-6.5 77.5q0 50 13 66h-115 q-162 0 -272 113.5t-110 311.5z" />
<glyph unicode="&#x173;" horiz-adv-x="1009" d="M115 331v693h118v-693q0 -103 61 -168.5t146 -65.5h130q82 0 144.5 61.5t62.5 150.5v715h118v-1106h-58q-33 0 -49 -15t-16 -55q0 -51 25 -82.5t57 -31.5h201v-97h-206q-162 0 -162 211q0 75 26 113t89 48l-3 108q-29 -58 -91 -94.5t-138 -36.5h-130q-134 0 -229.5 97 t-95.5 248z" />
<glyph unicode="&#x174;" horiz-adv-x="1542" d="M58 1434h127l232 -1207l305 634h100l305 -637l232 1210h127l-275 -1434h-115l-324 679l-327 -679h-113zM483 1620l251 290h75l251 -290h-132l-156 203l-157 -203h-132z" />
<glyph unicode="&#x175;" horiz-adv-x="1478" d="M39 1024h124l267 -809l257 809h107l259 -809l265 809h124l-336 -1024h-110l-256 805l-255 -805h-112zM453 1210l250 290h76l250 -290h-132l-156 203l-156 -203h-132z" />
<glyph unicode="&#x176;" horiz-adv-x="1177" d="M58 1434h144l389 -646l387 646h143l-469 -781v-653h-124v653zM302 1620l251 290h75l251 -290h-132l-156 203l-157 -203h-132z" />
<glyph unicode="&#x177;" horiz-adv-x="937" d="M39 1024h123l308 -838l306 838h124l-534 -1466h-125l166 459zM182 1210l251 290h75l251 -290h-132l-157 203l-156 -203h-132z" />
<glyph unicode="&#x178;" horiz-adv-x="1177" d="M58 1434h144l389 -646l387 646h143l-469 -781v-653h-124v653zM401 1718v192h103v-192h-103zM677 1718v192h104v-192h-104z" />
<glyph unicode="&#x179;" horiz-adv-x="1124" d="M96 0v85l757 1231h-734v118h902v-85l-758 -1232h767v-117h-934zM359 1753l375 172l33 -92l-374 -168z" />
<glyph unicode="&#x17a;" horiz-adv-x="878" d="M78 0v82l557 830h-547v112h708v-82l-558 -830h564v-112h-724zM237 1343l375 172l33 -91l-374 -169z" />
<glyph unicode="&#x17b;" horiz-adv-x="1124" d="M96 0v85l757 1231h-734v118h902v-85l-758 -1232h767v-117h-934zM511 1718v191h104v-191h-104z" />
<glyph unicode="&#x17c;" horiz-adv-x="878" d="M78 0v82l557 830h-547v112h708v-82l-558 -830h564v-112h-724zM389 1308v192h104v-192h-104z" />
<glyph unicode="&#x17d;" horiz-adv-x="1124" d="M96 0v85l757 1231h-734v118h902v-85l-758 -1232h767v-117h-934zM275 1909h132l156 -203l156 203h132l-250 -289h-76z" />
<glyph unicode="&#x17e;" horiz-adv-x="878" d="M78 0v82l557 830h-547v112h708v-82l-558 -830h564v-112h-724zM153 1500h132l156 -204l156 204h132l-250 -290h-76z" />
<glyph unicode="&#x192;" horiz-adv-x="874" d="M200 -199q65 27 103 88t38 151v751h-141v118h141v98q0 217 123.5 327t324.5 114v-118q-154 -5 -239 -83.5t-85 -239.5v-98h324v-118h-324v-751q0 -140 -71 -235t-194 -131v127z" />
<glyph unicode="&#x1cd;" horiz-adv-x="1253" d="M58 0l507 1434h121l512 -1434h-131l-144 404h-593l-141 -404h-131zM340 1909h132l157 -203l156 203h132l-251 -289h-75zM373 521h507l-251 702h-9z" />
<glyph unicode="&#x1ce;" horiz-adv-x="944" d="M68 294q0 122 86.5 208.5t210.5 86.5h348v137q0 82 -46.5 134t-119.5 52h-423v112h423q125 0 204.5 -85t79.5 -213v-726h-92l-4 111q-28 -48 -83.5 -79.5t-119.5 -31.5h-167q-124 0 -210.5 86t-86.5 208zM186 294q0 -76 52.5 -129t126.5 -53h167q71 0 126 51.5t55 118.5 v196h-348q-74 0 -126.5 -54t-52.5 -130zM186 1500h132l156 -204l156 204h132l-250 -290h-76z" />
<glyph unicode="&#x1cf;" horiz-adv-x="507" d="M-33 1909h133l156 -203l156 203h132l-250 -289h-76zM193 0v1434h124v-1434h-124z" />
<glyph unicode="&#x1d0;" horiz-adv-x="309" d="M-131 1500h131l156 -204l157 204h132l-251 -290h-75zM98 0v1024h118v-1024h-118z" />
<glyph unicode="&#x1d1;" d="M140 471v478q0 498 487 498h93q487 0 487 -498v-478q0 -219 -129 -353t-358 -134h-93q-229 0 -358 134t-129 353zM264 471q0 -171 95 -270t268 -99h93q173 0 268 99t95 270v478q0 203 -91 292t-272 89h-93q-181 0 -272 -89t-91 -292v-478zM385 1909h132l156 -203l157 203 h132l-251 -289h-75z" />
<glyph unicode="&#x1d2;" horiz-adv-x="978" d="M84 350v303q0 99 43 187t123 143.5t178 55.5h125q98 0 178 -55.5t123 -143.5t43 -187v-303q0 -154 -97.5 -260t-246.5 -106h-125q-149 0 -246.5 106t-97.5 260zM202 350q0 -109 64.5 -182t161.5 -73h125q97 0 161.5 73t64.5 182v303q0 110 -66 192t-160 82h-125 q-94 0 -160 -82t-66 -192v-303zM202 1500h132l156 -204l157 204h132l-251 -290h-75z" />
<glyph unicode="&#x1d3;" horiz-adv-x="1357" d="M193 407v1027h124v-1027q0 -146 73.5 -226.5t184.5 -80.5h242q114 0 178 81.5t64 225.5v1027h125v-1027q0 -191 -98 -308t-269 -117h-242q-162 0 -272 113.5t-110 311.5zM390 1909h132l157 -203l156 203h132l-251 -289h-75z" />
<glyph unicode="&#x1d4;" horiz-adv-x="1009" d="M115 331v693h118v-693q0 -103 61 -168.5t146 -65.5h130q82 0 144.5 61.5t62.5 150.5v715h118v-1034h-93l-3 127q-29 -58 -91 -94.5t-138 -36.5h-130q-134 0 -229.5 97t-95.5 248zM218 1500h132l156 -204l156 204h133l-251 -290h-76z" />
<glyph unicode="&#x1d5;" horiz-adv-x="1357" d="M193 407v1027h124v-1027q0 -146 73.5 -226.5t184.5 -80.5h242q114 0 178 81.5t64 225.5v1027h125v-1027q0 -191 -98 -308t-269 -117h-242q-162 0 -272 113.5t-110 311.5zM395 1860v96h568v-96h-568zM489 1536v192h103v-192h-103zM765 1536v192h104v-192h-104z" />
<glyph unicode="&#x1d6;" horiz-adv-x="1009" d="M115 331v693h118v-693q0 -103 61 -168.5t146 -65.5h130q82 0 144.5 61.5t62.5 150.5v715h118v-1034h-93l-3 127q-29 -58 -91 -94.5t-138 -36.5h-130q-134 0 -229.5 97t-95.5 248zM222 1449v96h568v-96h-568zM316 1124v192h104v-192h-104zM593 1124v192h103v-192h-103z " />
<glyph unicode="&#x1d7;" horiz-adv-x="1357" d="M193 407v1027h124v-1027q0 -146 73.5 -226.5t184.5 -80.5h242q114 0 178 81.5t64 225.5v1027h125v-1027q0 -191 -98 -308t-269 -117h-242q-162 0 -272 113.5t-110 311.5zM474 1867l376 171l32 -91l-374 -169zM489 1536v192h103v-192h-103zM765 1536v192h104v-192h-104z " />
<glyph unicode="&#x1d8;" horiz-adv-x="1009" d="M115 331v693h118v-693q0 -103 61 -168.5t146 -65.5h130q82 0 144.5 61.5t62.5 150.5v715h118v-1034h-93l-3 127q-29 -58 -91 -94.5t-138 -36.5h-130q-134 0 -229.5 97t-95.5 248zM302 1454l375 172l33 -92l-374 -168zM316 1124v192h104v-192h-104zM593 1124v192h103v-192 h-103z" />
<glyph unicode="&#x1d9;" horiz-adv-x="1357" d="M193 407v1027h124v-1027q0 -146 73.5 -226.5t184.5 -80.5h242q114 0 178 81.5t64 225.5v1027h125v-1027q0 -191 -98 -308t-269 -117h-242q-162 0 -272 113.5t-110 311.5zM390 2059h132l157 -203l156 203h132l-251 -290h-75zM489 1536v192h103v-192h-103zM765 1536v192 h104v-192h-104z" />
<glyph unicode="&#x1da;" horiz-adv-x="1009" d="M115 331v693h118v-693q0 -103 61 -168.5t146 -65.5h130q82 0 144.5 61.5t62.5 150.5v715h118v-1034h-93l-3 127q-29 -58 -91 -94.5t-138 -36.5h-130q-134 0 -229.5 97t-95.5 248zM218 1644h132l156 -203l156 203h133l-251 -290h-76zM316 1124v192h104v-192h-104z M593 1124v192h103v-192h-103z" />
<glyph unicode="&#x1db;" horiz-adv-x="1357" d="M193 407v1027h124v-1027q0 -146 73.5 -226.5t184.5 -80.5h242q114 0 178 81.5t64 225.5v1027h125v-1027q0 -191 -98 -308t-269 -117h-242q-162 0 -272 113.5t-110 311.5zM475 1948l33 92l375 -172l-34 -88zM489 1536v191h103v-191h-103zM765 1536v191h104v-191h-104z" />
<glyph unicode="&#x1dc;" horiz-adv-x="1009" d="M115 331v693h118v-693q0 -103 61 -168.5t146 -65.5h130q82 0 144.5 61.5t62.5 150.5v715h118v-1034h-93l-3 127q-29 -58 -91 -94.5t-138 -36.5h-130q-134 0 -229.5 97t-95.5 248zM302 1534l33 92l375 -172l-34 -88zM316 1124v192h104v-192h-104zM593 1124v192h103v-192 h-103z" />
<glyph unicode="&#x1de;" horiz-adv-x="1253" d="M58 0l507 1434h121l512 -1434h-131l-144 404h-593l-141 -404h-131zM332 1509v96h568v-96h-568zM373 521h506l-250 702h-9zM431 1729v192h103v-192h-103zM707 1729v192h103v-192h-103z" />
<glyph unicode="&#x1df;" horiz-adv-x="944" d="M68 294q0 122 86.5 208.5t210.5 86.5h348v137q0 82 -46.5 134t-119.5 52h-423v112h423q125 0 204.5 -85t79.5 -213v-726h-92l-4 111q-28 -48 -83.5 -79.5t-119.5 -31.5h-167q-124 0 -210.5 86t-86.5 208zM186 294q0 -76 52.5 -129t126.5 -53h167q71 0 126 51.5t55 118.5 v196h-348q-74 0 -126.5 -54t-52.5 -130zM187 1496v95h569v-95h-569zM284 1242v192h104v-192h-104zM561 1242v192h103v-192h-103z" />
<glyph unicode="&#x1e6;" horiz-adv-x="1357" d="M140 469v480q0 498 487 498h93q460 0 484 -477h-124q-8 192 -96.5 275.5t-263.5 83.5h-93q-181 0 -272 -88.5t-91 -291.5v-480q0 -171 95 -270t268 -99h92q179 0 271.5 86.5t92.5 284.5v148h-302v117h426v-265q0 -252 -129 -370.5t-358 -118.5h-93q-229 0 -358 134 t-129 353zM385 1909h132l156 -203l157 203h132l-251 -289h-75z" />
<glyph unicode="&#x1e7;" horiz-adv-x="991" d="M92 346v296q0 172 92.5 282t236.5 110h146q65 0 121 -33.5t84 -84.5l4 118h93v-1029q0 -113 -18.5 -194.5t-61.5 -142.5t-117.5 -91t-182.5 -30h-361v113h361q150 0 206 74.5t56 257.5v140q-29 -58 -89.5 -94.5t-134.5 -37.5h-109q-133 -2 -229.5 97t-96.5 249zM206 1500 h133l156 -204l156 204h132l-250 -290h-76zM210 346q0 -103 61 -168.5t146 -65.5h126q82 0 145 64t63 159v413q-4 74 -58 124t-125 50h-147q-91 0 -151 -76.5t-60 -202.5v-297z" />
<glyph unicode="&#x1fe;" d="M140 481v460q0 497 487 497h92q110 0 191 -26l55 124h135l-78 -177q185 -115 185 -418v-460q0 -219 -129 -353t-359 -134h-92q-107 0 -195 36l-60 -132h-138l85 189q-87 63 -133 164t-46 230zM264 481q0 -176 115 -260l480 1077q-60 23 -140 23h-92q-181 0 -272 -88.5 t-91 -291.5v-460zM455 1613l375 172l33 -92l-374 -168zM481 142q60 -30 146 -30h92q173 0 268.5 99.5t95.5 269.5v460q0 208 -121 282z" />
<glyph unicode="&#x1ff;" horiz-adv-x="978" d="M84 350v303q0 99 43 187t123 143.5t178 55.5h125q59 0 114 -22l50 111h103l-70 -159q68 -55 107.5 -139.5t39.5 -176.5v-303q0 -154 -97.5 -260t-246.5 -106h-125q-62 0 -110 17l-41 -91h-105l60 136q-70 50 -109 129.5t-39 174.5zM202 350q0 -122 79 -196l340 760 q-32 13 -68 13h-125q-94 0 -160 -82t-66 -192v-303zM253 1343l375 172l33 -91l-374 -169zM364 104q30 -9 64 -9h125q97 0 161.5 73t64.5 182v303q0 123 -78 206z" />
<glyph unicode="&#x218;" horiz-adv-x="1089" d="M96 -2v118h457q165 0 241.5 72t76.5 241q0 50 -13 87t-35.5 62.5t-65.5 45t-89 32t-120 27.5q-62 12 -96 19t-89 23.5t-86.5 33.5t-71 46.5t-60 64.5t-35 86.5t-14.5 113.5q0 364 455 364h409v-118h-409q-169 0 -249.5 -55.5t-80.5 -190.5q0 -33 6 -61.5t13.5 -50 t25.5 -40.5t31.5 -31.5t42.5 -25t47.5 -20t57 -17t60 -14t67.5 -13.5q70 -14 120 -27t101.5 -33t85.5 -46.5t62 -62.5t41 -86t13 -113q0 -223 -112 -327t-330 -104h-457zM450 -348q57 33 57 90v168h101v-168q0 -55 -40.5 -94t-96.5 -45z" />
<glyph unicode="&#x219;" horiz-adv-x="911" d="M78 756q0 74 29 130.5t79.5 89t111.5 48t132 15.5h372v-112h-372q-107 0 -170 -41.5t-64 -129.5q0 -141 232 -165q16 -1 46 -5t39 -5q157 -17 240 -90t83 -196q0 -303 -384 -303h-344v111h344q135 0 200.5 44t65.5 148q0 77 -52 119.5t-164 55.5l-87 10q-337 36 -337 276 zM354 -348q58 33 58 90v168h101v-168q0 -55 -41 -94t-97 -45z" />
<glyph unicode="&#x21a;" horiz-adv-x="1120" d="M39 1320v114h1044v-114h-457v-1320h-124v1320h-463zM463 -348q57 33 57 90v168h101v-168q0 -55 -40.5 -94t-96.5 -45z" />
<glyph unicode="&#x21b;" horiz-adv-x="720" d="M39 916v109h162v232h118v-232h331v-110h-331v-581q0 -120 44 -174.5t150 -54.5h137v-111h-137q-164 0 -238 87.5t-74 252.5v582h-162zM310 -348q57 33 57 90v168h101v-168q0 -55 -40.5 -94t-96.5 -45z" />
<glyph unicode="&#x228;" horiz-adv-x="1153" d="M193 0v1434h864v-118h-740v-513h623v-117h-623v-569h740v-117h-470v-104q61 -7 86.5 -38t25.5 -96q0 -79 -32.5 -113t-111.5 -34h-108v84h108q35 0 48 14.5t13 48.5q0 58 -64 58h-53v180h-306z" />
<glyph unicode="&#x229;" horiz-adv-x="940" d="M84 486v160q0 185 110 290.5t278 105.5q192 0 294 -102.5t102 -293.5v-180h-666v-18q1 -174 59 -255t203 -81h376v-111h-334h-20v-105q61 -7 86.5 -38t25.5 -96q0 -79 -33 -113t-112 -34h-108v84h108q35 0 48.5 14.5t13.5 48.5q0 58 -64 58h-53v185q-175 18 -244.5 135.5 t-69.5 345.5zM202 573h548v79q-1 278 -278 278q-118 0 -193.5 -72.5t-76.5 -204.5v-80z" />
<glyph unicode="&#x22a;" d="M140 471v478q0 498 487 498h93q487 0 487 -498v-478q0 -219 -129 -353t-358 -134h-93q-229 0 -358 134t-129 353zM264 471q0 -171 95 -270t268 -99h93q173 0 268 99t95 270v478q0 203 -91 292t-272 89h-93q-181 0 -272 -89t-91 -292v-478zM389 1859v95h569v-95h-569z M483 1536v192h104v-192h-104zM760 1536v192h103v-192h-103z" />
<glyph unicode="&#x22b;" horiz-adv-x="978" d="M84 350v303q0 99 43 187t123 143.5t178 55.5h125q98 0 178 -55.5t123 -143.5t43 -187v-303q0 -154 -97.5 -260t-246.5 -106h-125q-149 0 -246.5 106t-97.5 260zM202 350q0 -109 64.5 -182t161.5 -73h125q97 0 161.5 73t64.5 182v303q0 110 -66 192t-160 82h-125 q-94 0 -160 -82t-66 -192v-303zM206 1536v95h569v-95h-569zM300 1277v191h104v-191h-104zM577 1277v191h103v-191h-103z" />
<glyph unicode="&#x2c6;" horiz-adv-x="747" d="M86 1210l251 290h75l251 -290h-132l-156 203l-157 -203h-132z" />
<glyph unicode="&#x2c7;" horiz-adv-x="747" d="M86 1500h132l157 -204l156 204h132l-251 -290h-75z" />
<glyph unicode="&#x2d8;" horiz-adv-x="710" d="M89 1479q0 14 1 21h100q3 -59 34.5 -88t76.5 -29h114q43 0 72.5 30t33.5 87h101q6 -84 -53.5 -148t-146.5 -64h-131q-84 0 -143 55.5t-59 135.5z" />
<glyph unicode="&#x2d9;" horiz-adv-x="274" d="M86 1308v192h104v-192h-104z" />
<glyph unicode="&#x2da;" horiz-adv-x="579" d="M86 1368q0 81 59.5 140.5t145.5 59.5q85 0 144.5 -59.5t59.5 -140.5q0 -83 -59.5 -142.5t-144.5 -59.5q-86 0 -145.5 59t-59.5 143zM190 1368q0 -46 29 -76.5t72 -30.5q42 0 71 31t29 76q0 43 -29.5 74t-70.5 31q-42 0 -71.5 -30.5t-29.5 -74.5z" />
<glyph unicode="&#x2db;" horiz-adv-x="538" d="M86 -133q0 85 35 125t118 40h55v-96h-58q-33 0 -49 -14.5t-16 -54.5q0 -51 25 -83t56 -32h202v-96h-206q-162 0 -162 211z" />
<glyph unicode="&#x2dc;" horiz-adv-x="790" d="M86 1414l22.5 18t30 23t32 20t40 16.5t41.5 5.5q53 0 93.5 -19.5t82.5 -54.5q56 -43 101 -43q39 0 116 68l59 -64q-53 -52 -93 -75.5t-82 -23.5q-85 0 -166 64q-37 29 -59.5 41t-51.5 11q-36 -1 -118 -60z" />
<glyph unicode="&#x2dd;" horiz-adv-x="970" d="M86 1344l376 172l32 -91l-374 -169zM478 1344l376 172l32 -92l-374 -168z" />
<glyph unicode="&#x323;" horiz-adv-x="0" d="M86 -100h104v-191h-104v191z" />
<glyph unicode="&#x32d;" horiz-adv-x="0" d="M86 -369l251 291h75l251 -291h-132l-156 203l-157 -203h-132z" />
<glyph unicode="&#x331;" horiz-adv-x="0" d="M86 -143h569v-97h-569v97z" />
<glyph unicode="&#x394;" horiz-adv-x="1705" />
<glyph unicode="&#x3a9;" horiz-adv-x="1705" />
<glyph unicode="&#x3bc;" horiz-adv-x="954" />
<glyph unicode="&#x3c0;" horiz-adv-x="276" />
<glyph unicode="&#x410;" horiz-adv-x="1253" d="M58 0l507 1434h121l512 -1434h-131l-144 404h-593l-141 -404h-131zM373 521h506l-250 702h-9z" />
<glyph unicode="&#x411;" horiz-adv-x="1284" d="M193 0v1432h905v-116h-783v-516h446q103 0 184.5 -32t133 -87.5t78.5 -127t27 -153.5q0 -165 -118 -282.5t-285 -117.5h-588zM315 117h466q115 0 196.5 82.5t81.5 200.5q0 132 -84 207t-206 75h-454v-565z" />
<glyph unicode="&#x412;" horiz-adv-x="1277" d="M193 0v1434h555q157 0 269.5 -111t112.5 -266q0 -98 -51 -179.5t-134 -126.5q106 -42 172.5 -137.5t66.5 -213.5q0 -165 -117.5 -282.5t-285.5 -117.5h-588zM315 117h466q115 0 196.5 82.5t81.5 200.5q0 119 -81 200.5t-197 81.5h-466v-565zM315 800h444q101 0 174 76 t73 181q0 107 -76.5 183t-181.5 76h-433v-516z" />
<glyph unicode="&#x413;" horiz-adv-x="1013" d="M193 0v1434h764v-114h-640v-1320h-124z" />
<glyph unicode="&#x414;" horiz-adv-x="1351" d="M70 119h126q53 34 65 140l122 1175h760v-1315h128v-350h-124v231h-951v-231h-126v350zM336 119h684v1197h-528l-116 -1076q-7 -75 -40 -121z" />
<glyph unicode="&#x415;" horiz-adv-x="1153" d="M193 0v1434h864v-118h-740v-513h623v-117h-623v-569h740v-117h-864z" />
<glyph unicode="&#x416;" horiz-adv-x="1738" d="M58 -2l570 713l-544 723h153l501 -665h70v665h124v-665h69l501 665h153l-544 -723l571 -711h-155l-523 651h-72v-651h-124v651h-73l-522 -653h-155z" />
<glyph unicode="&#x417;" horiz-adv-x="1060" d="M77 -6v117h514q104 0 173 75t69 197q0 124 -68.5 211t-162.5 87h-353v116h353q99 0 165 70t66 180q0 118 -69.5 196t-172.5 78h-514v118h514q161 0 265.5 -111.5t104.5 -280.5q0 -108 -49.5 -190.5t-134.5 -123.5q86 -47 135 -139t49 -211q0 -173 -105 -281t-265 -108 h-514z" />
<glyph unicode="&#x418;" horiz-adv-x="1394" d="M176 0v1434h125v-1190l800 1190h118v-1434h-124v1206l-812 -1206h-107z" />
<glyph unicode="&#x419;" horiz-adv-x="1394" d="M176 0v1434h125v-1190l800 1190h118v-1434h-124v1206l-812 -1206h-107zM432 1889q0 14 1 21h100q3 -59 34.5 -88t76.5 -29h114q43 0 72.5 30t33.5 87h101q6 -84 -53.5 -148t-146.5 -64h-131q-84 0 -143 55.5t-59 135.5z" />
<glyph unicode="&#x41a;" horiz-adv-x="1204" d="M193 0v1434h124v-665h151l501 665h153l-544 -722l570 -712h-155l-523 651h-153v-651h-124z" />
<glyph unicode="&#x41b;" horiz-adv-x="1236" d="M58 99l23 2q68 28 81 149l123 1184h760v-1434h-123v1316h-528l-115 -1072q-8 -96 -54.5 -161t-117.5 -81l-22 -2z" />
<glyph unicode="&#x41c;" horiz-adv-x="1613" d="M177 0v1434h114l508 -863l507 863h117v-1434h-124v1177l-500 -848l-498 846v-1175h-124z" />
<glyph unicode="&#x41d;" horiz-adv-x="1411" d="M193 0v1434h124v-658h777v658h124v-1434h-124v659h-777v-659h-124z" />
<glyph unicode="&#x41e;" d="M140 471v478q0 498 487 498h92q488 0 488 -498v-478q0 -219 -129 -353t-359 -134h-92q-229 0 -358 134t-129 353zM264 471q0 -171 95 -270t268 -99h92q173 0 268.5 99.5t95.5 269.5v478q0 203 -91 292t-272 89h-93q-181 0 -272 -89t-91 -292v-478z" />
<glyph unicode="&#x41f;" horiz-adv-x="1392" d="M181 0v1434h1032v-1434h-124v1316h-784v-1316h-124z" />
<glyph unicode="&#x420;" horiz-adv-x="1230" d="M193 0v1434h555q158 0 270 -110.5t112 -266.5q0 -154 -112.5 -265.5t-269.5 -111.5h-431v-680h-124zM317 798h431q105 0 181.5 76.5t76.5 182.5q0 108 -76 183.5t-182 75.5h-431v-518z" />
<glyph unicode="&#x421;" horiz-adv-x="1310" d="M140 469v482q0 498 487 498h93q460 0 484 -478h-124q-8 192 -96.5 276t-263.5 84h-93q-181 0 -272 -88.5t-91 -291.5v-482q0 -171 95 -270t268 -99h92q171 0 262 103.5t96 284.5h125q-8 -230 -131.5 -368t-351.5 -138h-92q-229 0 -358 134t-129 353z" />
<glyph unicode="&#x422;" horiz-adv-x="1130" d="M43 1320v114h1045v-114h-458v-1320h-124v1320h-463z" />
<glyph unicode="&#x423;" horiz-adv-x="1013" d="M62 1432h143l340 -741l265 741h143l-519 -1432h-137l188 522z" />
<glyph unicode="&#x424;" horiz-adv-x="1607" d="M90 678v126q0 205 115.5 318.5t342.5 112.5h194v199h125v-199h193q227 0 343 -113t116 -318v-126q0 -205 -113.5 -325t-344.5 -119h-194v-234h-125v234h-193q-118 0 -207 32.5t-143.5 92.5t-81.5 140t-27 179zM216 679q0 -332 333 -332h193v775h-194q-175 0 -253.5 -82 t-78.5 -237v-124zM867 347h194q333 0 333 332v124q0 154 -79.5 236.5t-254.5 82.5h-193v-775z" />
<glyph unicode="&#x425;" horiz-adv-x="1175" d="M58 0l456 717l-456 717h145l384 -603l386 603h146l-459 -717l459 -717h-146l-386 603l-384 -603h-145z" />
<glyph unicode="&#x426;" horiz-adv-x="1441" d="M181 0v1434h124v-1309h745v1309h125v-1309h202v-375h-126v250h-1070z" />
<glyph unicode="&#x427;" horiz-adv-x="1222" d="M111 861v574h118v-574q0 -103 60.5 -168.5t145.5 -67.5h271q81 -1 143.5 64.5t62.5 158.5v586h118v-1434h-118v647q-30 -60 -88.5 -96.5t-134.5 -35.5h-254q-134 1 -229 98t-95 248z" />
<glyph unicode="&#x428;" horiz-adv-x="1773" d="M176 1v1434h125v-1308h524v1308h125v-1308h523v1308h124v-1434h-1421z" />
<glyph unicode="&#x429;" horiz-adv-x="1863" d="M176 0v1434h125v-1309h524v1309h125v-1309h523v1309h124v-1309h202v-375h-125v250h-1498z" />
<glyph unicode="&#x42a;" horiz-adv-x="1177" d="M-102 1310v124h366v-681h431q157 0 269 -111t112 -265q0 -157 -111.5 -267t-269.5 -110h-556v1310h-241zM264 117h431q106 0 181.5 76t75.5 184q0 106 -76.5 182.5t-180.5 76.5h-431v-519z" />
<glyph unicode="&#x42b;" horiz-adv-x="1720" d="M193 0v1434h124v-681h431q157 0 269.5 -111t112.5 -265q0 -157 -112 -267t-270 -110h-555zM317 117h431q106 0 182 76t76 184q0 105 -77 182t-181 77h-431v-519zM1406 0v1434h123v-1434h-123z" />
<glyph unicode="&#x42c;" horiz-adv-x="1230" d="M193 0v1434h124v-681h431q157 0 269.5 -111t112.5 -265q0 -157 -112 -267t-270 -110h-555zM317 117h431q106 0 182 76t76 184q0 105 -77 182t-181 77h-431v-519z" />
<glyph unicode="&#x42d;" d="M140 479h124q-3 -375 363 -375h93q363 0 363 375v190h-573v125h573v155q0 203 -91 291.5t-272 88.5h-93q-181 0 -272 -88.5t-91 -291.5h-124q-4 249 126 373.5t361 124.5h93q487 0 487 -498v-470q0 -243 -127 -368t-360 -125h-93q-231 0 -361 129.5t-126 363.5z" />
<glyph unicode="&#x42e;" horiz-adv-x="1806" d="M193 0v1434h124v-636h284v151q0 498 487 498h93q232 0 360 -120t128 -378v-478q0 -219 -129 -353t-359 -134h-93q-229 0 -358 134t-129 353v203h-284v-674h-124zM725 471q0 -170 95 -269.5t268 -99.5h93q173 0 268 99.5t95 269.5v478q0 203 -91 291.5t-272 88.5h-93 q-181 0 -272 -88.5t-91 -291.5v-478z" />
<glyph unicode="&#x42f;" horiz-adv-x="1253" d="M116 0l374 689h-37q-138 17 -233.5 122.5t-95.5 245.5q0 157 112.5 267t270.5 110h555v-1434h-125v681h-313l-369 -681h-139zM249 1057q0 -106 76.5 -182.5t181.5 -76.5h430v518h-430q-106 0 -182 -75.5t-76 -183.5z" />
<glyph unicode="&#x430;" horiz-adv-x="944" d="M68 294q0 122 86.5 208.5t210.5 86.5h348v137q0 82 -46.5 134t-119.5 52h-423v112h423q125 0 204.5 -85t79.5 -213v-726h-92l-4 111q-28 -48 -83.5 -79.5t-119.5 -31.5h-167q-124 0 -210.5 86t-86.5 208zM186 294q0 -76 52.5 -129t126.5 -53h167q71 0 126 51.5t55 118.5 v196h-348q-74 0 -126.5 -54t-52.5 -130z" />
<glyph unicode="&#x431;" horiz-adv-x="1095" d="M99 478v432q0 253 132 391.5t378 138.5h381v-118h-381q-100 0 -175 -31t-120.5 -87t-68 -129.5t-22.5 -164.5v-50h342q218 0 330 -94.5t112 -276.5v-84q0 -190 -112 -300.5t-337 -110.5q-235 0 -347 111.5t-112 372.5zM223 483q0 -141 36 -221.5t107 -113t192 -32.5 q324 0 324 294v84q0 129 -76.5 191.5t-240.5 62.5h-342v-265z" />
<glyph unicode="&#x432;" horiz-adv-x="972" d="M115 0v1024h492q112 0 192 -79t80 -189q0 -70 -37 -129t-96 -91q76 -30 124 -98t48 -153q0 -118 -85 -201.5t-205 -83.5h-513zM233 112h372q85 0 140 48.5t55 129.5q0 84 -55 133.5t-140 49.5h-372v-361zM233 586h357q73 0 122 45t49 120q0 74 -51 117.5t-127 43.5h-350 v-326z" />
<glyph unicode="&#x433;" horiz-adv-x="878" d="M115 0v1024h727v-118h-609v-906h-118z" />
<glyph unicode="&#x434;" horiz-adv-x="1052" d="M56 109h102q27 25 34 87l88 828h626v-915h91v-273h-113v164h-714v-164h-114v273zM271 109h522v806h-413l-80 -721q-6 -63 -29 -85z" />
<glyph unicode="&#x435;" horiz-adv-x="940" d="M84 486v160q0 185 110 290.5t278 105.5q192 0 294 -102.5t102 -293.5v-181h-666v-14q0 -175 58 -257t204 -82h376v-111h-376q-88 0 -153.5 21t-109 59.5t-69.5 99.5t-37 134.5t-11 170.5zM202 573h548v78q-1 279 -278 279q-118 0 -193.5 -73t-76.5 -206v-78z" />
<glyph unicode="&#x436;" horiz-adv-x="1327" d="M43 0l420 536l-385 488h152l337 -434h38v434h119v-434h38l337 434h152l-385 -488l421 -536h-146l-381 479h-36v-479h-119v479h-37l-380 -479h-145z" />
<glyph unicode="&#x437;" horiz-adv-x="790" d="M99 -4v117h355q66 0 112.5 45.5t46.5 124.5q0 89 -51.5 137.5t-117.5 48.5h-248v118h248q73 0 121 41.5t48 115.5t-46.5 120t-111.5 46h-356v118h368q115 0 190 -80t75 -201q0 -78 -35.5 -135.5t-96.5 -86.5q61 -33 96.5 -99.5t35.5 -151.5q0 -124 -75 -201t-190 -77 h-368z" />
<glyph unicode="&#x438;" horiz-adv-x="1048" d="M119 0v1024h118v-844l567 844h127v-1024h-116v853l-576 -853h-120z" />
<glyph unicode="&#x439;" horiz-adv-x="1048" d="M119 0v1024h118v-844l567 844h127v-1024h-116v853l-576 -853h-120zM262 1479q0 14 1 21h100q3 -59 34.5 -88t76.5 -29h114q43 0 73 30t34 87h101q6 -84 -54 -148t-147 -64h-131q-84 0 -143 55.5t-59 135.5z" />
<glyph unicode="&#x43a;" horiz-adv-x="958" d="M119 0v1024h118v-410h157l338 410h152l-386 -465l420 -559h-145l-380 506h-156v-506h-118z" />
<glyph unicode="&#x43b;" horiz-adv-x="972" d="M51 89q61 18 73 121l85 814h645v-1024h-118v912h-424l-79 -719q-10 -75 -53 -129t-104 -64z" />
<glyph unicode="&#x43c;" horiz-adv-x="1214" d="M132 0v1024h114l367 -609l367 609h117v-1024h-118v813l-366 -605l-363 603v-811h-118z" />
<glyph unicode="&#x43d;" horiz-adv-x="1077" d="M136 0v1024h118v-450h571v450h118v-1024h-118v462h-571v-462h-118z" />
<glyph unicode="&#x43e;" horiz-adv-x="978" d="M84 350v303q0 99 43 187t123 143.5t178 55.5h125q98 0 178 -55.5t123 -143.5t43 -187v-303q0 -154 -97.5 -260t-246.5 -106h-125q-149 0 -246.5 106t-97.5 260zM202 350q0 -109 64.5 -182t161.5 -73h125q97 0 161.5 73t64.5 182v303q0 110 -66 192t-160 82h-125 q-94 0 -160 -82t-66 -192v-303z" />
<glyph unicode="&#x43f;" horiz-adv-x="1083" d="M136 0v1024h812v-1024h-118v912h-576v-912h-118z" />
<glyph unicode="&#x440;" horiz-adv-x="995" d="M136 -381v1421h92l4 -113q28 48 84 80.5t120 32.5h147q144 0 236.5 -109t92.5 -281v-314q0 -151 -95.5 -248.5t-229.5 -97.5h-110q-75 0 -134.5 37t-88.5 96v-504h-118zM254 324q0 -93 63 -158t144 -65h126q85 0 146 66t61 169v314q0 126 -60 202t-151 76h-147 q-71 0 -124.5 -50t-57.5 -122v-432z" />
<glyph unicode="&#x441;" horiz-adv-x="849" d="M84 418v205q0 204 102.5 311t302.5 107h287v-112h-287q-146 0 -216.5 -75t-70.5 -231v-205q0 -166 70 -242.5t217 -76.5h287v-111h-287q-200 0 -302.5 108t-102.5 322z" />
<glyph unicode="&#x442;" horiz-adv-x="880" d="M56 912v112h770v-112h-326v-912h-118v912h-326z" />
<glyph unicode="&#x443;" horiz-adv-x="937" d="M39 1024h123l308 -838l306 838h124l-534 -1466h-125l166 459z" />
<glyph unicode="&#x444;" horiz-adv-x="1460" d="M84 417v163q0 207 99.5 319.5t322.5 112.5h165v397h119v-397h163q91 0 164 -23.5t121 -63.5t80 -95.5t46 -117.5t14 -132v-163q0 -198 -108 -307.5t-314 -109.5h-166v-391h-118v391h-165q-211 0 -317 109t-106 308zM202 417q0 -149 74.5 -230t230.5 -81h165v798h-165 q-155 0 -230 -84t-75 -240v-163zM790 106h166q155 0 229.5 81t74.5 230v162q0 325 -307 325h-163v-798z" />
<glyph unicode="&#x445;" horiz-adv-x="909" d="M39 0l346 522l-330 502h137l263 -397l265 397h137l-333 -503l348 -521h-139l-278 417l-276 -417h-140z" />
<glyph unicode="&#x446;" horiz-adv-x="1161" d="M127 0v1024h118v-904h570v904h118v-904h167v-292h-118v172h-855z" />
<glyph unicode="&#x447;" horiz-adv-x="999" d="M90 706v318h118v-318q0 -103 61 -169t146 -66h126q81 0 144 65t63 158v330h118v-1024h-118v493q-30 -60 -89 -97t-135 -37h-109q-134 0 -229.5 98t-95.5 249z" />
<glyph unicode="&#x448;" horiz-adv-x="1474" d="M132 0v1024h118v-906h429v906h118v-906h428v906h118v-1024h-1211z" />
<glyph unicode="&#x449;" horiz-adv-x="1583" d="M132 0v1024h118v-906h429v906h118v-906h429v906h118v-906h174v-298h-119v180h-1267z" />
<glyph unicode="&#x44a;" horiz-adv-x="985" d="M29 906v118h292v-453h333q114 0 193 -87.5t79 -199.5q0 -115 -77.5 -199.5t-194.5 -84.5h-451v906h-174zM321 118h317q76 0 123 46t47 121q0 72 -48.5 120t-122.5 48h-316v-335z" />
<glyph unicode="&#x44b;" horiz-adv-x="1206" d="M136 0v1024h118v-453h333q114 0 192.5 -87.5t78.5 -199.5q0 -115 -77 -199.5t-194 -84.5h-451zM254 118h316q76 0 123 46t47 121q0 72 -48 120t-122 48h-316v-335zM992 0v1024h118v-1024h-118z" />
<glyph unicode="&#x44c;" horiz-adv-x="917" d="M136 0v1024h118v-453h333q114 0 192.5 -87.5t78.5 -199.5q0 -115 -77 -199.5t-194 -84.5h-451zM254 118h316q76 0 123 46t47 121q0 72 -48 120t-122 48h-316v-335z" />
<glyph unicode="&#x44d;" horiz-adv-x="980" d="M84 330h118q0 -107 64 -171t163 -64h123q97 0 162 73t65 182v117h-384v113h384v73q0 110 -66.5 192t-160.5 82h-123q-96 0 -161.5 -73t-65.5 -181h-118q0 151 98.5 258.5t246.5 107.5h123q97 0 177.5 -55.5t124 -143.5t43.5 -187v-303q0 -153 -98 -259.5t-247 -106.5 h-123q-151 0 -248 97.5t-97 248.5z" />
<glyph unicode="&#x44e;" horiz-adv-x="1341" d="M142 0v1024h118v-444h187v73q0 99 43 187t123 143.5t177 55.5h125q97 0 177 -55.5t123 -143.5t43 -187v-303q0 -154 -97 -260t-246 -106h-125q-149 0 -246 106t-97 260v119h-187v-469h-118zM565 350q0 -109 64 -182t161 -73h125q97 0 161 73t64 182v303q0 110 -66 192 t-159 82h-125q-93 0 -159 -82t-66 -192v-303z" />
<glyph unicode="&#x44f;" horiz-adv-x="894" d="M56 0l279 492h-27q-111 12 -181.5 86.5t-70.5 175.5q0 114 82.5 192t207.5 78h426v-1024h-118v487h-190l-265 -487h-143zM168 753q0 -70 49 -114.5t132 -44.5h305v318h-305q-84 0 -132.5 -44t-48.5 -115z" />
<glyph unicode="&#x1e04;" horiz-adv-x="1277" d="M193 0v1434h555q157 0 269.5 -111t112.5 -266q0 -98 -51 -179.5t-134 -126.5q106 -42 172.5 -137.5t66.5 -213.5q0 -165 -117.5 -282.5t-285.5 -117.5h-588zM315 117h466q115 0 196.5 82.5t81.5 200.5q0 119 -81 200.5t-197 81.5h-466v-565zM315 800h444q101 0 174 76 t73 181q0 107 -76.5 183t-181.5 76h-433v-516zM539 -100h104v-191h-104v191z" />
<glyph unicode="&#x1e05;" horiz-adv-x="991" d="M132 0v1434h118v-531q29 60 89 97t134 37h110q134 0 229.5 -97.5t95.5 -248.5v-301q0 -172 -92.5 -281t-236.5 -109h-147q-64 0 -120 32.5t-84 80.5l-4 -113h-92zM250 284q4 -72 57.5 -122t124.5 -50h147q91 0 151 76t60 202v301q0 103 -61 169t-146 66h-126 q-81 0 -144 -65.5t-63 -158.5v-418zM462 -100h103v-191h-103v191z" />
<glyph unicode="&#x1e0c;" horiz-adv-x="1312" d="M193 0v1434h493q488 0 488 -498v-450q0 -219 -129 -352.5t-359 -133.5h-493zM317 117h369q173 0 268.5 99.5t95.5 269.5v450q0 203 -91.5 291.5t-272.5 88.5h-369v-1199zM613 -100h104v-191h-104v191z" />
<glyph unicode="&#x1e0d;" horiz-adv-x="995" d="M84 390v301q0 151 96 248.5t230 97.5h109q75 0 135 -37t89 -97v531h118v-1434h-93l-4 113q-28 -48 -84 -80.5t-120 -32.5h-147q-144 0 -236.5 109t-92.5 281zM202 390q0 -126 60 -202t151 -76h147q71 0 125 50.5t58 121.5v418q0 93 -63 158.5t-144 65.5h-126 q-85 0 -146.5 -66t-61.5 -169v-301zM425 -100h104v-191h-104v191z" />
<glyph unicode="&#x1e0e;" horiz-adv-x="1312" d="M193 0v1434h493q488 0 488 -498v-450q0 -219 -129 -352.5t-359 -133.5h-493zM317 117h369q173 0 268.5 99.5t95.5 269.5v450q0 203 -91.5 291.5t-272.5 88.5h-369v-1199zM322 -143h568v-97h-568v97z" />
<glyph unicode="&#x1e0f;" horiz-adv-x="995" d="M84 390v301q0 151 96 248.5t230 97.5h109q75 0 135 -37t89 -97v531h118v-1434h-93l-4 113q-28 -48 -84 -80.5t-120 -32.5h-147q-144 0 -236.5 109t-92.5 281zM198 -143h568v-97h-568v97zM202 390q0 -126 60 -202t151 -76h147q71 0 125 50.5t58 121.5v418q0 93 -63 158.5 t-144 65.5h-126q-85 0 -146.5 -66t-61.5 -169v-301z" />
<glyph unicode="&#x1e12;" horiz-adv-x="1312" d="M193 0v1434h493q488 0 488 -498v-450q0 -219 -129 -352.5t-359 -133.5h-493zM317 117h369q173 0 268.5 99.5t95.5 269.5v450q0 203 -91.5 291.5t-272.5 88.5h-369v-1199zM320 -369l251 291h75l251 -291h-132l-157 203l-156 -203h-132z" />
<glyph unicode="&#x1e13;" horiz-adv-x="995" d="M84 390v301q0 151 96 248.5t230 97.5h109q75 0 135 -37t89 -97v531h118v-1434h-93l-4 113q-28 -48 -84 -80.5t-120 -32.5h-147q-144 0 -236.5 109t-92.5 281zM185 -369l251 291h75l251 -291h-132l-156 203l-157 -203h-132zM202 390q0 -126 60 -202t151 -76h147 q71 0 125 50.5t58 121.5v418q0 93 -63 158.5t-144 65.5h-126q-85 0 -146.5 -66t-61.5 -169v-301z" />
<glyph unicode="&#x1e24;" horiz-adv-x="1411" d="M193 0v1434h124v-658h777v658h124v-1434h-124v659h-777v-659h-124zM660 -100h103v-191h-103v191z" />
<glyph unicode="&#x1e25;" horiz-adv-x="1032" d="M142 0v1434h118v-532q30 60 89 96.5t135 36.5h109q134 0 229.5 -97.5t95.5 -248.5v-689h-118v689q0 103 -61 169t-146 66h-126q-81 0 -144 -65.5t-63 -158.5v-700h-118zM476 -100h103v-191h-103v191z" />
<glyph unicode="&#x1e2e;" horiz-adv-x="507" d="M52 1865l375 171l33 -91l-374 -169zM66 1536v191h104v-191h-104zM193 0v1434h124v-1434h-124zM343 1536v191h103v-191h-103z" />
<glyph unicode="&#x1e2f;" horiz-adv-x="309" d="M-47 1463l375 171l32 -91l-374 -168zM-33 1139v191h103v-191h-103zM98 0v1024h118v-1024h-118zM243 1139v191h103v-191h-103z" />
<glyph unicode="&#x1e36;" horiz-adv-x="1048" d="M193 0v1434h124v-1317h675v-117h-799zM473 -100h104v-191h-104v191z" />
<glyph unicode="&#x1e37;" horiz-adv-x="391" d="M140 0v1434h118v-1434h-118zM147 -100h104v-191h-104v191z" />
<glyph unicode="&#x1e3c;" horiz-adv-x="1048" d="M193 0v1434h124v-1317h675v-117h-799zM243 -369l251 291h76l250 -291h-132l-156 203l-156 -203h-133z" />
<glyph unicode="&#x1e3d;" horiz-adv-x="391" d="M-90 -369l249 291h76l251 -291h-133l-156 203l-156 -203h-131zM143 0v1434h118v-1434h-118z" />
<glyph unicode="&#x1e3e;" horiz-adv-x="1613" d="M177 0v1434h114l508 -863l507 863l117 -1v-1433h-124v1177l-500 -848l-498 846v-1175h-124zM596 1568l375 172l33 -91l-374 -169z" />
<glyph unicode="&#x1e3f;" horiz-adv-x="1589" d="M132 0v1033h94l3 -128q29 58 92.5 95.5t139.5 37.5h77q84 0 155.5 -45t109.5 -122q36 77 108.5 122t158.5 45h81q134 0 229.5 -98t95.5 -249v-691h-118v691q0 103 -61 169t-146 66h-81q-84 0 -145.5 -63t-61.5 -159v-704h-118v703q0 93 -63 158t-144 65h-81 q-83 0 -145 -60t-62 -152v-714h-118zM600 1343l375 172l33 -91l-374 -169z" />
<glyph unicode="&#x1e44;" horiz-adv-x="1394" d="M177 0v1434h118l800 -1191v1191h124v-1434h-107l-811 1206v-1206h-124zM647 1718v191h103v-191h-103z" />
<glyph unicode="&#x1e45;" horiz-adv-x="1026" d="M132 1v1032h93l3 -127q29 58 91 95t138 37h130q134 0 229.5 -98t95.5 -249v-690h-118v690q0 103 -61 169t-146 66h-130q-82 0 -144.5 -61.5t-62.5 -150.5v-713h-118zM461 1315v191h104v-191h-104z" />
<glyph unicode="&#x1e46;" horiz-adv-x="1394" d="M177 0v1434h118l800 -1191v1191h124v-1434h-107l-811 1206v-1206h-124zM647 -100h104v-191h-104v191z" />
<glyph unicode="&#x1e47;" horiz-adv-x="1026" d="M132 1v1032h93l3 -127q29 58 91 95t138 37h130q134 0 229.5 -98t95.5 -249v-690h-118v690q0 103 -61 169t-146 66h-130q-82 0 -144.5 -61.5t-62.5 -150.5v-713h-118zM461 -100h104v-191h-104v191z" />
<glyph unicode="&#x1e4a;" horiz-adv-x="1394" d="M177 0v1434h118l800 -1191v1191h124v-1434h-107l-811 1206v-1206h-124zM407 -369l250 291h76l250 -291h-132l-156 203l-156 -203h-132z" />
<glyph unicode="&#x1e4b;" horiz-adv-x="1026" d="M132 1v1032h93l3 -127q29 58 91 95t138 37h130q134 0 229.5 -98t95.5 -249v-690h-118v690q0 103 -61 169t-146 66h-130q-82 0 -144.5 -61.5t-62.5 -150.5v-713h-118zM227 -369l251 291h75l251 -291h-132l-157 203l-156 -203h-132z" />
<glyph unicode="&#x1e4c;" d="M140 471v478q0 498 487 498h92q488 0 488 -498v-478q0 -219 -129 -353t-359 -134h-92q-229 0 -358 134t-129 353zM264 471q0 -171 95 -270t268 -99h92q173 0 268.5 99.5t95.5 269.5v478q0 203 -91.5 292t-272.5 89h-92q-181 0 -272 -89t-91 -292v-478zM373 1643l22.5 18 t30 23t32 20t40 16.5t41.5 5.5q53 0 93.5 -19.5t82.5 -54.5q56 -43 101 -43q39 0 116 68l59 -64q-53 -52 -93 -75.5t-82 -23.5q-85 0 -166 64q-26 21 -39 30t-32.5 16t-39.5 6q-36 -1 -118 -60zM467 1850l376 171l32 -91l-374 -169z" />
<glyph unicode="&#x1e4d;" horiz-adv-x="978" d="M84 350v303q0 99 43 187t123 143.5t178 55.5h125q98 0 178 -55.5t123 -143.5t43 -187v-303q0 -154 -97.5 -260t-246.5 -106h-125q-149 0 -246.5 106t-97.5 260zM190 1270l22.5 18t30 23t32 20t40 16.5t41.5 5.5q53 0 93.5 -19.5t82.5 -54.5q56 -43 101 -43q39 0 116 68 l59 -64q-53 -52 -93 -75.5t-82 -23.5q-85 0 -166 64q-26 21 -39 30t-32.5 16t-39.5 6q-36 -1 -118 -60zM202 350q0 -109 64.5 -182t161.5 -73h125q97 0 161 73t64 182v303q0 110 -66 192t-160 82h-124q-94 0 -160 -82t-66 -192v-303zM286 1494l376 171l32 -91l-374 -169z " />
<glyph unicode="&#x1e50;" d="M140 471v478q0 498 487 498h93q487 0 487 -498v-478q0 -219 -129 -353t-358 -134h-93q-229 0 -358 134t-129 353zM264 471q0 -171 95 -270t268 -99h93q173 0 268 99t95 270v478q0 203 -91 292t-272 89h-93q-181 0 -272 -89t-91 -292v-478zM389 1536v95h569v-95h-569z M470 1914l32 91l376 -171l-34 -88z" />
<glyph unicode="&#x1e51;" horiz-adv-x="978" d="M84 350v303q0 99 43 187t123 143.5t178 55.5h125q98 0 178 -55.5t123 -143.5t43 -187v-303q0 -154 -97.5 -260t-246.5 -106h-125q-149 0 -246.5 106t-97.5 260zM202 350q0 -109 64.5 -182t161.5 -73h125q97 0 161.5 73t64.5 182v303q0 110 -66 192t-160 82h-125 q-94 0 -160 -82t-66 -192v-303zM206 1214v96h569v-96h-569zM287 1555l32 91l376 -171l-34 -89z" />
<glyph unicode="&#x1e52;" d="M140 471v478q0 498 487 498h93q487 0 487 -498v-478q0 -219 -129 -353t-358 -134h-93q-229 0 -358 134t-129 353zM264 471q0 -171 95 -270t268 -99h93q173 0 268 99t95 270v478q0 203 -91 291.5t-272 88.5h-93q-181 0 -272 -88.5t-91 -291.5v-478zM389 1536v95h569v-95 h-569zM469 1835l376 172l32 -91l-374 -169z" />
<glyph unicode="&#x1e53;" horiz-adv-x="978" d="M84 350v303q0 99 43 187t123 143.5t178 55.5h125q98 0 178 -55.5t123 -143.5t43 -187v-303q0 -154 -97.5 -260t-246.5 -106h-125q-149 0 -246.5 106t-97.5 260zM202 350q0 -109 64.5 -182t161.5 -73h125q97 0 161.5 73t64.5 182v303q0 110 -66 192t-160 82h-125 q-94 0 -160 -82t-66 -192v-303zM206 1214v96h569v-96h-569zM286 1474l376 171l32 -91l-374 -168z" />
<glyph unicode="&#x1e62;" horiz-adv-x="1089" d="M96 -2v118h457q165 0 241.5 72t76.5 241q0 50 -13 87t-35.5 62.5t-65.5 45t-89 32t-120 27.5q-62 12 -96 19t-89 23.5t-86.5 33.5t-71 46.5t-60 64.5t-35 86.5t-14.5 113.5q0 364 455 364h409v-118h-409q-169 0 -249.5 -55.5t-80.5 -190.5q0 -33 6 -61.5t13.5 -50 t25.5 -40.5t31.5 -31.5t42.5 -25t47.5 -20t57 -17t60 -14t67.5 -13.5q70 -14 120 -27t101.5 -33t85.5 -46.5t62 -62.5t41 -86t13 -113q0 -223 -112 -327t-330 -104h-457zM494 -100h104v-191h-104v191z" />
<glyph unicode="&#x1e63;" horiz-adv-x="911" d="M78 755q0 60 19.5 108t52.5 80t78.5 53.5t95.5 31t106 9.5h372v-111h-372q-107 0 -170 -41.5t-64 -129.5q0 -142 232 -166q14 -1 43.5 -4.5t41.5 -4.5q157 -17 240 -90t83 -196q0 -304 -384 -304h-344v112h344q135 0 200.5 44t65.5 148q0 77 -52 119.5t-164 55.5l-87 9 q-73 8 -132 26.5t-106 50.5t-73 83t-26 117zM406 -100h104v-191h-104v191z" />
<glyph unicode="&#x1e6c;" horiz-adv-x="1120" d="M39 1320v114h1044v-114h-457v-1320h-124v1320h-463zM509 -100h104v-191h-104v191z" />
<glyph unicode="&#x1e6d;" horiz-adv-x="720" d="M39 914v110h162v233h118v-233h331v-110h-331v-587q0 -120 44 -174.5t150 -54.5h137v-112h-137q-164 0 -238 88t-74 253v587h-162zM313 -100h103v-191h-103v191z" />
<glyph unicode="&#x1e6e;" horiz-adv-x="1120" d="M39 1320v114h1044v-114h-457v-1320h-124v1320h-463zM277 -143h568v-97h-568v97z" />
<glyph unicode="&#x1e6f;" horiz-adv-x="720" d="M39 914v110h162v233h118v-233h331v-110h-331v-587q0 -120 44 -174.5t150 -54.5h137v-112h-137q-164 0 -238 88t-74 253v587h-162zM86 -143h569v-97h-569v97z" />
<glyph unicode="&#x1e70;" horiz-adv-x="1120" d="M39 1320v114h1044v-114h-457v-1320h-124v1320h-463zM269 -369l251 291h75l251 -291h-132l-156 203l-157 -203h-132z" />
<glyph unicode="&#x1e71;" horiz-adv-x="720" d="M39 914v110h162v233h118v-233h331v-110h-331v-587q0 -120 44 -174.5t150 -54.5h137v-112h-137q-164 0 -238 88t-74 253v587h-162zM56 -369l250 291h75l251 -291h-132l-156 203l-157 -203h-131z" />
<glyph unicode="&#x1e80;" horiz-adv-x="1542" d="M58 1434h127l232 -1207l305 634h100l305 -637l232 1210h127l-275 -1434h-115l-324 679l-327 -679h-113zM568 1831l33 92l375 -172l-34 -88z" />
<glyph unicode="&#x1e81;" horiz-adv-x="1478" d="M39 1024h124l267 -809l257 809h107l259 -809l265 809h124l-336 -1024h-110l-256 805l-255 -805h-112zM537 1422l33 91l375 -171l-34 -89z" />
<glyph unicode="&#x1e82;" horiz-adv-x="1542" d="M58 1434h127l232 -1207l305 634h100l305 -638l232 1211h127l-275 -1434h-115l-324 679l-327 -679h-113zM567 1753l376 172l32 -92l-374 -168z" />
<glyph unicode="&#x1e83;" horiz-adv-x="1478" d="M39 1024h124l267 -809l257 809h107l259 -809l265 809h124l-336 -1024h-110l-256 805l-255 -805h-112zM537 1343l375 172l33 -91l-374 -169z" />
<glyph unicode="&#x1e84;" horiz-adv-x="1542" d="M58 1434h127l232 -1207l305 634h100l305 -637l232 1210h127l-275 -1434h-115l-324 679l-327 -679h-113zM691 1718v192h162v-192h-162z" />
<glyph unicode="&#x1e85;" horiz-adv-x="1478" d="M39 1024h124l267 -809l257 809h107l259 -809l265 809h124l-336 -1024h-110l-256 805l-255 -805h-112zM551 1308v192h103v-192h-103zM827 1308v192h104v-192h-104z" />
<glyph unicode="&#x1e92;" horiz-adv-x="1124" d="M96 0v85l757 1231h-734v118h902v-85l-758 -1232h767v-117h-934zM533 -100h103v-191h-103v191z" />
<glyph unicode="&#x1e93;" horiz-adv-x="878" d="M78 0v82l557 830h-547v112h708v-82l-558 -830h564v-112h-724zM388 -100h104v-191h-104v191z" />
<glyph unicode="&#x1ea1;" horiz-adv-x="944" d="M68 294q0 122 86.5 208.5t210.5 86.5h348v137q0 82 -46.5 134t-119.5 52h-423v112h423q125 0 204.5 -85t79.5 -213v-726h-92l-4 111q-28 -48 -83.5 -79.5t-119.5 -31.5h-167q-124 0 -210.5 86t-86.5 208zM186 294q0 -76 52.5 -129t126.5 -53h167q71 0 126 51.5t55 118.5 v196h-348q-74 0 -126.5 -54t-52.5 -130zM397 -100h103v-191h-103v191z" />
<glyph unicode="&#x1eac;" horiz-adv-x="1253" d="M58 0l507 1434h121l512 -1434h-131l-144 404h-593l-141 -404h-131zM340 1620l251 290h75l251 -290h-132l-156 203l-157 -203h-132zM373 521h506l-250 702h-9zM579 -100h103v-191h-103v191z" />
<glyph unicode="&#x1ead;" horiz-adv-x="944" d="M68 294q0 122 86.5 208.5t210.5 86.5h348v137q0 82 -46.5 134t-119.5 52h-423v112h423q125 0 204.5 -85t79.5 -213v-726h-92l-4 111q-28 -48 -83.5 -79.5t-119.5 -31.5h-167q-124 0 -210.5 86t-86.5 208zM186 294q0 -76 52.5 -129t126.5 -53h167q71 0 126 51.5t55 118.5 v196h-348q-74 0 -126.5 -54t-52.5 -130zM186 1210l250 290h76l250 -290h-132l-156 203l-156 -203h-132zM397 -100h103v-191h-103v191z" />
<glyph unicode="&#x1eb8;" horiz-adv-x="1153" d="M193 0v1434h864v-118h-740v-513h623v-117h-623v-569h740v-117h-864zM521 -100h104v-191h-104v191z" />
<glyph unicode="&#x1eb9;" horiz-adv-x="940" d="M84 486v160q0 185 110 290.5t278 105.5q192 0 294 -102.5t102 -293.5v-181h-666v-14q0 -175 58 -257t204 -82h376v-111h-376q-88 0 -153.5 21t-109 59.5t-69.5 99.5t-37 134.5t-11 170.5zM202 573h548v78q-1 279 -278 279q-118 0 -193.5 -73t-76.5 -206v-78zM420 -100 h103v-191h-103v191z" />
<glyph unicode="&#x1ebc;" horiz-adv-x="1153" d="M193 0v1434h864v-118h-740v-513h623v-117h-623v-569h740v-117h-864zM273 1823l22.5 18t30 23t32 20t40 16.5t41.5 5.5q53 0 93 -19t82 -54q56 -43 101 -43q40 0 116 67l60 -64q-100 -99 -176 -99q-83 0 -166 65q-26 20 -39 29t-32 16t-39 7q-36 -1 -118 -60z" />
<glyph unicode="&#x1ebd;" horiz-adv-x="940" d="M84 486v160q0 185 110 290.5t278 105.5q192 0 294 -102.5t102 -293.5v-181h-666v-14q0 -175 58 -257t204 -82h376v-111h-376q-88 0 -153.5 21t-109 59.5t-69.5 99.5t-37 134.5t-11 170.5zM171 1414l22.5 18t30 23t32 20t40 16.5t41.5 5.5q53 0 93.5 -19.5t82.5 -54.5 q56 -43 101 -43q39 0 116 68l60 -64q-100 -99 -176 -99q-85 0 -166 64q-37 29 -59.5 41t-51.5 11q-36 -1 -118 -60zM202 573h548v78q-1 279 -278 279q-118 0 -193.5 -73t-76.5 -206v-78z" />
<glyph unicode="&#x1ec6;" horiz-adv-x="1153" d="M193 0v1434h864v-118h-740v-513h623v-117h-623v-569h740v-117h-864zM285 1620l250 290h76l250 -290h-132l-156 203l-156 -203h-132zM521 -100h104v-191h-104v191z" />
<glyph unicode="&#x1ec7;" horiz-adv-x="940" d="M84 486v160q0 185 110 290.5t278 105.5q192 0 294 -102.5t102 -293.5v-181h-666v-14q0 -175 58 -257t204 -82h376v-111h-376q-88 0 -153.5 21t-109 59.5t-69.5 99.5t-37 134.5t-11 170.5zM183 1210l251 290h75l251 -290h-132l-156 203l-157 -203h-132zM202 573h548v78 q-1 279 -278 279q-118 0 -193.5 -73t-76.5 -206v-78zM420 -100h103v-191h-103v191z" />
<glyph unicode="&#x1eca;" horiz-adv-x="507" d="M193 0v1434h124v-1434h-124zM203 -100h104v-191h-104v191z" />
<glyph unicode="&#x1ecb;" horiz-adv-x="391" d="M142 0v1024h118v-1024h-118zM142 1249v151h118v-151h-118zM149 -100h103v-191h-103v191z" />
<glyph unicode="&#x1ecc;" d="M140 471v478q0 498 487 498h92q488 0 488 -498v-478q0 -219 -129 -353t-359 -134h-92q-229 0 -358 134t-129 353zM264 471q0 -171 95 -270t268 -99h92q173 0 268.5 99.5t95.5 269.5v478q0 203 -91 292t-272 89h-93q-181 0 -272 -89t-91 -292v-478zM621 -100h104v-191 h-104v191z" />
<glyph unicode="&#x1ecd;" horiz-adv-x="978" d="M84 350v303q0 99 43 187t123 143.5t178 55.5h125q98 0 178 -55.5t123 -143.5t43 -187v-303q0 -154 -97.5 -260t-246.5 -106h-125q-149 0 -246.5 106t-97.5 260zM202 350q0 -109 64.5 -182t161.5 -73h125q97 0 161.5 73t64.5 182v303q0 110 -66 192t-160 82h-125 q-94 0 -160 -82t-66 -192v-303zM438 -100h103v-191h-103v191z" />
<glyph unicode="&#x1ed8;" d="M140 471v478q0 498 487 498h92q488 0 488 -498v-478q0 -219 -129 -353t-359 -134h-92q-229 0 -358 134t-129 353zM264 471q0 -171 95 -270t268 -99h92q173 0 268.5 99.5t95.5 269.5v478q0 203 -91.5 292t-272.5 89h-92q-181 0 -272 -89t-91 -292v-478zM385 1620l251 290 h75l251 -290h-132l-157 203l-156 -203h-132zM621 -100h104v-191h-104v191z" />
<glyph unicode="&#x1ed9;" horiz-adv-x="978" d="M84 350v303q0 99 43 187t123 143.5t178 55.5h125q98 0 178 -55.5t123 -143.5t43 -187v-303q0 -154 -97.5 -260t-246.5 -106h-125q-149 0 -246.5 106t-97.5 260zM202 350q0 -109 64.5 -182t161.5 -73h125q97 0 161.5 73t64.5 182l-1 303q0 110 -66 192t-160 82h-124 q-94 0 -160 -82t-66 -192v-303zM202 1210l251 290h75l251 -290h-132l-157 203l-156 -203h-132zM438 -100h103v-191h-103v191z" />
<glyph unicode="&#x1ee4;" horiz-adv-x="1357" d="M193 407v1027h124v-1027q0 -146 73.5 -226.5t184.5 -80.5h242q114 0 178 81.5t64 225.5v1027h125v-1027q0 -191 -98 -308t-269 -117h-242q-162 0 -272 113.5t-110 311.5zM637 -100h103v-191h-103v191z" />
<glyph unicode="&#x1ee5;" horiz-adv-x="1009" d="M115 331v693h118v-693q0 -103 61 -168.5t146 -65.5h130q82 0 144.5 61.5t62.5 150.5v715h118v-1034h-93l-3 127q-29 -58 -91 -94.5t-138 -36.5h-130q-134 0 -229.5 97t-95.5 248zM453 -100h104v-191h-104v191z" />
<glyph unicode="&#x1ef2;" horiz-adv-x="1177" d="M58 1434h144l388 -646l388 646h143l-469 -781v-653h-124v653zM387 1831l32 92l376 -172l-34 -88z" />
<glyph unicode="&#x1ef3;" horiz-adv-x="937" d="M39 1024h123l308 -838l306 838h124l-534 -1466h-125l166 459zM267 1422l32 91l376 -171l-34 -89z" />
<glyph unicode="&#x2000;" horiz-adv-x="1029" />
<glyph unicode="&#x2001;" horiz-adv-x="2059" />
<glyph unicode="&#x2002;" horiz-adv-x="1029" />
<glyph unicode="&#x2003;" horiz-adv-x="2059" />
<glyph unicode="&#x2004;" horiz-adv-x="686" />
<glyph unicode="&#x2005;" horiz-adv-x="514" />
<glyph unicode="&#x2006;" horiz-adv-x="343" />
<glyph unicode="&#x2007;" horiz-adv-x="343" />
<glyph unicode="&#x2008;" horiz-adv-x="257" />
<glyph unicode="&#x2009;" horiz-adv-x="411" />
<glyph unicode="&#x200a;" horiz-adv-x="114" />
<glyph unicode="&#x2010;" horiz-adv-x="880" d="M86 485v117h709v-117h-709z" />
<glyph unicode="&#x2011;" horiz-adv-x="880" d="M86 485v117h709v-117h-709z" />
<glyph unicode="&#x2012;" horiz-adv-x="880" d="M86 485v117h709v-117h-709z" />
<glyph unicode="&#x2013;" horiz-adv-x="1040" d="M86 499v118h870v-118h-870z" />
<glyph unicode="&#x2014;" horiz-adv-x="1304" d="M86 499v118h1133v-118h-1133z" />
<glyph unicode="&#x2018;" horiz-adv-x="356" d="M86 1130v203q0 63 48 107.5t113 50.5l25 -57q-62 -39 -62 -101v-203h-124z" />
<glyph unicode="&#x2019;" horiz-adv-x="356" d="M86 1189q62 39 62 101v203h124v-203q0 -63 -48 -107.5t-113 -50.5z" />
<glyph unicode="&#x201a;" horiz-adv-x="356" d="M86 -66q62 41 62 101v203h124v-203q0 -64 -48 -108.5t-113 -49.5z" />
<glyph unicode="&#x201c;" horiz-adv-x="585" d="M86 1130v203q0 63 48 107.5t113 50.5l25 -57q-62 -39 -62 -101v-203h-124zM315 1130l1 203q0 63 47.5 107.5t112.5 50.5l25 -57q-61 -39 -61 -101v-203h-125z" />
<glyph unicode="&#x201d;" horiz-adv-x="585" d="M86 1189q62 39 62 101v203h124v-203q0 -63 -48 -107.5t-113 -50.5zM315 1189q62 39 62 101v203h124v-203q0 -63 -48 -107.5t-113 -50.5z" />
<glyph unicode="&#x201e;" horiz-adv-x="585" d="M86 -66q62 41 62 101v203h124v-203q0 -64 -48 -108.5t-113 -49.5zM315 -66q62 41 62 101v203h124v-203q0 -64 -48 -108.5t-113 -49.5z" />
<glyph unicode="&#x2020;" horiz-adv-x="880" d="M86 930v117h294v387h124v-387h291v-117h-291v-1049h-124v1049h-294z" />
<glyph unicode="&#x2021;" horiz-adv-x="880" d="M86 281v118h294v535h-294v117h294v383h124v-383h291v-117h-291v-535h291v-118h-291v-424h-124v424h-294z" />
<glyph unicode="&#x2022;" horiz-adv-x="667" d="M86 641q0 100 72.5 173t175.5 73q102 0 175.5 -73t73.5 -173q0 -101 -73.5 -172.5t-175.5 -71.5q-103 0 -175.5 71.5t-72.5 172.5z" />
<glyph unicode="&#x2026;" horiz-adv-x="890" d="M86 0v242h124v-242h-124zM384 0v242h124v-242h-124zM683 0v242h124v-242h-124z" />
<glyph unicode="&#x202f;" horiz-adv-x="411" />
<glyph unicode="&#x2030;" horiz-adv-x="1837" d="M86 -14l1057 1461h117l-1057 -1461h-117zM151 1150q0 147 57 215.5t174 68.5q116 0 174 -69.5t58 -216.5q0 -293 -232 -293q-231 0 -231 295zM249 1150q0 -112 29 -162t104 -50t104 49.5t29 160.5t-28.5 157t-104.5 46q-74 0 -103.5 -46t-29.5 -155zM756 295 q0 146 57.5 214.5t174.5 68.5q115 0 173 -69t58 -216q0 -293 -231 -293q-232 0 -232 295zM853 295q0 -111 30 -161.5t105 -50.5q74 0 103.5 49.5t29.5 160.5t-28.5 156.5t-104.5 45.5t-105.5 -45.5t-29.5 -154.5zM1290 295q0 146 57 214.5t174 68.5q116 0 174 -69t58 -216 q0 -293 -232 -293q-231 0 -231 295zM1386 295q0 -111 30 -161.5t105 -50.5q74 0 104 49.5t30 160.5q0 110 -29 156t-105 46t-105.5 -45.5t-29.5 -154.5z" />
<glyph unicode="&#x2039;" horiz-adv-x="507" d="M86 533v72l338 265v-144l-197 -157l197 -156v-145z" />
<glyph unicode="&#x203a;" horiz-adv-x="507" d="M86 268v145l197 156l-197 157v144l338 -265v-72z" />
<glyph unicode="&#x2044;" horiz-adv-x="931" d="M86 -14l653 1461h107l-652 -1461h-108z" />
<glyph unicode="&#x205f;" horiz-adv-x="514" />
<glyph unicode="&#x20ac;" horiz-adv-x="1265" d="M55 538v92h154v140h-154v93h154v88q0 498 488 498q460 0 484 -478h-124q-8 192 -96.5 276t-263.5 84q-181 0 -272.5 -88.5t-91.5 -291.5v-89h588v-92h-588v-140h517v-92h-517v-77q0 -169 95 -265t269 -96q171 0 261.5 103.5t95.5 284.5h125q-8 -230 -131.5 -368 t-350.5 -138q-230 0 -359 134t-129 353v69h-154z" />
<glyph unicode="&#x2122;" horiz-adv-x="1638" d="M86 1345v89h628v-89h-266v-767h-96v767h-266zM799 578v856h89l289 -493l289 493h87v-856h-97v657l-241 -408h-80l-240 404v-653h-96z" />
<glyph unicode="&#x2202;" horiz-adv-x="1753" />
<glyph unicode="&#x220f;" horiz-adv-x="1753" />
<glyph unicode="&#x2211;" horiz-adv-x="1753" />
<glyph unicode="&#x2212;" horiz-adv-x="1200" d="M86 585v118h1029v-118h-1029z" />
<glyph unicode="&#x221a;" horiz-adv-x="1753" />
<glyph unicode="&#x221e;" horiz-adv-x="1753" />
<glyph unicode="&#x222b;" horiz-adv-x="1753" />
<glyph unicode="&#x2248;" horiz-adv-x="1753" />
<glyph unicode="&#x2260;" horiz-adv-x="1200" d="M86 410v118h399l100 223h-499v118h550l205 456h136l-203 -456h341v-118h-394l-99 -223h493v-118h-545l-182 -410h-138l183 410h-347z" />
<glyph unicode="&#x2264;" horiz-adv-x="925" d="M86 0v117h755v-117h-755zM86 682v106l755 489v-142l-599 -389v-21l599 -389v-143z" />
<glyph unicode="&#x2265;" horiz-adv-x="925" d="M86 0v117h755v-117h-755zM86 193v143l599 389v21l-599 389v142l755 -489v-106z" />
<glyph unicode="&#x25ca;" horiz-adv-x="1753" />
<glyph unicode="&#x25fc;" horiz-adv-x="1024" d="M0 0v1024h1024v-1024h-1024z" />
<glyph unicode="&#xf8ff;" horiz-adv-x="0" />
<glyph unicode="&#xfb01;" horiz-adv-x="1060" d="M58 916v108h141v22q2 103 37 180.5t95 124t135 70t165 25.5v-107q-143 -7 -227 -78t-85 -215v-22h312v-108h-318v-916h-118v916h-137zM812 0v1024h118v-1024h-118zM812 1249v151h118v-151h-118z" />
<glyph unicode="&#xfb02;" horiz-adv-x="1060" d="M58 916v108h141v22q2 103 37 180.5t95 124t135 70t165 25.5v-107q-143 -7 -227 -78t-85 -215v-22h312v-108h-318v-916h-118v916h-137zM812 0v1434h118v-1434h-118z" />
</font>
</defs>
</svg>
