<?xml version="1.0" standalone="no"?>
<!DOCTYPE svg PUBLIC "-//W3C//DTD SVG 1.1//EN" "http://www.w3.org/Graphics/SVG/1.1/DTD/svg11.dtd" >
<svg xmlns="http://www.w3.org/2000/svg">
<metadata>
This is a custom SVG webfont generated by Font Squirrel.
Copyright   : Copyright 2006 House IndustriesBrand Design Co Inc All Rights Reserved
Designer    : Tal Leming
Foundry     : House Industries
Foundry URL : httpwwwhouseindustriescom
</metadata>
<defs>
<font id="webfontM7oyPEa8" horiz-adv-x="911" >
<font-face units-per-em="2048" ascent="1556" descent="-492" />
<missing-glyph horiz-adv-x="391" />
<glyph unicode=" "  horiz-adv-x="391" />
<glyph unicode="&#x09;" horiz-adv-x="391" />
<glyph unicode="&#xa0;" horiz-adv-x="391" />
<glyph unicode="!" horiz-adv-x="442" d="M150 375v1038h143v-1038h-143zM150 0v233h143v-233h-143z" />
<glyph unicode="&#x22;" horiz-adv-x="593" d="M369 903v510h120v-510h-120zM102 903v510h123v-510h-123z" />
<glyph unicode="#" horiz-adv-x="872" d="M205 362v246h-150v109h150v344h-150v108h150v244h114v-244h232v244h117v-244h149v-108h-149v-344h149v-109h-149v-246h-117v246h-232v-246h-114zM319 717h232v344h-232v-344z" />
<glyph unicode="$" horiz-adv-x="905" d="M252 41l-158 158v207h142v-160l88 -86h254l92 90v340l-70 67h-362l-140 140v413l162 162h127v197h131v-197h131l158 -158v-204h-143v155l-89 88h-243l-90 -90v-313l67 -70h363l139 -137v-440l-160 -162h-133v-199h-133v199h-133z" />
<glyph unicode="%" horiz-adv-x="1243" d="M188 741l-118 119v434l118 119h248l117 -119v-434l-117 -119h-248zM248 838h127l57 57v365l-57 57h-127l-58 -57v-365zM807 0l-119 119v434l119 119h248l119 -119v-434l-119 -119h-248zM868 96h125l58 58v364l-58 57h-125l-57 -57v-364zM236 0l655 1413h113l-656 -1413 h-112z" />
<glyph unicode="&#x26;" horiz-adv-x="995" d="M270 0l-157 158v436l137 137l-135 137v387l157 158h416l158 -158v-188h-144v141l-86 86h-274l-84 -86v-305l109 -110h602v-121h-125v-514l-160 -158h-414zM342 121h272l86 86v465h-329l-115 -115v-350z" />
<glyph unicode="'" horiz-adv-x="327" d="M102 903v510h123v-510h-123z" />
<glyph unicode="(" horiz-adv-x="530" d="M305 -115l-166 166v1309l166 166h158v-119h-88l-92 -94v-1215l92 -94h88v-119h-158z" />
<glyph unicode=")" horiz-adv-x="530" d="M391 51l-166 -166h-157v119h88l92 94v1215l-92 94h-88v119h157l166 -166v-1309z" />
<glyph unicode="*" horiz-adv-x="661" d="M203 854l-86 64l153 184l-231 59l35 101l219 -91l-19 242h111l-16 -242l219 91l33 -101l-232 -59l154 -184l-84 -64l-129 203z" />
<glyph unicode="+" horiz-adv-x="690" d="M23 647v117h264v303h119v-303h262v-117h-262v-303h-119v303h-264z" />
<glyph unicode="," horiz-adv-x="366" d="M102 -195v80h52l18 19v96h-70v219h162v-342l-71 -72h-91z" />
<glyph unicode="-" horiz-adv-x="475" d="M25 643v125h426v-125h-426z" />
<glyph unicode="." horiz-adv-x="364" d="M100 0v215h164v-215h-164z" />
<glyph unicode="/" horiz-adv-x="532" d="M16 -129l373 1669h129l-377 -1669h-125z" />
<glyph unicode="0" horiz-adv-x="991" d="M289 0l-166 166v1081l166 166h413l166 -166v-1081l-166 -166h-413zM358 121h275l92 92v987l-92 92h-275l-92 -92v-987z" />
<glyph unicode="1" horiz-adv-x="741" d="M88 0v109h231v1196h-231v108h375v-1304h219v-109h-594z" />
<glyph unicode="2" horiz-adv-x="870" d="M92 0v598l141 139h345l67 68v401l-88 88h-235l-86 -86v-161h-144v208l160 158h375l161 -162v-491l-141 -142h-344l-67 -67v-430h546v-121h-690z" />
<glyph unicode="3" horiz-adv-x="931" d="M250 0l-162 162v233h141v-184l90 -90h273l86 86v350l-115 115h-323v121h325l111 110v305l-86 86h-271l-90 -92v-182h-141v231l162 162h412l157 -158v-387l-137 -137l137 -137v-436l-157 -158h-412z" />
<glyph unicode="4" horiz-adv-x="925" d="M618 0v399h-575v103l205 911h135l-188 -889h423v889h144v-889h110v-125h-110v-399h-144z" />
<glyph unicode="5" horiz-adv-x="901" d="M258 0l-156 158v237h144v-192l86 -84h250l88 88v512l-68 67h-248l-116 -116h-136v743h699v-121h-555v-481l94 94h332l141 -139v-604l-162 -162h-393z" />
<glyph unicode="6" horiz-adv-x="970" d="M289 0l-166 166v1081l166 166h413l160 -160v-221h-143v174l-86 86h-275l-92 -92v-434l92 94h349l157 -158v-536l-168 -166h-407zM358 121h269l94 92v442l-84 84h-262l-109 -108v-418z" />
<glyph unicode="7" horiz-adv-x="780" d="M279 0v502l309 788h-563v123h716v-98l-319 -813v-502h-143z" />
<glyph unicode="8" horiz-adv-x="980" d="M270 0l-157 158v438l137 137l-135 137v385l157 158h437l159 -158v-385l-137 -137l137 -137v-438l-157 -158h-441zM342 121h297l86 86v352l-113 115h-241l-115 -115v-352zM367 795h247l111 110v303l-86 86h-297l-84 -86v-303z" />
<glyph unicode="9" horiz-adv-x="970" d="M268 0l-159 160v233h141v-186l88 -86h272l95 92v465l-95 -94h-346l-158 155v508l166 166h408l168 -166v-1081l-168 -166h-412zM334 702h260l111 111v387l-95 92h-268l-92 -92v-414z" />
<glyph unicode=":" horiz-adv-x="385" d="M111 0v215h163v-215h-163zM111 629v217h163v-217h-163z" />
<glyph unicode=";" horiz-adv-x="389" d="M115 -195v80h51l18 19v96h-69v219h161v-342l-71 -72h-90zM115 627v219h161v-219h-161z" />
<glyph unicode="&#x3c;" horiz-adv-x="768" d="M694 324l-653 315v133l653 318v-132l-530 -253l530 -252v-129z" />
<glyph unicode="=" horiz-adv-x="729" d="M68 809v119h594v-119h-594zM68 477v119h594v-119h-594z" />
<glyph unicode="&#x3e;" horiz-adv-x="768" d="M727 639l-653 -315v129l530 252l-530 253v132l653 -318v-133z" />
<glyph unicode="?" horiz-adv-x="854" d="M305 375v284l123 123h168l41 43v381l-88 88h-262l-86 -86v-164h-142v211l158 158h401l162 -162v-473l-123 -123h-168l-43 -43v-237h-141zM305 0v236h141v-236h-141z" />
<glyph unicode="@" horiz-adv-x="1452" d="M328 -254l-215 215v1081l215 215h796l215 -215v-895l-147 -147h-254l-6 154l-152 -154h-250l-147 147v293l147 150h375v223l-80 80h-211l-73 -74v-110h-140v143l150 147h336l153 -153v-742h82l80 78v824l-143 143h-668l-143 -143v-1010l143 -143h713v-107h-776zM592 109 h168l145 143v233h-307l-80 -77v-226z" />
<glyph unicode="A" d="M29 0l321 1413h211l322 -1413h-142l-90 412h-397l-88 -412h-137zM453 1323l-172 -786h344z" />
<glyph unicode="B" horiz-adv-x="983" d="M137 0v1413h576l157 -158v-385l-137 -137l137 -137v-438l-157 -158h-576zM281 121h360l86 86v352l-115 115h-331v-553zM281 795h335l111 110v303l-86 86h-360v-499z" />
<glyph unicode="C" horiz-adv-x="921" d="M289 0l-166 166v1081l166 166h375l161 -162v-239h-141v190l-90 90h-236l-92 -92v-987l92 -92h236l90 90v197h141v-246l-161 -162h-375z" />
<glyph unicode="D" horiz-adv-x="987" d="M137 0v1413h561l166 -166v-1081l-166 -166h-561zM281 121h348l92 92v987l-92 92h-348v-1171z" />
<glyph unicode="E" horiz-adv-x="837" d="M137 0v1413h621v-121h-477v-522h444v-119h-444v-530h481v-121h-625z" />
<glyph unicode="F" horiz-adv-x="782" d="M137 0v1413h608v-121h-464v-532h432v-121h-432v-639h-144z" />
<glyph unicode="G" horiz-adv-x="964" d="M289 0l-166 166v1081l166 166h397l158 -158v-211h-144v164l-84 84h-258l-92 -92v-987l92 -92h258l93 92v385h-242v121h385v-553l-166 -166h-397z" />
<glyph unicode="H" horiz-adv-x="997" d="M137 0v1413h144v-645h436v645h143v-1413h-143v637h-436v-637h-144z" />
<glyph unicode="I" horiz-adv-x="679" d="M68 0v109h200v1196h-200v108h544v-108h-200v-1196h200v-109h-544z" />
<glyph unicode="J" horiz-adv-x="638" d="M29 0v121h241l95 92v1200h143v-1247l-168 -166h-311z" />
<glyph unicode="K" horiz-adv-x="960" d="M766 0l-283 698l-204 -364v-334h-144v1413h144v-864l466 864h150l-320 -588l343 -825h-152z" />
<glyph unicode="L" horiz-adv-x="759" d="M137 0v1413h144v-1292h432v-121h-576z" />
<glyph unicode="M" horiz-adv-x="1345" d="M137 0v1413h223l312 -1282l311 1282h225v-1413h-135v1303l-323 -1303h-166l-322 1303v-1303h-125z" />
<glyph unicode="N" horiz-adv-x="1013" d="M137 0v1413h133l480 -1120v1120h127v-1413h-134l-479 1126v-1126h-127z" />
<glyph unicode="O" horiz-adv-x="991" d="M289 0l-166 166v1081l166 166h413l166 -166v-1081l-166 -166h-413zM358 121h275l92 92v987l-92 92h-275l-92 -92v-987z" />
<glyph unicode="P" horiz-adv-x="913" d="M137 0v1413h551l162 -162v-514l-162 -162h-407v-575h-144zM281 694h337l91 90v420l-91 90h-337v-600z" />
<glyph unicode="Q" horiz-adv-x="991" d="M741 -291l-178 176v115h-274l-166 166v1081l166 166h413l166 -166v-1081l-163 -166v-68l129 -131zM358 121h275l92 92v987l-92 92h-275l-92 -92v-987z" />
<glyph unicode="R" horiz-adv-x="974" d="M137 0v1413h568l161 -162v-460l-149 -150l160 -641h-146l-151 623h-299v-623h-144zM281 743h350l92 93v368l-90 90h-352v-551z" />
<glyph unicode="S" horiz-adv-x="903" d="M250 0l-158 158v211h141v-164l86 -86h261l88 88v381l-68 67h-362l-140 142v454l162 162h387l160 -158v-208h-143v161l-86 86h-248l-90 -88v-362l67 -68h363l141 -141v-473l-162 -162h-399z" />
<glyph unicode="T" horiz-adv-x="825" d="M340 0v1292h-307v121h760v-121h-310v-1292h-143z" />
<glyph unicode="U" horiz-adv-x="976" d="M297 0l-166 166v1247h143v-1200l93 -92h241l94 92v1200h144v-1247l-168 -166h-381z" />
<glyph unicode="V" horiz-adv-x="841" d="M315 0l-286 1413h143l254 -1302l252 1302h135l-285 -1413h-213z" />
<glyph unicode="W" horiz-adv-x="1327" d="M246 0l-207 1413h139l176 -1282l219 1282h195l221 -1282l170 1282h129l-205 -1413h-192l-221 1282l-221 -1282h-203z" />
<glyph unicode="X" horiz-adv-x="894" d="M49 0l293 725l-285 688h146l243 -604l244 604h141l-290 -690l301 -723h-146l-254 629l-249 -629h-144z" />
<glyph unicode="Y" horiz-adv-x="866" d="M360 0v469l-335 944h151l260 -778l266 778h140l-338 -944v-469h-144z" />
<glyph unicode="Z" horiz-adv-x="796" d="M63 0v102l508 1190h-497v121h651v-102l-508 -1190h516v-121h-670z" />
<glyph unicode="[" horiz-adv-x="530" d="M143 -115v1641h320v-119h-178v-1403h178v-119h-320z" />
<glyph unicode="\" horiz-adv-x="532" d="M143 1540l373 -1669h-125l-377 1669h129z" />
<glyph unicode="]" horiz-adv-x="530" d="M387 1526v-1641h-319v119h178v1403h-178v119h319z" />
<glyph unicode="^" horiz-adv-x="743" d="M43 735l246 678h166l245 -678h-133l-194 580l-199 -580h-131z" />
<glyph unicode="_" horiz-adv-x="765" d="M-12 -180v96h788v-96h-788z" />
<glyph unicode="`" horiz-adv-x="501" d="M285 1096l-160 159v66h92l160 -160v-65h-92z" />
<glyph unicode="a" horiz-adv-x="870" d="M236 0l-148 147v293l150 150h372v223l-80 80h-211l-73 -74v-110h-137v143l147 147h338l154 -153v-846h-103l-8 154l-152 -154h-249zM297 109h170l143 143v233h-307l-80 -77v-226z" />
<glyph unicode="b" d="M133 0v1413h135v-553l142 139h235l154 -153v-692l-154 -154h-248l-155 156l-4 -156h-105zM424 109h156l82 81v621l-80 82h-148l-166 -166v-465z" />
<glyph unicode="c" horiz-adv-x="835" d="M266 0l-153 154v692l153 153h332l150 -149v-176h-138v141l-75 78h-205l-82 -82v-621l82 -81h205l75 77v142h138v-178l-150 -150h-332z" />
<glyph unicode="d" d="M266 0l-153 154v692l153 153h236l139 -139v553h137v-1413h-104l-6 154l-154 -154h-248zM330 109h157l154 153v465l-164 166h-147l-82 -82v-621z" />
<glyph unicode="e" horiz-adv-x="870" d="M266 0l-153 154v692l153 153h348l154 -153v-377h-520v-279l82 -81h231l72 71v117h135v-152l-143 -145h-359zM248 578h385v233l-82 82h-221l-82 -82v-233z" />
<glyph unicode="f" horiz-adv-x="585" d="M172 0v889h-129v110h129v267l147 147h259v-108h-195l-76 -74v-232h252v-110h-252v-889h-135z" />
<glyph unicode="g" d="M260 -350l-137 137v129h137v-96l64 -62h237l80 80v340l-137 -137h-238l-153 154v651l153 153h236l166 -163l6 163h104v-1196l-153 -153h-365zM330 150h159l152 151v426l-164 166h-147l-82 -82v-580z" />
<glyph unicode="h" horiz-adv-x="892" d="M133 0v1413h135v-553l142 139h206l154 -153v-846h-135v813l-82 80h-119l-166 -166v-727h-135z" />
<glyph unicode="i" horiz-adv-x="421" d="M279 0h-136v999h136v-999zM143 1169v213h136v-213h-136z" />
<glyph unicode="j" horiz-adv-x="421" d="M-82 -350v108h150l75 74v1167h136v-1202l-146 -147h-215zM143 1169v213h136v-213h-136z" />
<glyph unicode="k" horiz-adv-x="864" d="M668 0l-215 520l-189 -274v-246h-135v1413h135v-985l373 571h151l-251 -372l274 -627h-143z" />
<glyph unicode="l" horiz-adv-x="421" d="M279 0h-136v1413h136v-1413z" />
<glyph unicode="m" horiz-adv-x="1339" d="M133 0v999h105l6 -163l164 163h174l139 -137l139 137h203l154 -153v-846h-138v813l-80 80h-114l-144 -143v-750h-135v813l-80 80h-90l-168 -166v-727h-135z" />
<glyph unicode="n" horiz-adv-x="892" d="M133 0v999h105l6 -163l164 163h208l154 -153v-846h-135v813l-82 80h-117l-168 -166v-727h-135z" />
<glyph unicode="o" horiz-adv-x="886" d="M266 0l-153 154v692l153 153h355l153 -153v-692l-153 -154h-355zM330 109h227l82 81v621l-82 82h-227l-82 -82v-621z" />
<glyph unicode="p" d="M133 -350v1349h105l6 -161l162 161h239l154 -153v-692l-154 -154h-246l-131 131v-481h-135zM426 109h154l82 81v621l-80 82h-150l-164 -164v-465z" />
<glyph unicode="q" d="M641 -350v481l-129 -131h-246l-153 154v692l153 153h238l164 -161l6 161h104v-1349h-137zM330 109h155l156 155v465l-164 164h-147l-82 -82v-621z" />
<glyph unicode="r" horiz-adv-x="616" d="M133 0v999h105l6 -172l172 172h157v-118h-135l-170 -170v-711h-135z" />
<glyph unicode="s" horiz-adv-x="841" d="M233 0l-135 135v156h135v-119l64 -63h235l74 73v221l-43 46h-344l-115 114v291l148 145h348l137 -135v-153h-137v118l-63 64h-222l-75 -76v-219l43 -43h344l116 -117v-291l-147 -147h-363z" />
<glyph unicode="t" horiz-adv-x="659" d="M328 0l-154 154v735h-135v110h135v301h135v-301h283v-110h-283v-699l80 -79h203v-111h-264z" />
<glyph unicode="u" horiz-adv-x="892" d="M276 0l-153 154v845h135v-811l82 -79h117l168 165v725h135v-999h-105l-6 166l-166 -166h-207z" />
<glyph unicode="v" horiz-adv-x="749" d="M274 0l-249 999h135l219 -911l219 911h127l-250 -999h-201z" />
<glyph unicode="w" horiz-adv-x="1173" d="M205 0l-180 999h131l151 -909l197 909h178l192 -907l158 907h117l-180 -999h-189l-188 901l-193 -901h-194z" />
<glyph unicode="x" horiz-adv-x="782" d="M606 0l-219 426l-215 -426h-137l270 508l-258 491h143l203 -409l211 409h129l-258 -485l273 -514h-142z" />
<glyph unicode="y" horiz-adv-x="749" d="M274 0l-249 999h135l219 -913l219 913h127l-307 -1232l-117 -117h-248v108h187l69 70l45 172h-80z" />
<glyph unicode="z" horiz-adv-x="712" d="M57 0v86l439 803h-430v110h583v-86l-438 -802h442v-111h-596z" />
<glyph unicode="{" horiz-adv-x="577" d="M354 -115l-168 166v545l-65 66h-96v126h92l69 70v502l168 166h156v-119h-86l-94 -94v-484l-103 -102l103 -102v-527l94 -94h86v-119h-156z" />
<glyph unicode="|" horiz-adv-x="487" d="M176 -129v1669h137v-1669h-137z" />
<glyph unicode="}" horiz-adv-x="577" d="M391 51l-168 -166h-155v119h86l94 94v527l102 102l-102 102v484l-94 94h-86v119h155l168 -166v-502l70 -70h92v-126h-96l-66 -66v-545z" />
<glyph unicode="~" horiz-adv-x="788" d="M47 1135v155l123 123h162l184 -184h45l70 69v115h110v-158l-123 -120h-161l-185 184h-45l-69 -70v-114h-111z" />
<glyph unicode="&#xa1;" horiz-adv-x="442" d="M293 1038v-1038h-143v1038h143zM293 1413v-233h-143v233h143z" />
<glyph unicode="&#xa2;" horiz-adv-x="897" d="M272 141l-166 166v801l166 168h125v182h131v-182h125l162 -162v-231h-143v182l-90 92h-236l-96 -96v-707l96 -96h236l90 92v189h143v-236l-162 -162h-125v-188h-131v188h-125z" />
<glyph unicode="&#xa3;" horiz-adv-x="917" d="M80 0v115l96 96v418h-104v125h104v493l168 166h344l162 -162v-247h-141v198l-91 90h-204l-95 -92v-446h324v-125h-324v-428l-81 -80h612v-121h-770z" />
<glyph unicode="&#xa5;" horiz-adv-x="866" d="M78 459v102h250l-303 852h153l258 -776l264 776h142l-305 -852h251v-102h-284v-123h284v-100h-284v-236h-144v236h-282v100h282v123h-282z" />
<glyph unicode="&#xa7;" horiz-adv-x="917" d="M254 -203l-156 158v254h144v-207l84 -86h262l88 88v408h-518l-54 53v63h715v-569l-160 -162h-405zM104 692v559l162 162h389l160 -158v-251h-143v204l-86 86h-250l-88 -88v-395h514l51 -53v-66h-709z" />
<glyph unicode="&#xa8;" horiz-adv-x="618" d="M381 1118v172h115v-172h-115zM125 1118v172h113v-172h-113z" />
<glyph unicode="&#xa9;" horiz-adv-x="1296" d="M510 231l-119 121v709l121 121h268l123 -121v-213h-141v174l-43 41h-144l-45 -43v-627l45 -45h144l43 43v172h141v-211l-121 -121h-272zM289 0l-166 166v1081l166 166h719l166 -166v-1081l-166 -166h-719zM356 109h584l100 102v991l-100 103h-584l-100 -103v-991z" />
<glyph unicode="&#xaa;" horiz-adv-x="632" d="M186 707l-116 116v181l116 116h260v140l-57 57h-141l-51 -51v-47h-115v79l115 115h249l117 -119v-587h-84l-6 102l-102 -102h-185zM244 801h104l98 96v129h-204l-54 -53v-117z" />
<glyph unicode="&#xab;" horiz-adv-x="673" d="M244 299l-205 412l205 415h127l-205 -415l205 -412h-127zM496 299l-207 412l207 415h127l-207 -415l207 -412h-127z" />
<glyph unicode="&#xad;" horiz-adv-x="475" d="M25 643v125h426v-125h-426z" />
<glyph unicode="&#xae;" horiz-adv-x="774" d="M244 766v487h219l72 -69v-162l-60 -59l68 -197h-78l-62 182h-81v-182h-78zM186 606l-127 127v553l127 127h400l129 -127v-553l-129 -127h-400zM223 674h328l80 82v510l-80 77h-328l-80 -77v-510zM322 1014h98l37 37v104l-35 33h-100v-174z" />
<glyph unicode="&#xaf;" horiz-adv-x="636" d="M125 1157v100h389v-100h-389z" />
<glyph unicode="&#xb0;" horiz-adv-x="509" d="M154 967l-95 94v256l95 96h202l95 -96v-256l-95 -94h-202zM193 1044h124l39 39v211l-39 41h-124l-39 -41v-211z" />
<glyph unicode="&#xb2;" horiz-adv-x="614" d="M70 711v282l90 92h233l41 41v138l-55 55h-139l-54 -53v-74h-114v115l106 106h264l107 -108v-228l-90 -90h-232l-41 -41v-139h361v-96h-477z" />
<glyph unicode="&#xb3;" horiz-adv-x="634" d="M178 711l-108 104v113h116v-74l54 -53h145l61 59v121l-38 39h-209v90h209l38 39v119l-55 55h-151l-54 -53v-78h-116v115l108 106h277l106 -108v-170l-67 -68l67 -68v-182l-106 -106h-277z" />
<glyph unicode="&#xb4;" horiz-adv-x="501" d="M125 1096v65l160 160h92v-66l-160 -159h-92z" />
<glyph unicode="&#xb6;" horiz-adv-x="1198" d="M313 432h287v862h-287l-90 -90v-682zM918 1294h-175v-1499h-143v520h-358l-162 162v774l162 162h819v-1618h-143v1499z" />
<glyph unicode="&#xb7;" horiz-adv-x="385" d="M111 629v217h163v-217h-163z" />
<glyph unicode="&#xb8;" horiz-adv-x="532" d="M125 -319v73h162l24 25v45l-24 24h-76l-39 39v113h94v-82h78l64 -63v-111l-64 -63h-219z" />
<glyph unicode="&#xb9;" horiz-adv-x="530" d="M59 711v92h160v518h-160v92h275v-610h151v-92h-426z" />
<glyph unicode="&#xba;" horiz-adv-x="632" d="M188 707l-118 116v471l118 119h258l117 -119v-471l-117 -116h-258zM246 803h143l57 57v400l-57 57h-143l-58 -57v-400z" />
<glyph unicode="&#xbb;" horiz-adv-x="673" d="M635 711l-205 -412h-127l205 412l-205 415h127zM385 711l-207 -412h-127l207 412l-207 415h127z" />
<glyph unicode="&#xbc;" horiz-adv-x="1337" d="M59 711v92h160v518h-160v92h275v-610h151v-92h-426zM272 0l656 1413h112l-655 -1413h-113zM1104 2v170h-363v74l140 459h112l-125 -437h236v437h113v-437h75v-96h-75v-170h-113z" />
<glyph unicode="&#xbd;" horiz-adv-x="1320" d="M59 711v92h160v518h-160v92h275v-610h151v-92h-426zM272 0l656 1413h112l-655 -1413h-113zM774 2v283l90 92h234l41 41v137l-56 55h-139l-53 -53v-74h-115v115l107 107h264l106 -109v-227l-90 -90h-231l-41 -41v-140h360v-96h-477z" />
<glyph unicode="&#xbe;" horiz-adv-x="1374" d="M178 711l-108 104v113h116v-74l54 -53h145l61 59v121l-38 39h-209v90h209l38 39v119l-55 55h-151l-54 -53v-78h-116v115l108 106h277l106 -108v-170l-67 -68l67 -68v-182l-106 -106h-277zM309 0l656 1413h112l-655 -1413h-113zM1141 2v170h-363v74l140 459h112l-125 -437 h236v437h112v-437h76v-96h-76v-170h-112z" />
<glyph unicode="&#xbf;" horiz-adv-x="854" d="M549 1038v-284l-123 -123h-168l-41 -43v-381l88 -88h262l86 86v164h142v-211l-158 -158h-401l-162 162v473l123 123h168l43 43v237h141zM549 1413v-235h-141v235h141z" />
<glyph unicode="&#xc0;" d="M29 0l321 1413h211l322 -1413h-142l-90 412h-397l-88 -412h-137zM453 1323l-172 -786h344zM449 1513l-160 160v66h92l160 -160v-66h-92z" />
<glyph unicode="&#xc1;" d="M29 0l321 1413h211l322 -1413h-142l-90 412h-397l-88 -412h-137zM453 1323l-172 -786h344zM369 1513v66l159 160h93v-66l-160 -160h-92z" />
<glyph unicode="&#xc2;" d="M29 0l321 1413h211l322 -1413h-142l-90 412h-397l-88 -412h-137zM453 1323l-172 -786h344zM236 1528v57l149 152h139l152 -152v-57h-78l-133 131h-21l-133 -131h-75z" />
<glyph unicode="&#xc3;" d="M29 0l321 1413h211l322 -1413h-142l-90 412h-397l-88 -412h-137zM453 1323l-172 -786h344zM219 1528v106l78 80h131l100 -102h39l29 26v76h96v-106l-80 -80h-129l-102 102h-39l-27 -26v-76h-96z" />
<glyph unicode="&#xc4;" d="M29 0l321 1413h211l322 -1413h-142l-90 412h-397l-88 -412h-137zM453 1323l-172 -786h344zM526 1536v172h115v-172h-115zM270 1536v172h113v-172h-113z" />
<glyph unicode="&#xc5;" d="M29 0l321 1413h211l322 -1413h-142l-90 412h-397l-88 -412h-137zM453 1323l-172 -786h344zM365 1493l-66 68v141l66 67h182l65 -65v-143l-65 -68h-182zM403 1552h103l31 29v100l-31 29h-103l-30 -29v-100z" />
<glyph unicode="&#xc6;" horiz-adv-x="1271" d="M29 0l321 1413h844v-121h-606l119 -522h452v-119h-426l121 -530h342v-121h-455l-90 412h-397l-88 -412h-137zM453 1323l-172 -786h344z" />
<glyph unicode="&#xc7;" horiz-adv-x="921" d="M289 0l-166 166v1081l166 166h375l161 -162v-239h-141v190l-90 90h-236l-92 -92v-987l92 -92h236l90 90v197h141v-246l-161 -162h-162v-82h78l63 -63v-111l-63 -63h-220v73h162l25 25v45l-25 24h-76l-38 39v113h-119z" />
<glyph unicode="&#xc8;" horiz-adv-x="837" d="M137 0v1413h621v-121h-477v-522h444v-119h-444v-530h481v-121h-625zM442 1513l-159 160v66h92l160 -160v-66h-93z" />
<glyph unicode="&#xc9;" horiz-adv-x="837" d="M137 0v1413h621v-121h-477v-522h444v-119h-444v-530h481v-121h-625zM362 1513v66l160 160h92v-66l-159 -160h-93z" />
<glyph unicode="&#xca;" horiz-adv-x="837" d="M229 1528v57l150 152h139l152 -152v-57h-78l-133 131h-21l-133 -131h-76zM137 0v1413h621v-121h-477v-522h444v-119h-444v-530h481v-121h-625z" />
<glyph unicode="&#xcb;" horiz-adv-x="837" d="M520 1536v172h115v-172h-115zM264 1536v172h113v-172h-113zM137 0v1413h621v-121h-477v-522h444v-119h-444v-530h481v-121h-625z" />
<glyph unicode="&#xcc;" horiz-adv-x="679" d="M68 0v109h200v1196h-200v108h544v-108h-200v-1196h200v-109h-544zM332 1513l-160 160v66h92l160 -160v-66h-92z" />
<glyph unicode="&#xcd;" horiz-adv-x="679" d="M68 0v109h200v1196h-200v108h544v-108h-200v-1196h200v-109h-544zM254 1513v66l160 160h92v-66l-160 -160h-92z" />
<glyph unicode="&#xce;" horiz-adv-x="679" d="M68 0v109h200v1196h-200v108h544v-108h-200v-1196h200v-109h-544zM121 1528v57l149 152h140l151 -152v-57h-78l-133 131h-20l-133 -131h-76z" />
<glyph unicode="&#xcf;" horiz-adv-x="679" d="M68 0v109h200v1196h-200v108h544v-108h-200v-1196h200v-109h-544zM410 1536v172h114v-172h-114zM154 1536v172h112v-172h-112z" />
<glyph unicode="&#xd0;" horiz-adv-x="1011" d="M45 637v131h117v645h561l166 -166v-1081l-166 -166h-561v637h-117zM305 121h348l92 92v987l-92 92h-348v-524h205v-131h-205v-516z" />
<glyph unicode="&#xd1;" horiz-adv-x="1013" d="M137 0v1413h133l480 -1120v1120h127v-1413h-134l-479 1126v-1126h-127zM270 1528v106l78 80h131l101 -102h38l29 26v76h96v-106l-79 -80h-129l-103 102h-39l-26 -26v-76h-97z" />
<glyph unicode="&#xd2;" horiz-adv-x="991" d="M289 0l-166 166v1081l166 166h413l166 -166v-1081l-166 -166h-413zM358 121h275l92 92v987l-92 92h-275l-92 -92v-987zM487 1513l-159 160v66h92l160 -160v-66h-93z" />
<glyph unicode="&#xd3;" horiz-adv-x="991" d="M410 1513v66l159 160h93v-66l-160 -160h-92zM289 0l-166 166v1081l166 166h413l166 -166v-1081l-166 -166h-413zM358 121h275l92 92v987l-92 92h-275l-92 -92v-987z" />
<glyph unicode="&#xd4;" horiz-adv-x="991" d="M274 1528v57l150 152h139l152 -152v-57h-78l-133 131h-21l-133 -131h-76zM289 0l-166 166v1081l166 166h413l166 -166v-1081l-166 -166h-413zM358 121h275l92 92v987l-92 92h-275l-92 -92v-987z" />
<glyph unicode="&#xd5;" horiz-adv-x="991" d="M289 0l-166 166v1081l166 166h413l166 -166v-1081l-166 -166h-413zM358 121h275l92 92v987l-92 92h-275l-92 -92v-987zM260 1528v106l78 80h131l100 -102h39l29 26v76h96v-106l-80 -80h-129l-102 102h-39l-27 -26v-76h-96z" />
<glyph unicode="&#xd6;" horiz-adv-x="991" d="M565 1536v172h115v-172h-115zM309 1536v172h113v-172h-113zM289 0l-166 166v1081l166 166h413l166 -166v-1081l-166 -166h-413zM358 121h275l92 92v987l-92 92h-275l-92 -92v-987z" />
<glyph unicode="&#xd7;" horiz-adv-x="747" d="M135 383l-80 80l238 237l-238 240l82 80l236 -240l239 240l80 -80l-239 -240l239 -237l-80 -80l-239 238z" />
<glyph unicode="&#xd8;" horiz-adv-x="991" d="M289 0l-166 166v1081l166 166h413l166 -166v-1081l-166 -166h-413zM358 121h275l92 92v987l-10 10l-363 -1083zM276 203l363 1083l-6 6h-275l-92 -92v-987z" />
<glyph unicode="&#xd9;" horiz-adv-x="976" d="M297 0l-166 166v1247h143v-1200l93 -92h241l94 92v1200h144v-1247l-168 -166h-381zM481 1513l-159 160v66h92l159 -160v-66h-92z" />
<glyph unicode="&#xda;" horiz-adv-x="976" d="M401 1513v66l160 160h92v-66l-159 -160h-93zM297 0l-166 166v1247h143v-1200l93 -92h241l94 92v1200h144v-1247l-168 -166h-381z" />
<glyph unicode="&#xdb;" horiz-adv-x="976" d="M268 1528v57l150 152h139l152 -152v-57h-78l-133 131h-21l-133 -131h-76zM297 0l-166 166v1247h143v-1200l93 -92h241l94 92v1200h144v-1247l-168 -166h-381z" />
<glyph unicode="&#xdc;" horiz-adv-x="976" d="M559 1536v172h115v-172h-115zM303 1536v172h113v-172h-113zM297 0l-166 166v1247h143v-1200l93 -92h241l94 92v1200h144v-1247l-168 -166h-381z" />
<glyph unicode="&#xdd;" horiz-adv-x="866" d="M360 0v469l-335 944h151l260 -778l266 778h140l-338 -944v-469h-144zM346 1513v66l160 160h92v-66l-160 -160h-92z" />
<glyph unicode="&#xde;" horiz-adv-x="917" d="M137 0v1413h144v-254h407l162 -162v-514l-162 -161h-407v-322h-144zM281 440h337l91 90v420l-91 90h-337v-600z" />
<glyph unicode="&#xdf;" horiz-adv-x="946" d="M133 0v1260l154 153h399l154 -153v-412l-101 -100l101 -101v-493l-154 -154h-307v109h244l82 81v433l-74 73h-252v107h254l72 69v353l-82 80h-273l-82 -82v-1223h-135z" />
<glyph unicode="&#xe0;" horiz-adv-x="870" d="M236 0l-148 147v293l150 150h372v223l-80 80h-211l-73 -74v-110h-137v143l147 147h338l154 -153v-846h-103l-8 154l-152 -154h-249zM297 109h170l143 143v233h-307l-80 -77v-226zM410 1096l-160 159v66h92l160 -160v-65h-92z" />
<glyph unicode="&#xe1;" horiz-adv-x="870" d="M236 0l-148 147v293l150 150h372v223l-80 80h-211l-73 -74v-110h-137v143l147 147h338l154 -153v-846h-103l-8 154l-152 -154h-249zM297 109h170l143 143v233h-307l-80 -77v-226zM332 1096v65l160 160h92v-66l-160 -159h-92z" />
<glyph unicode="&#xe2;" horiz-adv-x="870" d="M236 0l-148 147v293l150 150h372v223l-80 80h-211l-73 -74v-110h-137v143l147 147h338l154 -153v-846h-103l-8 154l-152 -154h-249zM297 109h170l143 143v233h-307l-80 -77v-226zM197 1110v57l149 152h139l152 -152v-57h-78l-133 131h-20l-134 -131h-75z" />
<glyph unicode="&#xe3;" horiz-adv-x="870" d="M236 0l-148 147v293l150 150h372v223l-80 80h-211l-73 -74v-110h-137v143l147 147h338l154 -153v-846h-103l-8 154l-152 -154h-249zM297 109h170l143 143v233h-307l-80 -77v-226zM182 1110v107l78 79h131l101 -102h38l29 27v75h96v-106l-80 -80h-129l-102 102h-39 l-26 -26v-76h-97z" />
<glyph unicode="&#xe4;" horiz-adv-x="870" d="M236 0l-148 147v293l150 150h372v223l-80 80h-211l-73 -74v-110h-137v143l147 147h338l154 -153v-846h-103l-8 154l-152 -154h-249zM297 109h170l143 143v233h-307l-80 -77v-226zM487 1118v172h115v-172h-115zM231 1118v172h113v-172h-113z" />
<glyph unicode="&#xe5;" horiz-adv-x="870" d="M236 0l-148 147v293l150 150h372v223l-80 80h-211l-73 -74v-110h-137v143l147 147h338l154 -153v-846h-103l-8 154l-152 -154h-249zM297 109h170l143 143v233h-307l-80 -77v-226zM326 1075l-66 68v141l66 68h182l65 -66v-143l-65 -68h-182zM365 1135h102l31 28v101 l-31 28h-102l-31 -28v-101z" />
<glyph unicode="&#xe6;" horiz-adv-x="1368" d="M236 0l-148 147v281l150 147h372v238l-80 80h-211l-73 -74v-110h-137v143l147 147h322l100 -100l102 100h332l154 -153v-375h-518v-281l79 -81h232l71 71v117h136v-152l-144 -145h-342l-102 102l-100 -102h-342zM297 109h233l80 79v283h-309l-78 -78v-211zM748 575h382 v236l-81 82h-222l-79 -82v-236z" />
<glyph unicode="&#xe7;" horiz-adv-x="835" d="M266 0l-153 154v692l153 153h332l150 -149v-176h-138v141l-75 78h-205l-82 -82v-621l82 -81h205l75 77v142h138v-178l-150 -150h-141v-82h78l63 -63v-111l-63 -63h-220v73h162l25 25v45l-25 24h-76l-39 39v113h-96z" />
<glyph unicode="&#xe8;" horiz-adv-x="870" d="M266 0l-153 154v692l153 153h348l154 -153v-377h-520v-279l82 -81h231l72 71v117h135v-152l-143 -145h-359zM248 578h385v233l-82 82h-221l-82 -82v-233zM434 1096l-160 159v66h93l159 -160v-65h-92z" />
<glyph unicode="&#xe9;" horiz-adv-x="870" d="M266 0l-153 154v692l153 153h348l154 -153v-377h-520v-279l82 -81h231l72 71v117h135v-152l-143 -145h-359zM248 578h385v233l-82 82h-221l-82 -82v-233zM354 1096v65l160 160h92v-66l-160 -159h-92z" />
<glyph unicode="&#xea;" horiz-adv-x="870" d="M221 1110v57l150 152h139l152 -152v-57h-78l-133 131h-21l-133 -131h-76zM266 0l-153 154v692l153 153h348l154 -153v-377h-520v-279l82 -81h231l72 71v117h135v-152l-143 -145h-359zM248 578h385v233l-82 82h-221l-82 -82v-233z" />
<glyph unicode="&#xeb;" horiz-adv-x="870" d="M512 1118v172h115v-172h-115zM256 1118v172h113v-172h-113zM266 0l-153 154v692l153 153h348l154 -153v-377h-520v-279l82 -81h231l72 71v117h135v-152l-143 -145h-359zM248 578h385v233l-82 82h-221l-82 -82v-233z" />
<glyph unicode="&#xec;" horiz-adv-x="421" d="M279 0h-136v999h136v-999zM205 1096l-160 159v66h92l160 -160v-65h-92z" />
<glyph unicode="&#xed;" horiz-adv-x="421" d="M279 0h-136v999h136v-999zM125 1096v65l160 160h92v-66l-160 -159h-92z" />
<glyph unicode="&#xee;" horiz-adv-x="421" d="M-8 1110v57l149 152h140l151 -152v-57h-78l-133 131h-20l-133 -131h-76zM279 0h-136v999h136v-999z" />
<glyph unicode="&#xef;" horiz-adv-x="421" d="M283 1118v172h114v-172h-114zM27 1118v172h112v-172h-112zM279 0h-136v999h136v-999z" />
<glyph unicode="&#xf0;" horiz-adv-x="892" d="M266 0l-153 154v692l153 153h236l139 -139v260l-266 266v27h147l236 -235l123 122h24v-122l-127 -127v-897l-153 -154h-359zM330 109h231l80 81v537l-164 166h-147l-82 -82v-621z" />
<glyph unicode="&#xf1;" horiz-adv-x="892" d="M133 0v999h105l6 -163l164 163h208l154 -153v-846h-135v813l-82 80h-117l-168 -166v-727h-135zM229 1110v107l78 79h131l101 -102h39l28 27v75h96v-106l-79 -80h-129l-103 102h-39l-26 -26v-76h-97z" />
<glyph unicode="&#xf2;" horiz-adv-x="886" d="M266 0l-153 154v692l153 153h355l153 -153v-692l-153 -154h-355zM330 109h227l82 81v621l-82 82h-227l-82 -82v-621zM436 1096l-160 159v66h93l159 -160v-65h-92z" />
<glyph unicode="&#xf3;" horiz-adv-x="886" d="M266 0l-153 154v692l153 153h355l153 -153v-692l-153 -154h-355zM330 109h227l82 81v621l-82 82h-227l-82 -82v-621zM356 1096v65l160 160h92v-66l-159 -159h-93z" />
<glyph unicode="&#xf4;" horiz-adv-x="886" d="M223 1110v57l150 152h139l152 -152v-57h-78l-133 131h-21l-133 -131h-76zM266 0l-153 154v692l153 153h355l153 -153v-692l-153 -154h-355zM330 109h227l82 81v621l-82 82h-227l-82 -82v-621z" />
<glyph unicode="&#xf5;" horiz-adv-x="886" d="M266 0l-153 154v692l153 153h355l153 -153v-692l-153 -154h-355zM330 109h227l82 81v621l-82 82h-227l-82 -82v-621zM207 1110v107l78 79h131l100 -102h39l29 27v75h96v-106l-80 -80h-129l-102 102h-39l-27 -26v-76h-96z" />
<glyph unicode="&#xf6;" horiz-adv-x="886" d="M514 1118v172h115v-172h-115zM258 1118v172h113v-172h-113zM266 0l-153 154v692l153 153h355l153 -153v-692l-153 -154h-355zM330 109h227l82 81v621l-82 82h-227l-82 -82v-621z" />
<glyph unicode="&#xf7;" horiz-adv-x="724" d="M297 340v168h131v-168h-131zM39 645v119h647v-119h-647zM297 897v168h131v-168h-131z" />
<glyph unicode="&#xf8;" horiz-adv-x="886" d="M266 0l-153 154v692l153 153h355l153 -153v-692l-153 -154h-355zM330 109h227l82 81v621l-10 10l-310 -702zM258 180l309 703l-10 10h-227l-82 -82v-621z" />
<glyph unicode="&#xf9;" horiz-adv-x="892" d="M276 0l-153 154v845h135v-811l82 -79h117l168 165v725h135v-999h-105l-6 166l-166 -166h-207zM434 1096l-160 159v66h93l159 -160v-65h-92z" />
<glyph unicode="&#xfa;" horiz-adv-x="892" d="M276 0l-153 154v845h135v-811l82 -79h117l168 165v725h135v-999h-105l-6 166l-166 -166h-207zM354 1096v65l160 160h92v-66l-160 -159h-92z" />
<glyph unicode="&#xfb;" horiz-adv-x="892" d="M221 1110v57l150 152h139l152 -152v-57h-78l-133 131h-21l-133 -131h-76zM276 0l-153 154v845h135v-811l82 -79h117l168 165v725h135v-999h-105l-6 166l-166 -166h-207z" />
<glyph unicode="&#xfc;" horiz-adv-x="892" d="M512 1118v172h115v-172h-115zM256 1118v172h113v-172h-113zM276 0l-153 154v845h135v-811l82 -79h117l168 165v725h135v-999h-105l-6 166l-166 -166h-207z" />
<glyph unicode="&#xfd;" horiz-adv-x="749" d="M274 0l-249 999h135l219 -913l219 913h127l-307 -1232l-117 -117h-248v108h187l69 70l45 172h-80zM289 1096v65l160 160h92v-66l-160 -159h-92z" />
<glyph unicode="&#xfe;" d="M133 -350v1763h135v-553l142 139h235l154 -153v-692l-154 -154h-246l-131 131v-481h-135zM426 109h154l82 81v621l-82 82h-148l-164 -164v-465z" />
<glyph unicode="&#xff;" horiz-adv-x="749" d="M274 0l-249 999h135l219 -913l219 913h127l-307 -1232l-117 -117h-248v108h187l69 70l45 172h-80zM444 1118v172h115v-172h-115zM188 1118v172h113v-172h-113z" />
<glyph unicode="&#x100;" d="M29 0l321 1413h211l322 -1413h-142l-90 412h-397l-88 -412h-137zM453 1323l-172 -786h344zM262 1575v100h389v-100h-389z" />
<glyph unicode="&#x101;" horiz-adv-x="870" d="M236 0l-148 147v293l150 150h372v223l-80 80h-211l-73 -74v-110h-137v143l147 147h338l154 -153v-846h-103l-8 154l-152 -154h-249zM297 109h170l143 143v233h-307l-80 -77v-226zM223 1157v100h389v-100h-389z" />
<glyph unicode="&#x102;" d="M29 0l321 1413h211l322 -1413h-142l-90 412h-397l-88 -412h-137zM453 1323l-172 -786h344zM326 1536l-78 80v96h104v-63l29 -31h149l31 31v63h105v-96l-80 -80h-260z" />
<glyph unicode="&#x103;" horiz-adv-x="870" d="M236 0l-148 147v293l150 150h372v223l-80 80h-211l-73 -74v-110h-137v143l147 147h338l154 -153v-846h-103l-8 154l-152 -154h-249zM297 109h170l143 143v233h-307l-80 -77v-226zM287 1118l-78 80v96h104v-63l29 -31h150l30 31v63h105v-96l-80 -80h-260z" />
<glyph unicode="&#x104;" d="M29 0l321 1413h211l322 -1413h-37l-137 -137v-78l30 -31h107v-73h-170l-62 61v139l125 125l-88 406h-397l-88 -412h-137zM453 1323l-172 -786h344z" />
<glyph unicode="&#x105;" horiz-adv-x="870" d="M236 0l-148 147v293l150 150h372v223l-80 80h-211l-73 -74v-110h-137v143l147 147h338l154 -153v-846l-138 -137v-78l29 -31h109v-73h-173l-61 63v137l129 129l-6 144l-152 -154h-249zM297 109h170l143 143v233h-307l-80 -77v-226z" />
<glyph unicode="&#x106;" horiz-adv-x="921" d="M387 1513v66l160 160h92v-66l-160 -160h-92zM289 0l-166 166v1081l166 166h375l161 -162v-239h-141v190l-90 90h-236l-92 -92v-987l92 -92h236l90 90v197h141v-246l-161 -162h-375z" />
<glyph unicode="&#x107;" horiz-adv-x="835" d="M344 1096v65l160 160h92v-66l-160 -159h-92zM266 0l-153 154v692l153 153h332l150 -149v-176h-138v141l-75 78h-205l-82 -82v-621l82 -81h205l75 77v142h138v-178l-150 -150h-332z" />
<glyph unicode="&#x108;" horiz-adv-x="921" d="M254 1528v57l149 152h140l151 -152v-57h-78l-133 131h-20l-133 -131h-76zM289 0l-166 166v1081l166 166h375l161 -162v-239h-141v190l-90 90h-236l-92 -92v-987l92 -92h236l90 90v197h141v-246l-161 -162h-375z" />
<glyph unicode="&#x109;" horiz-adv-x="835" d="M209 1110v57l149 152h140l151 -152v-57h-78l-133 131h-20l-133 -131h-76zM266 0l-153 154v692l153 153h332l150 -149v-176h-138v141l-75 78h-205l-82 -82v-621l82 -81h205l75 77v142h138v-178l-150 -150h-332z" />
<glyph unicode="&#x10c;" horiz-adv-x="921" d="M403 1528l-149 149v60h76l133 -133h20l133 133h78v-60l-151 -149h-140zM289 0l-166 166v1081l166 166h375l161 -162v-239h-141v190l-90 90h-236l-92 -92v-987l92 -92h236l90 90v197h141v-246l-161 -162h-375z" />
<glyph unicode="&#x10d;" horiz-adv-x="835" d="M358 1110l-149 150v59h76l133 -133h20l133 133h78v-59l-151 -150h-140zM266 0l-153 154v692l153 153h332l150 -149v-176h-138v141l-75 78h-205l-82 -82v-621l82 -81h205l75 77v142h138v-178l-150 -150h-332z" />
<glyph unicode="&#x10e;" horiz-adv-x="987" d="M406 1528l-150 149v60h76l133 -133h20l133 133h78v-60l-151 -149h-139zM137 0v1413h561l166 -166v-1081l-166 -166h-561zM281 121h348l92 92v987l-92 92h-348v-1171z" />
<glyph unicode="&#x10f;" d="M877 1163v248h108v-207l-43 -41h-65zM266 0l-153 154v692l153 153h236l139 -139v553h137v-1413h-104l-6 154l-154 -154h-248zM330 109h157l154 153v465l-164 166h-147l-82 -82v-621z" />
<glyph unicode="&#x110;" horiz-adv-x="1011" d="M45 637v131h117v645h561l166 -166v-1081l-166 -166h-561v637h-117zM305 121h348l92 92v987l-92 92h-348v-524h205v-131h-205v-516z" />
<glyph unicode="&#x111;" d="M465 1141v112h176v160h137v-160h99v-112h-99v-1141h-104l-6 156l-154 -156h-248l-153 154v692l153 153h236l139 -139v281h-176zM330 109h157l154 153v465l-164 166h-147l-82 -82v-621z" />
<glyph unicode="&#x112;" horiz-adv-x="837" d="M137 0v1413h621v-121h-477v-522h444v-119h-444v-530h481v-121h-625zM256 1575v100h389v-100h-389z" />
<glyph unicode="&#x113;" horiz-adv-x="870" d="M266 0l-153 154v692l153 153h348l154 -153v-377h-520v-279l82 -81h231l72 71v117h135v-152l-143 -145h-359zM248 578h385v233l-82 82h-221l-82 -82v-233zM246 1157v100h389v-100h-389z" />
<glyph unicode="&#x116;" horiz-adv-x="837" d="M137 0v1413h621v-121h-477v-522h444v-119h-444v-530h481v-121h-625zM399 1534l-39 39v106l39 39h99l39 -39v-106l-39 -39h-99z" />
<glyph unicode="&#x117;" horiz-adv-x="870" d="M266 0l-153 154v692l153 153h348l154 -153v-377h-520v-279l82 -81h231l72 71v117h135v-152l-143 -145h-359zM248 578h385v233l-82 82h-221l-82 -82v-233zM391 1116l-39 39v107l39 38h98l39 -38v-107l-39 -39h-98z" />
<glyph unicode="&#x118;" horiz-adv-x="837" d="M137 0v1413h621v-121h-477v-522h444v-119h-444v-530h481v-121l-137 -137v-78l30 -31h107v-73h-170l-62 63v137l117 119h-510z" />
<glyph unicode="&#x119;" horiz-adv-x="870" d="M266 0l-153 154v692l153 153h348l154 -153v-377h-520v-279l82 -81h231l72 71v117h135v-152l-143 -145l-138 -137v-78l31 -31h107v-73h-170l-62 63v137l117 119h-244zM248 578h385v233l-82 82h-221l-82 -82v-233z" />
<glyph unicode="&#x11a;" horiz-adv-x="837" d="M379 1528l-150 149v60h76l133 -133h21l133 133h78v-60l-152 -149h-139zM137 0v1413h621v-121h-477v-522h444v-119h-444v-530h481v-121h-625z" />
<glyph unicode="&#x11b;" horiz-adv-x="870" d="M371 1110l-150 150v59h76l133 -133h21l133 133h78v-59l-152 -150h-139zM266 0l-153 154v692l153 153h348l154 -153v-377h-520v-279l82 -81h231l72 71v117h135v-152l-143 -145h-359zM248 578h385v233l-82 82h-221l-82 -82v-233z" />
<glyph unicode="&#x11c;" horiz-adv-x="964" d="M268 1528v57l150 152h139l152 -152v-57h-78l-133 131h-21l-133 -131h-76zM289 0l-166 166v1081l166 166h397l158 -158v-211h-144v164l-84 84h-258l-92 -92v-987l92 -92h258l93 92v385h-242v121h385v-553l-166 -166h-397z" />
<glyph unicode="&#x11d;" d="M211 1110v57l149 152h140l151 -152v-57h-78l-133 131h-20l-133 -131h-76zM260 -350l-137 137v129h137v-96l64 -62h237l80 80v340l-137 -137h-238l-153 154v651l153 153h236l166 -163l6 163h104v-1196l-153 -153h-365zM330 150h159l152 151v426l-164 166h-147l-82 -82 v-580z" />
<glyph unicode="&#x11e;" horiz-adv-x="964" d="M289 0l-166 166v1081l166 166h397l158 -158v-211h-144v164l-84 84h-258l-92 -92v-987l92 -92h258l93 92v385h-242v121h385v-553l-166 -166h-397zM356 1536l-77 80v96h104v-63l29 -31h149l31 31v63h104v-96l-80 -80h-260z" />
<glyph unicode="&#x11f;" d="M260 -350l-137 137v129h137v-96l64 -62h237l80 80v340l-137 -137h-238l-153 154v651l153 153h236l166 -163l6 163h104v-1196l-153 -153h-365zM330 150h159l152 151v426l-164 166h-147l-82 -82v-580zM299 1118l-78 80v96h105v-63l28 -31h150l31 31v63h104v-96l-80 -80 h-260z" />
<glyph unicode="&#x122;" horiz-adv-x="964" d="M434 -319v247h109v-207l-43 -40h-66zM289 0l-166 166v1081l166 166h397l158 -158v-211h-144v164l-84 84h-258l-92 -92v-987l92 -92h258l93 92v385h-242v121h385v-553l-166 -166h-397z" />
<glyph unicode="&#x123;" d="M496 1337v-247h-109v206l43 41h66zM260 -350l-137 137v129h137v-96l64 -62h237l80 80v340l-137 -137h-238l-153 154v651l153 153h236l166 -163l6 163h104v-1196l-153 -153h-365zM330 150h159l152 151v426l-164 166h-147l-82 -82v-580z" />
<glyph unicode="&#x124;" horiz-adv-x="997" d="M279 1528v57l149 152h139l152 -152v-57h-78l-133 131h-21l-133 -131h-75zM137 0v1413h144v-645h436v645h143v-1413h-143v637h-436v-637h-144z" />
<glyph unicode="&#x125;" horiz-adv-x="892" d="M-16 1468v58l149 151h139l152 -151v-58h-78l-133 131h-20l-134 -131h-75zM133 0v1413h135v-553l142 139h206l154 -153v-846h-135v813l-82 80h-119l-166 -166v-727h-135z" />
<glyph unicode="&#x12a;" horiz-adv-x="679" d="M68 0v109h200v1196h-200v108h544v-108h-200v-1196h200v-109h-544zM145 1575v100h390v-100h-390z" />
<glyph unicode="&#x12b;" horiz-adv-x="421" d="M279 0h-136v999h136v-999zM18 1157v100h390v-100h-390z" />
<glyph unicode="&#x12e;" horiz-adv-x="679" d="M68 0v109h200v1196h-200v108h544v-108h-200v-1196h200v-109h-229l-137 -137v-78l30 -31h107v-73h-170l-61 63v137l116 119h-200z" />
<glyph unicode="&#x12f;" horiz-adv-x="421" d="M279 0h-21l-137 -137v-78l31 -31h106v-73h-170l-63 63v137l118 119v999h136v-999zM143 1169v213h136v-213h-136z" />
<glyph unicode="&#x130;" horiz-adv-x="679" d="M68 0v109h200v1196h-200v108h544v-108h-200v-1196h200v-109h-544zM291 1534l-39 39v106l39 39h98l39 -39v-106l-39 -39h-98z" />
<glyph unicode="&#x131;" horiz-adv-x="421" d="M279 0h-136v999h136v-999z" />
<glyph unicode="&#x134;" horiz-adv-x="638" d="M215 1528v57l150 152h139l151 -152v-57h-77l-134 131h-20l-133 -131h-76zM29 0v121h241l95 92v1200h143v-1247l-168 -166h-311z" />
<glyph unicode="&#x135;" horiz-adv-x="421" d="M-8 1110v57l149 152h140l151 -152v-57h-78l-133 131h-20l-133 -131h-76zM-82 -350v108h150l75 74v1167h136v-1202l-146 -147h-215z" />
<glyph unicode="&#x136;" horiz-adv-x="960" d="M473 -319v247h109v-207l-43 -40h-66zM766 0l-283 698l-204 -364v-334h-144v1413h144v-864l466 864h150l-320 -588l343 -825h-152z" />
<glyph unicode="&#x137;" horiz-adv-x="864" d="M416 -319v247h108v-207l-43 -40h-65zM668 0l-215 520l-189 -274v-246h-135v1413h135v-985l373 571h151l-251 -372l274 -627h-143z" />
<glyph unicode="&#x139;" horiz-adv-x="759" d="M164 1513v66l160 160h92v-66l-160 -160h-92zM137 0v1413h144v-1292h432v-121h-576z" />
<glyph unicode="&#x13a;" horiz-adv-x="421" d="M152 1493v66l159 159h92v-65l-159 -160h-92zM279 0h-136v1413h136v-1413z" />
<glyph unicode="&#x13b;" horiz-adv-x="759" d="M371 -319v247h108v-207l-43 -40h-65zM137 0v1413h144v-1292h432v-121h-576z" />
<glyph unicode="&#x13c;" horiz-adv-x="421" d="M158 -319v247h108v-207l-43 -40h-65zM279 0h-136v1413h136v-1413z" />
<glyph unicode="&#x13d;" horiz-adv-x="759" d="M428 1225v248h109v-207l-43 -41h-66zM137 0v1413h144v-1292h432v-121h-576z" />
<glyph unicode="&#x13e;" horiz-adv-x="421" d="M377 1163v248h108v-207l-43 -41h-65zM279 0h-136v1413h136v-1413z" />
<glyph unicode="&#x141;" horiz-adv-x="788" d="M45 575v134l121 59v645h141v-573l223 110v-133l-223 -110v-586h434v-121h-575v635z" />
<glyph unicode="&#x142;" horiz-adv-x="421" d="M25 616v125l118 60v612h136v-545l118 60v-123l-118 -60v-745h-136v676z" />
<glyph unicode="&#x143;" horiz-adv-x="1013" d="M420 1513v66l160 160h92v-66l-160 -160h-92zM137 0v1413h133l480 -1120v1120h127v-1413h-134l-479 1126v-1126h-127z" />
<glyph unicode="&#x144;" horiz-adv-x="892" d="M379 1096v65l160 160h92v-66l-160 -159h-92zM133 0v999h105l6 -163l164 163h208l154 -153v-846h-135v813l-82 80h-117l-168 -166v-727h-135z" />
<glyph unicode="&#x145;" horiz-adv-x="1013" d="M453 -319v247h108v-207l-43 -40h-65zM137 0v1413h133l480 -1120v1120h127v-1413h-134l-479 1126v-1126h-127z" />
<glyph unicode="&#x146;" horiz-adv-x="892" d="M403 -319v247h109v-207l-43 -40h-66zM133 0v999h105l6 -163l164 163h208l154 -153v-846h-135v813l-82 80h-117l-168 -166v-727h-135z" />
<glyph unicode="&#x147;" horiz-adv-x="1013" d="M436 1528l-149 149v60h75l134 -133h20l133 133h78v-60l-152 -149h-139zM137 0v1413h133l480 -1120v1120h127v-1413h-134l-479 1126v-1126h-127z" />
<glyph unicode="&#x148;" horiz-adv-x="892" d="M395 1110l-149 150v59h76l133 -133h20l133 133h78v-59l-151 -150h-140zM133 0v999h105l6 -163l164 163h208l154 -153v-846h-135v813l-82 80h-117l-168 -166v-727h-135z" />
<glyph unicode="&#x14c;" horiz-adv-x="991" d="M301 1575v100h389v-100h-389zM289 0l-166 166v1081l166 166h413l166 -166v-1081l-166 -166h-413zM358 121h275l92 92v987l-92 92h-275l-92 -92v-987z" />
<glyph unicode="&#x14d;" horiz-adv-x="886" d="M248 1157v100h389v-100h-389zM266 0l-153 154v692l153 153h355l153 -153v-692l-153 -154h-355zM330 109h227l82 81v621l-82 82h-227l-82 -82v-621z" />
<glyph unicode="&#x150;" horiz-adv-x="991" d="M315 1513v68l160 160h70v-68l-162 -160h-68zM543 1513v68l159 160h70v-68l-160 -160h-69zM289 0l-166 166v1081l166 166h413l166 -166v-1081l-166 -166h-413zM358 121h275l92 92v987l-92 92h-275l-92 -92v-987z" />
<glyph unicode="&#x151;" horiz-adv-x="886" d="M262 1096v67l160 160h70v-68l-162 -159h-68zM489 1096v67l160 160h70v-68l-160 -159h-70zM266 0l-153 154v692l153 153h355l153 -153v-692l-153 -154h-355zM330 109h227l82 81v621l-82 82h-227l-82 -82v-621z" />
<glyph unicode="&#x152;" horiz-adv-x="1404" d="M289 0l-166 166v1081l166 166h1040v-121h-479v-522h444v-119h-444v-530h481v-121h-1042zM358 121h349v1171h-349l-92 -92v-987z" />
<glyph unicode="&#x153;" horiz-adv-x="1396" d="M266 0l-153 154v692l153 153h338l103 -100l100 100h334l153 -153v-377h-520v-279l82 -81h229l74 71v117h135v-152l-147 -145h-340l-100 102l-103 -102h-338zM330 109h227l82 81v621l-82 82h-227l-82 -82v-621zM774 578h385v233l-82 82h-221l-82 -82v-233z" />
<glyph unicode="&#x154;" horiz-adv-x="974" d="M395 1513v66l160 160h92v-66l-160 -160h-92zM137 0v1413h568l161 -162v-460l-149 -150l160 -641h-146l-151 623h-299v-623h-144zM281 743h350l92 93v368l-90 90h-352v-551z" />
<glyph unicode="&#x155;" horiz-adv-x="616" d="M266 1096v65l160 160h92v-66l-160 -159h-92zM133 0v999h105l6 -172l172 172h157v-118h-135l-170 -170v-711h-135z" />
<glyph unicode="&#x156;" horiz-adv-x="974" d="M453 -319v247h108v-207l-43 -40h-65zM137 0v1413h568l161 -162v-460l-149 -150l160 -641h-146l-151 623h-299v-623h-144zM281 743h350l92 93v368l-90 90h-352v-551z" />
<glyph unicode="&#x157;" horiz-adv-x="616" d="M147 -319v247h109v-207l-43 -40h-66zM133 0v999h105l6 -172l172 172h157v-118h-135l-170 -170v-711h-135z" />
<glyph unicode="&#x158;" horiz-adv-x="974" d="M412 1528l-150 149v60h76l133 -133h21l133 133h77v-60l-151 -149h-139zM137 0v1413h568l161 -162v-460l-149 -150l160 -641h-146l-151 623h-299v-623h-144zM281 743h350l92 93v368l-90 90h-352v-551z" />
<glyph unicode="&#x159;" horiz-adv-x="616" d="M283 1110l-150 150v59h76l133 -133h20l134 133h77v-59l-151 -150h-139zM133 0v999h105l6 -172l172 172h157v-118h-135l-170 -170v-711h-135z" />
<glyph unicode="&#x15a;" horiz-adv-x="903" d="M365 1513v66l159 160h92v-66l-159 -160h-92zM250 0l-158 158v211h141v-164l86 -86h261l88 88v381l-68 67h-362l-140 142v454l162 162h387l160 -158v-208h-143v161l-86 86h-248l-90 -88v-362l67 -68h363l141 -141v-473l-162 -162h-399z" />
<glyph unicode="&#x15b;" horiz-adv-x="841" d="M336 1096v65l160 160h92v-66l-160 -159h-92zM233 0l-135 135v156h135v-119l64 -63h235l74 73v221l-43 46h-344l-115 114v291l148 145h348l137 -135v-153h-137v118l-63 64h-222l-75 -76v-219l43 -43h344l116 -117v-291l-147 -147h-363z" />
<glyph unicode="&#x15c;" horiz-adv-x="903" d="M231 1528v57l150 152h139l152 -152v-57h-78l-133 131h-21l-133 -131h-76zM250 0l-158 158v211h141v-164l86 -86h261l88 88v381l-68 67h-362l-140 142v454l162 162h387l160 -158v-208h-143v161l-86 86h-248l-90 -88v-362l67 -68h363l141 -141v-473l-162 -162h-399z" />
<glyph unicode="&#x15d;" horiz-adv-x="841" d="M203 1110v57l149 152h140l151 -152v-57h-78l-133 131h-20l-133 -131h-76zM233 0l-135 135v156h135v-119l64 -63h235l74 73v221l-43 46h-344l-115 114v291l148 145h348l137 -135v-153h-137v118l-63 64h-222l-75 -76v-219l43 -43h344l116 -117v-291l-147 -147h-363z" />
<glyph unicode="&#x15e;" horiz-adv-x="903" d="M250 0l-158 158v211h141v-164l86 -86h261l88 88v381l-68 67h-362l-140 142v454l162 162h387l160 -158v-208h-143v161l-86 86h-248l-90 -88v-362l67 -68h363l141 -141v-473l-162 -162h-170v-82h78l64 -63v-111l-64 -63h-219v73h162l24 25v45l-24 24h-76l-39 39v113h-135z " />
<glyph unicode="&#x15f;" horiz-adv-x="841" d="M233 0l-135 135v156h135v-119l64 -63h235l74 73v221l-43 46h-344l-115 114v291l148 145h348l137 -135v-153h-137v118l-63 64h-222l-75 -76v-219l43 -43h344l116 -117v-291l-147 -147h-145v-82h77l64 -63v-111l-64 -63h-219v73h162l25 25v45l-25 24h-76l-39 39v113h-123z " />
<glyph unicode="&#x160;" horiz-adv-x="903" d="M381 1528l-150 149v60h76l133 -133h21l133 133h78v-60l-152 -149h-139zM250 0l-158 158v211h141v-164l86 -86h261l88 88v381l-68 67h-362l-140 142v454l162 162h387l160 -158v-208h-143v161l-86 86h-248l-90 -88v-362l67 -68h363l141 -141v-473l-162 -162h-399z" />
<glyph unicode="&#x161;" horiz-adv-x="841" d="M352 1110l-149 150v59h76l133 -133h20l133 133h78v-59l-151 -150h-140zM233 0l-135 135v156h135v-119l64 -63h235l74 73v221l-43 46h-344l-115 114v291l148 145h348l137 -135v-153h-137v118l-63 64h-222l-75 -76v-219l43 -43h344l116 -117v-291l-147 -147h-363z" />
<glyph unicode="&#x162;" horiz-adv-x="825" d="M358 -319v247h109v-207l-43 -40h-66zM340 0v1292h-307v121h760v-121h-310v-1292h-143z" />
<glyph unicode="&#x163;" horiz-adv-x="659" d="M344 -319v247h109v-207l-43 -40h-66zM328 0l-154 154v735h-135v110h135v301h135v-301h283v-110h-283v-699l80 -79h203v-111h-264z" />
<glyph unicode="&#x164;" horiz-adv-x="825" d="M340 1528l-150 149v60h76l133 -133h21l133 133h78v-60l-152 -149h-139zM340 0v1292h-307v121h760v-121h-310v-1292h-143z" />
<glyph unicode="&#x165;" horiz-adv-x="659" d="M440 1149v248h109v-207l-43 -41h-66zM328 0l-154 154v735h-135v110h135v301h135v-301h283v-110h-283v-699l80 -79h203v-111h-264z" />
<glyph unicode="&#x16a;" horiz-adv-x="976" d="M297 0l-166 166v1247h143v-1200l93 -92h241l94 92v1200h144v-1247l-168 -166h-381zM293 1575v100h389v-100h-389z" />
<glyph unicode="&#x16b;" horiz-adv-x="892" d="M276 0l-153 154v845h135v-811l82 -79h117l168 165v725h135v-999h-105l-6 166l-166 -166h-207zM246 1157v100h389v-100h-389z" />
<glyph unicode="&#x16c;" horiz-adv-x="976" d="M297 0l-166 166v1247h143v-1200l93 -92h241l94 92v1200h144v-1247l-168 -166h-381zM356 1536l-77 80v96h104v-63l29 -31h149l31 31v63h104v-96l-80 -80h-260z" />
<glyph unicode="&#x16d;" horiz-adv-x="892" d="M276 0l-153 154v845h135v-811l82 -79h117l168 165v725h135v-999h-105l-6 166l-166 -166h-207zM309 1118l-78 80v96h105v-63l29 -31h149l31 31v63h104v-96l-80 -80h-260z" />
<glyph unicode="&#x16e;" horiz-adv-x="976" d="M397 1493l-65 68v141l65 67h183l65 -65v-143l-65 -68h-183zM436 1552h103l30 29v100l-30 29h-103l-30 -29v-100zM297 0l-166 166v1247h143v-1200l93 -92h241l94 92v1200h144v-1247l-168 -166h-381z" />
<glyph unicode="&#x16f;" horiz-adv-x="892" d="M350 1075l-65 68v141l65 68h182l66 -66v-143l-66 -68h-182zM389 1135h103l30 28v101l-30 28h-103l-31 -28v-101zM276 0l-153 154v845h135v-811l82 -79h117l168 165v725h135v-999h-105l-6 166l-166 -166h-207z" />
<glyph unicode="&#x170;" horiz-adv-x="976" d="M297 0l-166 166v1247h143v-1200l93 -92h241l94 92v1200h144v-1247l-168 -166h-381zM307 1513v68l160 160h70v-68l-162 -160h-68zM535 1513v68l159 160h70v-68l-160 -160h-69z" />
<glyph unicode="&#x171;" horiz-adv-x="892" d="M276 0l-153 154v845h135v-811l82 -79h117l168 165v725h135v-999h-105l-6 166l-166 -166h-207zM260 1096v67l160 160h69v-68l-161 -159h-68zM487 1096v67l160 160h70v-68l-160 -159h-70z" />
<glyph unicode="&#x172;" horiz-adv-x="976" d="M297 0l-166 166v1247h143v-1200l93 -92h241l94 92v1200h144v-1247l-168 -166h-105l-137 -137v-78l31 -31h106v-73h-170l-61 63v137l117 119h-162z" />
<glyph unicode="&#x173;" horiz-adv-x="892" d="M276 0l-153 154v845h135v-811l82 -79h117l168 165v725h135v-999l-137 -137v-78l30 -31h107v-73h-170l-64 63v137l129 129l-6 156l-166 -166h-207z" />
<glyph unicode="&#x178;" horiz-adv-x="866" d="M360 0v469l-335 944h151l260 -778l266 778h140l-338 -944v-469h-144zM504 1536v172h114v-172h-114zM248 1536v172h112v-172h-112z" />
<glyph unicode="&#x179;" horiz-adv-x="796" d="M313 1513v66l160 160h92v-66l-159 -160h-93zM63 0v102l508 1190h-497v121h651v-102l-508 -1190h516v-121h-670z" />
<glyph unicode="&#x17a;" horiz-adv-x="714" d="M270 1096v65l160 160h92v-66l-160 -159h-92zM57 0v86l439 803h-430v110h583v-86l-438 -802h442v-111h-596z" />
<glyph unicode="&#x17b;" horiz-adv-x="796" d="M63 0v102l508 1190h-497v121h651v-102l-508 -1190h516v-121h-670zM348 1534l-39 39v106l39 39h98l39 -39v-106l-39 -39h-98z" />
<glyph unicode="&#x17c;" horiz-adv-x="714" d="M57 0v86l439 803h-430v110h583v-86l-438 -802h442v-111h-596zM307 1116l-39 39v107l39 38h99l38 -38v-107l-38 -39h-99z" />
<glyph unicode="&#x17d;" horiz-adv-x="796" d="M328 1528l-150 149v60h76l133 -133h21l133 133h77v-60l-151 -149h-139zM63 0v102l508 1190h-497v121h651v-102l-508 -1190h516v-121h-670z" />
<glyph unicode="&#x17e;" horiz-adv-x="714" d="M287 1110l-150 150v59h76l133 -133h21l133 133h78v-59l-152 -150h-139zM57 0v86l439 803h-430v110h583v-86l-438 -802h442v-111h-596z" />
<glyph unicode="&#x192;" horiz-adv-x="722" d="M49 0v121h105l92 92v528h-185v119h185v387l166 166h252v-121h-181l-94 -92v-340h260v-119h-260v-575l-168 -166h-172z" />
<glyph unicode="&#x218;" horiz-adv-x="903" d="M397 -319v247h109v-207l-43 -40h-66zM250 0l-158 158v211h141v-164l86 -86h261l88 88v381l-68 67h-362l-140 142v454l162 162h387l160 -158v-208h-143v161l-86 86h-248l-90 -88v-362l67 -68h363l141 -141v-473l-162 -162h-399z" />
<glyph unicode="&#x219;" horiz-adv-x="841" d="M369 -319v247h108v-207l-43 -40h-65zM233 0l-135 135v156h135v-119l64 -63h235l74 73v221l-43 46h-344l-115 114v291l148 145h348l137 -135v-153h-137v118l-63 64h-222l-75 -76v-219l43 -43h344l116 -117v-291l-147 -147h-363z" />
<glyph unicode="&#x237;" horiz-adv-x="421" d="M-82 -350v108h150l75 74v1167h136v-1202l-146 -147h-215z" />
<glyph unicode="&#x2c6;" horiz-adv-x="688" d="M125 1110v57l149 152h140l151 -152v-57h-78l-133 131h-20l-133 -131h-76z" />
<glyph unicode="&#x2c7;" horiz-adv-x="688" d="M274 1110l-149 150v59h76l133 -133h20l133 133h78v-59l-151 -150h-140z" />
<glyph unicode="&#x2d8;" horiz-adv-x="665" d="M203 1118l-78 80v96h104v-63l29 -31h150l30 31v63h105v-96l-80 -80h-260z" />
<glyph unicode="&#x2d9;" horiz-adv-x="425" d="M164 1116l-39 39v107l39 38h98l39 -38v-107l-39 -39h-98z" />
<glyph unicode="&#x2da;" horiz-adv-x="561" d="M190 1075l-65 68v141l65 68h183l65 -66v-143l-65 -68h-183zM229 1135h103l30 28v101l-30 28h-103l-30 -28v-101z" />
<glyph unicode="&#x2db;" horiz-adv-x="481" d="M186 -319l-61 63v137l117 119h114l-137 -137v-78l31 -31h106v-73h-170z" />
<glyph unicode="&#x2dc;" horiz-adv-x="720" d="M125 1110v107l78 79h131l100 -102h39l29 27v75h96v-106l-80 -80h-129l-102 102h-39l-27 -26v-76h-96z" />
<glyph unicode="&#x2dd;" horiz-adv-x="706" d="M125 1096v67l160 160h69v-68l-161 -159h-68zM352 1096v67l160 160h70v-68l-160 -159h-70z" />
<glyph unicode="&#x2000;" horiz-adv-x="884" />
<glyph unicode="&#x2001;" horiz-adv-x="1769" />
<glyph unicode="&#x2002;" horiz-adv-x="884" />
<glyph unicode="&#x2003;" horiz-adv-x="1769" />
<glyph unicode="&#x2004;" horiz-adv-x="589" />
<glyph unicode="&#x2005;" horiz-adv-x="442" />
<glyph unicode="&#x2006;" horiz-adv-x="294" />
<glyph unicode="&#x2007;" horiz-adv-x="294" />
<glyph unicode="&#x2008;" horiz-adv-x="221" />
<glyph unicode="&#x2009;" horiz-adv-x="352" />
<glyph unicode="&#x200a;" horiz-adv-x="98" />
<glyph unicode="&#x2010;" horiz-adv-x="475" d="M25 643v125h426v-125h-426z" />
<glyph unicode="&#x2011;" horiz-adv-x="475" d="M25 643v125h426v-125h-426z" />
<glyph unicode="&#x2012;" horiz-adv-x="475" d="M25 643v125h426v-125h-426z" />
<glyph unicode="&#x2013;" horiz-adv-x="653" d="M25 643v125h604v-125h-604z" />
<glyph unicode="&#x2014;" horiz-adv-x="897" d="M25 643v125h847v-125h-847z" />
<glyph unicode="&#x2018;" horiz-adv-x="344" d="M90 999v342l72 72h90v-80h-51l-17 -18v-96h68v-220h-162z" />
<glyph unicode="&#x2019;" horiz-adv-x="344" d="M254 1413v-342l-72 -72h-90v80h51l17 19v96h-68v219h162z" />
<glyph unicode="&#x201a;" horiz-adv-x="344" d="M90 -195v80h51l19 19v96h-70v217h162v-340l-72 -72h-90z" />
<glyph unicode="&#x201c;" horiz-adv-x="616" d="M92 999v342l72 72h90v-80h-51l-19 -18v-96h70v-220h-162zM362 999v342l72 72h90v-80h-51l-16 -18v-96h67v-220h-162z" />
<glyph unicode="&#x201d;" horiz-adv-x="616" d="M524 1413v-342l-71 -72h-91v80h52l18 19v96h-70v219h162zM254 1413v-342l-72 -72h-90v80h51l17 19v96h-68v219h162z" />
<glyph unicode="&#x201e;" horiz-adv-x="616" d="M92 -195v80h51l19 19v96h-70v217h162v-340l-72 -72h-90zM362 -195v80h52l18 19v96h-70v217h162v-340l-71 -72h-91z" />
<glyph unicode="&#x2020;" horiz-adv-x="512" d="M197 553v563h-144v103h144v194h118v-194h144v-103h-144v-563h-118z" />
<glyph unicode="&#x2021;" horiz-adv-x="512" d="M197 553v188h-144v103h144v278h-144v103h144v188h118v-188h144v-103h-144v-278h144v-103h-144v-188h-118z" />
<glyph unicode="&#x2022;" horiz-adv-x="432" d="M143 545l-82 82v157l82 82h146l82 -82v-157l-82 -82h-146z" />
<glyph unicode="&#x2026;" horiz-adv-x="1007" d="M86 0v215h164v-215h-164zM422 0v215h164v-215h-164zM758 0v215h164v-215h-164z" />
<glyph unicode="&#x202f;" horiz-adv-x="352" />
<glyph unicode="&#x2030;" horiz-adv-x="1839" d="M188 741l-118 119v434l118 119h248l117 -119v-434l-117 -119h-248zM248 838h127l57 57v365l-57 57h-127l-58 -57v-365zM807 0l-119 119v434l119 119h248l119 -119v-434l-119 -119h-248zM868 96h125l58 58v364l-58 57h-125l-57 -57v-364zM1403 0l-117 119v434l117 119h248 l118 -119v-434l-118 -119h-248zM1464 96h127l58 58v364l-58 57h-127l-57 -57v-364zM236 0l655 1413h113l-656 -1413h-112z" />
<glyph unicode="&#x2039;" horiz-adv-x="421" d="M244 299l-207 412l207 415h127l-207 -415l207 -412h-127z" />
<glyph unicode="&#x203a;" horiz-adv-x="421" d="M385 711l-207 -412h-127l207 412l-207 415h127z" />
<glyph unicode="&#x2044;" horiz-adv-x="768" d="M0 0l655 1413h113l-655 -1413h-113z" />
<glyph unicode="&#x205f;" horiz-adv-x="442" />
<glyph unicode="&#x20ac;" horiz-adv-x="954" d="M55 780v103h92v364l166 166h383l162 -162v-239h-141v190l-90 90h-244l-92 -92v-317h391v-103h-391v-133h391v-100h-391v-334l92 -92h244l90 90v197h141v-246l-162 -162h-383l-166 166v381h-92v100h92v133h-92z" />
<glyph unicode="&#x2120;" horiz-adv-x="1040" d="M119 823l-78 78v88h90v-63l31 -31h110l29 31v139l-16 16h-179l-65 66v188l80 78h192l78 -78v-88h-90v64l-29 30h-110l-31 -30v-133l19 -17h178l63 -65v-195l-78 -78h-194zM475 823v590h127l115 -479l110 479h129v-590h-82v506l-120 -506h-82l-119 504v-504h-78z" />
<glyph unicode="&#x2122;" horiz-adv-x="980" d="M150 823v518h-132v72h349v-72h-127v-518h-90zM416 823v590h127l114 -479l111 479h129v-590h-82v506l-121 -506h-82l-118 504v-504h-78z" />
<glyph unicode="&#x2212;" horiz-adv-x="581" d="M25 643v125h532v-125h-532z" />
<glyph unicode="&#xe000;" horiz-adv-x="1000" d="M0 1000h1000v-1000h-1000v1000z" />
<glyph unicode="&#xfb01;" horiz-adv-x="1007" d="M172 0v889h-129v110h129v267l147 147h259v-108h-195l-76 -74v-232h252v-110h-252v-889h-135zM864 0h-135v999h135v-999zM729 1169v213h135v-213h-135z" />
<glyph unicode="&#xfb02;" horiz-adv-x="1007" d="M172 0v889h-129v110h129v267l147 147h259v-108h-195l-76 -74v-232h252v-110h-252v-889h-135zM864 0h-135v1413h135v-1413z" />
<glyph horiz-adv-x="358" d="M125 -319v247h108v-207l-43 -40h-65z" />
<glyph horiz-adv-x="1296" d="M289 0l-166 166v1081l166 166h719l166 -166v-1081l-166 -166h-719zM356 109h584l100 102v991l-100 103h-584l-100 -103v-991zM406 231v951h380l119 -119v-393l-119 -119h-241v-320h-139zM545 668h178l41 43v311l-41 41h-178v-395z" />
<glyph horiz-adv-x="954" d="M289 0l-166 166v1081l166 166h397l158 -158v-211h-144v164l-84 84h-258l-92 -92v-987l92 -92h222l129 129v348h-242v121h385v-719h-104l-9 129l-127 -129h-323z" />
<glyph horiz-adv-x="954" d="M289 0l-166 166v1081l166 166h397l158 -158v-211h-144v164l-84 84h-258l-92 -92v-987l92 -92h222l129 129v348h-242v121h385v-719h-104l-9 129l-127 -129h-323zM356 1536l-77 80v96h104v-63l29 -31h149l31 31v63h104v-96l-80 -80h-260z" />
<glyph horiz-adv-x="954" d="M268 1528v57l150 152h139l152 -152v-57h-78l-133 131h-21l-133 -131h-76zM289 0l-166 166v1081l166 166h397l158 -158v-211h-144v164l-84 84h-258l-92 -92v-987l92 -92h222l129 129v348h-242v121h385v-719h-104l-9 129l-127 -129h-323z" />
<glyph horiz-adv-x="954" d="M434 -319v247h109v-207l-43 -40h-66zM289 0l-166 166v1081l166 166h397l158 -158v-211h-144v164l-84 84h-258l-92 -92v-987l92 -92h222l129 129v348h-242v121h385v-719h-104l-9 129l-127 -129h-323z" />
<glyph horiz-adv-x="512" d="M328 0h-144v1413h144v-1413z" />
<glyph horiz-adv-x="512" d="M168 1513v66l160 160h92v-66l-160 -160h-92zM328 0h-144v1413h144v-1413z" />
<glyph horiz-adv-x="512" d="M328 0h-144v1413h144v-1413zM250 1513l-160 160v66h92l160 -160v-66h-92z" />
<glyph horiz-adv-x="512" d="M37 1528v57l149 152h140l151 -152v-57h-78l-133 131h-20l-133 -131h-76zM328 0h-144v1413h144v-1413z" />
<glyph horiz-adv-x="512" d="M328 1536v172h114v-172h-114zM72 1536v172h112v-172h-112zM328 0h-144v1413h144v-1413z" />
<glyph horiz-adv-x="512" d="M328 0h-144v1413h144v-1413zM205 1534l-39 39v106l39 39h98l39 -39v-106l-39 -39h-98z" />
<glyph horiz-adv-x="512" d="M328 0h-144v1413h144v-1413zM63 1575v100h390v-100h-390z" />
<glyph horiz-adv-x="512" d="M328 0h-29l-137 -137v-78l31 -31h106v-73h-170l-63 63v137l118 119v1413h144v-1413z" />
<glyph horiz-adv-x="888" d="M240 0l-166 166v371h143v-324l92 -92h211l94 92v1200h144v-1247l-168 -166h-350z" />
<glyph horiz-adv-x="888" d="M465 1528v57l149 152h140l151 -152v-57h-78l-133 131h-20l-133 -131h-76zM240 0l-166 166v371h143v-324l92 -92h211l94 92v1200h144v-1247l-168 -166h-350z" />
<glyph horiz-adv-x="991" d="M289 0l-166 166v1081l166 166h413l166 -166v-1081l-94 -94l164 -164l-90 -90l-182 182h-377zM358 121h275l92 92v987l-92 92h-275l-92 -92v-987z" />
<glyph d="M266 0l-153 154v692l153 153h248l156 -153l2 153h106v-999h-104l-4 156l-156 -156h-248zM330 109h157l156 153v475l-156 156h-157l-82 -82v-621z" />
<glyph d="M344 1096v65l160 160h92v-66l-160 -159h-92zM266 0l-153 154v692l153 153h248l156 -153l2 153h106v-999h-104l-4 156l-156 -156h-248zM330 109h157l156 153v475l-156 156h-157l-82 -82v-621z" />
<glyph d="M266 0l-153 154v692l153 153h248l156 -153l2 153h106v-999h-104l-4 156l-156 -156h-248zM330 109h157l156 153v475l-156 156h-157l-82 -82v-621zM424 1096l-160 159v66h92l160 -160v-65h-92z" />
<glyph d="M211 1110v57l149 152h140l151 -152v-57h-78l-133 131h-20l-133 -131h-76zM266 0l-153 154v692l153 153h248l156 -153l2 153h106v-999h-104l-4 156l-156 -156h-248zM330 109h157l156 153v475l-156 156h-157l-82 -82v-621z" />
<glyph d="M502 1118v172h114v-172h-114zM246 1118v172h112v-172h-112zM266 0l-153 154v692l153 153h248l156 -153l2 153h106v-999h-104l-4 156l-156 -156h-248zM330 109h157l156 153v475l-156 156h-157l-82 -82v-621z" />
<glyph d="M266 0l-153 154v692l153 153h248l156 -153l2 153h106v-999h-104l-4 156l-156 -156h-248zM330 109h157l156 153v475l-156 156h-157l-82 -82v-621zM195 1110v107l77 79h131l101 -102h39l28 27v75h97v-106l-80 -80h-129l-103 102h-39l-26 -26v-76h-96z" />
<glyph d="M340 1075l-66 68v141l66 68h182l66 -66v-143l-66 -68h-182zM379 1135h102l31 28v101l-31 28h-102l-31 -28v-101zM266 0l-153 154v692l153 153h248l156 -153l2 153h106v-999h-104l-4 156l-156 -156h-248zM330 109h157l156 153v475l-156 156h-157l-82 -82v-621z" />
<glyph d="M266 0l-153 154v692l153 153h248l156 -153l2 153h106v-999h-104l-4 156l-156 -156h-248zM330 109h157l156 153v475l-156 156h-157l-82 -82v-621zM299 1118l-78 80v96h105v-63l28 -31h150l31 31v63h104v-96l-80 -80h-260z" />
<glyph d="M266 0l-153 154v692l153 153h248l156 -153l2 153h106v-999h-104l-4 156l-156 -156h-248zM330 109h157l156 153v475l-156 156h-157l-82 -82v-621zM236 1157v100h389v-100h-389z" />
<glyph d="M266 0l-153 154v692l153 153h248l156 -153l2 153h106v-999l-137 -137v-78l31 -31h106v-73h-170l-63 63v137l129 129l-4 146l-156 -156h-248zM330 109h157l156 153v475l-156 156h-157l-82 -82v-621z" />
<glyph horiz-adv-x="868" d="M233 -350l-145 145v254l113 113l-60 59v109l70 69l-107 107v348l146 145h575v-104h-133l78 -78v-293l-145 -145h-295l-62 -62v-65l54 -53h346l145 -146v-258l-145 -145h-435zM317 483h240l78 78v258l-76 76h-242l-75 -78v-256zM299 -244h303l78 76v184l-78 78h-303 l-76 -78v-184z" />
<glyph horiz-adv-x="868" d="M233 -350l-145 145v254l113 113l-60 59v109l70 69l-107 107v348l146 145h575v-104h-133l78 -78v-293l-145 -145h-295l-62 -62v-65l54 -53h346l145 -146v-258l-145 -145h-435zM317 483h240l78 78v258l-76 76h-242l-75 -78v-256zM299 -244h303l78 76v184l-78 78h-303 l-76 -78v-184zM326 1118l-78 80v96h104v-63l29 -31h149l31 31v63h105v-96l-80 -80h-260z" />
<glyph horiz-adv-x="868" d="M236 1110v57l149 152h139l152 -152v-57h-78l-133 131h-21l-133 -131h-75zM233 -350l-145 145v254l113 113l-60 59v109l70 69l-107 107v348l146 145h575v-104h-133l78 -78v-293l-145 -145h-295l-62 -62v-65l54 -53h346l145 -146v-258l-145 -145h-435zM317 483h240l78 78 v258l-76 76h-242l-75 -78v-256zM299 -244h303l78 76v184l-78 78h-303l-76 -78v-184z" />
<glyph horiz-adv-x="868" d="M510 1337v-247h-109v206l43 41h66zM233 -350l-145 145v254l113 113l-60 59v109l70 69l-107 107v348l146 145h575v-104h-133l78 -78v-293l-145 -145h-295l-62 -62v-65l54 -53h346l145 -146v-258l-145 -145h-435zM317 483h240l78 78v258l-76 76h-242l-75 -78v-256z M299 -244h303l78 76v184l-78 78h-303l-76 -78v-184z" />
<glyph horiz-adv-x="1501" d="M131 0v1190l221 223h803l223 -223v-1040l-149 -150h-254l-12 145l-146 -145h-258l-156 154v378l146 144h385v274l-88 88h-199l-82 -82v-151h-143v196l156 154h337l162 -160v-876h88l76 76v950l-149 149h-674l-150 -149v-1145h-137zM627 119h168l139 139v299h-307l-80 -80 v-278z" />
<glyph horiz-adv-x="1452" d="M328 -254l-215 215v1081l215 215h796l215 -215v-895l-147 -147h-258l-4 156l-156 -156h-244l-153 154v692l153 153h244l156 -153l2 153h106v-895h84l80 78v824l-143 143h-668l-143 -143v-1010l143 -143h713v-107h-776zM594 109h154l155 153v475l-155 156h-154l-80 -82 v-621z" />
<glyph horiz-adv-x="1501" d="M131 0v1190l221 223h803l223 -223v-1040l-149 -150h-256l-12 147l-148 -147h-242l-161 162v833l161 160h242l148 -147l12 147h102v-1036h90l76 76v950l-149 149h-674l-150 -149v-1145h-137zM641 119h145l148 147v623l-148 149h-145l-90 -90v-741z" />
<glyph horiz-adv-x="954" d="M268 0l-159 158v473l131 133l-129 129v362l157 158h377l158 -158v-213h-144v166l-88 88h-229l-88 -88v-278l80 -80l387 -289v252h143v-657l-157 -156h-439zM342 117h291l88 88v194l-381 283l-88 -88v-387z" />
<glyph horiz-adv-x="632" d="M188 707l-118 116v471l118 119h183l102 -102l6 102h84v-706h-84l-6 102l-102 -102h-183zM246 803h104l96 94v324l-96 96h-104l-58 -57v-400z" />
<glyph horiz-adv-x="1003" d="M295 0l-166 166v1081l166 166h414l165 -166v-1081l-165 -166h-414zM365 121h274l92 92v987l-92 92h-274l-95 -92v-987z" />
<glyph horiz-adv-x="1003" d="M168 0v109h283v1196h-283v108h426v-1304h270v-109h-696z" />
<glyph horiz-adv-x="1003" d="M156 0v598l141 139h354l68 68v401l-88 88h-246l-86 -86v-161h-143v208l159 158h385l162 -162v-491l-141 -142h-354l-68 -67v-430h557v-121h-700z" />
<glyph horiz-adv-x="1003" d="M287 0l-162 162v233h143v-184l88 -90h281l84 86v350l-113 115h-332v121h334l111 110v305l-86 86h-279l-88 -92v-182h-143v231l162 162h418l159 -158v-387l-137 -137l137 -137v-436l-157 -158h-420z" />
<glyph horiz-adv-x="1003" d="M659 0v399h-575v103l205 911h135l-188 -889h423v889h144v-889h110v-125h-110v-399h-144z" />
<glyph horiz-adv-x="1003" d="M309 0l-157 158v237h143v-192l86 -84h256l88 88v512l-68 67h-251l-117 -116h-137v743h704v-121h-561v-481l94 94h338l141 -139v-604l-161 -162h-398z" />
<glyph horiz-adv-x="1003" d="M307 0l-166 166v1081l166 166h412l160 -160v-221h-142v174l-88 86h-272l-94 -92v-434l94 94h348l156 -158v-536l-166 -166h-408zM377 121h268l92 92v442l-84 84h-260l-110 -108v-418z" />
<glyph horiz-adv-x="1003" d="M391 0v504l344 786h-635v123h789v-102l-354 -809v-502h-144z" />
<glyph horiz-adv-x="1003" d="M283 0l-158 158v438l137 137l-135 137v385l158 158h436l160 -158v-385l-138 -137l138 -137v-438l-158 -158h-440zM354 121h297l86 86v352l-114 115h-242l-113 -115v-352zM379 795h248l110 110v303l-86 86h-297l-86 -86v-303z" />
<glyph horiz-adv-x="1003" d="M285 0l-160 160v233h141v-186l88 -86h275l92 92v465l-94 -94h-346l-156 155v508l166 166h407l166 -166v-1081l-166 -166h-413zM350 702h262l109 111v387l-92 92h-269l-94 -92v-414z" />
<glyph horiz-adv-x="1003" d="M152 647v117h292v309h119v-309h289v-117h-289v-309h-119v309h-292z" />
<glyph horiz-adv-x="1003" d="M197 643v125h612v-125h-612z" />
<glyph horiz-adv-x="1003" d="M250 371l-80 78l252 251l-252 252l80 82l252 -254l250 254l82 -82l-252 -252l252 -251l-80 -78l-252 250z" />
<glyph horiz-adv-x="1003" d="M436 330v174h131v-174h-131zM147 645v119h709v-119h-709zM436 903v172h131v-172h-131z" />
<glyph horiz-adv-x="1003" d="M180 811v121h643v-121h-643zM180 475v119h643v-119h-643z" />
<glyph horiz-adv-x="1003" d="M874 639l-710 -336v129l586 273l-586 272v131l710 -336v-133z" />
<glyph horiz-adv-x="1003" d="M840 303l-711 336v133l711 336v-131l-586 -272l586 -273v-129z" />
<glyph horiz-adv-x="1003" d="M260 362v246h-147v109h147v344h-147v108h147v244h117v-244h250v244h114v-244h150v-108h-150v-344h150v-109h-150v-246h-114v246h-250v-246h-117zM377 717h250v344h-250v-344z" />
<glyph horiz-adv-x="1003" d="M305 41l-158 158v207h140v-162l88 -86h252l90 90v342l-68 67h-358l-139 140v415l159 160h125v197h131v-197h127l158 -158v-204h-139v157l-88 88h-244l-90 -90v-317l67 -68h359l139 -137v-442l-160 -160h-129v-199h-131v199h-131z" />
<glyph horiz-adv-x="1003" d="M326 141l-166 166v803l166 166h127v182h129v-182h127l159 -162v-231h-139v184l-90 90h-244l-94 -94v-713l94 -94h244l90 92v191h139v-238l-159 -160h-127v-188h-129v188h-127z" />
<glyph horiz-adv-x="1003" d="M121 0v115l98 96v418h-104v125h104v493l166 166h346l162 -162v-247h-141v198l-90 90h-207l-93 -92v-446h322v-125h-322v-428l-81 -80h612v-121h-772z" />
<glyph horiz-adv-x="1003" d="M147 459v102h250l-303 852h154l258 -776l264 776h139l-303 -852h252v-102h-285v-123h285v-100h-285v-236h-143v236h-283v100h283v123h-283z" />
<glyph horiz-adv-x="1003" d="M162 0v121h129l92 92v528h-211v119h211v387l166 166h285v-121h-213l-95 -92v-340h293v-119h-293v-575l-168 -166h-196z" />
<glyph horiz-adv-x="1003" d="M80 780v103h92v364l168 166h383l162 -162v-239h-142v190l-90 90h-243l-95 -92v-317h392v-103h-392v-133h392v-100h-392v-334l95 -92h243l90 90v197h142v-246l-162 -162h-383l-168 166v381h-92v100h92v133h-92z" />
<glyph horiz-adv-x="1003" d="M299 -203l-158 158v254h144v-207l86 -86h260l88 88v408h-518l-51 53v63h712v-569l-160 -162h-403zM150 692v559l161 162h387l160 -158v-251h-143v204l-86 86h-248l-90 -88v-395h514l51 -53v-66h-706z" />
<glyph horiz-adv-x="499" />
<glyph horiz-adv-x="499" d="M168 0v215h164v-215h-164zM168 629v217h164v-217h-164z" />
<glyph horiz-adv-x="499" d="M170 -195v80h51l19 19v96h-70v219h162v-342l-72 -72h-90zM170 627v219h162v-219h-162z" />
<glyph horiz-adv-x="499" d="M170 -195v80h51l19 19v96h-70v219h162v-342l-72 -72h-90z" />
<glyph horiz-adv-x="499" d="M168 0v215h164v-215h-164z" />
<glyph horiz-adv-x="565" d="M319 -115l-167 166v1309l167 166h156v-119h-86l-94 -94v-1215l94 -94h86v-119h-156z" />
<glyph horiz-adv-x="565" d="M414 51l-168 -166h-156v119h86l94 94v1215l-94 94h-86v119h156l168 -166v-1309z" />
<glyph horiz-adv-x="565" d="M156 -115v1641h319v-119h-178v-1403h178v-119h-319z" />
<glyph horiz-adv-x="565" d="M410 1526v-1641h-320v119h178v1403h-178v119h320z" />
<glyph horiz-adv-x="565" d="M356 -115l-168 166v545l-65 66h-96v126h92l69 70v502l168 166h154v-119h-84l-94 -94v-484l-103 -102l103 -102v-527l94 -94h84v-119h-154z" />
<glyph horiz-adv-x="565" d="M377 51l-168 -166h-154v119h84l94 94v527l103 102l-103 102v484l-94 94h-84v119h154l168 -166v-502l69 -70h93v-126h-97l-65 -66v-545z" />
<glyph horiz-adv-x="659" d="M190 711l-110 108v484l110 110h279l111 -110v-484l-111 -108h-279zM252 803h154l57 59v400l-57 57h-154l-55 -57v-400z" />
<glyph horiz-adv-x="530" d="M59 711v92h160v518h-160v92h275v-610h151v-92h-426z" />
<glyph horiz-adv-x="614" d="M70 711v282l90 92h233l41 41v138l-55 55h-139l-54 -53v-74h-114v115l106 106h264l107 -108v-228l-90 -90h-232l-41 -41v-139h361v-96h-477z" />
<glyph horiz-adv-x="634" d="M178 711l-108 104v113h116v-74l54 -53h145l61 59v121l-38 39h-209v90h209l38 39v119l-55 55h-151l-54 -53v-78h-116v115l108 106h277l106 -108v-170l-67 -68l67 -68v-182l-106 -106h-277z" />
<glyph horiz-adv-x="630" d="M397 711v170h-362v73l139 459h113l-125 -436h235v436h113v-436h76v-96h-76v-170h-113z" />
<glyph horiz-adv-x="645" d="M188 711l-108 104v115h117v-72l51 -55h147l54 55v160l-58 57h-145l-41 -41h-125v379h469v-98h-352v-191l45 47h221l102 -104v-250l-108 -106h-269z" />
<glyph horiz-adv-x="647" d="M188 711l-108 106v486l110 110h279l106 -106v-101h-106v60l-53 53h-160l-59 -59v-183l57 58h217l107 -107v-211l-109 -106h-281zM250 801h158l53 53v137l-51 51h-164l-49 -49v-139z" />
<glyph horiz-adv-x="534" d="M186 711v288l183 316h-344v98h485v-67l-205 -353v-282h-119z" />
<glyph horiz-adv-x="651" d="M180 711l-106 106v182l67 68l-67 68v170l106 108h289l109 -108v-170l-68 -68l68 -68v-182l-109 -106h-289zM250 801h151l60 59v121l-39 39h-193l-41 -39v-121zM229 1110h193l39 39v119l-53 55h-164l-56 -55v-119z" />
<glyph horiz-adv-x="647" d="M176 711l-106 104v105h106v-62l55 -55h160l60 61v176l-60 -57h-215l-106 107v215l108 108h281l108 -108v-486l-110 -108h-281zM238 1075h161l52 49v144l-56 55h-155l-56 -55v-142z" />
<glyph horiz-adv-x="659" d="M190 2l-110 109v483l110 111h279l111 -111v-483l-111 -109h-279zM252 94h154l57 60v399l-57 57h-154l-55 -57v-399z" />
<glyph horiz-adv-x="530" d="M59 2v92h160v518h-160v93h275v-611h151v-92h-426z" />
<glyph horiz-adv-x="614" d="M70 2v283l90 92h233l41 41v137l-55 55h-139l-54 -53v-74h-114v115l106 107h264l107 -109v-227l-90 -90h-232l-41 -41v-140h361v-96h-477z" />
<glyph horiz-adv-x="634" d="M178 2l-108 104v113h116v-74l54 -53h145l61 60v120l-38 39h-209v90h209l38 39v119l-55 55h-151l-54 -53v-78h-116v115l108 107h277l106 -109v-170l-67 -68l67 -67v-182l-106 -107h-277z" />
<glyph horiz-adv-x="630" d="M397 2v170h-362v74l139 459h113l-125 -437h235v437h113v-437h76v-96h-76v-170h-113z" />
<glyph horiz-adv-x="645" d="M188 2l-108 104v115h117v-71l51 -56h147l54 56v159l-58 58h-145l-41 -41h-125v379h469v-99h-352v-190l45 47h221l102 -105v-249l-108 -107h-269z" />
<glyph horiz-adv-x="647" d="M188 2l-108 107v485l110 111h279l106 -107v-100h-106v59l-53 53h-160l-59 -59v-182l57 57h217l107 -107v-210l-109 -107h-281zM250 92h158l53 53v138l-51 51h-164l-49 -49v-140z" />
<glyph horiz-adv-x="534" d="M186 2v289l183 315h-344v99h485v-68l-205 -352v-283h-119z" />
<glyph horiz-adv-x="651" d="M180 2l-106 107v182l67 67l-67 68v170l106 109h289l109 -109v-170l-68 -68l68 -67v-182l-109 -107h-289zM250 92h151l60 60v120l-39 39h-193l-41 -39v-120zM229 401h193l39 39v119l-53 55h-164l-56 -55v-119z" />
<glyph horiz-adv-x="647" d="M176 2l-106 104v105h106v-61l55 -56h160l60 62v176l-60 -58h-215l-106 107v215l108 109h281l108 -109v-485l-110 -109h-281zM238 367h161l52 49v143l-56 55h-155l-56 -55v-141z" />
</font>
</defs>
</svg>
