<?xml version="1.0" encoding="utf-8"?>
<!-- Generator: Adobe Illustrator 26.0.2, SVG Export Plug-In . SVG Version: 6.00 Build 0)  -->
<svg version="1.1" id="Layer_1" xmlns="http://www.w3.org/2000/svg" xmlns:xlink="http://www.w3.org/1999/xlink" x="100px" y="60px"
	 viewBox="0 0 144 72" style="enable-background:new 0 0 144 72;" xml:space="preserve">
<style type="text/css">
	.st0{fill:#FFFFFF;}
	.st1{fill:#00629B;}
	.st2{fill:#00A9E0;}
	.st3{fill:#020000;}
	.st4{fill:#003B71;}
	.st5{fill:#07B14C;}
	.st6{fill:#0077C8;}
	.st7{fill:#CE0E2D;}
	.st8{fill:#FF4713;}
	.st9{fill:#1E417C;}
	.st10{fill:#FFD100;}
	.st11{fill:#231F20;}
</style>
<g>
	<g>
		<g>
			<path class="st0" d="M134.7,27.1l1.5-9.2c-4.2-0.9-10.3-1.7-15.6-1.8c-6.2-0.2-11.6,0.5-13.2,0.8c-3,0.5-5.6,1.5-7.6,3
				c-2,1.4-3.5,3.4-4.5,5.9c-1,2.5-1.5,5.7-1.5,9.7s0.5,7.1,1.5,9.6c1,2.5,2.5,4.4,4.5,5.8c2,1.4,4.5,2.4,7.5,2.9
				c3,0.5,6.9,0.8,11,0.8c7.9,0,16.8-2.2,18.4-2.9V34.6h-17v6.9h7.4v3c-1,0.2-4.9,0.9-8.8,1c-13.2,0.4-14.1-4.8-14.1-10.2
				c0-4.8,1.7-8.8,7.8-9.6C118.1,24.9,125.8,25.3,134.7,27.1 M18.5,17h12.9l17.8,36.9h-11l-3.1-6.5H15l-2.9,6.5H1L18.5,17z M18.5,17
				h12.9l17.8,36.9h-11l-3.1-6.5H15l-2.9,6.5H1L18.5,17z M18.5,17h12.9l17.8,36.9h-11l-3.1-6.5H15l-2.9,6.5H1L18.5,17z M18.7,39.4
				h12.7l-6.4-13.9L18.7,39.4z M18.7,39.4h12.7l-6.4-13.9L18.7,39.4z M18.7,39.4h12.7l-6.4-13.9L18.7,39.4z M52.1,17h11.3v13.6h1.2
				L78.8,17h15.3L74.2,35l22.2,18.9H80.8L64.5,39.7h-1.2v14.2H52.1V17z"/>
		</g>
	</g>
	<path class="st0" d="M139.7,20.9c0.2,0,0.3,0,0.4,0c0.1-0.1,0.2-0.2,0.2-0.3c0-0.2,0-0.3-0.1-0.3c-0.1-0.1-0.3-0.1-0.5-0.1h-0.3
		v0.8H139.7z M140.4,22.2L140.4,22.2l0-0.2v-0.2c0-0.3-0.1-0.4-0.2-0.5c-0.1,0-0.2-0.1-0.5-0.1h-0.3v0.9h-0.5v-2.4h0.9
		c0.3,0,0.5,0,0.7,0.1c0.3,0.1,0.4,0.3,0.4,0.6c0,0.2-0.1,0.4-0.2,0.5c-0.1,0-0.1,0.1-0.2,0.1c0.1,0,0.2,0.1,0.3,0.2
		c0.1,0.1,0.1,0.3,0.1,0.4v0.2c0,0.1,0,0.1,0,0.2c0,0.1,0,0.1,0,0.1l0,0.1H140.4z M139.8,19.2c-0.5,0-0.9,0.2-1.3,0.5
		c-0.4,0.4-0.5,0.8-0.5,1.3c0,0.5,0.2,0.9,0.5,1.3c0.4,0.4,0.8,0.5,1.3,0.5c0.5,0,0.9-0.2,1.3-0.5c0.4-0.4,0.5-0.8,0.5-1.3
		c0-0.5-0.2-0.9-0.5-1.3C140.7,19.4,140.3,19.2,139.8,19.2 M139.8,23.2c-0.6,0-1.1-0.2-1.5-0.6c-0.4-0.4-0.6-1-0.6-1.6
		c0-0.6,0.2-1.1,0.6-1.5c0.4-0.4,0.9-0.6,1.5-0.6c0.6,0,1.1,0.2,1.6,0.6c0.4,0.4,0.6,0.9,0.6,1.5c0,0.6-0.2,1.1-0.6,1.6
		C140.9,23,140.4,23.2,139.8,23.2"/>
</g>
</svg>
