<?xml version="1.0" encoding="utf-8"?>
<!-- Generator: Adobe Illustrator 26.0.2, SVG Export Plug-In . SVG Version: 6.00 Build 0)  -->
<svg version="1.1" id="Layer_1" xmlns="http://www.w3.org/2000/svg" xmlns:xlink="http://www.w3.org/1999/xlink" x="0px" y="0px"
	 viewBox="0 0 144 72" style="enable-background:new 0 0 144 72;" xml:space="preserve">
<style type="text/css">
	.st0{fill:#FFFFFF;}
	.st1{fill:#00629B;}
	.st2{fill:#00A9E0;}
	.st3{fill:#020000;}
	.st4{fill:#003B71;}
	.st5{fill:#07B14C;}
	.st6{fill:#0077C8;}
	.st7{fill:#CE0E2D;}
	.st8{fill:#FF4713;}
	.st9{fill:#1E417C;}
	.st10{fill:#FFD100;}
	.st11{fill:#231F20;}
</style>
<g>
	<g>
		<path class="st0" d="M92.8,33.1l1.9-11.5c1.7,2,6.5,7.4,9.7,11c7.2-0.2,14.9-0.4,23-0.3c5.4-4.6,13.6-11.5,13.6-11.5h-15.2
			c0,0-9.2,7.8-9.6,8.2c-0.4-0.4-7-8.2-7-8.2l-24.2,0c0,0-12.8,10.2-13.2,10.5c-0.4-0.4-9.7-10.5-9.7-10.5h-9.7l-2.9,17.1
			C61.6,35.7,75.9,34,92.8,33.1"/>
		<path class="st0" d="M27.7,31.6c0.4,1,2.4,6.9,2.8,7.9h-7.8C22.8,39.2,27.1,32.5,27.7,31.6 M42.5,39.1l-7.2-18.3H23.1L1.6,52.6
			C10.2,48,23.2,43,42.5,39.1"/>
		<path class="st0" d="M48.8,41.9l-1.6,9.4l-3.4-8.6c-4.1,0.7-7.9,1.4-11.5,2.2c0.6,1.6,2.8,7.7,2.8,7.7h23.6c0,0,1.2-7.2,2.1-12.3
			C56.6,40.8,52.6,41.3,48.8,41.9"/>
		<path class="st0" d="M105.9,37.5c-3.6,3-12.1,10.1-16,13.4l2.2-13c-4.1,0.2-8,0.4-11.8,0.7c-0.8,4.9-2.3,14-2.3,14H103
			c0,0,10.5-8.9,11-9.3c0.4,0.4,8,9.3,8,9.3h15.2c0,0-10.2-11.5-13.5-15.2C117.5,37.3,111.6,37.4,105.9,37.5"/>
		<path class="st0" d="M140.1,50.6h0.2c0.3,0,0.5-0.1,0.5-0.4c0-0.2-0.1-0.4-0.5-0.4c-0.1,0-0.2,0-0.2,0V50.6z M140.1,51.8h-0.3
			v-2.1c0.2,0,0.3-0.1,0.6-0.1c0.3,0,0.5,0.1,0.7,0.2c0.1,0.1,0.2,0.2,0.2,0.4c0,0.3-0.2,0.4-0.4,0.5v0c0.2,0,0.3,0.2,0.4,0.5
			c0.1,0.3,0.1,0.5,0.1,0.5h-0.4c0-0.1-0.1-0.3-0.1-0.5c-0.1-0.3-0.2-0.4-0.5-0.4h-0.2V51.8z M140.4,49.1c-0.8,0-1.5,0.7-1.5,1.6
			c0,0.9,0.7,1.6,1.5,1.6c0.8,0,1.5-0.7,1.5-1.6C142,49.8,141.3,49.1,140.4,49.1L140.4,49.1z M140.4,48.8c1,0,1.9,0.8,1.9,1.9
			c0,1.1-0.8,1.9-1.9,1.9c-1,0-1.9-0.8-1.9-1.9C138.5,49.6,139.4,48.8,140.4,48.8L140.4,48.8z"/>
	</g>
</g>
</svg>
