<?xml version="1.0" encoding="utf-8"?>
<!-- Generator: Adobe Illustrator 26.0.2, SVG Export Plug-In . SVG Version: 6.00 Build 0)  -->
<svg version="1.1" id="Layer_1" xmlns="http://www.w3.org/2000/svg" xmlns:xlink="http://www.w3.org/1999/xlink" x="0px" y="0px"
	 viewBox="0 0 144 72" style="enable-background:new 0 0 144 72;" xml:space="preserve">
<style type="text/css">
	.st0{fill:#FFFFFF;}
	.st1{fill:#00629B;}
	.st2{fill:#00A9E0;}
	.st3{fill:#020000;}
	.st4{fill:#003B71;}
	.st5{fill:#07B14C;}
	.st6{fill:#0077C8;}
	.st7{fill:#CE0E2D;}
	.st8{fill:#FF4713;}
	.st9{fill:#1E417C;}
	.st10{fill:#FFD100;}
	.st11{fill:#231F20;}
</style>
<g>
	<g>
		<path class="st0" d="M49.7,52.2V1.4h-10c0,0,0,34.2,0,34.2c-9.6-6.3-23.6-1-27.3,9.5c-3,8.6,0.4,17.7,8.2,22.1
			c5.4,3.1,12.5,3.6,19.2-0.2c0,0,0.1,2.1,0,2h10V52.2L49.7,52.2z M29.7,59.9c-4.7,0-8.5-3.8-8.5-8.5c0-4.7,3.8-8.5,8.5-8.5
			c4.7,0,8.5,3.8,8.5,8.5C38.2,56,34.4,59.9,29.7,59.9z"/>
		<path class="st0" d="M97.2,69.3c0,0-0.1-10,0-10c11-0.8,11-16-0.1-16.8v-10c6.5,0,11.2,1.9,14.2,7c2.7-5.3,8.7-7,14-7
			c0,0.1,0.1,10,0,10c-10.6,0.9-11,15.1,0,16.8v10c-10.5,0-14-5.7-14-5.6C109,66.6,105.2,69.3,97.2,69.3z"/>
		<path class="st0" d="M128.8,24.8c0.8,0,1.4,0.3,1.9,0.8c0.5,0.5,0.8,1.2,0.8,1.9c0,0.8-0.3,1.4-0.8,1.9c-0.5,0.5-1.2,0.8-1.9,0.8
			c-0.8,0-1.4-0.3-1.9-0.8c-0.5-0.5-0.8-1.2-0.8-1.9c0-0.7,0.3-1.4,0.8-1.9C127.4,25.1,128,24.8,128.8,24.8z M131.9,27.5
			c0-0.9-0.3-1.6-0.9-2.2c-0.6-0.6-1.4-0.9-2.2-0.9c-0.9,0-1.6,0.3-2.2,0.9c-0.6,0.6-0.9,1.3-0.9,2.2c0,0.9,0.3,1.6,0.9,2.2
			c0.6,0.6,1.4,0.9,2.2,0.9c0.9,0,1.6-0.3,2.2-0.9C131.6,29.1,131.9,28.4,131.9,27.5z M129.6,26.8c0,0.3-0.1,0.4-0.4,0.5
			c-0.1,0.1-0.3,0.1-0.6,0.1h-0.6v-1.2h0.5c0.3,0,0.6,0,0.7,0.1C129.5,26.4,129.6,26.6,129.6,26.8z M127.5,25.8v3.4h0.6v-1.4h0.5
			c0.3,0,0.6,0,0.7,0.1c0.2,0.1,0.3,0.4,0.3,0.8V29l0,0.1c0,0,0,0,0,0c0,0,0,0,0,0h0.6l0,0c0,0,0-0.1,0-0.2c0-0.1,0-0.2,0-0.3v-0.3
			c0-0.2-0.1-0.4-0.2-0.5c-0.1-0.2-0.3-0.3-0.6-0.3c0.2,0,0.4-0.1,0.5-0.2c0.2-0.1,0.3-0.4,0.3-0.7c0-0.4-0.2-0.7-0.5-0.9
			c-0.2-0.1-0.5-0.1-0.9-0.1H127.5z"/>
		<path class="st0" d="M93.2,45c-3.7-10.5-17.7-15.8-27.3-9.5c0,0.1,0-34.2,0-34.2h-10v48.7l0,0V69h10c-0.1,0.1,0-2,0-2
			c6.7,3.7,13.7,3.3,19.2,0.2C92.8,62.7,96.2,53.6,93.2,45z M76,59.9c-4.7,0-8.5-3.8-8.5-8.5c0-4.7,3.8-8.5,8.5-8.5
			c4.7,0,8.5,3.8,8.5,8.5C84.5,56,80.7,59.9,76,59.9z"/>
	</g>
</g>
</svg>
