<?xml version="1.0" encoding="utf-8"?>
<!-- Generator: Adobe Illustrator 26.0.2, SVG Export Plug-In . SVG Version: 6.00 Build 0)  -->
<svg version="1.1" id="Layer_1" xmlns="http://www.w3.org/2000/svg" xmlns:xlink="http://www.w3.org/1999/xlink" x="0px" y="0px"
	 viewBox="0 0 144 72" style="enable-background:new 0 0 144 72;" xml:space="preserve">
<style type="text/css">
	.st0{fill:#FFFFFF;}
	.st1{fill:#00629B;}
	.st2{fill:#00A9E0;}
	.st3{fill:#020000;}
	.st4{fill:#003B71;}
	.st5{fill:#07B14C;}
	.st6{fill:#0077C8;}
	.st7{fill:#CE0E2D;}
	.st8{fill:#FF4713;}
	.st9{fill:#1E417C;}
	.st10{fill:#FFD100;}
	.st11{fill:#231F20;}
</style>
<g>
	<g>
		<path class="st0" d="M16,32.7v7.9H6.8v-7.9H3.1v17.8h3.7v-8.3H16l0,6.4c0,0.4,0.1,0.7,0.2,1c0.2,0.2,0.4,0.4,0.6,0.6
			c0.2,0.1,0.5,0.2,0.8,0.3c0.3,0,0.5,0.1,0.7,0.1c0.1,0,1.4,0,1.4,0V32.7H16z"/>
		<path class="st0" d="M88.8,50.5V32.7h-3.6l-7.3,13.2l-7.4-13.2h-3.7v17.8h1.9V36.7l7.8,13.8h1l7.6-13.7v11.8c0,0.4,0.1,0.7,0.2,1
			c0.2,0.2,0.4,0.4,0.6,0.6c0.2,0.1,0.5,0.2,0.8,0.3c0.3,0,0.5,0.1,0.7,0.1H88.8z"/>
		<path class="st0" d="M112.2,50.5l-9.3-18.2h-1.1l-9.5,18.2h2.2l3-5.7h6.8l-0.9-1.8h-4.9l3.1-6l6.2,12.1c0.2,0.5,0.5,0.9,0.9,1.1
			c0.4,0.2,0.8,0.3,1.4,0.3H112.2z"/>
		<path class="st0" d="M131.5,32.7c-0.1,0-0.2,0-0.3,0c-0.1,0-0.3,0.1-0.4,0.1c-0.1,0.1-0.2,0.2-0.3,0.3c-0.1,0.1-0.1,0.3-0.1,0.5
			v11.5L118,32.7h-2.4v17.8h2.2V37.1l12.6,13c0.5,0.5,1.2,0.4,1.9,0.4h0.3V32.7H131.5z"/>
	</g>
	<path class="st0" d="M38.8,25.5c0,0,4.3-2.5,7.6-3.8c8-3.4,15.1-5.4,21.6-6.6c5.2-1,21.2-3.5,33.9,0.5c0.2,3-0.6,6.3-2.2,10h5.2
		c1.3-2.7,2.2-5.3,2.6-7.7c2,1.1,3.8,2.4,5.3,3.9c1.4,1.5,2.9,3.8,2.9,3.8h2.3c0,0-1-2.2-3.1-4.4c-2-2.1-4.5-3.6-7.1-4.8
		c0.4-4.7-1.2-8.7-5.1-11.4c-9.4-6.6-28.1-2.8-45.3,6.4c-7.7,4.1-14.7,9.2-20.5,14.2H38.8z M92.2,12.6c-8.3-0.7-17.8,0.3-24.2,1.6
		c-7.7,1.6-15,3.8-21.8,6.7c-1.6,0.7-3,1.4-4.5,2.2c4.7-3.5,10-7,15.7-9.8C73.3,5.3,90,2.2,97.9,8.1c2.2,1.6,3.4,3.7,3.9,6.2
		C97.9,13.3,94.4,12.8,92.2,12.6z"/>
	<path class="st0" d="M33.9,32.3h-1.1l-9.6,18.2h2.2L32.5,37l3.1,6h-4.9l-0.9,1.8h6.8l2.1,4.3c0.2,0.5,0.5,0.9,0.9,1.1
		c0.4,0.2,0.8,0.3,1.4,0.3h2.3L33.9,32.3z"/>
	<path class="st0" d="M89.1,60.1h-1.4C78.3,64,67.4,66.6,56.5,67c4.7-1.7,9.7-4,14.7-6.9h-4.7c-4.9,2.8-9.8,5-14.4,6.5
		c-0.5,0.2-1,0.3-1.5,0.5c-8-0.3-14.3-2.1-18.6-4.8c-1-0.7-2-1.4-2.8-2.1h-1c1,1,2.1,1.9,3.4,2.8c3.9,2.5,9.2,4.3,15.9,4.9
		c-6.1,1.4-11.1,1.3-14.8,0.1c-3.7-1.2-6.4-3.6-7.4-6.7c-0.1-0.4-0.2-0.7-0.3-1.1h-0.6c0.1,0.5,0.2,1,0.4,1.4
		c1.1,3.5,4.1,6.1,8.1,7.5c4.7,1.7,11.4,1.7,20-0.8c0.1,0,0.2-0.1,0.3-0.1C64.5,68.2,77.4,65.5,89.1,60.1z"/>
	<path class="st0" d="M57.8,49.1l-5.5-6.7h-1.9v8.1h-3.7V32.7h6.8c0,0,2.8,0,4.7,0.9c1.8,0.9,2.6,2.2,2.6,3.9s-1,3.6-4.5,4.6
		l7.1,8.5h-2.9c0,0-0.6,0-1.3-0.2C58.6,50.1,57.8,49.1,57.8,49.1z M50.4,34.3V41h1.7c0,0,1.7,0,2.8-0.6c1.1-0.6,1.9-1.5,1.9-2.8
		c0-1.3-0.8-2.5-2-3c0,0-0.7-0.3-1.9-0.3C51.7,34.3,50.4,34.3,50.4,34.3z"/>
	<g>
		<path class="st0" d="M135.9,33h-0.9v-0.3h2.1V33h-0.9v2.3h-0.3V33z"/>
		<path class="st0" d="M137.4,32.7h0.5l0.8,2.2l0.8-2.2h0.5v2.6h-0.3v-2.1h0l-0.8,2.1h-0.3l-0.8-2.1h0v2.1h-0.3V32.7z"/>
	</g>
</g>
</svg>
