<?xml version="1.0" encoding="utf-8"?>
<!-- Generator: Adobe Illustrator 26.0.2, SVG Export Plug-In . SVG Version: 6.00 Build 0)  -->
<svg version="1.1" id="Layer_1" xmlns="http://www.w3.org/2000/svg" xmlns:xlink="http://www.w3.org/1999/xlink" x="0px" y="0px"
	 viewBox="0 0 144 72" style="enable-background:new 0 0 144 72;" xml:space="preserve">
<style type="text/css">
	.st0{fill:#FFFFFF;}
	.st1{fill:#00629B;}
	.st2{fill:#00A9E0;}
	.st3{fill:#020000;}
	.st4{fill:#003B71;}
	.st5{fill:#07B14C;}
	.st6{fill:#0077C8;}
	.st7{fill:#CE0E2D;}
	.st8{fill:#FF4713;}
	.st9{fill:#1E417C;}
	.st10{fill:#FFD100;}
	.st11{fill:#231F20;}
</style>
<g>
	<g>
		<path class="st0" d="M88.7,42.5c-0.1,0.6-0.2,1.2-0.5,1.7c-3.4,5.8-12.6,5.4-16.5-0.2c-1.8-2.6-2.4-5.5-2.6-8.6
			c-0.3-6,3.4-11.8,9.5-12.3c3.5-0.3,8.3,0,10,3.5V34c-2.4-1.8-4.7-3.7-8-3c-1.9,0.4-3.1,1.6-3.5,3.5c-0.6,3,0.5,6.1,3.7,6.8
			c3.4,0.7,5.6-1.7,7.8-3.8V42.5z"/>
		<path class="st0" d="M129.7,34.7l0,12.5h8.1V30.3c-0.1-0.5-0.1-1-0.2-1.5c-0.6-3.6-4.7-5-8-4.5c-2.4,0.3-4.5,1.3-6.1,3.4
			c-0.1,0.2-0.4,0-0.4-0.2l0-2.8h-7.8v22.5h8.1V34.7c0.3-2.1,2.4-3.6,4.7-2.9c1,0.3,1.6,1.1,1.6,2C129.6,34.1,129.7,34.4,129.7,34.7"/>
		<path class="st0" d="M67,24.4c-2.8,0.4-5.7,0.4-8.4,0v22.8H67V24.4z"/>
		<polygon class="st0" points="1.8,11.9 9.7,11.9 9.7,50.1 137.9,50.1 137.9,58.2 1.8,58.2"/>
		<path class="st0" d="M19.4,32.2c0-1.4,2.8-3,4.5-3c1.7,0,4.2,1.6,4.2,3h-7.2H19.4z M33.4,38.2c0.6-4.3,0.9-9.8-2.8-12.7
			c-4.7-3.7-11.6-3.4-15.6,1c-3.5,3.8-3.5,9.4-2.1,14.3c0.9,3.1,3.3,5.8,6.3,6.7c3.8,1.2,7.7,0.8,11.3-1.1c2.7-1.5,2.3-4.7,2.3-7.1
			L32,39.1c-2.4,2.6-6.1,4-9.4,2.9c-1.5-0.5-3-2.1-3-3.8h1.7H33.4z"/>
		<polygon class="st0" points="45.4,30.2 48.6,24.1 57.1,24.1 50,35.6 57.1,47.1 47.9,47.1 45,41.9 42.1,47.1 33.6,47.1 39.9,35.6 33.6,24.1 42.1,24.1"/>
		<path class="st0" d="M101.9,41.3c-2.3,0-3.9-2.2-3.9-5.9c0-2.3,1.4-4.7,3.9-4.7c2.5,0,3.9,2.4,3.9,4.7
			C105.8,39.1,104.2,41.2,101.9,41.3 M104.1,23c-0.7-0.1-1.4-0.1-2.2-0.1c-0.7,0-1.5,0-2.2,0.1c-6.5,0.6-9,6-9,12
			c0,5,1.1,10.8,6.7,12.6c1.4,0.5,2.9,0.7,4.4,0.7c1.5,0,3-0.2,4.4-0.7c5.6-1.8,6.7-7.5,6.7-12.6C113.1,29.1,110.6,23.6,104.1,23"/>
		<path class="st0" d="M62.8,22.7c-2.5,0-4.6-1.4-4.6-3.1c0-1.7,2.1-3.1,4.6-3.1c2.5,0,4.6,1.4,4.6,3.1
			C67.4,21.3,65.3,22.7,62.8,22.7"/>
	</g>
	<path class="st0" d="M141.4,26c-0.1-0.1-0.3-0.1-0.5-0.1h-0.4v0.9h0.4c0.2,0,0.3,0,0.4-0.1c0.2-0.1,0.2-0.2,0.2-0.4
		C141.6,26.2,141.5,26,141.4,26 M141,25.6c0.3,0,0.5,0,0.6,0.1c0.2,0.1,0.4,0.3,0.4,0.6c0,0.2-0.1,0.4-0.2,0.5
		c-0.1,0.1-0.2,0.1-0.3,0.1c0.2,0,0.3,0.1,0.4,0.2c0.1,0.1,0.1,0.2,0.1,0.4v0.2c0,0.1,0,0.1,0,0.2c0,0.1,0,0.1,0,0.1l0,0h-0.4
		c0,0,0,0,0,0c0,0,0,0,0,0l0-0.1v-0.2c0-0.3-0.1-0.5-0.2-0.5c-0.1-0.1-0.2-0.1-0.5-0.1h-0.3V28h-0.4v-2.4H141z M139.7,25.5
		c-0.4,0.4-0.5,0.8-0.5,1.3c0,0.5,0.2,1,0.5,1.3c0.4,0.4,0.8,0.6,1.3,0.6c0.5,0,1-0.2,1.3-0.6c0.4-0.4,0.5-0.8,0.5-1.3
		c0-0.5-0.2-1-0.5-1.3c-0.4-0.4-0.8-0.5-1.3-0.5C140.5,24.9,140.1,25.1,139.7,25.5 M142.5,28.3c-0.4,0.4-0.9,0.6-1.5,0.6
		c-0.6,0-1.1-0.2-1.5-0.6c-0.4-0.4-0.6-0.9-0.6-1.5c0-0.6,0.2-1.1,0.6-1.5c0.4-0.4,0.9-0.6,1.5-0.6c0.6,0,1.1,0.2,1.5,0.6
		c0.4,0.4,0.6,0.9,0.6,1.5C143.2,27.4,142.9,27.9,142.5,28.3"/>
</g>
</svg>
