<?xml version="1.0" encoding="utf-8"?>
<!-- Generator: Adobe Illustrator 26.0.2, SVG Export Plug-In . SVG Version: 6.00 Build 0)  -->
<svg version="1.1" id="Layer_1" xmlns="http://www.w3.org/2000/svg" xmlns:xlink="http://www.w3.org/1999/xlink" x="0px" y="0px"
	 viewBox="0 0 144 72" style="enable-background:new 0 0 144 72;" xml:space="preserve">
<style type="text/css">
	.st0{fill:#FFFFFF;}
	.st1{fill:#00629B;}
	.st2{fill:#00A9E0;}
	.st3{fill:#020000;}
	.st4{fill:#003B71;}
	.st5{fill:#07B14C;}
	.st6{fill:#0077C8;}
	.st7{fill:#CE0E2D;}
	.st8{fill:#FF4713;}
	.st9{fill:#1E417C;}
	.st10{fill:#FFD100;}
	.st11{fill:#231F20;}
</style>
<g>
	<g>
		<g>
			<path class="st0" d="M141.7,26.6c0,0.9-0.7,1.6-1.6,1.6c-0.9,0-1.6-0.7-1.6-1.6c0-0.9,0.7-1.6,1.6-1.6
				C140.9,25,141.7,25.8,141.7,26.6z M138.8,26.6c0,0.7,0.5,1.3,1.2,1.3c0.7,0,1.2-0.6,1.2-1.3c0-0.7-0.5-1.3-1.2-1.3
				C139.3,25.4,138.8,25.9,138.8,26.6z M139.8,27.5h-0.4v-1.6c0.1,0,0.3,0,0.6,0c0.3,0,0.4,0,0.6,0.1c0.1,0.1,0.2,0.2,0.2,0.3
				c0,0.2-0.1,0.3-0.3,0.4v0c0.2,0.1,0.2,0.2,0.3,0.4c0,0.2,0.1,0.3,0.1,0.4h-0.4c0-0.1-0.1-0.2-0.1-0.4c0-0.2-0.1-0.3-0.3-0.3h-0.2
				V27.5z M139.8,26.6h0.2c0.2,0,0.4-0.1,0.4-0.2c0-0.1-0.1-0.2-0.3-0.2c-0.1,0-0.2,0-0.2,0V26.6z"/>
		</g>
	</g>
	<g>
		<g>
			<g>
				<path class="st0" d="M84.4,24.4v15.1c0,5.6,1.3,6.4,1.3,6.4L86,46v0.2h-3.5L82.4,46c-0.1-0.3-0.3-0.7-0.5-1.5l-0.1-0.3
					c0-0.1,0-0.1,0-0.2c-1.2,1.6-2.8,2.5-5,2.7c-0.1,0-0.3,0-0.4,0c-1.2,0-2.5-0.3-3.5-0.9c-1.2-0.6-2.2-1.6-3-2.9
					c-0.7-1.3-1.1-2.7-1.1-4.2c0-1.9,0.6-3.7,1.6-5.2c1-1.4,2.4-2.5,4.2-2.9c0.6-0.2,1.4-0.3,2.1-0.3c1.2,0,2.3,0.2,3.1,0.7
					c0.6,0.3,1.2,0.7,1.8,1.3v-0.5c0-1.6-0.1-2.6-0.1-3.2c-0.1-2.8-1.4-2.5-1.4-2.5v-0.2C80.2,25.9,82.6,25.4,84.4,24.4z M76.7,31.7
					c-0.9,0-1.8,0.3-2.5,0.7c-1.4,1-2.1,3.2-2.1,6.2c0,1.6,0.2,2.9,0.7,3.8c0.4,0.9,1,1.6,1.8,2.1c0.8,0.5,1.5,0.7,2.2,0.7
					c1.9,0,3.3-0.9,4.1-2.7c0.5-1,0.7-2.3,0.7-4.2c0-2.5-0.6-5.7-3.2-6.5C77.9,31.8,77.3,31.7,76.7,31.7z M93.4,46.6
					c-3,0-5.4-1.4-7-4.2c-0.8-1.3-1.1-2.8-1.1-4.5c0-1.1,0.2-2.3,0.6-3.5c0.4-1.2,1.1-2.2,1.9-3c0.7-0.6,1.6-1.3,2.5-1.6
					c1.1-0.4,2.1-0.6,3-0.6c1,0,2.1,0.2,3.3,0.5c1.1,0.3,2.2,0.9,3.2,1.5l0.3,0.2l-1.6,3.3h-0.2l-0.1-0.3c-0.8-2.4-2.3-3.6-4.8-3.8
					c-0.6,0-1.2,0.2-1.8,0.5c-0.6,0.3-1.2,0.9-1.7,1.6c-0.5,0.8-0.8,1.5-0.9,2.1c-0.2,0.8-0.3,2-0.3,3.1c0,1.7,0.3,3.1,0.8,4.2
					c0.9,1.9,2.4,2.9,4.3,2.9c1.3,0,2.3-0.3,3-1l0,0c0.8-0.6,1.5-1.5,2-2.7l0.3-0.8l0.9,1.8l-0.1,0.2c-0.3,0.7-0.9,1.4-1.3,1.9
					c-0.4,0.6-1.1,1.2-2,1.7c-1,0.5-2,0.7-3,0.7C93.6,46.6,93.5,46.6,93.4,46.6z M53.2,45.9 M53,31.4 M58.3,46v0.2h-3.1h-5.2L50,46
					c-0.2-0.3-0.4-1-0.7-1.9c-1.1,1.7-2.9,2.6-5.1,2.6c-2.4,0-4.1-0.8-5.1-2.3c-0.6-1.1-0.9-2.6-0.9-4.1V34c0-0.8-0.1-1.2-0.1-1.4
					c0,0-0.2-1.1-1.2-1.3v-0.2l0.4,0c1-0.1,2.1-0.6,3.3-1.3l0.6-0.3L41,36.2c0,0.8,0,1.8,0,2.9c0,2.3,0.4,3.9,1.3,4.8
					c0.5,0.6,1.4,1,2.4,1c1.2,0,2.3-0.5,3.2-1.5c0.6-0.9,1-2.8,1.1-5.2l0-4.3c0-0.6-0.1-1-0.1-1.3c-0.2-1.2-1.2-1.2-1.2-1.2l0-0.2
					c2.1-0.3,4.5-1.7,4.5-1.7L52,30.4c-0.1,0.4-0.1,0.9-0.1,1.4c0,0.1,0,0.2,0,0.4c0,0.4,0,0.9,0,1.6c0,1,0,2.2,0,3c0,0.7,0,1.4,0,2
					v2.2c0,0.2,0,0.5,0,0.7c0,0.3,0,0.6,0,0.9c0,0,0.2,3,1,3.4c0.2,0,0.4-0.1,0.4-0.1c0.6-0.2,1-1.8,1-3.3v-7c0-1.2-0.1-2.1-0.2-2.6
					c0,0,0-1.7-1.1-1.7v-0.2l0.3-0.1c1.3-0.3,2.3-0.8,3-1.2l0.6-0.4v2.8c0.5-0.9,1.2-1.6,1.9-2c0.9-0.5,1.9-0.8,3-0.8
					c2.4,0,4.1,0.9,5,2.7c0.6,1,1,2.8,1,5l0,4.7c0,3.3,1.1,4,1.1,4l0.3,0.1v0.2h-5.7V46l0.3-0.1c0.7-0.2,1.1-1.9,1.1-3.6v-5.1
					c0-2-0.3-3.6-1-4.5c-0.6-1-1.6-1.5-3-1.5c-1.2,0-2.1,0.6-2.7,1.7l0,0c-0.7,1.1-1.1,2.6-1.3,4.3c-0.1,1.2-0.1,2.3,0,3.5
					c0,0.6,0,1.2,0,1.8C57.1,42.5,57.2,45.9,58.3,46z M29.1,46.6c-1.3,0-2.6-0.3-3.9-1C24,45,23,44,22.2,42.7
					c-0.8-1.3-1.2-2.9-1.2-4.6c0-1.8,0.4-3.4,1.2-4.7c0.8-1.4,1.9-2.4,3.1-3.1c1.2-0.7,2.5-1.1,3.9-1.1c1.6,0,3,0.4,4.2,1.2
					c1.2,0.8,2.2,1.9,2.9,3.2c0.7,1.4,1,2.8,1,4.3c0,1.6-0.4,3.1-1.1,4.5c-0.7,1.3-1.9,2.5-3,3.1C31.9,46.2,30.5,46.6,29.1,46.6z
					 M29.1,30.6c-1,0-1.9,0.3-2.5,0.8c-0.7,0.5-1.3,1.3-1.8,2.4c-0.4,1.1-0.6,2.6-0.6,4.1v0.1c0,4.7,1.7,7.1,4.9,7.1
					c1.4,0,2.6-0.6,3.5-1.6c0.9-1.4,1.4-3.3,1.3-5.7c0-1.9-0.3-3.5-0.9-5C32.3,31.6,30.9,30.7,29.1,30.6z M11.7,37.3
					c-2.1-0.5-3.8-1.1-5.1-1.8c-1.4-0.8-2.1-1.9-2.1-4c0,0-0.2-4,3.8-5.8c5.2-2.4,11.8,1.9,11.8,1.9l-2,3.5L18,31v-0.3
					c0-1-0.5-1.8-1-2.2c0,0-2.1-2.2-5.7-1.9c-3.6,0.3-5.8,5.5-0.3,6.9c5.6,1.4,6.6,2,6.6,2c0.8,0.4,1.4,1,1.9,1.7
					c0.5,0.7,0.8,1.8,0.8,2.8c0,2.3-1,4.1-2.8,5.1c-1.8,1.1-3.8,1.6-5.9,1.6c0,0-5,0.1-9-2.7l1.8-5c0.3,3.8,2.8,5,2.8,5
					c1.4,0.8,3,1.3,4.7,1.3c1.3,0,2.7-0.3,3.8-1c1-0.6,1.5-1.6,1.5-3c0-0.5-0.1-1.1-0.4-1.6C15.6,38,11.7,37.3,11.7,37.3z M124.7,46
					v0.2h-3.4c-0.4-0.1-0.7-2-0.7-2c-1.1,1.6-2.6,2.4-4.6,2.4c-2,0-3.7-0.5-4.7-1.5c-1.1-1-1.6-2.2-1.6-3.5c0-1.1,0.4-2.1,1.1-3
					c0.6-0.6,1.6-1.5,3.3-2l0,0c1.8-0.4,3.6-0.6,5.3-0.6h0.8v-0.3c0-1.4-0.3-2.7-0.9-3.4c-0.7-0.9-1.6-1.4-3-1.4
					c-1.6,0-2.8,0.4-3.4,1.2c-0.7,0.9-1,2.2-1,2.6l0,0h-0.2l-1.7-3.5l0.3-0.2c2.2-1.1,4.3-1.6,6.4-1.6c0,0,6.7-0.5,6.4,6.1v6.2
					C123.2,41.8,123.1,45.9,124.7,46 M119.8,37.4c-1.8,0-3.5,0.3-4.9,0.9c-1.3,0.5-1.9,1.6-1.9,3.3c0,1.1,0.3,2,0.8,2.6
					c0.6,0.7,1.4,1,2.4,1c1.1,0,2-0.3,2.7-1c0.6-0.6,1.1-1.4,1.2-2.1l0-0.2c0.1-0.9,0.2-2,0.2-3.2v-1.4H119.8z M136.5,31.1h2.9
					l-0.6,1.5h-2.4c0,0.5,0,1.1,0,1.7c0,1.4,0,3.1,0,4.9c0,1.5,0.1,2.8,0.2,3.7c0,0,0.2,2.9,1.8,3.1v0.2h-2.9c-0.7,0-1-0.6-1.2-0.9
					c-0.4-0.8-0.6-1.8-0.6-2.9l0-3.7c0-2.9,0.1-4.5,0.1-6.1h-2.2l0.6-1.5L133,31c1.3-0.2,1.7-0.9,2-1.4c0.4-0.7,0.6-1.2,0.9-2.2
					l0.1-0.3h0.4 M130.3,45.9l0.3,0.1v0.2h-5.9V46l0.3-0.1c0.8-0.2,1.1-1,1.1-2.2l0,0c0.1-2.1,0.2-6.2,0.2-11.1h-2.6l0.6-1.5h2
					c0-6.9,7-6.4,7-6.4l-1,3.2h-0.1l-0.1-0.2c-0.5-0.7-1.3-0.9-1.7-0.9c-0.3,0-0.6,0.1-0.9,0.8c-0.3,0.7-0.4,1.2-0.4,2.3
					c0,0.1,0,0.3,0,0.5c0,0.2,0,0.4,0,0.7h2.6l-0.6,1.5H129c0,6.4,0.1,10.5,0.1,11.1C129.2,43.7,129.2,45.7,130.3,45.9z M104.8,29.5
					v0.7c0,0.8,0,1.6,0,2.3c0,0,1.9-3.4,5.4-3l-1.4,4.5c0,0-1.5-3.3-3.2-0.1c-0.6,1-0.8,2.3-0.8,3.5v4.4c0,0,0.1,3.9,1.2,4.2
					l0.3,0.1v0.2h-6V46l0.4-0.1c0.8-0.1,1.3-2.1,1.3-4.2c0-1.4,0-2.6,0-3.8c0-0.9,0-1.8,0-2.6c0-1.6-0.1-2.7-0.2-3.2
					c-0.1-1.4-1.1-1.3-1.1-1.3v-0.2C100.7,30.9,103.6,30.4,104.8,29.5z"/>
			</g>
		</g>
	</g>
</g>
</svg>
