<?xml version="1.0" encoding="utf-8"?>
<!-- Generator: Adobe Illustrator 26.0.2, SVG Export Plug-In . SVG Version: 6.00 Build 0)  -->
<svg version="1.1" id="Layer_1" xmlns="http://www.w3.org/2000/svg" xmlns:xlink="http://www.w3.org/1999/xlink" x="0px" y="0px"
	 viewBox="0 0 144 72" style="enable-background:new 0 0 144 72;" xml:space="preserve">
<style type="text/css">
	.st0{fill:#FFFFFF;}
	.st1{fill:#00629B;}
	.st2{fill:#00A9E0;}
	.st3{fill:#020000;}
	.st4{fill:#003B71;}
	.st5{fill:#07B14C;}
	.st6{fill:#0077C8;}
	.st7{fill:#CE0E2D;}
	.st8{fill:#FF4713;}
	.st9{fill:#1E417C;}
	.st10{fill:#FFD100;}
	.st11{fill:#231F20;}
</style>
<g>
	<path class="st0" d="M13.3,38.9l-1.1-9.5l6.1,3.1l5.2-4.1l5.2,4.1l6.1-3.1l-1.2,9.5H13.3z M33,42.6H13.7l-0.2-1.9l19.7,0L33,42.6z
		 M23.4,22.3c-7.4,0-13.5,6-13.5,13.5c0,7.4,6,13.5,13.5,13.5c7.4,0,13.5-6,13.5-13.5C36.9,28.4,30.8,22.3,23.4,22.3 M23.5,31.2
		L18.5,35l-3.9-1.6l0.4,3.5h16.9l0.4-3.5L28.4,35L23.5,31.2z M23.4,52.8c9.4,0,16.9-7.6,16.9-16.9s-7.6-16.9-16.9-16.9
		c-9.4,0-16.9,7.6-16.9,16.9S14,52.8,23.4,52.8 M1.5,35.8C1.5,23.8,11.3,14,23.4,14c12.1,0,21.8,9.8,21.8,21.8
		c0,12.1-9.8,21.8-21.8,21.8C11.3,57.6,1.5,47.9,1.5,35.8"/>
	<path class="st0" d="M62.7,31.4h-6.7c-0.7,0-1,0.3-1,0.8l-0.8,7.1c-0.1,0.5,0.2,0.8,0.8,0.8h6.7l-0.1,1.1h-8.9
		c-2.6,0-3.5-1.2-3.3-3l0.7-4.9c0.2-1.8,1.4-3,4-3h8.7L62.7,31.4z"/>
	<path class="st0" d="M64.3,41.1l1.2-10.9H75l-0.1,1.1h-3.8c-0.7,0-1,0.2-1.1,0.8l-1,9H64.3z"/>
	<path class="st0" d="M86.9,31.3h-4.9c-0.6,0-0.9,0.3-1,0.8l-0.7,7.1c0,0.5,0.2,0.8,0.8,0.8H86c0.6,0,0.9-0.3,1-0.8l0.7-7.1
		C87.8,31.6,87.6,31.3,86.9,31.3 M91.7,38.2c-0.2,1.8-1.3,3-3.9,3h-8.7c-2.5,0-3.4-1.2-3.2-3l0.6-4.9c0.2-1.8,1.4-3,3.9-3h8.7
		c2.5,0,3.4,1.2,3.2,3L91.7,38.2z"/>
	<path class="st0" d="M133.8,30.2c2.3,0,3.5,1,3.2,3l-0.8,7.9h-4.8l1.1-9c0-0.5-0.2-0.8-0.9-0.8h-4.4c-0.7,0-1,0.2-1.1,0.8l-0.9,9
		h-4.8l1.2-11L133.8,30.2z"/>
	<path class="st0" d="M118,38.2c-0.2,2.1-1.6,3-3.9,3H97.5c-2.3,0-3.5-1-3.2-3l0.9-7.9h4.7l-1,9c0,0.5,0.2,0.8,0.9,0.8h3
		c0.7,0,1-0.2,1.1-0.8l1-9h4.7l-0.9,9c-0.1,0.6,0.2,0.8,0.9,0.8h2.8c0.7,0,0.8-0.2,0.8-0.8l1-9h4.8L118,38.2z"/>
	<path class="st0" d="M140.9,31.7c0.2,0,0.4,0,0.4-0.3c0-0.2-0.2-0.3-0.4-0.3h-0.4v0.6H140.9z M140.5,32.7h-0.3v-1.8h0.7
		c0.4,0,0.6,0.2,0.6,0.5c0,0.3-0.2,0.5-0.5,0.5l0.5,0.8h-0.3l-0.5-0.8h-0.3V32.7z M140.9,33.1c0.7,0,1.3-0.5,1.3-1.3
		c0-0.7-0.5-1.3-1.3-1.3c-0.7,0-1.3,0.6-1.3,1.3C139.6,32.5,140.2,33.1,140.9,33.1 M139.3,31.8c0-0.9,0.7-1.5,1.6-1.5
		c0.8,0,1.6,0.7,1.6,1.5c0,0.9-0.7,1.5-1.6,1.5C140,33.3,139.3,32.7,139.3,31.8"/>
</g>
</svg>
