<svg xmlns="http://www.w3.org/2000/svg" xmlns:xlink="http://www.w3.org/1999/xlink" width="90" height="42" viewBox="0 0 90 42">
    <defs>
        <path id="a" d="M0 42h89.942V.146H0z"/>
    </defs>
    <g fill="none" fill-rule="evenodd">
        <path fill="#FDD301" d="M57 5.976L65.884 15 81 0z"/>
        <path fill="#FEFEFE" d="M15.752 10.03l-3.494 14.877L8.6 10.03H0V33h5.014V16.127L9.465 33h4.93l4.56-16.725V33H24V10z"/>
        <g>
            <path fill="#FEFEFE" d="M39.788 32.055V21.79c0-1.665-.309-3.115-1.182-4.07-1.447-1.604-4.073-1.789-5.315-1.789-2.509 0-4.647.71-5.717 1.942-1.041 1.215-1.041 2.546-1.07 3.258h4.936c-.027-1.777.883-2.364 1.85-2.364 1.574 0 1.753 1.543 1.726 3.21-5.92-.279-9.389 1.282-9.389 5.55 0 2.766 1.481 4.843 4.855 4.843 2.821 0 3.795-1.488 4.425-2.542v2.227h4.88zm-4.772-7.358c.027.654.014 1.929-.397 2.924-.52 1.244-1.48 1.493-2.027 1.493-1.234 0-1.89-.964-1.89-2.115 0-2.239 2.122-2.27 4.314-2.302zM42.075 16.457h4.769l.082 2.554c1-2.958 3.666-2.686 4.842-2.654v5.02c-.602-.062-.74-.094-1.095-.094-3.146 0-3.583 2.508-3.583 4.18v6.592H42.09l-.014-15.598zM62.32 16.51v4.62h-3.31v4.543c.028 1.936.028 2.811 1.997 2.811.41 0 .657 0 1.286-.094v3.65c-.683.124-1.587.278-3.337.278-4.105 0-4.927-1.546-4.927-4.552l-.035-15.624h5.067v4.367h3.26z"/>
            <mask id="b" fill="#fff">
                <use xlink:href="#a"/>
            </mask>
            <path fill="#FEFEFE" d="M64.666 32.055h5.12V16.457h-5.12zM72.271 16.458h4.961l.055 2.35c.628-1.174 1.72-2.72 4.557-2.72 5.02 0 4.902 4.333 4.902 6.485v9.482h-5.01v-8.983c0-1.091 0-3.306-2.102-3.306-2.292 0-2.292 2.745-2.292 3.306v8.983h-5.07V16.458zM45.57 35.054v2.737h-3.25v-2.737h-1.318v6.164h1.317v-2.874h3.25v2.212c0 .138.028.254.083.342a.606.606 0 0 0 .21.201c.08.047.17.08.267.096.095.016.177.023.253.023h.505v-6.164H45.57zM71.297 41.218v-6.164H70.01l-2.576 4.566-2.627-4.566h-1.303v6.164h.671v-4.78l2.766 4.78h.343l2.693-4.743v4.08c0 .139.03.254.085.341a.634.634 0 0 0 .209.203.83.83 0 0 0 .268.095c.093.016.177.024.254.024h.504zM79.552 41.218l-3.29-6.3h-.386l-3.37 6.3h.769l1.047-1.96h2.39l-.33-.629h-1.725l1.109-2.071 2.172 4.17c.087.171.194.297.319.376.126.078.291.114.491.114h.804zM86.4 35.053a.751.751 0 0 0-.122.01.415.415 0 0 0-.133.049.303.303 0 0 0-.153.28v3.973l-4.381-4.312h-.845v6.165h.768V36.57l4.445 4.494c.182.167.433.154.676.154h.092v-6.165h-.348zM51.88 34.917h-.384l-3.376 6.3h.768l2.496-4.66 1.08 2.072h-1.732l-.335.63h2.398l.759 1.47c.086.171.194.297.318.375.126.079.292.114.492.114h.81l-3.294-6.301zM57.725 35.595v2.335h.609s.604.008.996-.212c.393-.22.671-.526.671-.983 0-.458-.3-.864-.724-1.024 0 0-.243-.116-.675-.116h-.877zm2.618 5.128l-1.94-2.323h-.676v2.817h-1.316v-6.164h2.416s.998-.015 1.651.305c.652.32.929.768.929 1.338 0 .57-.35 1.242-1.597 1.58l2.514 2.941h-1.009s-.21.002-.458-.08c-.247-.082-.514-.414-.514-.414zM35.993 40.841c.164.06.307.084.45.084.48 0 .824-.332.824-.793 0-.425-.266-.73-.635-.73-.23 0-.418.104-.64.35v1.09zm-.197-2.497h.197v1.19c.192-.184.369-.292.664-.292.483 0 .819.361.819.878 0 .606-.406.994-1.029.994-.221 0-.4-.04-.65-.136v-2.634zM38.074 42h-.2l.643-1.271-.774-1.451h.204l.668 1.259.635-1.259h.201zM88.676 17.016c.148.004.247.004.34.033.178.054.248.2.248.323 0 .237-.225.303-.276.32.087.043.15.076.183.268.029.167.048.293.119.413h-.35a.904.904 0 0 1-.077-.294c-.039-.248-.055-.288-.305-.293h-.074v.587h-.305v-1.357h.497zm-.192.542h.183c.112 0 .292.004.292-.167a.145.145 0 0 0-.09-.138c-.048-.018-.067-.018-.248-.018h-.137v.323z" mask="url(#b)"/>
            <path fill="#FEFEFE" d="M88.677 18.989a1.268 1.268 0 0 1 0-2.535 1.267 1.267 0 0 1 0 2.535m0-2.306a1.038 1.038 0 0 0 0 2.077 1.039 1.039 0 0 0 0-2.077" mask="url(#b)"/>
        </g>
    </g>
</svg>
