<?xml version="1.0" encoding="utf-8"?>
<!-- Generator: Adobe Illustrator 26.0.2, SVG Export Plug-In . SVG Version: 6.00 Build 0)  -->
<svg version="1.1" id="Layer_1" xmlns="http://www.w3.org/2000/svg" xmlns:xlink="http://www.w3.org/1999/xlink" x="0px" y="0px"
	 viewBox="0 0 144 72" style="enable-background:new 0 0 144 72;" xml:space="preserve">
<style type="text/css">
	.st0{fill:#FFFFFF;}
	.st1{fill:#00629B;}
	.st2{fill:#00A9E0;}
	.st3{fill:#020000;}
	.st4{fill:#003B71;}
	.st5{fill:#07B14C;}
	.st6{fill:#0077C8;}
	.st7{fill:#CE0E2D;}
	.st8{fill:#FF4713;}
	.st9{fill:#1E417C;}
	.st10{fill:#FFD100;}
	.st11{fill:#231F20;}
</style>
<g>
	<polygon class="st10" points="93,17.5 106.5,31.1 129.6,8.5"/>
	<polygon points="1.3,23.3 14.7,23.3 20.4,45.9 25.8,23.3 38.6,23.3 38.6,58.2 30.8,58.2 30.8,32.8 23.7,58.2 16,58.2 9.1,32.6 9.1,58.2 1.3,58.2"/>
	<path d="M63.5,58.2v-16c0-2.6-0.5-4.9-1.8-6.4c-2.3-2.5-6.4-2.8-8.3-2.8c-3.9,0-7.3,1.1-8.9,3c-1.6,1.9-1.6,4-1.7,5.1h7.7
		c0-2.8,1.4-3.7,2.9-3.7c2.5,0,2.7,2.4,2.7,5c-9.3-0.4-14.7,2-14.7,8.7c0,4.3,2.3,7.6,7.6,7.6c4.4,0,5.9-2.3,6.9-4v3.5H63.5z
		 M56.1,46.8c0,1,0,3-0.6,4.6c-0.8,1.9-2.3,2.3-3.2,2.3c-1.9,0-3-1.5-3-3.3C49.3,46.9,52.7,46.8,56.1,46.8"/>
	<path d="M67.1,33.9h7.5l0.1,4c1.6-4.6,5.7-4.2,7.6-4.1v7.8c-0.9-0.1-1.2-0.1-1.7-0.1c-4.9,0-5.6,3.9-5.6,6.5v10.3h-7.8L67.1,33.9z"
		/>
	<path d="M98.8,34v7.2h-5.2v7.1c0,3,0,4.4,3.1,4.4c0.6,0,1,0,2-0.1v5.7c-1.1,0.2-2.5,0.4-5.2,0.4c-6.4,0-7.7-2.4-7.7-7.1l-0.1-24.4
		h7.9V34H98.8z"/>
	<rect x="102.5" y="33.9" width="8" height="24.3"/>
	<path d="M114.3,33.9h7.8l0.1,3.7c1-1.8,2.7-4.2,7.1-4.2c7.9,0,7.7,6.8,7.7,10.1v14.8h-7.8v-14c0-1.7,0-5.2-3.3-5.2
		c-3.6,0-3.6,4.3-3.6,5.2v14h-7.9V33.9z"/>
	<g>
		<g>
			<g>
				<path d="M140,34.8c0.2,0,0.4,0,0.5,0.1c0.3,0.1,0.4,0.3,0.4,0.5c0,0.4-0.3,0.5-0.4,0.5c0.1,0.1,0.2,0.1,0.3,0.4
					c0,0.3,0.1,0.5,0.2,0.6h-0.5c-0.1-0.1-0.1-0.3-0.1-0.5c-0.1-0.4-0.1-0.4-0.4-0.5h-0.1v0.9h-0.4v-2.1H140z M139.7,35.6h0.3
					c0.2,0,0.4,0,0.4-0.3c0-0.1,0-0.2-0.1-0.2c-0.1,0-0.1,0-0.4,0h-0.2V35.6z"/>
			</g>
			<path d="M140,37.9c-1.1,0-2-0.9-2-2s0.9-2,2-2c1.1,0,2,0.9,2,2S141.1,37.9,140,37.9z M140,34.3c-0.9,0-1.6,0.7-1.6,1.6
				c0,0.9,0.7,1.6,1.6,1.6c0.9,0,1.6-0.7,1.6-1.6C141.6,35,140.9,34.3,140,34.3z"/>
		</g>
	</g>
</g>
</svg>
