<?xml version="1.0" encoding="utf-8"?>
<!-- Generator: Adobe Illustrator 27.9.0, SVG Export Plug-In . SVG Version: 6.00 Build 0)  -->
<svg version="1.1" xmlns="http://www.w3.org/2000/svg" xmlns:xlink="http://www.w3.org/1999/xlink" x="0px" y="0px"
	 viewBox="0 0 792 612" style="enable-background:new 0 0 792 612;" xml:space="preserve">
<style type="text/css">
	.st0{fill:#FFFFFF;}
	.st1{font-family:'HelveticaNeue-Light';}
	.st2{font-size:11.3801px;}
</style>
<g id="Master_Logo_Art">
	<path class="st0" d="M252.97,302.58c0.6,5.56-5.85,44.66,61.07,57.59c66.25,12.79,148.64-21,148.64-21h4.78
		c0,0-72.46,35.86-146.59,25.27s-70.38-53.24-70.71-61.85H252.97z"/>
	<path class="st0" d="M391.35,339.17c0,0-47.99,27.6-83.4,29.23s-66.07-10.94-56.85-65.82h-2.79c0,0-7.96,47.18,19.38,61.66
		c27.33,14.48,63.02,15.72,139.47-25.07H391.35z"/>
	<text transform="matrix(1 0 0 1 551.5029 303.6782)" class="st0 st1 st2"> </text>
	<path class="st0" d="M221.27,222.76v26.68h-30.99v-26.68h-12.55v60.07h12.55v-28h30.99l-0.01,21.55c0,1.35,0.27,2.47,0.8,3.33
		c0.53,0.83,1.2,1.49,2,1.97c0.77,0.45,1.63,0.77,2.55,0.93c0.9,0.15,1.69,0.23,2.41,0.23c0.45,0,4.81,0,4.81,0v-60.07H221.27z"/>
	<path class="st0" d="M466.52,282.83v-60.07h-12.27l-24.55,44.49l-25.04-44.49h-12.42v60.07h6.4v-46.58l26.36,46.58h3.27
		l25.67-46.22v39.75c0,1.36,0.29,2.48,0.82,3.33c0.52,0.83,1.19,1.49,1.99,1.97c0.78,0.46,1.64,0.77,2.55,0.93
		c0.89,0.15,1.68,0.24,2.42,0.24H466.52z"/>
	<path class="st0" d="M545.21,282.82l-31.37-61.4h-3.68l-32.13,61.4h7.33l9.98-19.1h22.78l-3.15-6.12h-16.43l10.56-20.19
		l20.72,40.64c0.82,1.67,1.84,2.9,3.03,3.65c1.2,0.77,2.78,1.12,4.69,1.12H545.21z"/>
	<path class="st0" d="M610.48,222.76c-0.34,0-0.71,0.02-1.16,0.1c-0.45,0.08-0.87,0.24-1.27,0.47c-0.42,0.25-0.77,0.59-1.03,1.02
		c-0.28,0.45-0.43,1.03-0.43,1.71v38.72l-41.77-42.01h-8.05v60.07h7.32v-45.29l42.38,43.8c1.73,1.62,4.12,1.49,6.44,1.49h0.87
		v-60.07H610.48z"/>
	<path class="st0" d="M298.12,198.66c0,0,14.62-8.31,25.57-12.95c26.99-11.46,50.74-18.19,72.62-22.33
		c17.67-3.35,71.55-11.72,114.27,1.66c0.68,9.95-2.03,21.37-7.51,33.63h17.53c4.32-9.05,7.24-17.74,8.59-25.87
		c6.63,3.58,12.71,7.94,17.98,13.22c4.88,4.89,9.61,12.66,9.61,12.66h7.74c0,0-3.3-7.47-10.61-14.91
		c-6.78-6.91-15.2-12.16-24.07-16.15c1.33-15.83-3.88-29.21-17.14-38.47c-31.73-22.15-94.7-9.42-152.7,21.68
		c-25.98,13.93-49.66,30.85-69.1,47.85H298.12z M478,155.2c-28.07-2.39-60.05,0.97-81.44,5.31c-26.08,5.29-50.4,12.67-73.36,22.72
		c-5.25,2.3-10.27,4.81-15.27,7.48c15.85-11.94,33.78-23.44,52.84-33.15c53.55-27.27,109.74-37.6,136.26-17.8
		c7.32,5.46,11.5,12.57,13.01,20.88C497.3,157.25,485.45,155.83,478,155.2z"/>
	<path class="st0" d="M281.42,221.42h-3.67l-32.18,61.4h7.33l23.8-45.41l10.29,20.19h-16.52l-3.19,6.12h22.86l7.23,14.33
		c0.82,1.67,1.84,2.9,3.03,3.65c1.2,0.77,2.78,1.12,4.69,1.12h7.72L281.42,221.42z"/>
	<path class="st0" d="M362.09,278l-18.5-22.64h-6.43v27.45h-12.54v-60.06h23.03c0,0,9.51-0.14,15.73,2.97
		c6.22,3.11,8.86,7.49,8.86,13.04s-3.32,12.1-15.22,15.4l23.97,28.67h-9.61c0,0-2.02,0.01-4.37-0.79
		C364.64,281.23,362.09,278,362.09,278z M337.13,228.03v22.75h5.8c0,0,5.76,0.08,9.51-2.06c3.74-2.14,6.39-5.13,6.39-9.59
		c0-4.46-2.86-8.41-6.9-9.97c0,0-2.31-1.14-6.43-1.14C341.38,228.03,337.13,228.03,337.13,228.03z"/>
	<path class="st0" d="M354.97,319.74h-1.34l-2.63-5.75h-8.11l-2.63,5.75h-1.34l7.68-16.74h0.71L354.97,319.74z M346.93,305.1
		l-3.56,7.82h7.14L346.93,305.1z"/>
	<path class="st0" d="M507.19,305.71c-2.07-1.1-3.95-1.61-5.92-1.61c-4.14,0-7.26,3.14-7.26,7.36c0,4.29,3.1,7.31,7.43,7.31
		c1.88,0,3.66-0.51,5.92-1.71v1.34c-1.92,1.02-3.97,1.56-5.9,1.56c-5.07,0-8.85-3.63-8.85-8.51c0-5.09,4.17-8.55,8.72-8.55
		c1.85,0,3.83,0.46,5.85,1.39V305.71z"/>
	<path class="st0" d="M519.15,319.96c-4.92,0-8.77-3.75-8.77-8.53c0-4.78,3.85-8.53,8.77-8.53c4.95,0,8.82,3.75,8.82,8.53
		C527.97,316.21,524.1,319.96,519.15,319.96z M519.2,304.1c-4.17,0-7.43,3.19-7.43,7.34c0,4.14,3.27,7.34,7.43,7.34
		c4.17,0,7.38-3.19,7.38-7.34C526.59,307.29,523.37,304.1,519.2,304.1z"/>
	<path class="st0" d="M546.25,303.12h1.29v16.62h-1.29V305h-0.05l-6.29,7.77l-6.29-7.77h-0.05v14.74h-1.29v-16.62h1.29l6.34,7.73
		L546.25,303.12z"/>
	<path class="st0" d="M557.14,303.12c3.9,0,5.43,2,5.43,4.39c0,2.14-1.24,4.46-5.56,4.46h-3.17v7.77h-1.29v-16.62H557.14z
		 M553.85,310.9h3.1c3.09,0,4.24-1.49,4.24-3.36c0-1.8-1.17-3.34-4.09-3.34h-3.24V310.9z"/>
	<path class="st0" d="M578.27,319.74h-1.34l-2.63-5.75h-8.11l-2.63,5.75h-1.34l7.68-16.74h0.71L578.27,319.74z M570.23,305.1
		l-3.56,7.82h7.14L570.23,305.1z"/>
	<path class="st0" d="M596.47,319.74h-1.07l-12.62-14.52v14.52h-1.29v-16.62h1.1l12.6,14.52v-14.52h1.29V319.74z"/>
	<path class="st0" d="M607.34,310.82v8.92h-1.29v-8.92l-6.46-7.7h1.56l5.56,6.58l5.53-6.58h1.56L607.34,310.82z"/>
	<path class="st0" d="M372.94,315.15c0.15,0.4,0.11,0.92,0.03,1.24c-0.13,0.56-0.52,1.13-1.64,1.13c-1.04,0-1.67-0.62-1.67-1.52
		l-0.01-1.61h-4.49v1.28c0,3.74,2.94,4.87,6.09,4.87c3.02,0,5.51-1.02,5.92-3.83c0.21-1.45,0.05-2.38-0.02-2.75
		c-0.7-3.51-7.06-4.56-7.54-6.52c-0.08-0.34-0.06-0.7-0.02-0.88c0.12-0.54,0.47-1.13,1.54-1.13c0.98,0,1.56,0.6,1.56,1.52V308h4.18
		v-1.19c0-3.65-3.3-4.22-5.67-4.22c-2.97,0-5.4,0.99-5.85,3.72c-0.12,0.75-0.15,1.41,0.03,2.25
		C366.12,311.99,372.07,312.98,372.94,315.15"/>
	<path class="st0" d="M427.43,315.11c0.15,0.41,0.1,0.93,0.03,1.24c-0.14,0.55-0.51,1.11-1.63,1.11c-1.04,0-1.67-0.59-1.67-1.5v-1.6
		h-4.44v1.27c0,3.7,2.9,4.83,6.03,4.83c2.99,0,5.47-1.02,5.86-3.8c0.19-1.43,0.05-2.37-0.03-2.72c-0.7-3.47-6.98-4.53-7.46-6.46
		c-0.07-0.34-0.05-0.68-0.01-0.87c0.11-0.53,0.47-1.12,1.52-1.12c0.97,0,1.54,0.59,1.54,1.52v1.02h4.13v-1.16
		c0-3.61-3.24-4.19-5.58-4.19c-2.95,0-5.37,0.98-5.8,3.69c-0.12,0.74-0.15,1.4,0.04,2.24C420.67,311.99,426.57,312.97,427.43,315.11
		"/>
	<polygon class="st0" points="462.19,316.61 461.96,303.12 466.1,303.12 466.1,319.7 460.14,319.7 455.9,305.78 456.14,319.7 
		452.02,319.7 452.02,303.12 458.24,303.12 	"/>
	<polygon class="st0" points="386.86,304.36 384.52,319.88 379.99,319.88 383.1,303.12 390.54,303.12 393.64,319.88 389.15,319.88 	
		"/>
	<polygon class="st0" points="411.31,304.36 408.43,319.88 404.17,319.88 401.29,304.36 401.18,319.88 396.99,319.88 397.35,303.12 
		404.19,303.12 406.3,316.22 408.42,303.12 415.25,303.12 415.62,319.88 411.42,319.88 	"/>
	<path class="st0" d="M441.49,317.38c1.18,0,1.53-0.81,1.61-1.22c0.04-0.18,0.05-0.43,0.04-0.64v-12.4h4.24v12.02
		c0.02,0.31-0.01,0.94-0.03,1.11c-0.31,3.13-2.77,4.13-5.86,4.13c-3.08,0-5.56-1.01-5.84-4.13c-0.02-0.18-0.04-0.8-0.04-1.11v-12.02
		h4.24v12.4c0,0.21,0,0.46,0.05,0.64C439.97,316.57,440.34,317.38,441.49,317.38"/>
	<path class="st0" d="M476.44,317.21c1.23,0,1.66-0.77,1.72-1.23c0.04-0.19,0.05-0.43,0.05-0.64v-2.42h-1.72v-2.44h5.94v4.5
		c-0.01,0.3-0.02,0.55-0.06,1.1c-0.29,3.07-2.91,4.15-5.9,4.15c-2.96,0-5.62-1.09-5.9-4.15c-0.05-0.55-0.07-0.79-0.07-1.1v-7.05
		c0-0.31,0.05-0.82,0.09-1.1c0.37-3.15,2.91-4.14,5.89-4.14c2.98,0,5.56,0.99,5.88,4.14c0.05,0.53,0.03,1.1,0.03,1.1v0.55h-4.23
		v-0.93c0,0,0-0.4-0.04-0.65c-0.08-0.36-0.4-1.21-1.68-1.21c-1.22,0-1.59,0.82-1.66,1.21c-0.06,0.23-0.09,0.52-0.09,0.8v7.65
		c0,0.21,0.02,0.45,0.06,0.64C474.81,316.44,475.23,317.21,476.44,317.21"/>
</g>
<g id="CM_Legend">
</g>
</svg>
