<?xml version="1.0" encoding="utf-8"?>
<!-- Generator: Adobe Illustrator 26.0.2, SVG Export Plug-In . SVG Version: 6.00 Build 0)  -->
<svg version="1.1" id="Layer_1" xmlns="http://www.w3.org/2000/svg" xmlns:xlink="http://www.w3.org/1999/xlink" x="0px" y="0px"
	 viewBox="0 0 144 72" style="enable-background:new 0 0 144 72;" xml:space="preserve">
<style type="text/css">
	.st0{fill:#f37736;}
	.st1{fill:#00629B;}
	.st2{fill:#00A9E0;}
	.st3{fill:#020000;}
	.st4{fill:#003B71;}
	.st5{fill:#07B14C;}
	.st6{fill:#0077C8;}
	.st7{fill:#CE0E2D;}
	.st8{fill:#FF4713;}
	.st9{fill:#1E417C;}
	.st10{fill:#FFD100;}
	.st11{fill:#231F20;}
	.st12{clip-path:url(#SVGID_00000036247256769307754660000016221125828799184016_);fill:#fff;}
	.st13{fill:#fff;}
	.st14{clip-path:url(#SVGID_00000108309229574250957460000010465187133163997068_);fill:#f37736;}
	.st15{clip-path:url(#SVGID_00000162342729297972370960000018139438468428082086_);fill:#f37736;}
	.st16{clip-path:url(#SVGID_00000129166850712022186650000014285291898852297658_);fill:#f37736;}
	.st17{fill:#011E41;}
</style>
<g>
	<defs>
		<rect id="SVGID_1_" x="40.1" y="1.2" width="72.6" height="70.1"/>
	</defs>
	<clipPath id="SVGID_00000056422891113966287060000005084672907902373026_">
		<use xlink:href="#SVGID_1_"  style="overflow:visible;"/>
	</clipPath>
	<path style="clip-path:url(#SVGID_00000056422891113966287060000005084672907902373026_);fill:#fff;" d="M110.1,56.4
		c0,0.7,0.6,1.3,1.3,1.3c0.7,0,1.3-0.6,1.3-1.3c0-0.7-0.6-1.3-1.3-1.3C110.7,55.1,110.1,55.7,110.1,56.4 M110.3,56.4
		c0-0.6,0.5-1.1,1.1-1.1c0.6,0,1.1,0.5,1.1,1.1c0,0.6-0.5,1.1-1.1,1.1C110.8,57.5,110.3,57,110.3,56.4 M110.9,57.2h0.2v-0.6h0.2
		l0.4,0.6h0.3l-0.4-0.6c0.2,0,0.4-0.1,0.4-0.4c0-0.3-0.2-0.4-0.6-0.4h-0.5V57.2z M111.1,56.3v-0.4h0.3c0.1,0,0.3,0,0.3,0.2
		c0,0.2-0.1,0.2-0.3,0.2H111.1z"/>
</g>
<rect x="40.1" y="60.1" class="st13" width="69.1" height="11.2"/>
<rect x="40.1" y="1.2" class="st13" width="69.1" height="56.6"/>
<g>
	<defs>
		<rect id="SVGID_00000013177286566508022820000018228514786515559858_" x="40.1" y="1.2" width="72.6" height="70.1"/>
	</defs>
	<clipPath id="SVGID_00000179604696322716401030000016204491722074582939_">
		<use xlink:href="#SVGID_00000013177286566508022820000018228514786515559858_"  style="overflow:visible;"/>
	</clipPath>
	<path style="clip-path:url(#SVGID_00000179604696322716401030000016204491722074582939_);fill:#f37736;" d="M96,41.2H84.2V17.5h3.9
		v20.3c0,1.1,0.9,2,2,2c1.1,0,2-0.9,2-2l0-4.1H96V41.2z"/>
	<path style="clip-path:url(#SVGID_00000179604696322716401030000016204491722074582939_);fill:#f37736;" d="M66.7,37.1
		c0,2.4-1.5,4.5-5.9,4.5c-4.4,0-5.9-2.8-5.9-4.5v-3.4h3.9l0,4.1c0,1.1,0.9,2,2,2c1.1,0,2-0.9,2-2l0-20.2h3.9V37.1z"/>
	<path style="clip-path:url(#SVGID_00000179604696322716401030000016204491722074582939_);fill:#f37736;" d="M56.8,26.6
		c1.2,0,2.3,1,2.3,2.3c0,1.2-1,2.2-2.3,2.2c-1.2,0-2.3-1-2.3-2.2C54.6,27.6,55.6,26.6,56.8,26.6"/>
</g>
<polygon class="st0" points="60.4,17.5 56.8,25.7 53.2,17.5 "/>
<g>
	<defs>
		<rect id="SVGID_00000098186485712743119980000010763617062464855461_" x="40.1" y="1.2" width="72.6" height="70.1"/>
	</defs>
	<clipPath id="SVGID_00000174604503084653988610000000307987689201184910_">
		<use xlink:href="#SVGID_00000098186485712743119980000010763617062464855461_"  style="overflow:visible;"/>
	</clipPath>
	<path style="clip-path:url(#SVGID_00000174604503084653988610000000307987689201184910_);fill:#f37736;" d="M81.4,25.4
		c0,1.2-1,3.3-2.6,3.3c1.5,0,2.6,1.3,2.6,2.3v7.1c0,1.2-1,3.1-3.9,3.1h-7.8V17.5h7.8c1.5,0,3.9,1.2,3.9,3.9V25.4z M75.9,29.7h-2.4
		v9.5l2.4,0c1.5,0,1.5-1,1.5-4.7C77.5,30.8,77.5,29.7,75.9,29.7 M75.7,19.8h-2.1v8l2.1,0c1.4,0,1.8-0.2,1.8-4
		C77.5,20.1,77.1,19.8,75.7,19.8"/>
	<path style="clip-path:url(#SVGID_00000174604503084653988610000000307987689201184910_);fill:#f37736;" d="M48,64.5
		c-0.1-0.1-0.2-0.2-0.4-0.3c-0.2-0.1-0.3-0.1-0.5-0.1c-0.2,0-0.4,0-0.6,0.1c-0.2,0.1-0.3,0.2-0.5,0.3c-0.1,0.1-0.2,0.3-0.3,0.5
		c-0.1,0.2-0.1,0.4-0.1,0.6c0,0.2,0,0.4,0.1,0.6c0.1,0.2,0.2,0.3,0.3,0.5c0.1,0.1,0.3,0.2,0.4,0.3c0.2,0.1,0.4,0.1,0.5,0.1
		c0.2,0,0.4,0,0.6-0.1c0.2-0.1,0.3-0.2,0.4-0.4l0.9,0.6c-0.2,0.3-0.5,0.5-0.8,0.6c-0.3,0.1-0.6,0.2-1,0.2c-0.4,0-0.7-0.1-1.1-0.2
		c-0.3-0.1-0.6-0.3-0.8-0.5c-0.2-0.2-0.4-0.5-0.6-0.8c-0.1-0.3-0.2-0.6-0.2-1s0.1-0.7,0.2-1c0.1-0.3,0.3-0.6,0.6-0.8
		c0.2-0.2,0.5-0.4,0.8-0.5c0.3-0.1,0.7-0.2,1.1-0.2c0.1,0,0.3,0,0.4,0c0.2,0,0.3,0.1,0.4,0.1c0.1,0.1,0.3,0.1,0.4,0.2
		c0.1,0.1,0.3,0.2,0.4,0.3L48,64.5z"/>
	<path style="clip-path:url(#SVGID_00000174604503084653988610000000307987689201184910_);fill:#f37736;" d="M51.7,65.6
		c0,0.2,0,0.4,0.1,0.6c0.1,0.2,0.2,0.3,0.3,0.5c0.1,0.1,0.3,0.2,0.5,0.3c0.2,0.1,0.4,0.1,0.6,0.1c0.2,0,0.4,0,0.6-0.1
		c0.2-0.1,0.3-0.2,0.5-0.3c0.1-0.1,0.2-0.3,0.3-0.5c0.1-0.2,0.1-0.4,0.1-0.6c0-0.2,0-0.4-0.1-0.6c-0.1-0.2-0.2-0.3-0.3-0.5
		c-0.1-0.1-0.3-0.2-0.5-0.3c-0.2-0.1-0.4-0.1-0.6-0.1c-0.2,0-0.4,0-0.6,0.1c-0.2,0.1-0.3,0.2-0.5,0.3c-0.1,0.1-0.2,0.3-0.3,0.5
		C51.7,65.2,51.7,65.4,51.7,65.6 M50.6,65.6c0-0.4,0.1-0.7,0.2-1c0.1-0.3,0.3-0.6,0.6-0.8c0.2-0.2,0.5-0.4,0.8-0.5
		c0.3-0.1,0.7-0.2,1.1-0.2c0.4,0,0.7,0.1,1.1,0.2c0.3,0.1,0.6,0.3,0.8,0.5c0.2,0.2,0.4,0.5,0.6,0.8c0.1,0.3,0.2,0.6,0.2,1
		c0,0.4-0.1,0.7-0.2,1c-0.1,0.3-0.3,0.6-0.6,0.8c-0.2,0.2-0.5,0.4-0.8,0.5c-0.3,0.1-0.7,0.2-1.1,0.2c-0.4,0-0.7-0.1-1.1-0.2
		c-0.3-0.1-0.6-0.3-0.8-0.5c-0.2-0.2-0.4-0.5-0.6-0.8C50.6,66.3,50.6,66,50.6,65.6"/>
</g>
<polygon class="st0" points="58,63.3 59.6,63.3 60.7,66.3 60.7,66.3 61.9,63.3 63.5,63.3 63.5,68 62.4,68 62.4,64.4 62.4,64.4 
	61.1,68 60.3,68 59.1,64.4 59.1,64.4 59.1,68 58,68 "/>
<polygon class="st0" points="65.9,63.3 67.5,63.3 68.6,66.3 68.6,66.3 69.8,63.3 71.4,63.3 71.4,68 70.3,68 70.3,64.4 70.3,64.4 
	69,68 68.2,68 67,64.4 66.9,64.4 66.9,68 65.9,68 "/>
<polygon class="st0" points="73.8,63.3 77.1,63.3 77.1,64.3 74.9,64.3 74.9,65.1 77,65.1 77,66.1 74.9,66.1 74.9,67 77.3,67 
	77.3,68 73.8,68 "/>
<g>
	<defs>
		<rect id="SVGID_00000157989346774764256070000013802453624273530785_" x="40.1" y="1.2" width="72.6" height="70.1"/>
	</defs>
	<clipPath id="SVGID_00000041286917795196952240000013350815834162143622_">
		<use xlink:href="#SVGID_00000157989346774764256070000013802453624273530785_"  style="overflow:visible;"/>
	</clipPath>
	<path style="clip-path:url(#SVGID_00000041286917795196952240000013350815834162143622_);fill:#f37736;" d="M80.6,65.2h0.6
		c0.1,0,0.2,0,0.3,0c0.1,0,0.2,0,0.3-0.1c0.1,0,0.2-0.1,0.2-0.2c0.1-0.1,0.1-0.2,0.1-0.3c0-0.1,0-0.2-0.1-0.3
		c-0.1-0.1-0.1-0.1-0.2-0.2c-0.1,0-0.2-0.1-0.3-0.1c-0.1,0-0.2,0-0.3,0h-0.7V65.2z M79.5,63.3h1.9c0.2,0,0.5,0,0.7,0.1
		c0.2,0,0.4,0.1,0.6,0.2c0.2,0.1,0.3,0.3,0.4,0.4c0.1,0.2,0.1,0.4,0.1,0.7c0,0.3-0.1,0.6-0.3,0.8c-0.2,0.2-0.4,0.4-0.8,0.4l1.2,2
		h-1.3l-1-1.9h-0.5V68h-1.1V63.3z"/>
	<path style="clip-path:url(#SVGID_00000041286917795196952240000013350815834162143622_);fill:#f37736;" d="M88.5,64.5
		c-0.1-0.1-0.2-0.2-0.4-0.3c-0.2-0.1-0.3-0.1-0.5-0.1c-0.2,0-0.4,0-0.6,0.1c-0.2,0.1-0.3,0.2-0.5,0.3c-0.1,0.1-0.2,0.3-0.3,0.5
		c-0.1,0.2-0.1,0.4-0.1,0.6c0,0.2,0,0.4,0.1,0.6s0.2,0.3,0.3,0.5c0.1,0.1,0.3,0.2,0.4,0.3c0.2,0.1,0.4,0.1,0.5,0.1
		c0.2,0,0.4,0,0.6-0.1c0.2-0.1,0.3-0.2,0.4-0.4l0.9,0.6c-0.2,0.3-0.5,0.5-0.8,0.6c-0.3,0.1-0.6,0.2-1,0.2c-0.4,0-0.7-0.1-1.1-0.2
		s-0.6-0.3-0.8-0.5c-0.2-0.2-0.4-0.5-0.6-0.8c-0.1-0.3-0.2-0.6-0.2-1s0.1-0.7,0.2-1c0.1-0.3,0.3-0.6,0.6-0.8
		c0.2-0.2,0.5-0.4,0.8-0.5c0.3-0.1,0.7-0.2,1.1-0.2c0.1,0,0.3,0,0.4,0c0.2,0,0.3,0.1,0.4,0.1c0.1,0.1,0.3,0.1,0.4,0.2
		c0.1,0.1,0.3,0.2,0.4,0.3L88.5,64.5z"/>
</g>
<rect x="91.4" y="63.3" class="st0" width="1.1" height="4.6"/>
<path class="st0" d="M96.9,64.7l-0.6,1.4h1.2L96.9,64.7z M96.5,63.3h0.9l2.1,4.6h-1.2l-0.4-1h-1.9l-0.4,1h-1.2L96.5,63.3z"/>
<polygon class="st0" points="101.4,63.3 102.5,63.3 102.5,67 104.5,67 104.5,68 101.4,68 "/>
</svg>
