<?xml version="1.0" encoding="utf-8"?>
<!-- Generator: Adobe Illustrator 26.0.2, SVG Export Plug-In . SVG Version: 6.00 Build 0)  -->
<svg version="1.1" id="Layer_1" xmlns="http://www.w3.org/2000/svg" xmlns:xlink="http://www.w3.org/1999/xlink" x="0px" y="0px"
	 viewBox="0 0 144 72" style="enable-background:new 0 0 144 72;" xml:space="preserve">
<style type="text/css">
	.st0{fill:#FFFFFF;}
	.st1{fill:#00629B;}
	.st2{fill:#00A9E0;}
	.st3{fill:#020000;}
	.st4{fill:#003B71;}
	.st5{fill:#07B14C;}
	.st6{fill:#0077C8;}
	.st7{fill:#CE0E2D;}
	.st8{fill:#FF4713;}
	.st9{fill:#1E417C;}
	.st10{fill:#FFD100;}
	.st11{fill:#231F20;}
</style>
<g>
	<g>
		<path class="st0" d="M2.2,67.3h75.5l2.3-7.4H4.5L2.2,67.3z M6.7,53.5h36.7l2.3-7.4H9L6.7,53.5z M23.8,33.4c-0.8,0-1.2-0.7-1-1.4
			l1.5-4.9c0.2-0.7,1-1.4,1.8-1.4h28.7c0.8,0,1.2,0.7,1,1.4L54.3,32c-0.2,0.7-1,1.4-1.8,1.4H23.8z M28.6,18.6c-0.8,0-1.2-0.7-1-1.4
			l1.6-4.9c0.2-0.6,1-1.4,1.8-1.4h28.9c0.8,0,1.2,0.7,1,1.4l-1.6,4.9c-0.2,0.6-1,1.4-1.8,1.4H28.6z M57,38.8c0,0.8,0.6,1.3,1.7,1.3
			l31,0c0.6,0,0.8,0.3,0.6,0.7l-1.6,4.9c-0.1,0.6-0.4,0.9-1.1,1l-38.2,0l-2.3,7l43.1,0c0.7,0,1.3-0.3,1.7-0.7
			c0.2,0.4,0.8,0.6,1.6,0.7l32.1,0c0.6,0,0.8,0.3,0.6,0.7l-1.6,4.9c-0.1,0.5-0.5,0.9-1.2,1l-40.3,0l-2.5,7l48.1,0
			c1.3,0,2.1-0.8,2.5-1.9l4.8-14.4c1-3.2-1.4-4.2-3.7-4.4l-33.3,0c-0.6,0-0.9-0.3-0.8-0.7l1.5-4.8c0.1-0.5,0.5-0.7,0.9-0.7l38.7,0
			l2.6-7.4h-40.6c-2.4,0.1-3.3,0.9-3.8,1.9c-0.4-1.3-1.6-1.7-3.1-1.8l-31.2,0c-0.6,0-0.9-0.3-0.8-0.7l1.4-4.8
			c0.1-0.4,0.5-0.6,0.9-0.6l38.7,0l2.6-7.8H66.7l2.6-7.8c1.2-3.7-0.8-7.1-4.7-7.1H23.2L11.5,40.1h41C54,40.1,55.6,39.6,57,38.8"/>
	</g>
	<path class="st0" d="M136.5,64.4c0.4,0,0.7,0,0.7-0.5c0-0.3-0.3-0.4-0.6-0.4H136v0.9H136.5z M136,66h-0.4v-2.8h1.1
		c0.7,0,1,0.2,1,0.8c0,0.5-0.3,0.7-0.7,0.8l0.8,1.2h-0.5l-0.7-1.2H136V66z M136.5,66.6c1.1,0,2-0.9,2-2c0-1.2-0.9-2-2-2
		c-1.1,0-2,0.9-2,2C134.5,65.8,135.4,66.6,136.5,66.6 M134,64.6c0-1.4,1.1-2.4,2.5-2.4c1.3,0,2.4,1,2.4,2.4c0,1.4-1.1,2.4-2.4,2.4
		C135.1,67,134,66,134,64.6"/>
</g>
</svg>
