<?xml version="1.0" encoding="utf-8"?>
<!-- Generator: Adobe Illustrator 26.0.2, SVG Export Plug-In . SVG Version: 6.00 Build 0)  -->
<svg version="1.1" id="Layer_1" xmlns="http://www.w3.org/2000/svg" xmlns:xlink="http://www.w3.org/1999/xlink" x="0px" y="0px"
	 viewBox="0 0 144 72" style="enable-background:new 0 0 144 72;" xml:space="preserve">
<style type="text/css">
	.st0{fill:#FFFFFF;}
	.st1{fill:#00629B;}
	.st2{fill:#00A9E0;}
	.st3{fill:#020000;}
	.st4{fill:#003B71;}
	.st5{fill:#07B14C;}
	.st6{fill:#0077C8;}
	.st7{fill:#CE0E2D;}
	.st8{fill:#FF4713;}
	.st9{fill:#1E417C;}
	.st10{fill:#FFD100;}
	.st11{fill:#231F20;}
	.st12{clip-path:url(#SVGID_00000031902267988720489720000009219384065217803147_);fill:#EF4625;}
	.st13{fill:#EF4625;}
	.st14{clip-path:url(#SVGID_00000156586719481019239480000015177517965815708807_);fill:#FFFFFF;}
	.st15{clip-path:url(#SVGID_00000086680326163242720910000018413562443427130254_);fill:#FFFFFF;}
	.st16{clip-path:url(#SVGID_00000014617024424495316890000009910246045618561429_);fill:#FFFFFF;}
	.st17{fill:#011E41;}
</style>
<g>
	<g>
		<path class="st0" d="M72.3,13.2c14.3,0,26.5,5,31.8,12.1V1.6H40.5v23.6C45.8,18.2,58,13.2,72.3,13.2z"/>
		<g>
			<g>
				<path class="st0" d="M41.8,56.8v-0.3c0.6,0,1-0.2,1.3-0.4c0.3-0.2,0.8-0.9,1.4-1.9l4.6-6.9h0.5l5.4,8c0.4,0.5,0.7,0.9,0.9,1
					c0.2,0.1,0.6,0.2,1.1,0.3v0.3h-5.6v-0.3c0.6,0,1.1-0.1,1.2-0.1c0.2-0.1,0.3-0.2,0.3-0.4c0-0.1,0-0.2-0.1-0.4
					c-0.1-0.2-0.2-0.4-0.3-0.6l-0.9-1.4h-5.7c-0.6,0.9-0.9,1.5-1,1.7c-0.1,0.2-0.2,0.4-0.2,0.5c0,0.2,0.1,0.4,0.4,0.5
					c0.2,0.1,0.5,0.1,1.1,0.1v0.3H41.8z M51.2,53.1l-2.5-3.9l-2.5,3.9H51.2z"/>
				<path class="st0" d="M59.2,56.5c0.6,0,1-0.1,1.3-0.3c0.3-0.2,0.9-0.6,1.8-1.3l3.4-2.7L63.3,50c-1-1-1.8-1.6-2.2-1.8
					c-0.4-0.2-1-0.4-1.7-0.4v-0.3H66v0.3c-0.6,0-1,0-1.2,0.1c-0.3,0.1-0.4,0.2-0.4,0.4c0,0.1,0.1,0.3,0.2,0.5
					c0.1,0.1,0.2,0.2,0.3,0.3l2.3,2.1l2.4-1.9c0.4-0.3,0.6-0.5,0.7-0.7c0.1-0.1,0.1-0.2,0.1-0.3c0-0.2-0.2-0.3-0.5-0.4
					c-0.2,0-0.5-0.1-1-0.1v-0.3h5.2v0.3c-0.6,0-1,0.1-1.4,0.2c-0.5,0.2-1.1,0.6-1.9,1.2l-3.1,2.5l4.1,3.9c0.4,0.4,0.8,0.7,1.1,0.8
					c0.3,0.1,0.7,0.2,1.3,0.3v0.3h-6.4v-0.3c0.6,0,1,0,1.3-0.1c0.2-0.1,0.4-0.2,0.4-0.3c0-0.1-0.2-0.4-0.5-0.7
					c-0.3-0.3-1.2-1.2-2.7-2.6l-2.6,2.1c-0.4,0.3-0.6,0.5-0.8,0.7c-0.2,0.2-0.3,0.4-0.3,0.5c0,0.2,0.2,0.3,0.5,0.4
					c0.2,0.1,0.6,0.1,1.1,0.1v0.3h-5V56.5z"/>
				<path class="st0" d="M82.2,47.5v0.3c-0.5,0-0.9,0-1.2,0.1c-0.3,0.1-0.4,0.2-0.4,0.4c0,0.1,0,0.1,0.1,0.2c0,0.1,0.1,0.2,0.3,0.4
					l3.2,3.1l3.2-3.1c0.1-0.1,0.2-0.2,0.2-0.3c0-0.1,0.1-0.2,0.1-0.2c0-0.2-0.2-0.3-0.5-0.4c-0.2,0-0.5-0.1-1-0.1v-0.3h4.7v0.3
					c-0.4,0-0.8,0.1-1.2,0.3c-0.5,0.2-1.1,0.7-1.8,1.4l-3.2,3.2v2.7c0,0.5,0.1,0.9,0.4,1c0.3,0.1,0.9,0.2,1.8,0.3v0.3h-6.7v-0.3
					c1,0,1.6-0.1,1.8-0.3c0.2-0.2,0.4-0.5,0.4-1.1v-2.4L79.6,50c-1-0.9-1.7-1.5-2.1-1.8c-0.4-0.3-0.9-0.4-1.4-0.4v-0.3H82.2z"/>
				<path class="st0" d="M93.2,54c0.4,0.6,0.8,1.1,1.3,1.5c0.9,0.6,1.9,1,3.2,1c0.7,0,1.3-0.1,1.8-0.4c0.5-0.3,0.8-0.7,0.8-1.2
					c0-0.5-0.3-0.9-0.8-1.2c-0.3-0.2-1-0.5-2.1-1l-1.9-0.7c-0.6-0.2-1-0.5-1.3-0.7c-0.6-0.4-0.9-0.9-0.9-1.5c0-0.7,0.4-1.3,1.1-1.8
					c0.7-0.5,1.7-0.7,2.9-0.7c0.5,0,1.1,0.1,1.8,0.2c0.7,0.1,1.1,0.2,1.2,0.2c0.3,0,0.5,0,0.6-0.1c0.1-0.1,0.2-0.2,0.2-0.3h0.4
					l0.5,3h-0.5c-0.4-0.9-0.9-1.5-1.7-1.9c-0.8-0.4-1.6-0.5-2.3-0.5c-0.6,0-1.1,0.1-1.6,0.3c-0.4,0.2-0.7,0.5-0.7,0.9
					c0,0.4,0.2,0.7,0.5,0.9c0.3,0.3,0.9,0.5,1.6,0.8l1.9,0.8c1.2,0.5,2.1,0.9,2.5,1.3c0.5,0.4,0.7,0.9,0.7,1.4
					c0,0.7-0.4,1.3-1.3,1.8c-0.9,0.5-2,0.7-3.3,0.7c-0.7,0-1.4-0.1-2.1-0.2c-0.7-0.2-1.2-0.2-1.3-0.2c-0.3,0-0.4,0.1-0.5,0.2
					c-0.1,0.1-0.1,0.2-0.2,0.3h-0.5l-0.7-3H93.2z"/>
			</g>
			<g>
				<path class="st0" d="M89.2,34.5c0-3.9-7.2-7.1-16.2-7.2v0c0-2.2,3.7-1.9,3.7-1.9v-0.4h-8.3v0.4c0,0,3.7-0.3,3.7,1.9v0
					c-9,0.1-16.2,3.3-16.2,7.2c0,3.9,7.2,7.1,16.2,7.2v0.1c0,2.2-3.7,1.9-3.7,1.9v0.4h8.3v-0.4c0,0-3.7,0.3-3.7-1.9v-0.1
					C82,41.6,89.2,38.4,89.2,34.5z M88.7,34.5c0,3.3-7,6.1-15.8,6.2V28.3C81.7,28.4,88.7,31.1,88.7,34.5z M56.1,34.5
					c0-3.4,7.1-6.1,15.9-6.2v12.4C63.2,40.5,56.1,37.8,56.1,34.5z"/>
			</g>
		</g>
		<path class="st0" d="M40.5,71V60.1h63.6V71H40.5z M51.6,64.5v-1.2h-6.1v1.2h2.2v3.6h1.6v-3.6H51.6z M61.1,66.4v-3.1h-1.6v2.4V66
			c0,0.7-0.1,0.9-1,0.9c-0.4,0-0.7,0-1.1,0c-0.2,0-0.4,0-0.6,0c-0.7,0-0.8-0.3-0.8-0.9c0-0.3,0-0.6,0-0.9c0-0.6,0-1.2,0-1.8h-1.6
			c0,0.7,0,1.3,0,2c0,1.2-0.1,2.7,1.7,2.7h2.9C60.4,68.1,61.1,67.7,61.1,66.4z M71.3,68.1v-4.8h-1.6v3.4l-3-3.4h-2.5v4.8h1.6v-3.4
			l3,3.4H71.3z M81.6,68.1v-4.8H80v3.4l-3-3.4h-2.5v4.8H76v-3.4l3,3.4H81.6z M90.5,68.1v-1.2h-4.2v-0.7h3.9v-1h-3.9v-0.8h4.1v-1.2
			h-5.7v4.8H90.5z M98.9,68.1v-1.2h-3.6v-3.6h-1.6v4.8H98.9z"/>
	</g>
	<g>
		<path class="st0" d="M103,48.4c0,0.7,0.6,1.2,1.2,1.2s1.2-0.6,1.2-1.2c0-0.7-0.6-1.2-1.2-1.2S103,47.7,103,48.4 M103.2,48.4
			c0-0.6,0.4-1,1-1c0.6,0,1,0.4,1,1c0,0.6-0.4,1-1,1C103.7,49.4,103.2,48.9,103.2,48.4 M103.7,49h0.2v-0.6h0.2l0.4,0.6h0.3l-0.4-0.6
			c0.2,0,0.4-0.1,0.4-0.4c0-0.3-0.2-0.4-0.5-0.4h-0.5V49z M104,48.3v-0.4h0.3c0.1,0,0.3,0,0.3,0.2c0,0.2-0.1,0.2-0.3,0.2H104z"/>
	</g>
</g>
</svg>
